<svg opacity="0.65" width="24" height="25" viewBox="0 0 24 25" fill="none" xmlns="http://www.w3.org/2000/svg">
<path d="M8.68952 17.9781C8.68952 18.0587 8.59677 18.1233 8.47984 18.1233C8.34677 18.1354 8.25403 18.0708 8.25403 17.9781C8.25403 17.8975 8.34677 17.8329 8.46371 17.8329C8.58468 17.8208 8.68952 17.8854 8.68952 17.9781ZM7.43548 17.7967C7.40726 17.8773 7.4879 17.97 7.60887 17.9942C7.71371 18.0346 7.83468 17.9942 7.85887 17.9136C7.88306 17.8329 7.80645 17.7402 7.68548 17.7039C7.58065 17.6757 7.46371 17.716 7.43548 17.7967ZM9.21774 17.7281C9.10081 17.7563 9.02016 17.8329 9.03226 17.9257C9.04435 18.0063 9.14919 18.0587 9.27016 18.0305C9.3871 18.0023 9.46774 17.9257 9.45564 17.845C9.44355 17.7684 9.33468 17.716 9.21774 17.7281ZM11.871 2.27649C6.27823 2.27649 2 6.52246 2 12.1152C2 16.587 4.81452 20.4136 8.83468 21.7604C9.35081 21.8531 9.53226 21.5346 9.53226 21.2725C9.53226 21.0225 9.52016 19.6434 9.52016 18.7967C9.52016 18.7967 6.69758 19.4015 6.10484 17.595C6.10484 17.595 5.64516 16.4217 4.98387 16.1192C4.98387 16.1192 4.06048 15.4862 5.04839 15.4983C5.04839 15.4983 6.05242 15.5789 6.60484 16.5386C7.4879 18.095 8.96774 17.6475 9.54435 17.3813C9.6371 16.7362 9.89919 16.2886 10.1895 16.0225C7.93548 15.7725 5.66129 15.4458 5.66129 11.5668C5.66129 10.4579 5.96774 9.90149 6.6129 9.19181C6.50806 8.92972 6.16532 7.84907 6.71774 6.45391C7.56048 6.19181 9.5 7.54262 9.5 7.54262C10.3065 7.31681 11.1734 7.19988 12.0323 7.19988C12.8911 7.19988 13.7581 7.31681 14.5645 7.54262C14.5645 7.54262 16.504 6.18778 17.3468 6.45391C17.8992 7.8531 17.5565 8.92972 17.4516 9.19181C18.0968 9.90552 18.4919 10.462 18.4919 11.5668C18.4919 15.4579 16.1169 15.7684 13.8629 16.0225C14.2339 16.341 14.5484 16.9458 14.5484 17.8934C14.5484 19.2523 14.5363 20.9337 14.5363 21.2644C14.5363 21.5265 14.7218 21.845 15.2339 21.7523C19.2661 20.4136 22 16.587 22 12.1152C22 6.52246 17.4637 2.27649 11.871 2.27649ZM5.91935 16.1837C5.86694 16.2241 5.87903 16.3168 5.94758 16.3934C6.0121 16.4579 6.10484 16.4862 6.15726 16.4337C6.20968 16.3934 6.19758 16.3007 6.12903 16.2241C6.06452 16.1596 5.97177 16.1313 5.91935 16.1837ZM5.48387 15.8571C5.45565 15.9096 5.49597 15.9741 5.57661 16.0144C5.64113 16.0547 5.72177 16.0426 5.75 15.9862C5.77823 15.9337 5.7379 15.8692 5.65726 15.8289C5.57661 15.8047 5.5121 15.8168 5.48387 15.8571ZM6.79032 17.2926C6.72581 17.345 6.75 17.466 6.84274 17.5426C6.93548 17.6354 7.05242 17.6475 7.10484 17.5829C7.15726 17.5305 7.13306 17.4096 7.05242 17.3329C6.96371 17.2402 6.84274 17.2281 6.79032 17.2926ZM6.33065 16.6999C6.26613 16.7402 6.26613 16.845 6.33065 16.9378C6.39516 17.0305 6.50403 17.0708 6.55645 17.0305C6.62097 16.9781 6.62097 16.8733 6.55645 16.7805C6.5 16.6878 6.39516 16.6475 6.33065 16.6999Z" fill="#FFFFFF"/>
</svg>
