<svg width="64" height="64" viewBox="0 0 64 64" fill="none" xmlns="http://www.w3.org/2000/svg">
    <rect width="64" height="64" fill="url(#paint0_linear)"/>
    <path d="M38.3278 18.5L29.3806 26.5654C28.4542 27.4019 27.2487 27.8644 25.9973 27.8701L23.3304 27.8758L23.3218 18.5H18.5V45.2942H21.1295C22.5996 45.2942 23.9719 44.5206 24.6912 43.25C24.6969 43.2416 24.6998 43.2329 24.7056 43.2271C25.1831 42.3763 25.4219 40.6948 25.3759 39.5471C25.2723 36.9234 24.8465 36.2409 24.8465 36.2409C24.7573 38.0395 22.8643 38.1367 22.8643 38.1367C24.2107 36.8606 23.4771 35.8955 23.4771 35.8955C21.0921 37.5801 20.4966 35.7812 20.4506 35.6186C20.5254 35.6814 21.2043 36.2438 22.4932 34.4909C23.8569 32.6379 25.6751 29.5489 26.8316 28.7552C27.991 27.9586 29.09 28.0243 29.09 28.0243C29.09 28.0243 29.7229 27.1735 31.3973 26.4655C33.0715 25.7631 34.1446 26.7938 34.1446 26.7938C32.4331 28.1642 30.1084 30.4139 29.9789 33.6372C29.8754 36.2467 35.5428 40.7234 34.5475 47.3356C35.1431 45.8338 35.3819 44.3291 35.1775 42.4677C35.0137 40.9659 34.0382 37.8283 34.0382 37.8283L39.4814 45.2913H45.5L33.7362 29.2548L45.5 18.5H38.3278Z" fill="white"/>
    <defs>
        <linearGradient id="paint0_linear" x1="97.6458" y1="83.5969" x2="44.3991" y2="-30.7857" gradientUnits="userSpaceOnUse">
            <stop stop-color="#E40C5B"/>
            <stop offset="1" stop-color="#FF4C3B"/>
        </linearGradient>
    </defs>
</svg>
