<svg width="64" height="64" viewBox="0 0 64 64" fill="none" xmlns="http://www.w3.org/2000/svg">
<rect width="64" height="64" fill="#38157B"/>
<path d="M43.2883 27.8235V31.9076H44.0385V34.2172H43.2883V36.1043H45.6543V34.5829L46.029 34.2172H46.7792L47.8859 33.1369L48.7987 34.2172H48.0485L49.6429 36.1043H52.7099L51.1154 34.2172H51.8656L49.9142 31.9076H49.164L48.8164 31.4962L52.5788 27.8235H49.2327L45.6543 31.3166V27.8235H43.2883Z" fill="#EB3089"/>
<path fill-rule="evenodd" clip-rule="evenodd" d="M38.7871 27.8517C41.521 27.8517 42.9322 30.1932 41.9653 31.9076H41.215C40.9369 32.4006 40.4621 32.8418 39.7654 33.1605C40.1728 33.3342 40.5421 33.7506 40.8496 34.2172H41.5998C42.1657 35.0757 42.5224 36.1043 42.5224 36.1043H39.4793L38.8624 34.8547C38.67 34.4649 38.2659 34.2172 37.8227 34.2172H35.844V36.1043H33.478V34.2172H32.7278V31.9076H33.478V27.8517H38.7871ZM35.844 31.9076H38.614C39.108 31.9076 39.5084 31.5166 39.5084 31.0344C39.5084 30.5522 39.108 30.1613 38.614 30.1613H35.844V31.9076Z" fill="#EB3089"/>
<path fill-rule="evenodd" clip-rule="evenodd" d="M32.093 27.8517V31.9076H31.3428V34.2172H32.093V36.1043H29.727V34.2172H28.9767V31.9076H28.5676L27.4812 34.2172H28.2314L27.3437 36.1043H26.2125L25.3446 34.2172H24.5944L23.5321 31.9076H23.1482V34.2172H23.8984V36.1043H21.5324V34.2172H20.7822V31.9076H21.5324V27.8517H25.0103L26.7959 31.7339L28.6222 27.8517H32.093ZM23.8984 31.9076H24.2823L23.8984 31.0731V31.9076ZM29.3178 31.9076H29.727V31.0378L29.3178 31.9076Z" fill="#EB3089"/>
<path fill-rule="evenodd" clip-rule="evenodd" d="M16.8581 27.8517C19.592 27.8517 21.0032 30.1932 20.0362 31.9076H19.286C19.0079 32.4006 18.5331 32.8418 17.8364 33.1605C18.2437 33.3342 18.613 33.7506 18.9206 34.2172H19.6708C20.2366 35.0757 20.5934 36.1043 20.5934 36.1043H17.5503L16.9334 34.8547C16.7409 34.4649 16.3369 34.2172 15.8936 34.2172H13.915V36.1043H11.5489V34.2172H10.7987V31.9076H11.5489V27.8517H16.8581ZM13.915 31.9076L16.6865 31.9076C17.1798 31.9068 17.5794 31.5161 17.5794 31.0344C17.5794 30.5522 17.179 30.1613 16.685 30.1613H13.915V31.9076Z" fill="#EB3089"/>
<path fill-rule="evenodd" clip-rule="evenodd" d="M8.40436 24C7.76694 24 7.2502 24.5044 7.2502 25.1266V31.9076H6.5V34.2172H7.2502V38.8734C7.2502 39.4956 7.76693 40 8.40436 40H55.3458C55.9833 40 56.5 39.4956 56.5 38.8734V34.2172H55.7498V31.9076H56.5V25.1266C56.5 24.5044 55.9833 24 55.3458 24H8.40436ZM8.34665 34.2172V31.9076H9.09686V25.8026H54.6533V31.9076H53.9031V34.2172H54.6533V38.1974H9.09686V34.2172H8.34665Z" fill="#EB3089"/>
</svg>
