<svg width="24" height="24" viewBox="0 0 24 24" fill="none" xmlns="http://www.w3.org/2000/svg">
<path fill-rule="evenodd" clip-rule="evenodd" d="M12 20C16.4183 20 20 16.4183 20 12C20 7.58172 16.4183 4 12 4C7.58172 4 4 7.58172 4 12C4 16.4183 7.58172 20 12 20ZM12 23C18.0751 23 23 18.0751 23 12C23 5.92487 18.0751 1 12 1C5.92487 1 1 5.92487 1 12C1 18.0751 5.92487 23 12 23Z" fill="#C3E8F0"/>
<path d="M8.88889 10.8056L12 20.1389L15.1111 10.8056H8.88889Z" fill="#A1DCE9"/>
<path d="M10.6667 6.36111L8.88889 10.8056H15.1111L13.3333 6.36111H10.6667Z" fill="#A1DCE9"/>
<path d="M6.66667 6.36111L4 10.8056H8.88889L10.6667 6.36111H6.66667Z" fill="#A1DCE9"/>
<path d="M4 10.8056L12 20.1389L8.88889 10.8056H4Z" fill="#A1DCE9"/>
<path d="M12 20.1389L20 10.8056H15.1111L12 20.1389Z" fill="#A1DCE9"/>
<path d="M20 10.8056L17.3333 6.36111H13.3333L15.1111 10.8056H20Z" fill="#A1DCE9"/>
<path d="M8.88889 10.8056L12 20.1389L15.1111 10.8056H8.88889Z" fill="#A1DCE9"/>
<path d="M10.6667 6.36111L8.88889 10.8056H15.1111L13.3333 6.36111H10.6667Z" fill="#C3E8F0"/>
<path d="M6.66667 6.36111L4 10.8056H8.88889L10.6667 6.36111H6.66667Z" fill="#57C7DD"/>
<path d="M4 10.8056L12 20.1389L8.88889 10.8056H4Z" fill="#57C7DD"/>
<path d="M12 20.1389L20 10.8056H15.1111L12 20.1389Z" fill="#57C7DD"/>
<path d="M20 10.8056L17.3333 6.36111H13.3333L15.1111 10.8056H20Z" fill="#57C7DD"/>
<path d="M8.88889 10.8056L12 20.1389L15.1111 10.8056H8.88889Z" fill="#A1DCE9"/>
<path d="M10.6667 6.36111L8.88889 10.8056H15.1111L13.3333 6.36111H10.6667Z" fill="#C3E8F0"/>
<path d="M6.66667 6.36111L4 10.8056H8.88889L10.6667 6.36111H6.66667Z" fill="#57C7DD"/>
<path d="M4 10.8056L12 20.1389L8.88889 10.8056H4Z" fill="#57C7DD"/>
<path d="M12 20.1389L20 10.8056H15.1111L12 20.1389Z" fill="#57C7DD"/>
<path d="M20 10.8056L17.3333 6.36111H13.3333L15.1111 10.8056H20Z" fill="#57C7DD"/>
<path fill-rule="evenodd" clip-rule="evenodd" d="M6.32713 5.76111H17.6732L20.7372 10.8677L12.0002 21.0608L3.26318 10.8677L6.32713 5.76111ZM7.00656 6.96111L4.73717 10.7434L12.0002 19.2169L19.2632 10.7434L16.9938 6.96111H7.00656Z" fill="black"/>
</svg>
