<svg width="24" height="24" viewBox="0 0 24 24" fill="none" xmlns="http://www.w3.org/2000/svg">
<g clip-path="url(#clip0_9584_44317)">
<path d="M2.00146 22.2113C5.77726 23.0279 9.35025 20.6116 9.98198 16.8143L12.4816 1.7887C8.70583 0.972088 5.13284 3.38845 4.50112 7.18578L2.00146 22.2113Z" fill="url(#paint0_linear_9584_44317)"/>
<path d="M12.3953 17.5235C16.161 18.4545 19.7235 16.1209 20.3523 12.3111L21.9967 2.34789C18.231 1.41691 14.6686 3.7506 14.0398 7.56034L12.3953 17.5235Z" fill="url(#paint1_linear_9584_44317)"/>
<path d="M12.4772 1.80877L14.2838 7.52727L19.3228 9.65556L14.2838 11.7838L12.4192 17.5355L10.5546 11.7838L5.51562 9.65556L10.5546 7.52727L12.4772 1.80877Z" fill="#421EA9"/>
</g>
<defs>
<linearGradient id="paint0_linear_9584_44317" x1="2.22258" y1="2.7035" x2="17.988" y2="15.3606" gradientUnits="userSpaceOnUse">
<stop stop-color="#FFF9BE"/>
<stop offset="0.307292" stop-color="#FA6F91"/>
<stop offset="1" stop-color="#8B52FF"/>
</linearGradient>
<linearGradient id="paint1_linear_9584_44317" x1="12.7138" y1="2.83579" x2="24.818" y2="14.7418" gradientUnits="userSpaceOnUse">
<stop stop-color="#FFF9BE"/>
<stop offset="0.307292" stop-color="#FA6F91"/>
<stop offset="1" stop-color="#8B52FF"/>
</linearGradient>
<clipPath id="clip0_9584_44317">
<rect width="20" height="21" fill="white" transform="translate(2 1.5)"/>
</clipPath>
</defs>
</svg>
