<svg width="24" height="24" viewBox="0 0 24 24" fill="none" xmlns="http://www.w3.org/2000/svg">
    <path fill-rule="evenodd" clip-rule="evenodd"
          d="M16.0267 3.24247C16.0267 4.5268 14.2238 5.56796 11.9999 5.56796C9.77606 5.56796 7.97324 4.5268 7.97324 3.24247C7.97324 1.95815 9.77606 0.916992 11.9999 0.916992C14.2238 0.916992 16.0267 1.95815 16.0267 3.24247ZM16.0267 20.7582C16.0267 22.0425 14.2238 23.0837 11.9999 23.0837C9.77606 23.0837 7.97324 22.0425 7.97324 20.7582C7.97324 19.4739 9.77606 18.4327 11.9999 18.4327C14.2238 18.4327 16.0267 19.4739 16.0267 20.7582ZM6.38756 8.78423C7.4995 6.87267 7.49246 4.80247 6.37182 4.16031C5.25119 3.51815 3.44133 4.54719 2.32938 6.45875C1.21743 8.3703 1.22448 10.4405 2.34511 11.0827C3.46575 11.7248 5.27561 10.6958 6.38756 8.78423ZM21.6549 12.9181C22.7755 13.5603 22.7826 15.6305 21.6706 17.5421C20.5587 19.4536 18.7488 20.4827 17.6282 19.8405C16.5075 19.1983 16.5005 17.1281 17.6124 15.2166C18.7244 13.305 20.5343 12.276 21.6549 12.9181ZM6.61652 15.6438C7.49232 17.4273 7.40933 19.2458 6.37182 19.8404C5.25118 20.4825 3.44132 19.4535 2.32937 17.5419C1.21743 15.6304 1.22447 13.5602 2.34511 12.918C3.09153 12.4903 4.14375 12.804 5.09182 13.6261L3.4731 14.4128L2.71313 16.2078L5.08897 16.1794C5.59507 15.9928 6.10437 15.814 6.61652 15.6438ZM18.401 9.87414C18.5127 9.66026 18.6587 9.47225 18.8837 9.37242C18.9817 9.32892 19.1017 9.28017 19.2225 9.23312C19.3421 9.18654 19.4565 9.14389 19.5415 9.11275C19.8578 8.99683 20.1758 8.88539 20.4938 8.77396C20.639 8.72308 20.7842 8.6722 20.9292 8.62091L19.8917 7.79243L19.7797 7.7032C19.711 7.64856 19.6169 7.57389 19.5157 7.49392C19.3308 7.34794 19.1094 7.17423 18.9792 7.07707C18.5911 6.74185 18.1106 6.52663 17.6006 6.45265L17.5925 6.45147L17.5843 6.45048C17.3046 6.41626 17.0426 6.45359 16.815 6.51726C16.684 5.44587 16.9554 4.54585 17.6281 4.16038C18.7487 3.51822 20.5586 4.54726 21.6705 6.45882C22.7825 8.37037 22.7754 10.4406 21.6548 11.0827C20.7719 11.5887 19.4612 11.0572 18.401 9.87414Z"
          fill="#E6007A"/>
    <path d="M4.95261 15.2961V15.4436C4.95261 15.4436 10.7048 13.3148 11.823 13.8646L11.1485 14.0507C11.2075 14.0507 12.3007 14.1177 12.3007 14.1177C12.3263 14.3292 12.4017 14.5327 12.5215 14.7136C12.6412 14.8945 12.8023 15.0482 12.9931 15.1637C13.6515 15.571 13.6641 15.7923 13.6641 15.7923C13.6641 15.7923 13.3223 15.923 13.3223 16.089C13.6401 16.0038 13.9687 15.9592 14.2992 15.9566C14.5974 15.9665 14.893 16.011 15.1795 16.089C15.1795 16.089 15.1455 15.9214 14.6857 15.7923C14.2259 15.6632 13.7822 15.2073 13.5585 14.9542C13.4244 14.7924 13.3374 14.6007 13.306 14.398C13.2747 14.1953 13.3 13.9884 13.3796 13.7975C13.5388 13.4154 14.0953 13.2025 15.2242 12.6527C16.5643 12.0039 16.8703 11.5178 17.0581 11.144C17.246 10.7702 17.5287 10.0209 17.6843 9.66891C17.8138 9.33988 18.0364 9.05013 18.3284 8.83078C18.527 8.68829 19.4324 8.36813 19.4324 8.36813C19.4324 8.36813 18.7417 7.81664 18.5163 7.65069C18.2345 7.40067 17.8782 7.23696 17.4947 7.18133C17.0152 7.12266 16.5285 7.42104 16.1993 7.62051C15.8701 7.81999 15.2332 8.40333 14.9755 8.57096C14.7179 8.73858 14.0577 8.90621 13.0075 9.50799C11.9572 10.1098 7.78844 12.6024 7.78844 12.6024L8.86195 12.6124L4.04372 14.9542H4.52501L3.83081 15.457C4.2153 15.5395 4.61887 15.482 4.95978 15.2961H4.95261Z"
          fill="black"/>
</svg>
