<svg width="24" height="24" viewBox="0 0 24 24" fill="none" xmlns="http://www.w3.org/2000/svg">
<path fill-rule="evenodd" clip-rule="evenodd" d="M12 23C18.0751 23 23 18.0751 23 12C23 5.92487 18.0751 1 12 1C5.92487 1 1 5.92487 1 12C1 18.0751 5.92487 23 12 23ZM12 24C18.6274 24 24 18.6274 24 12C24 5.37258 18.6274 0 12 0C5.37258 0 0 5.37258 0 12C0 18.6274 5.37258 24 12 24Z" fill="#F0F3F8"/>
<circle cx="12" cy="12" r="11" fill="#1A0A2D"/>
<path d="M18.2697 17.0414H9.45998C9.41867 17.0414 9.37737 17.0304 9.33981 17.0083L6.15541 15.0873C6.05026 15.0249 6.01271 14.889 6.07655 14.7861C6.11785 14.72 6.19296 14.676 6.27557 14.6796H15.0853C15.1266 14.6796 15.1679 14.6907 15.2054 14.7127L18.3898 16.6337C18.495 16.6961 18.5325 16.832 18.4687 16.9349C18.4274 17.001 18.3523 17.0414 18.2697 17.0414ZM9.52382 16.5969H17.4736L15.0252 15.1167H7.07543L9.52382 16.5969Z" fill="white"/>
<path d="M17.7215 9.32072H8.91182C8.87051 9.32072 8.8292 9.3097 8.79165 9.28766L5.611 7.36668C5.5021 7.30423 5.4683 7.16833 5.53214 7.06549C5.57345 6.9957 5.64855 6.9553 5.73117 6.95897H14.5409C14.5822 6.95897 14.6235 6.96999 14.661 6.99203L17.8454 8.91301C17.9543 8.97545 17.9881 9.11136 17.9243 9.2142C17.8792 9.28399 17.8041 9.32439 17.7215 9.32072ZM8.97566 8.87996H16.9254L14.477 7.39973H6.52727L8.97566 8.87996Z" fill="white"/>
<path d="M12.8632 11.036C12.6041 10.7862 12.2548 10.6467 11.8943 10.6467H11.8793C11.1132 10.6907 10.5274 11.3299 10.5725 12.0791C10.6138 12.7733 11.1846 13.328 11.8943 13.361H11.9093C12.6754 13.3537 13.2913 12.7403 13.2837 11.991C13.2762 11.6347 13.126 11.2894 12.8632 11.036Z" fill="white"/>
</svg>
