<svg width="24" height="24" viewBox="0 0 24 24" fill="none" xmlns="http://www.w3.org/2000/svg">
    <path d="M24 12.5584L22.3903 11.0727L20.2923 13.3738C20.1663 13.5111 20.0108 13.6177 19.8376 13.6855C19.6645 13.7532 19.4783 13.7803 19.2932 13.7648L17.5725 13.5972C17.4492 13.584 17.3246 13.6005 17.2088 13.6451C17.0931 13.6898 16.9894 13.7614 16.9065 13.8541L10.3792 21.0254L11.9888 22.4998L19.4597 14.3009C19.5556 14.1941 19.6787 14.1158 19.8157 14.0744C19.9527 14.0331 20.0983 14.0303 20.2368 14.0664L21.7465 14.435C21.8851 14.4675 22.0297 14.4629 22.166 14.4217C22.3024 14.3806 22.4256 14.3043 22.5235 14.2004L24 12.5584Z"
          fill="url(#paint0_linear_11665_48046)"/>
    <path d="M20.5478 9.36364L18.9382 7.87801L15.2083 11.9775C15.0823 12.1148 14.9268 12.2214 14.7537 12.2892C14.5805 12.3569 14.3943 12.384 14.2092 12.3684L12.4886 12.2009C12.3653 12.1877 12.2406 12.2041 12.1248 12.2488C12.0091 12.2934 11.9055 12.3651 11.8225 12.4578L6.927 17.8306L8.53663 19.3163L14.3646 12.9158C14.4605 12.8089 14.5836 12.7306 14.7206 12.6892C14.8576 12.6479 15.0032 12.6451 15.1417 12.6812L16.6514 13.0498C16.79 13.0823 16.9346 13.0777 17.071 13.0366C17.2073 12.9954 17.3305 12.9191 17.4285 12.8152L20.5478 9.36364Z"
          fill="url(#paint1_linear_11665_48046)"/>
    <path d="M17.0844 6.18032L15.4748 4.69469L10.102 10.5814C9.97596 10.7187 9.82047 10.8253 9.64734 10.8931C9.47421 10.9608 9.288 10.9879 9.10289 10.9723L7.38224 10.8048C7.25895 10.7916 7.13431 10.808 7.01853 10.8527C6.90276 10.8974 6.79915 10.969 6.71619 11.0617L3.46362 14.6362L5.07325 16.1218L9.2583 11.5197C9.35415 11.4129 9.47727 11.3345 9.61426 11.2932C9.75126 11.2518 9.8969 11.249 10.0354 11.2851L11.5451 11.6537C11.6837 11.6862 11.8283 11.6816 11.9646 11.6405C12.101 11.5994 12.2242 11.523 12.3221 11.4191L17.0844 6.18032Z"
          fill="url(#paint2_linear_11665_48046)"/>
    <path d="M13.6319 2.98559L12.0223 1.49995L5.00651 9.19622C4.8805 9.33356 4.72501 9.44016 4.55188 9.50791C4.37875 9.57566 4.19254 9.60277 4.00743 9.58717L2.28679 9.41962C2.16349 9.40646 2.03885 9.42288 1.92308 9.46754C1.8073 9.51219 1.70369 9.58382 1.62073 9.67653L0 11.4414L1.60963 12.9271L4.16284 10.1233C4.2587 10.0165 4.38181 9.93818 4.51881 9.89683C4.6558 9.85547 4.80144 9.85268 4.9399 9.88877L6.44963 10.2574C6.58823 10.2899 6.73287 10.2853 6.86919 10.2442C7.0055 10.203 7.12875 10.1267 7.22669 10.0228L13.6319 2.98559Z"
          fill="url(#paint3_linear_11665_48046)"/>
    <defs>
        <linearGradient id="paint0_linear_11665_48046" x1="22.3992" y1="11.0817" x2="11.9172" y2="22.4438"
                        gradientUnits="userSpaceOnUse">
            <stop offset="0.21" stop-color="#02C86A"/>
            <stop offset="0.34" stop-color="#14EA85"/>
        </linearGradient>
        <linearGradient id="paint1_linear_11665_48046" x1="18.9504" y1="7.88918" x2="8.46731" y2="19.2524"
                        gradientUnits="userSpaceOnUse">
            <stop offset="0.32" stop-color="#02C86A"/>
            <stop offset="0.51" stop-color="#11ED85"/>
        </linearGradient>
        <linearGradient id="paint2_linear_11665_48046" x1="15.4792" y1="4.69915" x2="5.00175" y2="16.0557"
                        gradientUnits="userSpaceOnUse">
            <stop offset="0.5" stop-color="#1FD17D"/>
            <stop offset="0.64" stop-color="#2CE28C"/>
        </linearGradient>
        <linearGradient id="paint3_linear_11665_48046" x1="12.0234" y1="1.50107" x2="1.54142" y2="12.8643"
                        gradientUnits="userSpaceOnUse">
            <stop offset="0.65" stop-color="#1BC675"/>
            <stop offset="0.8" stop-color="#0FD879"/>
        </linearGradient>
    </defs>
</svg>
