<svg width="24" height="24" viewBox="0 0 24 24" fill="none" xmlns="http://www.w3.org/2000/svg">
    <path d="M22.5 12.6302H1.51862C1.56899 13.4804 1.72062 14.3034 1.96161 15.0873L10.9911 15.0872L11.5561 14.3102H22.2634C22.3859 13.765 22.466 13.2038 22.5 12.6302Z"
          fill="black"/>
    <path d="M21.5784 16.3473H2.44022C2.8473 17.2403 3.37592 18.0663 4.00497 18.8043L8.28809 18.8042L8.85311 18.0272H20.6158C20.9859 17.5007 21.3088 16.9387 21.5784 16.3473Z"
          fill="black"/>
    <path d="M18.74 20.0643H5.27857C7.10178 21.585 9.44858 22.5 12.0093 22.5C14.57 22.5 16.9168 21.585 18.74 20.0643Z"
          fill="black"/>
    <path d="M1.51859 11.3702C1.56893 10.52 1.72052 9.69706 1.96148 8.91317H22.0571C22.2239 9.45574 22.3479 10.017 22.4251 10.5931H14.2591L13.694 11.3701L1.51859 11.3702Z"
          fill="black"/>
    <path d="M16.397 7.65307L16.9621 6.87607H21.1845C20.8489 6.27752 20.4563 5.71516 20.0142 5.19633H4.00444C3.37552 5.93426 2.84701 6.76024 2.44003 7.65317L16.397 7.65307Z"
          fill="black"/>
    <path d="M5.27782 3.93633H18.7408C16.9175 2.41529 14.5704 1.5 12.0093 1.5C9.44823 1.5 7.10113 2.41529 5.27782 3.93633Z"
          fill="black"/>
    <path d="M1.5001 11.9543C1.50003 11.9695 1.5 11.9847 1.5 12C1.5 12.0153 1.50003 12.0305 1.5001 12.0457V11.9543Z"
          fill="black"/>
</svg>
