<svg width="24" height="24" viewBox="0 0 24 24" fill="none" xmlns="http://www.w3.org/2000/svg">
    <path fill-rule="evenodd" clip-rule="evenodd"
          d="M8.47311 1.54246C6.8449 2.10486 5.42378 2.99116 4.22326 4.19292C3.35199 5.0651 2.66527 6.02311 2.1241 7.12139C1.51215 8.3633 1.14969 9.67533 1.02864 11.0868C1.00125 11.4059 0.990602 12.2411 1.00962 12.5762C1.16582 15.3266 2.29697 17.8551 4.23639 19.7891C5.97894 21.5267 8.24118 22.6288 10.6739 22.9253C11.0953 22.9767 11.3348 22.9914 11.8591 22.9982C12.5081 23.0067 12.8898 22.9862 13.4565 22.9128C17.417 22.3993 20.8125 19.7416 22.279 16.0071C22.3598 15.8014 22.5 15.4103 22.5 15.3907C22.5 15.3868 22.4269 15.494 22.3375 15.629C20.9496 17.7246 18.8315 19.2307 16.4099 19.8439C14.8132 20.2482 13.1093 20.2532 11.5087 19.8584C9.36284 19.3291 7.45036 18.1042 6.05823 16.3676C4.34298 14.2278 3.58057 11.4976 3.93369 8.7594C4.15522 7.04175 4.82077 5.41268 5.87105 4.01739C6.17605 3.61217 6.39375 3.36122 6.77012 2.98098C7.27732 2.46855 7.77157 2.06102 8.36413 1.66664C8.50263 1.57445 8.61083 1.49947 8.6046 1.5C8.59836 1.50053 8.5392 1.51963 8.47311 1.54246ZM13.4565 1.73437C13.4252 1.73698 13.3256 1.745 13.2352 1.75218C12.3604 1.8217 11.4299 2.05493 10.6056 2.41138C9.42896 2.92012 8.35796 3.72282 7.51929 4.72446C5.90564 6.65168 5.25043 9.22425 5.74263 11.7002C5.76338 11.8046 5.81135 12.0118 5.84926 12.1607C5.88715 12.3096 5.91816 12.4334 5.91816 12.4358C5.91816 12.4382 5.92307 12.4402 5.92907 12.4402C5.93506 12.4402 5.94387 12.4021 5.94863 12.3556C5.98902 11.9613 6.18508 11.246 6.37959 10.7832C7.01847 9.263 8.18129 7.99803 9.64073 7.23557C10.7786 6.64111 12.1396 6.36923 13.2493 6.51471C14.5109 6.6801 15.509 7.39196 16.0029 8.47861C16.1441 8.78921 16.2497 9.17262 16.272 9.45507C16.2806 9.56383 16.293 9.60686 16.3157 9.60686C16.3364 9.60686 16.8733 9.87101 17.1373 10.011C17.8041 10.3647 18.5483 10.8114 18.6366 10.911L18.6613 10.9387L18.5727 10.9305C18.0294 10.8797 17.4755 10.8948 16.9858 10.9736C15.641 11.1901 14.6867 11.831 14.1898 12.8512C14.0033 13.2341 13.8867 13.6234 13.8294 14.0543C13.8059 14.2316 13.8025 14.6203 13.823 14.7865C13.9312 15.6629 14.3795 16.3952 15.1056 16.8818C15.4483 17.1115 15.8368 17.265 16.2771 17.3446C16.4445 17.3749 16.4902 17.3779 16.802 17.3785C17.1673 17.3792 17.2641 17.3696 17.5672 17.3021C17.7518 17.261 18.0731 17.155 18.2692 17.0705C18.8675 16.8127 19.4651 16.3727 20.0096 15.7892C21.3154 14.3898 22.0672 12.7073 22.2493 10.7769C22.2755 10.4989 22.2716 9.5702 22.243 9.29697C22.1292 8.20846 21.8542 7.25135 21.3871 6.31849C20.5896 4.72576 19.2612 3.40066 17.662 2.60275C16.7427 2.14402 15.7789 1.86817 14.7087 1.75747C14.5244 1.73841 13.6103 1.72153 13.4565 1.73437ZM13.9182 7.99218C13.8346 8.01975 13.7841 8.05084 13.712 8.11905C13.5875 8.23676 13.526 8.41508 13.5553 8.57295C13.5774 8.69189 13.6348 8.79665 13.7219 8.87733C13.8279 8.97546 13.9075 9.00477 14.07 9.00542C14.2336 9.00611 14.3112 8.977 14.4221 8.87322C14.505 8.79565 14.5486 8.72343 14.5772 8.61601C14.6389 8.38425 14.5191 8.13388 14.2935 8.02277C14.2207 7.98696 14.1969 7.98183 14.0899 7.97884C14.0146 7.97674 13.9496 7.98178 13.9182 7.99218Z"
          fill="url(#paint0_linear_10327_46293)"/>
    <defs>
        <linearGradient id="paint0_linear_10327_46293" x1="1" y1="1.5" x2="22.5281" y2="23.0273"
                        gradientUnits="userSpaceOnUse">
            <stop stop-color="#00D2D3"/>
            <stop offset="1" stop-color="#C70CBA"/>
        </linearGradient>
    </defs>
</svg>
