<svg width="24" height="24" viewBox="0 0 24 24" fill="none" xmlns="http://www.w3.org/2000/svg">
    <path d="M12 23C18.0752 23 23 18.0752 23 12C23 5.92488 18.0752 1 12 1C5.92488 1 1 5.92488 1 12C1 18.0752 5.92488 23 12 23Z"
          fill="url(#paint0_linear_10411_45464)"/>
    <path fill-rule="evenodd" clip-rule="evenodd"
          d="M7.14954 8C7.65902 8 8.06453 8.42681 8.06453 8.96306C8.06453 9.37893 7.81498 9.72914 7.46147 9.87141V14.8509C8.11651 14.8181 8.71957 14.6977 9.26025 14.4897V10.6703C8.90673 10.539 8.65719 10.1778 8.65719 9.76197C8.65719 9.22572 9.06269 8.79891 9.57217 8.79891C10.0817 8.79891 10.4872 9.22572 10.4872 9.76197C10.4872 10.1778 10.2376 10.528 9.8841 10.6703V14.1943C10.4872 13.855 10.9654 13.3953 11.2878 12.8263C11.0694 12.6183 10.9343 12.3228 10.9343 11.9945C10.9343 11.3707 11.4125 10.8782 11.9948 10.8782C12.0468 10.8782 12.0884 10.8782 12.1404 10.8892C12.9514 9.40082 14.6878 8.50342 16.7673 8.48153H16.8505H20.1881C20.3648 8.48153 20.5 8.6238 20.5 8.80985C20.5 8.98495 20.3752 9.12722 20.2089 9.13817H20.1881H19.585V14.1286C19.9385 14.2599 20.1881 14.6211 20.1881 15.0369C20.1881 15.5732 19.7826 16 19.2731 16C18.7636 16 18.3581 15.5732 18.3581 15.0369C18.3581 14.6211 18.6076 14.2709 18.9612 14.1286V9.12722H17.1624V14.1176C17.5159 14.249 17.7654 14.6101 17.7654 15.026C17.7654 15.5622 17.3599 15.9891 16.8505 15.9891C16.341 15.9891 15.9355 15.5622 15.9355 15.026C15.9355 14.6101 16.185 14.2599 16.5385 14.1176V9.13817C15.8835 9.171 15.2804 9.29138 14.7398 9.49932V13.3187C15.0933 13.4501 15.3428 13.8112 15.3428 14.2271C15.3428 14.7633 14.9373 15.1901 14.4278 15.1901C13.9183 15.1901 13.5128 14.7633 13.5128 14.2271C13.5128 13.8112 13.7624 13.461 14.1159 13.3187V9.7948C13.5128 10.1341 13.0346 10.5937 12.7122 11.1628C12.9306 11.3707 13.0657 11.6662 13.0657 11.9945C13.0657 12.6183 12.5875 13.1108 12.0052 13.1108C11.9532 13.1108 11.9116 13.1108 11.8596 13.0999C11.0486 14.5882 9.31223 15.4856 7.23272 15.5075H7.14954H3.81193C3.63517 15.5075 3.5 15.3653 3.5 15.1792C3.5 15.0041 3.62477 14.8618 3.79113 14.8509H3.81193H4.41498V9.87141C4.06147 9.72914 3.81193 9.37893 3.81193 8.96306C3.81193 8.42681 4.21743 8 4.72691 8C5.23639 8 5.6419 8.42681 5.6419 8.96306C5.6419 9.37893 5.39235 9.72914 5.03884 9.87141V14.8618H6.83761V9.87141C6.4841 9.74008 6.23456 9.37893 6.23456 8.96306C6.23456 8.42681 6.64006 8 7.14954 8Z"
          fill="white"/>
    <defs>
        <linearGradient id="paint0_linear_10411_45464" x1="23" y1="23" x2="1" y2="1" gradientUnits="userSpaceOnUse">
            <stop stop-color="#FF0050"/>
            <stop offset="0.714448" stop-color="#7000FF"/>
            <stop offset="1" stop-color="#0027FF"/>
        </linearGradient>
    </defs>
</svg>
