<svg width="24" height="24" viewBox="0 0 24 24" fill="none" xmlns="http://www.w3.org/2000/svg">
<path d="M5.87319 11.3657H5.27566L5.03816 10.6867H3.95075L3.72622 11.3657H3.14355L4.20312 8.37659H4.78393L5.87319 11.3657ZM4.86186 10.1831L4.48703 9.0739L4.11961 10.1831H4.86186Z" fill="black"/>
<path d="M6.45955 11.3657L5.83606 9.20032H6.34266L6.71194 10.6195L7.0515 9.20032H7.55439L7.88283 10.6195L8.25953 9.20032H8.77354L8.14075 11.3657H7.63974L7.30018 9.97311L6.96615 11.3657H6.45955Z" fill="black"/>
<path d="M10.1912 10.6765L10.7108 10.7724C10.644 10.9817 10.5382 11.1415 10.3935 11.2516C10.25 11.3603 10.07 11.4147 9.85351 11.4147C9.51081 11.4147 9.25722 11.2916 9.09269 11.0456C8.96279 10.8485 8.89786 10.5997 8.89786 10.2994C8.89786 9.94049 8.98321 9.65977 9.15395 9.45726C9.32465 9.25336 9.54053 9.15139 9.80154 9.15139C10.0947 9.15139 10.3261 9.2581 10.4955 9.47151C10.665 9.68359 10.7461 10.0091 10.7386 10.4482H9.4323C9.43601 10.6181 9.47806 10.7506 9.55845 10.8458C9.63888 10.9396 9.73907 10.9865 9.85909 10.9865C9.94073 10.9865 10.0094 10.962 10.065 10.9131C10.1207 10.8641 10.1628 10.7853 10.1912 10.6765ZM10.2209 10.0975C10.2172 9.93164 10.1782 9.80589 10.104 9.72028C10.0298 9.63327 9.93948 9.5898 9.83308 9.5898C9.71927 9.5898 9.62525 9.63533 9.55103 9.7264C9.47681 9.81747 9.4403 9.94116 9.44155 10.0975H10.2209Z" fill="black"/>
<path d="M10.9817 10.7479L11.505 10.6602C11.5273 10.7717 11.5724 10.8567 11.6405 10.9151C11.7085 10.9722 11.8037 11.0007 11.9262 11.0007C12.0611 11.0007 12.1625 10.9736 12.2305 10.9192C12.2763 10.8811 12.2992 10.8302 12.2992 10.7663C12.2992 10.7227 12.2868 10.6867 12.2621 10.6582C12.2361 10.631 12.178 10.6059 12.0877 10.5828C11.6671 10.4808 11.4005 10.3877 11.2879 10.3034C11.132 10.1865 11.0541 10.0241 11.0541 9.81608C11.0541 9.62854 11.1215 9.47084 11.2564 9.34304C11.3912 9.21529 11.6003 9.15139 11.8836 9.15139C12.1532 9.15139 12.3536 9.19965 12.4848 9.29617C12.6159 9.39269 12.7062 9.53541 12.7557 9.72434L12.264 9.82426C12.2429 9.73998 12.2027 9.67541 12.1434 9.63055C12.0852 9.58569 12.0017 9.56325 11.8929 9.56325C11.7555 9.56325 11.6572 9.58434 11.5978 9.62648C11.5582 9.65638 11.5384 9.69512 11.5384 9.74271C11.5384 9.78346 11.5557 9.81814 11.5904 9.84669C11.6374 9.88476 11.7994 9.93843 12.0766 10.0078C12.3549 10.0771 12.5491 10.162 12.6592 10.2626C12.7681 10.3646 12.8225 10.5067 12.8225 10.6888C12.8225 10.8872 12.7471 11.0578 12.5961 11.2006C12.4452 11.3433 12.2219 11.4147 11.9262 11.4147C11.6578 11.4147 11.445 11.3549 11.2879 11.2352C11.132 11.1156 11.03 10.9532 10.9817 10.7479Z" fill="black"/>
<path d="M13.1602 10.2524C13.1602 10.0621 13.2029 9.87797 13.2883 9.6999C13.3736 9.52183 13.4942 9.3859 13.6501 9.2921C13.8072 9.19831 13.9823 9.15139 14.1752 9.15139C14.4734 9.15139 14.7177 9.2581 14.9082 9.47151C15.0988 9.68359 15.194 9.95202 15.194 10.2769C15.194 10.6045 15.0975 10.8764 14.9045 11.0925C14.7128 11.3073 14.4709 11.4147 14.179 11.4147C13.9983 11.4147 13.8258 11.3698 13.6612 11.2801C13.498 11.1904 13.3736 11.0592 13.2883 10.8866C13.2029 10.7126 13.1602 10.5012 13.1602 10.2524ZM13.6947 10.283C13.6947 10.4978 13.741 10.6623 13.8338 10.7765C13.9266 10.8906 14.041 10.9477 14.1771 10.9477C14.3132 10.9477 14.427 10.8906 14.5186 10.7765C14.6113 10.6623 14.6577 10.4965 14.6577 10.2789C14.6577 10.0669 14.6113 9.9038 14.5186 9.78958C14.427 9.67541 14.3132 9.61831 14.1771 9.61831C14.041 9.61831 13.9266 9.67541 13.8338 9.78958C13.741 9.9038 13.6947 10.0682 13.6947 10.283Z" fill="black"/>
<path d="M15.5651 9.20032H16.0457V9.496C16.2177 9.26627 16.4224 9.15139 16.6599 9.15139C16.7861 9.15139 16.8956 9.17994 16.9884 9.23705C17.0812 9.29411 17.1572 9.38044 17.2166 9.496C17.3032 9.38044 17.3966 9.29411 17.4968 9.23705C17.597 9.17994 17.7041 9.15139 17.8179 9.15139C17.9626 9.15139 18.085 9.18401 18.1853 9.24925C18.2855 9.31315 18.3603 9.40761 18.4098 9.53269C18.4457 9.62514 18.4636 9.77466 18.4636 9.98124V11.3657H17.9422V10.1281C17.9422 9.91332 17.9243 9.77466 17.8884 9.7121C17.8401 9.63055 17.7659 9.5898 17.6657 9.5898C17.5927 9.5898 17.5241 9.61424 17.4597 9.66317C17.3954 9.7121 17.349 9.78418 17.3206 9.87931C17.2921 9.97311 17.2778 10.122 17.2778 10.3259V11.3657H16.7565V10.1791C16.7565 9.96837 16.7472 9.83244 16.7286 9.77126C16.71 9.71009 16.681 9.66455 16.6414 9.63461C16.6031 9.60472 16.5505 9.5898 16.4837 9.5898C16.4033 9.5898 16.3309 9.61357 16.2666 9.66116C16.2022 9.7087 16.1558 9.77739 16.1274 9.86707C16.1002 9.9568 16.0865 10.1056 16.0865 10.3136V11.3657H15.5651V9.20032Z" fill="black"/>
<path d="M20.1263 10.6765L20.6458 10.7724C20.579 10.9817 20.4733 11.1415 20.3285 11.2516C20.185 11.3603 20.005 11.4147 19.7885 11.4147C19.4459 11.4147 19.1923 11.2916 19.0277 11.0456C18.8978 10.8485 18.8329 10.5997 18.8329 10.2994C18.8329 9.94049 18.9182 9.65977 19.0889 9.45726C19.2597 9.25336 19.4756 9.15139 19.7366 9.15139C20.0298 9.15139 20.2611 9.2581 20.4306 9.47151C20.6001 9.68359 20.6811 10.0091 20.6737 10.4482H19.3673C19.371 10.6181 19.4131 10.7506 19.4935 10.8458C19.5739 10.9396 19.6741 10.9865 19.7941 10.9865C19.8758 10.9865 19.9444 10.962 20.0001 10.9131C20.0558 10.8641 20.0978 10.7853 20.1263 10.6765ZM20.1559 10.0975C20.1522 9.93164 20.1133 9.80589 20.0391 9.72028C19.9648 9.63327 19.8745 9.5898 19.7681 9.5898C19.6543 9.5898 19.5603 9.63533 19.4861 9.7264C19.4118 9.81747 19.3753 9.94116 19.3766 10.0975H20.1559Z" fill="black"/>
<path d="M7.63045 15.5416V12.5769H8.17972V15.0379H9.54548V15.5416H7.63045Z" fill="black"/>
<path d="M9.81453 14.4283C9.81453 14.238 9.85721 14.0538 9.94256 13.8757C10.028 13.6976 10.1486 13.5617 10.3044 13.4679C10.4615 13.3741 10.6366 13.3272 10.8296 13.3272C11.1277 13.3272 11.372 13.4339 11.5625 13.6474C11.753 13.8594 11.8483 14.1279 11.8483 14.4527C11.8483 14.7803 11.7518 15.0522 11.5588 15.2683C11.3671 15.4831 11.1252 15.5905 10.8333 15.5905C10.6527 15.5905 10.4801 15.5456 10.3155 15.4559C10.1523 15.3662 10.028 15.235 9.94256 15.0624C9.85721 14.8884 9.81453 14.677 9.81453 14.4283ZM10.349 14.4589C10.349 14.6737 10.3954 14.8381 10.4881 14.9523C10.5809 15.0665 10.6953 15.1235 10.8314 15.1235C10.9675 15.1235 11.0813 15.0665 11.1728 14.9523C11.2656 14.8381 11.312 14.6723 11.312 14.4548C11.312 14.2427 11.2656 14.0796 11.1728 13.9654C11.0813 13.8513 10.9675 13.7942 10.8314 13.7942C10.6953 13.7942 10.5809 13.8513 10.4881 13.9654C10.3954 14.0796 10.349 14.2441 10.349 14.4589Z" fill="black"/>
<path d="M12.2102 15.6843L12.8058 15.7638C12.8157 15.8399 12.8386 15.8923 12.8745 15.9208C12.9239 15.9616 13.0019 15.982 13.1083 15.982C13.2444 15.982 13.3464 15.9596 13.4144 15.9147C13.4602 15.8848 13.4949 15.8365 13.5184 15.7699C13.5345 15.7223 13.5425 15.6347 13.5425 15.5069V15.1908C13.3866 15.4246 13.1899 15.5416 12.9524 15.5416C12.6877 15.5416 12.478 15.4186 12.3234 15.1725C12.2021 14.9781 12.1415 14.7362 12.1415 14.4466C12.1415 14.0837 12.2207 13.8064 12.379 13.6147C12.5386 13.423 12.7365 13.3272 12.9728 13.3272C13.2165 13.3272 13.4176 13.4448 13.5759 13.68V13.3762H14.0639V15.3193C14.0639 15.5749 14.0447 15.7659 14.0064 15.8923C13.968 16.0187 13.9142 16.1179 13.8449 16.19C13.7757 16.262 13.6829 16.3184 13.5666 16.3592C13.4516 16.4 13.3056 16.4204 13.1287 16.4204C12.7946 16.4204 12.5578 16.3571 12.418 16.2307C12.2782 16.1057 12.2083 15.9467 12.2083 15.7536C12.2083 15.7346 12.2089 15.7115 12.2102 15.6843ZM12.6759 14.414C12.6759 14.6437 12.7161 14.8123 12.7965 14.9196C12.8782 15.0257 12.9784 15.0787 13.0971 15.0787C13.2246 15.0787 13.3322 15.0243 13.42 14.9156C13.5078 14.8055 13.5518 14.643 13.5518 14.4283C13.5518 14.204 13.5097 14.0375 13.4256 13.9287C13.3415 13.82 13.2351 13.7656 13.1064 13.7656C12.9815 13.7656 12.8782 13.8193 12.7965 13.9267C12.7161 14.0327 12.6759 14.1952 12.6759 14.414Z" fill="black"/>
<path d="M14.461 14.4283C14.461 14.238 14.5037 14.0538 14.5891 13.8757C14.6744 13.6976 14.795 13.5617 14.9509 13.4679C15.108 13.3741 15.283 13.3272 15.476 13.3272C15.7742 13.3272 16.0185 13.4339 16.209 13.6474C16.3996 13.8594 16.4948 14.1279 16.4948 14.4527C16.4948 14.7803 16.3983 15.0522 16.2053 15.2683C16.0136 15.4831 15.7717 15.5905 15.4797 15.5905C15.2991 15.5905 15.1266 15.5456 14.962 15.4559C14.7987 15.3662 14.6744 15.235 14.5891 15.0624C14.5037 14.8884 14.461 14.677 14.461 14.4283ZM14.9954 14.4589C14.9954 14.6737 15.0418 14.8381 15.1346 14.9523C15.2274 15.0665 15.3418 15.1235 15.4779 15.1235C15.614 15.1235 15.7278 15.0665 15.8194 14.9523C15.9121 14.8381 15.9585 14.6723 15.9585 14.4548C15.9585 14.2427 15.9121 14.0796 15.8194 13.9654C15.7278 13.8513 15.614 13.7942 15.4779 13.7942C15.3418 13.7942 15.2274 13.8513 15.1346 13.9654C15.0418 14.0796 14.9954 14.2441 14.9954 14.4589Z" fill="black"/>
<path d="M11.9983 23C9.06051 23 6.30049 21.8579 4.22002 19.7788C2.14304 17.7033 1 14.9383 1 12C1 9.06172 2.14304 6.29669 4.22351 4.22115C6.30049 2.14208 9.06051 1 11.9983 1C14.936 1 17.696 2.14208 19.7765 4.22115C21.8535 6.30023 23 9.06172 23 12C23 14.9383 21.857 17.7033 19.7765 19.7788C17.6995 21.8579 14.936 23 11.9983 23ZM11.9983 1.50209C9.19294 1.50209 6.55489 2.59466 4.56851 4.57827C2.58562 6.56188 1.49485 9.19608 1.49485 12C1.49485 14.8039 2.5891 17.4381 4.57199 19.4217C6.55489 21.4053 9.19294 22.4979 12.0017 22.4979C14.8071 22.4979 17.4451 21.4053 19.4315 19.4217C21.4144 17.4381 22.5051 14.8039 22.5051 12C22.5051 9.19608 21.4144 6.56188 19.4315 4.57827C17.4451 2.59466 14.8071 1.50209 11.9983 1.50209Z" fill="black"/>
</svg>
