<svg width="24" height="24" viewBox="0 0 24 24" fill="none" xmlns="http://www.w3.org/2000/svg">
    <path d="M12 23C18.0752 23 23 18.0752 23 12C23 5.92488 18.0752 1 12 1C5.92488 1 1 5.92488 1 12C1 18.0752 5.92488 23 12 23Z"
          fill="url(#paint0_linear_10383_45621)"/>
    <path d="M18.3711 7.54167C18.7803 7.54167 19.112 7.88212 19.112 8.30209C19.112 8.72206 18.7803 9.06251 18.3711 9.06251L18.3969 9.0618L17.4915 10.4556L17.4816 10.4706C17.2744 10.779 16.9325 10.9636 16.5668 10.9636L15.4696 10.9635C15.5724 11.2049 15.6514 11.4593 15.7038 11.7238L18.0368 11.724L18.0487 11.7238C18.168 11.7198 18.2785 11.657 18.345 11.5547L19.2166 10.2127C19.1502 10.0987 19.112 9.9654 19.112 9.82292C19.112 9.40296 19.4437 9.06251 19.8529 9.06251C20.2621 9.06251 20.5938 9.40296 20.5938 9.82292C20.5938 10.2429 20.2621 10.5833 19.8529 10.5833L19.8666 10.5829L18.9615 11.9765L18.9515 11.9915C18.7443 12.2998 18.4024 12.4844 18.0368 12.4844H15.7779C15.7779 12.7448 15.7524 12.9992 15.7038 13.2449L18.0368 13.2448C18.4024 13.2448 18.7443 13.4294 18.9515 13.7377L18.9615 13.7527L19.8666 15.1462L19.8888 15.1467C20.2813 15.1659 20.5938 15.4987 20.5938 15.9063C20.5938 16.3262 20.2621 16.6667 19.8529 16.6667C19.4437 16.6667 19.112 16.3262 19.112 15.9063C19.112 15.7638 19.1501 15.6305 19.2165 15.5166L18.345 14.1745C18.2785 14.0722 18.168 14.0094 18.0487 14.0054L18.0368 14.0052L15.4697 14.0052C15.3541 14.2767 15.2085 14.5316 15.0373 14.7656L16.555 14.7656C16.9206 14.7656 17.2625 14.9502 17.4697 15.2585L17.4797 15.2736L18.3847 16.6669L18.407 16.6676C18.7995 16.6868 19.112 17.0195 19.112 17.4271C19.112 17.8471 18.7803 18.1875 18.3711 18.1875C17.9619 18.1875 17.6302 17.8471 17.6302 17.4271C17.6302 17.2846 17.6683 17.1513 17.7348 17.0373L16.8632 15.6954C16.7967 15.593 16.6862 15.5302 16.5669 15.5263L16.555 15.5261L14.2963 15.5262C13.6771 16.0036 12.9074 16.2865 12.0734 16.2865C11.2394 16.2865 10.4697 16.0036 9.85059 15.5263L7.61696 15.5261L7.605 15.5263C7.48568 15.5302 7.37521 15.593 7.30872 15.6954L6.43714 17.0373C6.50357 17.1513 6.54175 17.2846 6.54175 17.4271C6.54175 17.8471 6.21003 18.1875 5.80084 18.1875C5.39165 18.1875 5.05994 17.8471 5.05994 17.4271C5.05994 17.0071 5.39165 16.6667 5.80084 16.6667L5.78707 16.6669L6.69225 15.2736L6.70217 15.2585C6.90939 14.9502 7.25127 14.7656 7.61696 14.7656L9.10948 14.7656C8.93821 14.5316 8.79265 14.2767 8.67707 14.0052L6.13515 14.0052L6.12319 14.0054C6.00387 14.0094 5.8934 14.0722 5.82691 14.1745L4.95538 15.5166C5.02178 15.6305 5.05994 15.7638 5.05994 15.9063C5.05994 16.3262 4.72822 16.6667 4.31903 16.6667C3.90984 16.6667 3.57812 16.3262 3.57812 15.9063C3.57812 15.4863 3.90984 15.1459 4.31903 15.1459L4.30516 15.1462L5.21044 13.7527L5.22036 13.7377C5.42758 13.4294 5.76946 13.2448 6.13515 13.2448L8.44296 13.2449C8.39435 12.9992 8.36884 12.7448 8.36884 12.4844H6.13515C5.76946 12.4844 5.42758 12.2998 5.22036 11.9915L5.21044 11.9765L4.30516 10.5829L4.28313 10.5825C3.89061 10.5632 3.57812 10.2305 3.57812 9.82292C3.57812 9.40296 3.90984 9.06251 4.31903 9.06251C4.72822 9.06251 5.05994 9.40296 5.05994 9.82292C5.05994 9.9654 5.02176 10.0987 4.95532 10.2127L5.82691 11.5547C5.8934 11.657 6.00387 11.7198 6.12319 11.7238L6.13515 11.724L8.44298 11.7238C8.49529 11.4593 8.57435 11.2049 8.67713 10.9635L7.60508 10.9636C7.2394 10.9636 6.89752 10.779 6.6903 10.4706L6.68038 10.4556L5.77486 9.0618L5.76494 9.06163C5.37243 9.04241 5.05994 8.7097 5.05994 8.30209C5.05994 7.88212 5.39165 7.54167 5.80084 7.54167C6.21003 7.54167 6.54175 7.88212 6.54175 8.30209C6.54175 8.44853 6.50142 8.5853 6.43153 8.70134L7.29685 10.0338C7.36334 10.1362 7.47381 10.199 7.59312 10.2029L7.60508 10.2031L9.10948 10.2031C9.78534 9.27964 10.8614 8.6823 12.0734 8.6823C13.2854 8.6823 14.3614 9.27964 15.0373 10.2031L16.5668 10.2031L16.5788 10.2029C16.6981 10.199 16.8086 10.1362 16.8751 10.0338L17.7404 8.70134C17.6705 8.5853 17.6302 8.44853 17.6302 8.30209C17.6302 7.88212 17.9619 7.54167 18.3711 7.54167ZM12.0734 9.44272C10.4366 9.44272 9.10975 10.8045 9.10975 12.4844C9.10975 14.1643 10.4366 15.5261 12.0734 15.5261C13.7101 15.5261 15.037 14.1643 15.037 12.4844C15.037 10.8045 13.7101 9.44272 12.0734 9.44272ZM12.0734 10.2031C13.3009 10.2031 14.2961 11.2245 14.2961 12.4844C14.2961 13.7443 13.3009 14.7656 12.0734 14.7656C10.8458 14.7656 9.85065 13.7443 9.85065 12.4844C9.85065 11.2245 10.8458 10.2031 12.0734 10.2031ZM14.6665 5.64062L14.7102 5.64127C15.5084 5.66499 16.1483 6.33653 16.1483 7.16146C16.1483 8.0014 15.4849 8.6823 14.6665 8.6823C13.8482 8.6823 13.1847 8.0014 13.1847 7.16146C13.1847 6.74149 13.3506 6.36128 13.6187 6.08607L14.6665 7.16146V5.64062ZM9.4802 5.64062V7.16146L10.3023 5.89592C10.7 6.16864 10.962 6.63365 10.962 7.16146C10.962 8.0014 10.2986 8.6823 9.4802 8.6823C8.66182 8.6823 7.99839 8.0014 7.99839 7.16146C7.99839 6.32153 8.66182 5.64062 9.4802 5.64062Z"
          fill="white"/>
    <defs>
        <linearGradient id="paint0_linear_10383_45621" x1="23" y1="23" x2="1" y2="1" gradientUnits="userSpaceOnUse">
            <stop stop-color="#FF0050"/>
            <stop offset="0.714448" stop-color="#7000FF"/>
            <stop offset="1" stop-color="#0027FF"/>
        </linearGradient>
    </defs>
</svg>
