<svg width="14" height="17" viewBox="0 0 14 17" fill="none" xmlns="http://www.w3.org/2000/svg">
<path d="M1.16659 -0.333008H12.8333C13.0543 -0.333008 13.2662 -0.24521 13.4225 -0.0889302C13.5788 0.0673501 13.6666 0.279312 13.6666 0.500326V16.4528C13.6667 16.5273 13.6468 16.6005 13.609 16.6647C13.5712 16.7289 13.5169 16.7818 13.4517 16.8179C13.3865 16.854 13.3129 16.8719 13.2384 16.8699C13.1639 16.8678 13.0913 16.8458 13.0283 16.8062L6.99992 13.0253L0.971585 16.8053C0.908558 16.8449 0.836075 16.8669 0.76167 16.869C0.687266 16.8711 0.613657 16.8532 0.548498 16.8173C0.483339 16.7813 0.429008 16.7285 0.391154 16.6644C0.353301 16.6003 0.333307 16.5273 0.333252 16.4528V0.500326C0.333252 0.279312 0.421049 0.0673501 0.57733 -0.0889302C0.73361 -0.24521 0.945572 -0.333008 1.16659 -0.333008Z" fill="url(#paint0_linear_12774_63409)"/>
<defs>
<linearGradient id="paint0_linear_12774_63409" x1="13.6666" y1="-0.333006" x2="-2.99264" y2="12.5789" gradientUnits="userSpaceOnUse">
<stop stop-color="#04D2C5"/>
<stop offset="1" stop-color="#6848FF"/>
</linearGradient>
</defs>
</svg>
