<svg width="226" height="40" viewBox="0 0 226 40" fill="none" xmlns="http://www.w3.org/2000/svg">
<path d="M43.8581 20L35.1971 15L45.5903 9L59.881 17.25V22.75L45.5903 31L35.1971 25L43.8581 20Z" fill="url(#paint0_linear)"/>
<path d="M24.8039 25L16.1429 20L24.8039 15L14.4107 9L0.119995 17.25V22.75L14.4107 31L24.8039 25Z" fill="url(#paint1_linear)"/>
<path d="M30.0005 30L38.6615 35L30.0005 40L21.3395 35L30.0005 30Z" fill="url(#paint2_linear)"/>
<path d="M38.6615 5L30.0005 0L21.3395 5L30.0005 10L38.6615 5Z" fill="url(#paint3_linear)"/>
<path d="M86.048 28.24C84.336 28.24 82.792 27.872 81.416 27.136C80.04 26.384 78.96 25.352 78.176 24.04C77.392 22.712 77 21.232 77 19.6C77 17.968 77.392 16.496 78.176 15.184C78.96 13.856 80.04 12.824 81.416 12.088C82.792 11.336 84.336 10.96 86.048 10.96C87.76 10.96 89.304 11.336 90.68 12.088C92.056 12.824 93.136 13.848 93.92 15.16C94.704 16.472 95.096 17.952 95.096 19.6C95.096 21.248 94.704 22.728 93.92 24.04C93.136 25.352 92.056 26.384 90.68 27.136C89.304 27.872 87.76 28.24 86.048 28.24ZM86.048 25.504C87.168 25.504 88.176 25.256 89.072 24.76C89.968 24.248 90.672 23.544 91.184 22.648C91.696 21.736 91.952 20.72 91.952 19.6C91.952 18.48 91.696 17.472 91.184 16.576C90.672 15.664 89.968 14.96 89.072 14.464C88.176 13.952 87.168 13.696 86.048 13.696C84.928 13.696 83.92 13.952 83.024 14.464C82.128 14.96 81.424 15.664 80.912 16.576C80.4 17.472 80.144 18.48 80.144 19.6C80.144 20.72 80.4 21.736 80.912 22.648C81.424 23.544 82.128 24.248 83.024 24.76C83.92 25.256 84.928 25.504 86.048 25.504Z" fill="#2E343D"/>
<path d="M104.739 15.04C105.987 15.04 107.099 15.312 108.075 15.856C109.067 16.4 109.843 17.168 110.403 18.16C110.963 19.152 111.243 20.296 111.243 21.592C111.243 22.888 110.963 24.04 110.403 25.048C109.843 26.04 109.067 26.808 108.075 27.352C107.099 27.896 105.987 28.168 104.739 28.168C103.011 28.168 101.643 27.592 100.635 26.44V32.656H97.6351V15.184H100.491V16.864C100.987 16.256 101.595 15.8 102.315 15.496C103.051 15.192 103.859 15.04 104.739 15.04ZM104.403 25.6C105.507 25.6 106.411 25.232 107.115 24.496C107.835 23.76 108.195 22.792 108.195 21.592C108.195 20.392 107.835 19.424 107.115 18.688C106.411 17.952 105.507 17.584 104.403 17.584C103.683 17.584 103.035 17.752 102.459 18.088C101.883 18.408 101.427 18.872 101.091 19.48C100.755 20.088 100.587 20.792 100.587 21.592C100.587 22.392 100.755 23.096 101.091 23.704C101.427 24.312 101.883 24.784 102.459 25.12C103.035 25.44 103.683 25.6 104.403 25.6Z" fill="#2E343D"/>
<path d="M125.656 21.664C125.656 21.872 125.64 22.168 125.608 22.552H115.552C115.728 23.496 116.184 24.248 116.92 24.808C117.672 25.352 118.6 25.624 119.704 25.624C121.112 25.624 122.272 25.16 123.184 24.232L124.792 26.08C124.216 26.768 123.488 27.288 122.608 27.64C121.728 27.992 120.736 28.168 119.632 28.168C118.224 28.168 116.984 27.888 115.912 27.328C114.84 26.768 114.008 25.992 113.416 25C112.84 23.992 112.552 22.856 112.552 21.592C112.552 20.344 112.832 19.224 113.392 18.232C113.968 17.224 114.76 16.44 115.768 15.88C116.776 15.32 117.912 15.04 119.176 15.04C120.424 15.04 121.536 15.32 122.512 15.88C123.504 16.424 124.272 17.2 124.816 18.208C125.376 19.2 125.656 20.352 125.656 21.664ZM119.176 17.44C118.216 17.44 117.4 17.728 116.728 18.304C116.072 18.864 115.672 19.616 115.528 20.56H122.8C122.672 19.632 122.28 18.88 121.624 18.304C120.968 17.728 120.152 17.44 119.176 17.44Z" fill="#2E343D"/>
<path d="M135.33 15.04C136.946 15.04 138.242 15.512 139.218 16.456C140.194 17.4 140.682 18.8 140.682 20.656V28H137.682V21.04C137.682 19.92 137.418 19.08 136.89 18.52C136.362 17.944 135.61 17.656 134.634 17.656C133.53 17.656 132.658 17.992 132.018 18.664C131.378 19.32 131.058 20.272 131.058 21.52V28H128.058V15.184H130.914V16.84C131.41 16.248 132.034 15.8 132.786 15.496C133.538 15.192 134.386 15.04 135.33 15.04Z" fill="#2E343D"/>
<path d="M149.504 28.24C148.208 28.24 146.952 28.056 145.736 27.688C144.536 27.32 143.584 26.832 142.88 26.224L143.96 23.8C144.648 24.344 145.488 24.792 146.48 25.144C147.488 25.48 148.496 25.648 149.504 25.648C150.752 25.648 151.68 25.448 152.288 25.048C152.912 24.648 153.224 24.12 153.224 23.464C153.224 22.984 153.048 22.592 152.696 22.288C152.36 21.968 151.928 21.72 151.4 21.544C150.872 21.368 150.152 21.168 149.24 20.944C147.96 20.64 146.92 20.336 146.12 20.032C145.336 19.728 144.656 19.256 144.08 18.616C143.52 17.96 143.24 17.08 143.24 15.976C143.24 15.048 143.488 14.208 143.984 13.456C144.496 12.688 145.256 12.08 146.264 11.632C147.288 11.184 148.536 10.96 150.008 10.96C151.032 10.96 152.04 11.088 153.032 11.344C154.024 11.6 154.88 11.968 155.6 12.448L154.616 14.872C153.88 14.44 153.112 14.112 152.312 13.888C151.512 13.664 150.736 13.552 149.984 13.552C148.752 13.552 147.832 13.76 147.224 14.176C146.632 14.592 146.336 15.144 146.336 15.832C146.336 16.312 146.504 16.704 146.84 17.008C147.192 17.312 147.632 17.552 148.16 17.728C148.688 17.904 149.408 18.104 150.32 18.328C151.568 18.616 152.592 18.92 153.392 19.24C154.192 19.544 154.872 20.016 155.432 20.656C156.008 21.296 156.296 22.16 156.296 23.248C156.296 24.176 156.04 25.016 155.528 25.768C155.032 26.52 154.272 27.12 153.248 27.568C152.224 28.016 150.976 28.24 149.504 28.24Z" fill="#2E343D"/>
<path d="M171.149 15.184V32.656H168.149V26.44C167.141 27.592 165.773 28.168 164.045 28.168C162.797 28.168 161.677 27.896 160.685 27.352C159.709 26.808 158.941 26.04 158.381 25.048C157.837 24.056 157.565 22.904 157.565 21.592C157.565 20.296 157.845 19.152 158.405 18.16C158.965 17.168 159.733 16.4 160.709 15.856C161.685 15.312 162.797 15.04 164.045 15.04C164.925 15.04 165.725 15.192 166.445 15.496C167.181 15.8 167.797 16.256 168.293 16.864V15.184H171.149ZM164.381 25.6C165.485 25.6 166.397 25.232 167.117 24.496C167.837 23.76 168.197 22.792 168.197 21.592C168.197 20.392 167.837 19.424 167.117 18.688C166.397 17.952 165.485 17.584 164.381 17.584C163.277 17.584 162.365 17.952 161.645 18.688C160.941 19.424 160.589 20.392 160.589 21.592C160.589 22.792 160.941 23.76 161.645 24.496C162.365 25.232 163.277 25.6 164.381 25.6Z" fill="#2E343D"/>
<path d="M187.003 15.184V28H184.146V26.368C183.666 26.944 183.067 27.392 182.347 27.712C181.627 28.016 180.851 28.168 180.019 28.168C178.307 28.168 176.954 27.696 175.963 26.752C174.987 25.792 174.499 24.376 174.499 22.504V15.184H177.499V22.096C177.499 23.248 177.755 24.112 178.267 24.688C178.795 25.248 179.539 25.528 180.499 25.528C181.571 25.528 182.419 25.2 183.043 24.544C183.683 23.872 184.003 22.912 184.003 21.664V15.184H187.003Z" fill="#2E343D"/>
<path d="M195.346 15.04C197.234 15.04 198.674 15.496 199.666 16.408C200.674 17.304 201.178 18.664 201.178 20.488V28H198.346V26.44C197.978 27 197.45 27.432 196.762 27.736C196.09 28.024 195.274 28.168 194.314 28.168C193.354 28.168 192.514 28.008 191.794 27.688C191.074 27.352 190.514 26.896 190.114 26.32C189.73 25.728 189.538 25.064 189.538 24.328C189.538 23.176 189.962 22.256 190.81 21.568C191.674 20.864 193.026 20.512 194.866 20.512H198.178V20.32C198.178 19.424 197.906 18.736 197.362 18.256C196.834 17.776 196.042 17.536 194.986 17.536C194.266 17.536 193.554 17.648 192.85 17.872C192.162 18.096 191.578 18.408 191.098 18.808L189.922 16.624C190.594 16.112 191.402 15.72 192.346 15.448C193.29 15.176 194.29 15.04 195.346 15.04ZM194.938 25.984C195.69 25.984 196.354 25.816 196.93 25.48C197.522 25.128 197.938 24.632 198.178 23.992V22.504H195.082C193.354 22.504 192.49 23.072 192.49 24.208C192.49 24.752 192.706 25.184 193.138 25.504C193.57 25.824 194.17 25.984 194.938 25.984Z" fill="#2E343D"/>
<path d="M207.405 17.056C208.269 15.712 209.789 15.04 211.965 15.04V17.896C211.709 17.848 211.477 17.824 211.269 17.824C210.101 17.824 209.189 18.168 208.533 18.856C207.877 19.528 207.549 20.504 207.549 21.784V28H204.549V15.184H207.405V17.056Z" fill="#2E343D"/>
<path d="M225.96 21.664C225.96 21.872 225.944 22.168 225.912 22.552H215.856C216.032 23.496 216.488 24.248 217.224 24.808C217.976 25.352 218.904 25.624 220.008 25.624C221.416 25.624 222.576 25.16 223.488 24.232L225.096 26.08C224.52 26.768 223.792 27.288 222.912 27.64C222.032 27.992 221.04 28.168 219.936 28.168C218.528 28.168 217.288 27.888 216.216 27.328C215.144 26.768 214.312 25.992 213.72 25C213.144 23.992 212.856 22.856 212.856 21.592C212.856 20.344 213.136 19.224 213.696 18.232C214.272 17.224 215.064 16.44 216.072 15.88C217.08 15.32 218.216 15.04 219.48 15.04C220.728 15.04 221.84 15.32 222.816 15.88C223.808 16.424 224.576 17.2 225.12 18.208C225.68 19.2 225.96 20.352 225.96 21.664ZM219.48 17.44C218.52 17.44 217.704 17.728 217.032 18.304C216.376 18.864 215.976 19.616 215.832 20.56H223.104C222.976 19.632 222.584 18.88 221.928 18.304C221.272 17.728 220.456 17.44 219.48 17.44Z" fill="#2E343D"/>
<defs>
<linearGradient id="paint0_linear" x1="58.6478" y1="20" x2="0.119994" y2="20" gradientUnits="userSpaceOnUse">
<stop stop-color="#04D2C5"/>
<stop offset="1" stop-color="#6848FF"/>
</linearGradient>
<linearGradient id="paint1_linear" x1="58.6478" y1="20" x2="0.119994" y2="20" gradientUnits="userSpaceOnUse">
<stop stop-color="#04D2C5"/>
<stop offset="1" stop-color="#6848FF"/>
</linearGradient>
<linearGradient id="paint2_linear" x1="58.6478" y1="20" x2="0.119994" y2="20" gradientUnits="userSpaceOnUse">
<stop stop-color="#04D2C5"/>
<stop offset="1" stop-color="#6848FF"/>
</linearGradient>
<linearGradient id="paint3_linear" x1="58.6478" y1="20" x2="0.119994" y2="20" gradientUnits="userSpaceOnUse">
<stop stop-color="#04D2C5"/>
<stop offset="1" stop-color="#6848FF"/>
</linearGradient>
</defs>
</svg>
