<svg width="24" height="24" viewBox="0 0 24 24" fill="none" xmlns="http://www.w3.org/2000/svg">
<path d="M20 10.917V17H22V19H2V17H4V10C4 7.87827 4.84285 5.84344 6.34315 4.34315C7.84344 2.84285 9.87827 2 12 2C12.5764 2 13.1465 2.06221 13.7011 2.18292C13.3887 2.76932 13.1708 3.4137 13.0677 4.09574C12.7177 4.03245 12.3605 4 12 4C10.4087 4 8.88258 4.63214 7.75736 5.75736C6.63214 6.88258 6 8.4087 6 10V17H18V10.917C18.3252 10.9716 18.6593 11 19 11C19.3407 11 19.6748 10.9716 20 10.917Z" fill="#A1A8B3"/>
<path d="M15 23V21H9V23H15Z" fill="#A1A8B3"/>
<path d="M22 5C22 6.65685 20.6569 8 19 8C17.3431 8 16 6.65685 16 5C16 3.34315 17.3431 2 19 2C20.6569 2 22 3.34315 22 5Z" fill="#EE4444"/>
</svg>
