<svg width="20" height="20" viewBox="0 0 20 20" fill="none" xmlns="http://www.w3.org/2000/svg">
<path d="M1.64819 14.784L9.99496 19.6032L18.3417 14.784V5.14544L9.99496 0.326172L1.64819 5.14544V14.784Z" fill="#F0F3F8"/>
<path d="M9.1405 1.47852L3.07916 4.97621C3.08909 5.08529 3.08909 5.19504 3.07916 5.30412L9.13057 8.80181C9.37938 8.61785 9.68065 8.51858 9.99009 8.51858C10.2995 8.51858 10.6008 8.61785 10.8496 8.80181L16.901 5.30412C16.8911 5.19504 16.8911 5.08529 16.901 4.97621L10.8595 1.47852C10.6107 1.66247 10.3095 1.76175 10 1.76175C9.69059 1.76175 9.38932 1.66247 9.1405 1.47852ZM17.4873 6.26797L11.4259 9.80541C11.4588 10.1122 11.3938 10.4216 11.2404 10.6892C11.0869 10.9569 10.8527 11.1693 10.5714 11.2959L10.5813 18.2515C10.6793 18.2948 10.7726 18.3481 10.8595 18.4105L16.9109 14.9128C16.8781 14.606 16.943 14.2967 17.0965 14.029C17.25 13.7613 17.4841 13.549 17.7655 13.4223V6.42696C17.6686 6.38154 17.5756 6.32837 17.4873 6.26797ZM2.50284 6.30772C2.41585 6.3702 2.3226 6.42348 2.22461 6.4667V13.4621C2.50941 13.5843 2.74678 13.7957 2.90092 14.0646C3.05506 14.3334 3.11762 14.6451 3.07916 14.9526L9.13057 18.4503C9.21756 18.3878 9.3108 18.3345 9.40879 18.2913V11.2959C9.12399 11.1737 8.88662 10.9623 8.73248 10.6934C8.57834 10.4246 8.51578 10.1129 8.55424 9.80541L2.50284 6.30772Z" fill="#FBFCFE"/>
<path d="M9.99496 1.37113L17.4574 5.68363V14.2987L9.99496 18.6112L2.53255 14.2987V5.67369L9.99496 1.37113ZM9.99496 0.347656L1.64819 5.16692V14.8055L9.99496 19.6247L18.3417 14.8055V5.16692L9.99496 0.347656Z" fill="#F0F3F8"/>
<path d="M10.0545 11.6046H9.9353C9.73028 11.6051 9.52718 11.5651 9.33767 11.4869C9.14816 11.4087 8.97598 11.2938 8.83101 11.1488C8.68604 11.0039 8.57115 10.8317 8.49293 10.6422C8.41472 10.4526 8.37472 10.2495 8.37525 10.0445V9.92529C8.37472 9.72027 8.41472 9.51718 8.49293 9.32766C8.57115 9.13815 8.68604 8.96597 8.83101 8.821C8.97598 8.67603 9.14816 8.56114 9.33767 8.48292C9.52718 8.40471 9.73028 8.36472 9.9353 8.36524H10.0545C10.2596 8.36472 10.4627 8.40471 10.6522 8.48292C10.8417 8.56114 11.0139 8.67603 11.1588 8.821C11.3038 8.96597 11.4187 9.13815 11.4969 9.32766C11.5751 9.51718 11.6151 9.72027 11.6146 9.92529V10.0445C11.6151 10.2495 11.5751 10.4526 11.4969 10.6422C11.4187 10.8317 11.3038 11.0039 11.1588 11.1488C11.0139 11.2938 10.8417 11.4087 10.6522 11.4869C10.4627 11.5651 10.2596 11.6051 10.0545 11.6046Z" fill="#F0F3F8"/>
<path d="M10.0545 18.0137H9.93529C9.65813 18.0128 9.38578 18.0861 9.14644 18.2259C8.9071 18.3656 8.70946 18.5668 8.57397 18.8086L9.99491 19.6234L11.4159 18.8086C11.2804 18.5668 11.0827 18.3656 10.8434 18.2259C10.604 18.0861 10.3317 18.0128 10.0545 18.0137Z" fill="#F0F3F8"/>
<path d="M18.3516 13.1934H18.292C18.087 13.1928 17.8839 13.2328 17.6944 13.311C17.5049 13.3893 17.3327 13.5042 17.1877 13.6491C17.0427 13.7941 16.9279 13.9663 16.8496 14.1558C16.7714 14.3453 16.7314 14.5484 16.732 14.7534V14.8727C16.7305 15.1375 16.7991 15.398 16.9307 15.6278L18.3516 14.8031V13.1934Z" fill="#F0F3F8"/>
<path d="M16.9307 4.34961C16.8002 4.57991 16.7318 4.84011 16.7319 5.10479V5.22403C16.7314 5.42905 16.7714 5.63215 16.8496 5.82166C16.9278 6.01117 17.0427 6.18336 17.1877 6.32832C17.3327 6.47329 17.5049 6.58819 17.6944 6.6664C17.8839 6.74461 18.087 6.78461 18.292 6.78408H18.3516V5.16441L16.9307 4.34961Z" fill="#F0F3F8"/>
<path d="M9.99491 0.345703L8.57397 1.16051C8.70881 1.4036 8.90604 1.60633 9.14533 1.74781C9.38462 1.88929 9.65731 1.96439 9.93529 1.96537H10.0545C10.3317 1.96621 10.604 1.89295 10.8434 1.75319C11.0827 1.61343 11.2804 1.41224 11.4159 1.17044L9.99491 0.345703Z" fill="#F0F3F8"/>
<path d="M3.06913 4.33984L1.64819 5.16458V6.78425H1.70781C1.91283 6.78478 2.11593 6.74478 2.30544 6.66657C2.49495 6.58836 2.66714 6.47346 2.8121 6.32849C2.95707 6.18353 3.07197 6.01134 3.15018 5.82183C3.22839 5.63232 3.26839 5.42922 3.26786 5.2242V5.10496C3.2645 4.8376 3.1963 4.57505 3.06913 4.33984Z" fill="#F0F3F8"/>
<path d="M1.70781 13.1934H1.64819V14.8031L3.06913 15.6278C3.19957 15.3975 3.26804 15.1373 3.26786 14.8727V14.7534C3.26839 14.5484 3.22839 14.3453 3.15018 14.1558C3.07197 13.9663 2.95707 13.7941 2.8121 13.6491C2.66714 13.5042 2.49495 13.3893 2.30544 13.311C2.11593 13.2328 1.91283 13.1928 1.70781 13.1934Z" fill="#F0F3F8"/>
<path d="M9.99496 19.6728V10.0243L1.64819 5.20508V14.8535L9.99496 19.6728Z" fill="black" fill-opacity="0.06"/>
<path d="M18.3517 14.7635V5.125L10.0049 9.94427V19.5927L18.3517 14.7635Z" fill="black" fill-opacity="0.02"/>
</svg>
