<svg width="64" height="64" viewBox="0 0 64 64" fill="none" xmlns="http://www.w3.org/2000/svg">
<rect width="64" height="64" fill="#030E27"/>
<path d="M38.5667 25.4639C36.8707 23.7951 34.5851 22.8609 32.2089 22.8699C32.1817 22.8699 32.1454 22.8699 32.1182 22.8699C27.0935 22.9425 23.0847 27.0602 23.1482 32.0848C23.2117 37.0459 27.2477 41.0366 32.2089 41.0547H32.2996C37.3242 41.0094 41.3512 36.9008 41.3058 31.8762C41.2786 29.4546 40.2991 27.1509 38.5667 25.4639Z" fill="url(#paint0_linear_3854_18485)"/>
<path d="M36.0908 24.3667C35.0206 24.0946 34.168 24.3214 33.4697 25.0288C33.388 25.1195 33.3064 25.2102 33.2248 25.31C33.0434 25.5367 32.8892 25.7363 32.5355 25.8179C32.0639 25.9086 31.5741 25.9358 31.0934 25.8814C30.9573 25.8632 30.8394 25.836 30.7397 25.8088C30.3769 25.7272 30.1683 25.6728 29.7329 26.0809C29.5969 26.217 29.479 26.3621 29.3701 26.5253C29.1797 26.7884 28.9983 27.0332 28.7081 27.1511C28.572 27.2056 28.4269 27.2328 28.2818 27.2418C28.2727 27.2328 28.2546 27.2328 28.2455 27.2237L28.2364 27.2418C28.0278 27.2509 27.8192 27.2328 27.6106 27.1965C27.4474 27.1693 27.2841 27.1602 27.1208 27.1511C27.3476 26.8246 27.5381 26.48 27.7013 26.1263C28.0006 26.0809 28.2546 25.8814 28.5085 25.6909C28.6355 25.5821 28.7806 25.4823 28.9257 25.4007C29.4246 25.1286 29.6604 24.9018 30.0957 24.4211C30.5039 23.9767 30.9392 23.6956 31.4743 23.4144C31.7373 23.2784 31.9732 23.0879 32.1545 22.843C33.9322 22.8521 35.592 23.2693 37.0522 24.2307C36.898 24.3486 36.5715 24.4846 36.0908 24.3667Z" fill="#DADADA"/>
<path d="M41.0154 30.6885C40.8884 30.6431 40.7705 30.5796 40.6526 30.5162C40.4712 30.3982 40.2717 30.3257 40.0631 30.2803L39.537 30.0173C38.7026 29.8722 38.358 29.981 37.5145 29.7452C37.1245 29.6273 36.7164 29.582 36.3082 29.591L36.2901 29.5729L36.2719 29.591C35.9817 29.6092 35.6915 29.6455 35.365 29.6908L35.1382 29.718C35.0475 29.7271 34.9478 29.7452 34.8299 29.7634C34.1134 29.8813 32.9071 30.0717 32.4899 29.6001L32.4627 29.6182C31.8187 29.2373 31.0931 29.0378 30.3494 29.0378C29.1885 29.0378 28.8257 28.7203 28.1636 28.158C28.0548 28.0583 27.9278 27.9585 27.7917 27.8406C27.8552 27.8406 27.9097 27.8406 27.9731 27.8406C28.2724 27.9494 28.5899 28.0038 28.9073 28.0038C28.9708 28.0038 29.0252 28.0038 29.0887 27.9948C29.252 27.9766 29.4062 27.9041 29.5241 27.7862C29.5785 27.7408 29.6329 27.6955 29.6873 27.6592C29.8143 27.5866 29.9594 27.5503 30.1136 27.5594C30.1771 27.5594 30.2496 27.5504 30.3131 27.5413C30.6306 27.505 30.8482 27.3236 31.0659 27.1604C31.2655 27.0062 31.4559 26.852 31.7099 26.8157C31.7734 26.8066 31.8368 26.7976 31.9094 26.7976C32.0817 26.7976 32.245 26.7613 32.3992 26.6797C32.4808 26.6252 32.5534 26.5617 32.6168 26.4892C32.6894 26.3985 32.7892 26.335 32.8889 26.2806C33.2245 26.1627 33.3696 25.8906 33.551 25.6548C33.6327 25.555 34.0045 25.5006 34.1043 25.4008C34.8571 24.6208 35.4647 24.3487 36.6257 24.639C37.2152 24.7841 37.4419 24.8113 37.6415 24.6662C39.6096 26.1264 40.8975 28.3213 41.224 30.7429C41.1424 30.7338 41.0789 30.7157 41.0154 30.6885Z" fill="#DADADA"/>
<path d="M29.5057 38.552C29.4966 38.4976 29.4876 38.4341 29.4876 38.3797C29.4876 38.2436 29.4694 38.1167 29.4422 37.9806C29.3787 37.6722 29.288 37.6178 29.1792 37.5362C29.0885 37.4727 29.0069 37.4002 28.9434 37.3095C28.8345 37.1462 28.7529 36.9557 28.7076 36.7653L28.6985 36.7381C28.7801 36.7834 28.8617 36.8288 28.9434 36.8741C28.9887 36.8923 29.0341 36.9195 29.0976 36.9557C29.3334 37.0827 29.6599 37.255 29.8231 37.246C29.9682 37.2278 30.0952 37.1553 30.1769 37.0464C30.2494 36.9739 30.4943 37.119 30.6031 37.0918C30.7936 37.0555 31.0203 37.0011 31.3106 37.119C31.4285 37.1643 31.5373 37.2097 31.6189 37.2369C31.7731 37.2823 31.9273 37.3457 32.0724 37.4092C32.3173 37.5271 32.5713 37.6088 32.8434 37.6632C32.9885 37.6813 33.1427 37.6904 33.2878 37.6904C33.5599 37.6722 33.841 37.7357 34.0859 37.8627C34.6573 38.1439 34.7752 38.1711 35.401 38.1076C35.8636 38.0622 36.4622 38.0169 36.9066 38.0895C37.3329 38.162 37.7229 38.3525 38.1038 38.6064C38.1038 38.6427 38.1582 38.7697 38.1673 38.806C36.5892 40.2481 34.5303 41.0462 32.3989 41.0462C32.2085 41.0462 32.0271 41.0371 31.8366 41.028C31.755 40.9374 31.6552 40.8557 31.5555 40.7832C31.4375 40.7106 31.3106 40.6471 31.1745 40.6108C30.9931 40.5474 30.8117 40.4839 30.712 40.366C30.5669 40.2118 30.585 40.0394 30.6031 39.8671C30.6213 39.7492 30.6122 39.6313 30.5759 39.5225C30.4943 39.3501 30.3129 39.2413 30.1134 39.1325C29.9955 39.069 29.8866 38.9964 29.7869 38.9148C29.6871 38.8332 29.5964 38.7425 29.5329 38.6336C29.551 38.6155 29.5057 38.552 29.5057 38.552Z" fill="#DADADA"/>
<path d="M27.2751 24.784C27.2569 25.0108 27.2751 25.2466 27.3113 25.4733C27.3567 25.7726 27.393 26.0629 27.2751 26.3894L27.266 26.4257H27.2569V26.4438C27.1027 26.8338 26.749 27.3871 26.5767 27.641C26.1958 27.5866 26.0144 27.3054 25.8239 26.9971C25.7151 26.7884 25.5609 26.6071 25.3885 26.4438C25.2978 26.3803 25.2072 26.3168 25.1165 26.2624C25.7695 25.4552 26.5495 24.7568 27.4383 24.2126C27.3476 24.394 27.2932 24.5845 27.2751 24.784Z" fill="#DADADA"/>
<path d="M38.6481 38.28C38.63 38.0986 38.63 37.9082 38.6209 37.7177C38.6119 36.72 38.5665 36.3935 37.8954 35.8312C37.3784 35.3958 36.7889 35.1872 36.5984 34.5342C36.4896 34.1714 36.4895 33.7179 36.4895 33.2373C36.4895 33.0286 36.4896 32.811 36.4805 32.6024C36.5258 32.3938 36.6075 32.1942 36.6982 32.0128C36.807 31.768 36.9884 31.514 36.9521 31.251C36.9249 31.0242 36.9521 31.1875 36.8523 30.8882C36.7707 30.6252 36.6075 30.4801 36.417 30.3259C36.7707 30.3259 37.1335 30.3712 37.4782 30.471C38.3216 30.7159 39.1198 30.3984 39.9542 30.5435L40.0358 30.5617C40.2353 30.598 40.4258 30.6796 40.5981 30.7884C40.716 30.861 40.843 30.9154 40.97 30.9698C41.0516 30.997 41.1423 31.0242 41.2239 31.0424C41.2693 31.3507 41.2874 31.6591 41.2965 31.9675C41.2965 34.3438 40.3714 36.6293 38.7026 38.3254L38.6481 38.28Z" fill="#DADADA"/>
<path d="M24.1089 34.6248C24.1906 34.652 24.2631 34.6792 24.3357 34.7064C24.6531 34.8153 24.9524 34.9604 25.2336 35.1418C25.5238 35.3413 25.7596 35.5499 25.932 35.8673C26.1134 36.212 26.2494 36.4387 26.6122 36.6292L26.721 36.6836C27.1745 36.9194 27.4919 37.0827 27.7278 37.5362C27.8729 37.8083 28.1268 37.9262 28.3808 38.035C28.5168 38.0894 28.6438 38.162 28.7708 38.2345L28.8161 38.2708L28.9068 38.3343C28.9431 38.4613 29.0338 38.5792 29.2515 38.7697C29.3694 38.8694 29.4964 38.951 29.6324 39.0236C29.8319 39.1415 30.0224 39.2504 30.104 39.4136C30.1403 39.5224 30.1494 39.6313 30.1222 39.7401C30.104 39.9396 30.0859 40.1664 30.2764 40.375C30.4033 40.5201 30.621 40.5927 30.8296 40.6652C30.9747 40.7106 31.1017 40.765 31.2287 40.8466C31.3012 40.901 31.3738 40.9645 31.4464 41.028C27.6189 40.7015 24.4173 38.0078 23.4287 34.2983C23.601 34.4525 23.8731 34.5432 24.1089 34.6248Z" fill="#DADADA"/>
<path d="M25.5514 27.2328C25.7056 27.4868 25.8689 27.7407 26.15 27.8587C25.887 27.904 25.8054 27.8314 25.5333 28.0673C25.3882 28.1942 25.0707 28.167 24.9438 28.3121C24.717 28.548 24.6626 28.9652 24.3814 29.1103C24.0821 29.2645 23.7647 29.3914 23.4473 29.4912C23.7738 28.3303 24.1728 27.4687 24.8984 26.5526C24.98 26.598 25.0617 26.6524 25.1433 26.7159C25.3066 26.8519 25.4517 27.0333 25.5514 27.2328Z" fill="#DADADA"/>
<path d="M37.0524 35.8764L37.1159 35.9308C37.7055 36.4296 37.8687 36.5657 37.8778 37.4183C37.8778 37.5724 37.8869 37.7176 37.8959 37.8627C37.5241 37.6269 37.1431 37.4364 36.7259 37.3729C36.2634 37.3003 35.6648 37.3457 35.1932 37.391C34.5946 37.4545 34.7215 37.2913 34.1683 37.0101C33.8146 36.8287 33.3429 36.9738 33.098 36.9738C32.9529 36.9738 32.8078 36.9648 32.6627 36.9466C32.4087 36.8922 32.1548 36.8106 31.919 36.7017C31.7648 36.6383 31.8374 36.5113 31.6741 36.4659C31.6015 36.4387 31.275 36.4569 31.1481 36.4115C30.8306 36.2845 30.4406 36.1213 30.2139 36.1666C30.096 36.1938 29.9871 36.2664 29.9146 36.3571C29.842 36.4569 29.7332 36.5203 29.6153 36.5385C29.4792 36.5476 29.1618 36.3752 28.9441 36.2573C28.8806 36.221 28.8262 36.1938 28.7899 36.1757C28.672 36.1213 28.5632 36.0578 28.4634 35.9852C28.4634 35.9762 28.4634 35.9671 28.4543 35.958L28.4362 35.9671C28.1913 35.7857 27.9464 35.5952 27.7288 35.3776C27.2753 34.9604 26.7402 34.6429 26.1506 34.4615C26.5225 34.4071 26.8309 34.2348 27.1483 34.0534C27.4113 33.8901 27.7016 33.7541 27.9918 33.6543C28.3546 33.5455 28.7718 33.5455 29.1709 33.5455C29.5971 33.5455 30.0325 33.5364 30.4225 33.4094C30.8215 33.2734 31.1208 32.9922 31.4111 32.7111C31.7194 32.4208 32.1004 32.3755 32.5267 32.2576C32.8713 32.1669 33.3067 31.8766 33.8418 31.8494C34.4948 31.8132 35.175 31.7678 35.6104 31.6046C35.8552 31.9129 35.9278 32.3573 35.955 32.829C35.955 32.829 35.955 32.829 35.955 32.838C35.9641 33.0285 35.9641 33.219 35.9641 33.4094C35.9641 33.8538 35.9732 34.2711 36.0638 34.5976C36.2362 35.1871 36.5899 35.4955 37.0524 35.8764Z" fill="#DADADA"/>
<path d="M23.357 34.0804C23.1937 33.4274 23.1121 32.7563 23.1121 32.076C23.103 31.3595 23.1756 30.6521 23.3298 29.9537C23.6653 29.863 23.9828 29.736 24.3002 29.5909C24.5723 29.4549 24.7809 29.4095 24.9895 29.1828C25.1074 29.0558 25.2253 28.9379 25.3523 28.82C25.8602 28.3937 26.3228 28.4481 26.8035 28.5116C26.9214 28.5298 27.0393 28.5388 27.1572 28.5479C27.3204 28.6749 27.4656 28.6205 27.5925 28.7293C28.1821 29.2372 28.5358 29.7542 29.6151 29.7542C30.3951 29.7542 31.0027 29.7632 31.6195 30.1351C31.6376 30.1442 31.6558 30.1532 31.6739 30.1623C31.8372 30.2621 32.0004 30.3709 32.1637 30.4888L32.2725 30.5614C32.6172 30.8063 32.9437 31.0421 33.3972 31.1146C33.5513 31.1328 33.7055 31.1418 33.8688 31.1328C34.1681 31.1237 34.422 31.1237 34.6488 31.3504C34.2316 31.5046 33.5786 31.5409 32.9437 31.5772C32.4086 31.6135 31.9097 31.6407 31.556 31.7314C31.1025 31.8493 30.776 32.1667 30.4586 32.466C30.1593 32.7472 29.8872 33.0193 29.5062 33.1462C29.1253 33.2732 28.7081 33.2732 28.2909 33.2732C27.8737 33.2732 27.4656 33.2732 27.0846 33.3911C26.7763 33.4909 26.486 33.6269 26.223 33.7993C25.833 34.026 25.4611 34.2346 24.9714 34.2074C24.8263 34.1711 24.6902 34.1439 24.5451 34.1258L24.5088 34.1167V34.1258C24.1098 34.0804 23.7379 34.0623 23.357 34.0804Z" fill="#DADADA"/>
<path d="M18.849 22.308C17.9601 22.3171 17.0713 22.2717 16.1825 22.172C14.3504 21.9543 13.3981 21.4917 13.1895 20.7208C12.8539 19.5055 14.6225 18.4806 15.9829 17.8185C21.1527 15.2971 32.4898 12.676 41.2603 11.9867C43.9721 11.769 46.2486 11.7599 47.854 11.9504C49.6861 12.1681 50.6384 12.6306 50.8561 13.4015C51.1916 14.6169 49.423 15.6418 48.0626 16.3039C42.8928 18.8252 31.5557 21.4464 22.7852 22.1357C21.3341 22.2536 20.0099 22.308 18.849 22.308ZM41.2966 12.5399L41.3419 13.0841C32.6803 13.7734 21.5245 16.3401 16.4546 18.8071C14.2778 19.8683 14.2325 20.4397 14.2325 20.4397C14.305 20.7027 15.9557 21.5824 22.6855 21.0473C31.338 20.358 42.5028 17.7913 47.5728 15.3243C49.7495 14.2632 49.7949 13.6918 49.7949 13.6918C49.7223 13.4288 48.0716 12.549 41.3419 13.0841L41.2966 12.5399Z" fill="#DADADA"/>
<path d="M18.8033 52.1835C17.9145 52.1926 17.0257 52.1472 16.1368 52.0475C14.3047 51.8298 13.3524 51.3672 13.1438 50.5963C12.8082 49.381 14.5768 48.3561 15.9373 47.694C21.107 45.1726 32.4442 42.5515 41.2146 41.8622C43.9265 41.6445 46.203 41.6354 47.8083 41.8259C49.6404 42.0435 50.5927 42.5061 50.8013 43.277C51.1369 44.4924 49.3683 45.5173 48.0078 46.1793C42.8381 48.7007 31.5009 51.3219 22.7305 52.0112C21.2884 52.12 19.9733 52.1835 18.8033 52.1835ZM41.26 42.4063L41.3053 42.9505C32.6528 43.6398 21.488 46.2066 16.418 48.6735C14.2412 49.7347 14.1959 50.3061 14.1959 50.3061C14.2685 50.5691 15.9191 51.4489 22.6489 50.9137C31.3014 50.2244 42.4662 47.6577 47.5362 45.1907C49.713 44.1296 49.7583 43.5582 49.7583 43.5582C49.6857 43.2952 48.0351 42.4154 41.3053 42.9505L41.26 42.4063Z" fill="#DADADA"/>
<defs>
<linearGradient id="paint0_linear_3854_18485" x1="32.2269" y1="41.0479" x2="32.2269" y2="22.8658" gradientUnits="userSpaceOnUse">
<stop stop-color="#603211"/>
<stop offset="0.17" stop-color="#DD7D26"/>
<stop offset="0.35" stop-color="#603211"/>
<stop offset="0.54" stop-color="#9C3520"/>
<stop offset="0.77" stop-color="#DD7D26"/>
<stop offset="1" stop-color="#603211"/>
</linearGradient>
</defs>
</svg>
