<svg width="20" height="20" viewBox="0 0 20 20" fill="none" xmlns="http://www.w3.org/2000/svg">
<path d="M13.5154 2.5L8.54475 6.98078C8.0301 7.4455 7.36041 7.70245 6.66516 7.70562L5.18354 7.7088L5.17875 2.5H2.5V17.3857H3.96084C4.77757 17.3857 5.53996 16.9559 5.93953 16.25C5.94274 16.2453 5.94432 16.2405 5.94753 16.2373C6.21284 15.7646 6.3455 14.8304 6.31993 14.1928C6.26238 12.7352 6.02584 12.3561 6.02584 12.3561C5.97629 13.3553 4.92462 13.4093 4.92462 13.4093C5.67262 12.7003 5.26504 12.1642 5.26504 12.1642C3.94006 13.1001 3.60922 12.1007 3.58365 12.0103C3.62521 12.0452 4.0024 12.3577 4.71843 11.3838C5.47603 10.3544 6.48615 8.63825 7.12866 8.19731C7.77278 7.75479 8.38332 7.79127 8.38332 7.79127C8.38332 7.79127 8.73496 7.31861 9.66515 6.92526C10.5953 6.53507 11.1915 7.10765 11.1915 7.10765C10.2406 7.869 8.94912 9.11885 8.87719 10.9095C8.81966 12.3593 11.9682 14.8463 11.4153 18.5198C11.7462 17.6854 11.8788 16.8495 11.7653 15.8154C11.6743 14.9811 11.1324 13.238 11.1324 13.238L14.1563 17.3841H17.5L10.9646 8.47489L17.5 2.5H13.5154Z" fill="url(#paint0_linear_3003_31680)"/>
<defs>
<linearGradient id="paint0_linear_3003_31680" x1="25.3857" y1="23.425" x2="11.4993" y2="-4.50651" gradientUnits="userSpaceOnUse">
<stop stop-color="#E40C5B"/>
<stop offset="1" stop-color="#FF4C3B"/>
</linearGradient>
</defs>
</svg>
