<svg width="20" height="20" viewBox="0 0 20 20" fill="none" xmlns="http://www.w3.org/2000/svg">
    <path d="M9.99996 5.40549C11.5885 5.40549 12.8762 4.66181 12.8762 3.74443C12.8762 2.82706 11.5885 2.08337 9.99996 2.08337C8.41147 2.08337 7.12374 2.82706 7.12374 3.74443C7.12374 4.66181 8.41147 5.40549 9.99996 5.40549Z" fill="#E6007A"/>
    <path d="M9.99996 17.9167C11.5885 17.9167 12.8762 17.173 12.8762 16.2556C12.8762 15.3383 11.5885 14.5946 9.99996 14.5946C8.41147 14.5946 7.12374 15.3383 7.12374 16.2556C7.12374 17.173 8.41147 17.9167 9.99996 17.9167Z" fill="#E6007A"/>
    <path d="M5.99111 7.70283C6.78536 6.33743 6.78033 4.85872 5.97987 4.40003C5.17942 3.94134 3.88666 4.67637 3.09241 6.04177C2.29817 7.40717 2.3032 8.88588 3.10365 9.34457C3.90411 9.80326 5.19687 9.06823 5.99111 7.70283Z" fill="#E6007A"/>
    <path d="M16.9076 13.9584C17.7018 12.593 17.6968 11.1143 16.8964 10.6556C16.0959 10.1969 14.8031 10.932 14.0089 12.2974C13.2146 13.6628 13.2197 15.1415 14.0201 15.6002C14.8206 16.0588 16.1133 15.3238 16.9076 13.9584Z" fill="#E6007A"/>
    <path d="M5.97987 15.6001C6.78032 15.1414 6.78535 13.6627 5.99111 12.2973C5.19686 10.9319 3.9041 10.1969 3.10365 10.6555C2.30319 11.1142 2.29816 12.5929 3.09241 13.9583C3.88666 15.3237 5.17942 16.0588 5.97987 15.6001Z" fill="#E6007A"/>
    <path d="M16.8963 9.34462C17.6967 8.88593 17.7018 7.40722 16.9075 6.04182C16.1133 4.67642 14.8205 3.94139 14.0201 4.40008C13.2196 4.85877 13.2146 6.33748 14.0088 7.70288C14.8031 9.06828 16.0958 9.80331 16.8963 9.34462Z" fill="#E6007A"/>
</svg>
