<svg width="24" height="24" viewBox="0 0 24 24" fill="none" xmlns="http://www.w3.org/2000/svg">
<g clip-path="url(#clip0_6974_29958)">
<path d="M21.3521 18.7334V16.1904L16.9951 11.7924H14.3711L21.3521 18.7334Z" fill="#1C1C26"/>
<path d="M2.60474 5.41833V7.96165L6.96173 12.3593H9.58573L2.60474 5.41833Z" fill="#1C1C26"/>
<path d="M4.89307 2.70233H7.43606L11.8341 7.05934L16.1931 2.70233H18.8504L11.8341 9.68334L4.89307 2.70233Z" fill="#1C1C26"/>
<path d="M5.32104 21.2356H7.86403L12.2617 16.8786L16.62 21.2356H19.2774L12.2617 14.2546L5.32104 21.2356Z" fill="#1C1C26"/>
<path d="M11.9999 13.1666C12.6443 13.1666 13.1666 12.6443 13.1666 12C13.1666 11.3556 12.6443 10.8333 11.9999 10.8333C11.3556 10.8333 10.8333 11.3556 10.8333 12C10.8333 12.6443 11.3556 13.1666 11.9999 13.1666Z" fill="#E6007A"/>
</g>
<defs>
<clipPath id="clip0_6974_29958">
<rect width="19" height="19" fill="white" transform="translate(2.5 2.5)"/>
</clipPath>
</defs>
</svg>
