<svg width="20" height="20" viewBox="0 0 20 20" fill="none" xmlns="http://www.w3.org/2000/svg">
    <path d="M10.4512 16.302C9.88298 16.1835 9.31471 16.539 9.19771 17.1314C9.08071 17.7069 9.4317 18.2824 10.0167 18.4009C10.585 18.5194 11.1532 18.1639 11.2702 17.5715C11.3872 16.9791 11.0362 16.4205 10.4512 16.302Z" fill="#F22279"/>
    <path d="M9.99996 1.57617C6.52348 1.57617 3.68213 4.43675 3.68213 7.97439C3.68213 8.6853 3.79913 9.37929 4.01641 10.0564C4.16683 10.5134 4.66825 10.7673 5.13623 10.6149C5.58751 10.4626 5.83821 9.95479 5.68779 9.48085C5.50394 8.95613 5.42037 8.39755 5.43708 7.83898C5.50394 5.45234 7.40931 3.48887 9.76596 3.37038C12.39 3.23497 14.5628 5.35078 14.5628 7.97439C14.5628 10.4287 12.6575 12.443 10.2674 12.5784C10.2674 12.5784 9.38154 12.6292 8.94699 12.6969C8.72971 12.7307 8.56257 12.7646 8.44557 12.7815C8.39543 12.7984 8.34529 12.7477 8.362 12.6969L8.51243 11.9521L9.3314 8.12673C9.43169 7.65279 9.13084 7.17884 8.66285 7.07729C8.19486 6.97573 7.72688 7.2804 7.62659 7.75434C7.62659 7.75434 5.65436 17.0639 5.63765 17.1655C5.53736 17.6394 5.83821 18.1134 6.3062 18.2149C6.77419 18.3165 7.24217 18.0118 7.34246 17.5379C7.35917 17.4363 7.62659 16.2007 7.62659 16.2007C7.82716 15.2528 8.59599 14.5588 9.49854 14.4403C9.69911 14.4065 10.4847 14.3557 10.4847 14.3557C13.7439 14.1018 16.3178 11.3428 16.3178 7.97439C16.3178 4.43675 13.4764 1.57617 9.99996 1.57617Z" fill="black"/>
</svg>
