<svg width="20" height="16" viewBox="0 0 20 16" fill="none" xmlns="http://www.w3.org/2000/svg">
<path d="M19.375 2.2886C18.6963 2.62689 17.9327 2.79603 17.1691 2.8806C17.9327 2.37317 18.5266 1.61203 18.8659 0.766317C18.1024 1.18917 17.254 1.52746 16.4055 1.69661C14.9632 0.174322 12.5028 0.0897536 10.9757 1.52747C9.95759 2.45775 9.53336 3.8109 9.87273 5.16404C6.81843 4.9949 3.93383 3.55717 1.98247 1.18917C0.964372 2.96517 1.47342 5.16403 3.17025 6.26346C2.57636 6.26346 1.98246 6.09432 1.38857 5.75604C1.38857 5.75604 1.38857 5.75603 1.38857 5.8406C1.38857 7.70117 2.6612 9.22346 4.44287 9.56175C3.84898 9.73089 3.25509 9.73088 2.74604 9.64631C3.25509 11.1686 4.69741 12.268 6.3094 12.268C4.95193 13.3675 3.25509 13.8749 1.55826 13.8749C1.2189 13.8749 0.964366 13.8749 0.625 13.7903C5.7155 17.004 12.418 15.5663 15.642 10.492C16.7449 8.71603 17.3388 6.68632 17.3388 4.65661C17.3388 4.48746 17.3388 4.31831 17.3388 4.14917C18.1872 3.72631 18.8659 3.04975 19.375 2.2886Z" fill="#A1A8B3"/>
</svg>
