<svg width="24" height="24" viewBox="0 0 24 24" fill="none" xmlns="http://www.w3.org/2000/svg">
    <path fill-rule="evenodd" clip-rule="evenodd" d="M18 3.72351C17.4477 3.72351 17 4.17123 17 4.72351C17 5.2758 17.4477 5.72351 18 5.72351C18.5523 5.72351 19 5.2758 19 4.72351C19 4.17123 18.5523 3.72351 18 3.72351ZM15 4.72351C15 3.06666 16.3431 1.72351 18 1.72351C19.6569 1.72351 21 3.06666 21 4.72351C21 6.02973 20.1652 7.14097 19 7.55281V15.8942C20.1652 16.306 21 17.4173 21 18.7235C21 20.3804 19.6569 21.7235 18 21.7235C16.3431 21.7235 15 20.3804 15 18.7235C15 18.677 15.0011 18.6308 15.0031 18.5848L6.13219 14.8339C5.58846 15.3832 4.83397 15.7235 4 15.7235C2.34315 15.7235 1 14.3804 1 12.7235C1 11.0667 2.34315 9.72351 4 9.72351C4.71869 9.72351 5.37835 9.97623 5.89497 10.3976L15.0575 5.31114C15.0198 5.12111 15 4.92462 15 4.72351ZM6.93657 12.1069C6.97815 12.3059 7 12.5122 7 12.7235C7 12.8246 6.995 12.9246 6.98522 13.0232L15.7564 16.7319C16.0901 16.3563 16.5166 16.0651 17 15.8942V7.5528C16.662 7.43333 16.3518 7.25499 16.0817 7.03011L6.93657 12.1069ZM17 18.7235C17 18.1712 17.4477 17.7235 18 17.7235C18.5523 17.7235 19 18.1712 19 18.7235C19 19.2758 18.5523 19.7235 18 19.7235C17.4477 19.7235 17 19.2758 17 18.7235ZM3 12.7235C3 12.1712 3.44772 11.7235 4 11.7235C4.55228 11.7235 5 12.1712 5 12.7235C5 13.2758 4.55228 13.7235 4 13.7235C3.44772 13.7235 3 13.2758 3 12.7235Z" fill="#A1A8B3"/>
</svg>
