<svg width="16" height="16" viewBox="0 0 16 16" fill="none" xmlns="http://www.w3.org/2000/svg">
<path d="M1.83778 6.68823H3.68645V14.2572H1.83778C1.67435 14.2572 1.51761 14.1908 1.40205 14.0725C1.28648 13.9542 1.22156 13.7938 1.22156 13.6265V7.31898C1.22156 7.15169 1.28648 6.99126 1.40205 6.87297C1.51761 6.75468 1.67435 6.68823 1.83778 6.68823ZM5.09945 5.87266L9.04328 1.83586C9.0957 1.78205 9.16533 1.74942 9.23938 1.74398C9.31342 1.73853 9.3869 1.76063 9.44629 1.80621L9.97193 2.20989C10.1179 2.32207 10.2282 2.47598 10.2888 2.65221C10.3495 2.82844 10.3578 3.01911 10.3127 3.20017L9.6022 6.05748H13.546C13.8729 6.05748 14.1864 6.19038 14.4175 6.42696C14.6486 6.66354 14.7785 6.98441 14.7785 7.31898V8.64608C14.7786 8.81093 14.7472 8.97422 14.686 9.12671L12.7788 13.8668C12.7323 13.9824 12.6533 14.0812 12.5518 14.1507C12.4503 14.2202 12.3309 14.2573 12.2088 14.2572H5.53512C5.37169 14.2572 5.21495 14.1908 5.09939 14.0725C4.98382 13.9542 4.9189 13.7938 4.9189 13.6265V6.31861C4.91893 6.15133 4.98388 5.99093 5.09945 5.87266Z" fill="#A1A8B3"/>
</svg>
