<svg width="24" height="24" viewBox="0 0 24 24" fill="none" xmlns="http://www.w3.org/2000/svg">
    <path d="M12 22C6.477 22 2 17.523 2 12C2 6.477 6.477 2 12 2C17.523 2 22 6.477 22 12C22 17.523 17.523 22 12 22ZM7.013 18.256C8.42855 19.3877 10.1877 20.0029 12 20C13.8923 20.0027 15.7239 19.3321 17.167 18.108C16.5157 17.4397 15.7371 16.9089 14.877 16.5468C14.017 16.1847 13.0931 15.9988 12.16 16C11.1926 15.9989 10.2355 16.1989 9.34947 16.5872C8.46343 16.9756 7.66778 17.5439 7.013 18.256ZM5.616 16.82C6.45645 15.9281 7.47067 15.2177 8.59614 14.7327C9.72161 14.2477 10.9345 13.9984 12.16 14C13.3417 13.9985 14.512 14.2304 15.6037 14.6824C16.6955 15.1344 17.6873 15.7976 18.522 16.634C19.3781 15.4291 19.8836 14.0106 19.9826 12.5359C20.0815 11.0612 19.77 9.58789 19.0825 8.27946C18.395 6.97102 17.3585 5.87862 16.088 5.12345C14.8174 4.36827 13.3625 3.97984 11.8846 4.00125C10.4067 4.02267 8.96366 4.45308 7.71552 5.24476C6.46738 6.03643 5.46296 7.1584 4.81369 8.4862C4.16442 9.814 3.89569 11.2957 4.03732 12.7669C4.17894 14.2382 4.72537 15.6404 5.616 16.82ZM12 14.4431C10.9391 14.4431 9.92172 14.0217 9.17157 13.2715C8.42143 12.5214 8 11.504 8 10.4431C8 9.38225 8.42143 8.36484 9.17157 7.61469C9.92172 6.86455 10.9391 6.44312 12 6.44312C13.0609 6.44312 14.0783 6.86455 14.8284 7.61469C15.5786 8.36484 16 9.38225 16 10.4431C16 11.504 15.5786 12.5214 14.8284 13.2715C14.0783 14.0217 13.0609 14.4431 12 14.4431ZM12 12.4431C12.5304 12.4431 13.0391 12.2324 13.4142 11.8573C13.7893 11.4823 14 10.9736 14 10.4431C14 9.91269 13.7893 9.40398 13.4142 9.02891C13.0391 8.65383 12.5304 8.44312 12 8.44312C11.4696 8.44312 10.9609 8.65383 10.5858 9.02891C10.2107 9.40398 10 9.91269 10 10.4431C10 10.9736 10.2107 11.4823 10.5858 11.8573C10.9609 12.2324 11.4696 12.4431 12 12.4431Z" fill="#a1a8b3"/>
</svg>
