<svg viewBox="0 0 14 14" fill="none" xmlns="http://www.w3.org/2000/svg">
    <path d="M7 0C3.134 0 0 3.134 0 7C0 10.866 3.134 14 7 14C10.866 14 14 10.866 14 7C14 3.134 10.866 0 7 0Z"
          fill="#4CAF50"/>
    <path fill-rule="evenodd" clip-rule="evenodd"
          d="M10.2214 4.63086C10.4317 4.84114 10.4317 5.18207 10.2214 5.39236L6.11022 9.50353C6.00924 9.60451 5.87228 9.66124 5.72947 9.66124C5.58666 9.66124 5.4497 9.60451 5.34872 9.50353L3.58679 7.7416C3.37651 7.53131 3.37651 7.19038 3.58679 6.9801C3.79707 6.76981 4.13801 6.76981 4.34829 6.9801L5.72947 8.36128L9.45989 4.63086C9.67017 4.42057 10.0111 4.42057 10.2214 4.63086Z"
          fill="white"/>
</svg>
