<svg viewBox="0 0 14 14" fill="none" xmlns="http://www.w3.org/2000/svg">
    <path d="M7 0C3.134 0 0 3.134 0 7C0 10.866 3.134 14 7 14C10.866 14 14 10.866 14 7C14 3.134 10.866 0 7 0Z"
          fill="#4CAF50"/>
    <path fill-rule="evenodd" clip-rule="evenodd"
          d="M9.36891 3.89493C9.20391 3.82661 9.02706 3.79146 8.84848 3.7915C8.6699 3.79155 8.49307 3.82677 8.3281 3.89517C8.16313 3.96357 8.01326 4.0638 7.88704 4.19014L7.07829 4.99889C6.90743 5.16974 6.63042 5.16974 6.45957 4.99889C6.28871 4.82804 6.28871 4.55103 6.45957 4.38017L7.26803 3.57171C7.47546 3.36413 7.72189 3.19929 7.99297 3.08689C8.26411 2.97447 8.55475 2.91657 8.84828 2.9165C9.1418 2.91644 9.43247 2.9742 9.70366 3.0865C9.97486 3.19879 10.2213 3.36342 10.4288 3.57097C10.6364 3.77853 10.801 4.02494 10.9133 4.29614C11.0256 4.56733 11.0834 4.858 11.0833 5.15152C11.0832 5.44505 11.0253 5.73568 10.9129 6.00683C10.8005 6.27791 10.6358 6.52419 10.4282 6.73162L9.27308 7.88677C9.06559 8.09427 8.81926 8.25886 8.54816 8.37115C8.27705 8.48344 7.98649 8.54124 7.69305 8.54124C7.39961 8.54124 7.10905 8.48344 6.83795 8.37115C6.56684 8.25886 6.32052 8.09426 6.11302 7.88677C5.94217 7.71592 5.94217 7.43891 6.11302 7.26805C6.28388 7.0972 6.56089 7.0972 6.73174 7.26805C6.85798 7.3943 7.00785 7.49444 7.17279 7.56276C7.33774 7.63108 7.51452 7.66624 7.69305 7.66624C7.87158 7.66624 8.04837 7.63108 8.21331 7.56276C8.37825 7.49443 8.52812 7.3943 8.65436 7.26805L9.80951 6.1129C9.93585 5.98668 10.0362 5.83666 10.1046 5.6717C10.173 5.50673 10.2083 5.3299 10.2083 5.15132C10.2083 4.97273 10.1732 4.79589 10.1049 4.63089C10.0365 4.46589 9.93638 4.31597 9.81011 4.18969C9.68383 4.06341 9.53391 3.96325 9.36891 3.89493ZM6.30687 6.33343C6.12834 6.33343 5.95155 6.3686 5.78661 6.43692C5.62167 6.50524 5.4718 6.60538 5.34556 6.73162L4.19041 7.88677C4.06407 8.01299 3.96369 8.16301 3.89529 8.32798C3.82689 8.49295 3.79167 8.66977 3.79163 8.84836C3.79158 9.02694 3.82673 9.20379 3.89505 9.36878C3.96337 9.53378 4.06353 9.6837 4.18981 9.80998C4.31609 9.93626 4.46601 10.0364 4.63101 10.1047C4.79601 10.1731 4.97285 10.2082 5.15144 10.2082C5.33003 10.2081 5.50685 10.1729 5.67182 10.1045C5.83679 10.0361 5.98666 9.93587 6.11288 9.80954L6.92163 9.00078C7.09249 8.82993 7.3695 8.82993 7.54035 9.00078C7.71121 9.17164 7.71121 9.44865 7.54035 9.6195L6.73189 10.428C6.52446 10.6355 6.27803 10.8004 6.00695 10.9128C5.73581 11.0252 5.44517 11.0831 5.15164 11.0832C4.85812 11.0832 4.56746 11.0255 4.29626 10.9132C4.02506 10.8009 3.77865 10.6363 3.5711 10.4287C3.36354 10.2211 3.19891 9.97473 3.08662 9.70354C2.97432 9.43234 2.91656 9.14168 2.91663 8.84815C2.91669 8.55463 2.97459 8.26399 3.08702 7.99285C3.19944 7.7217 3.36418 7.47537 3.57183 7.26791L4.72684 6.1129C4.93433 5.90541 5.18066 5.74082 5.45176 5.62852C5.72287 5.51623 6.01343 5.45843 6.30687 5.45843C6.60031 5.45843 6.89087 5.51623 7.16197 5.62852C7.43308 5.74082 7.67941 5.90541 7.8869 6.1129C8.05775 6.28376 8.05775 6.56077 7.8869 6.73162C7.71604 6.90247 7.43903 6.90247 7.26818 6.73162C7.14194 6.60538 6.99207 6.50524 6.82713 6.43692C6.66218 6.3686 6.4854 6.33343 6.30687 6.33343Z"
          fill="white"/>
</svg>
