<svg width="24" height="24" viewBox="0 0 24 24" fill="none" xmlns="http://www.w3.org/2000/svg">
<path fill-rule="evenodd" clip-rule="evenodd" d="M18.3 4.8C17.8029 4.8 17.4 5.20294 17.4 5.7C17.4 6.19706 17.8029 6.6 18.3 6.6C18.7971 6.6 19.2 6.19706 19.2 5.7C19.2 5.20294 18.7971 4.8 18.3 4.8ZM15.6 5.7C15.6 4.20883 16.8088 3 18.3 3C19.7912 3 21 4.20883 21 5.7C21 6.8756 20.2487 7.87572 19.2 8.24637V15.7536C20.2487 16.1243 21 17.1244 21 18.3C21 19.7912 19.7912 21 18.3 21C16.8088 21 15.6 19.7912 15.6 18.3C15.6 18.2582 15.601 18.2166 15.6028 18.1752L7.61897 14.7994C7.12961 15.2937 6.45057 15.6 5.7 15.6C4.20883 15.6 3 14.3912 3 12.9C3 11.4088 4.20883 10.2 5.7 10.2C6.34682 10.2 6.94052 10.4274 7.40547 10.8067L15.6518 6.22886C15.6178 6.05784 15.6 5.881 15.6 5.7ZM8.34292 12.3451C8.38033 12.5242 8.4 12.7098 8.4 12.9C8.4 12.991 8.3955 13.081 8.3867 13.1697L16.2808 16.5075C16.5811 16.1695 16.9649 15.9074 17.4 15.7536V8.24636C17.0958 8.13884 16.8166 7.97833 16.5735 7.77594L8.34292 12.3451ZM17.4 18.3C17.4 17.8029 17.8029 17.4 18.3 17.4C18.7971 17.4 19.2 17.8029 19.2 18.3C19.2 18.7971 18.7971 19.2 18.3 19.2C17.8029 19.2 17.4 18.7971 17.4 18.3ZM4.8 12.9C4.8 12.4029 5.20294 12 5.7 12C6.19706 12 6.6 12.4029 6.6 12.9C6.6 13.3971 6.19706 13.8 5.7 13.8C5.20294 13.8 4.8 13.3971 4.8 12.9Z" fill="#E2E8F0"/>
</svg>
