<svg width="24" height="24" viewBox="0 0 24 24" fill="none" xmlns="http://www.w3.org/2000/svg">
    <path fill-rule="evenodd" clip-rule="evenodd"
          d="M12 23C18.0751 23 23 18.0751 23 12C23 5.92487 18.0751 1 12 1C5.92487 1 1 5.92487 1 12C1 18.0751 5.92487 23 12 23ZM12 24C18.6274 24 24 18.6274 24 12C24 5.37258 18.6274 0 12 0C5.37258 0 0 5.37258 0 12C0 18.6274 5.37258 24 12 24Z"
          fill="#F0F3F8"/>
    <path opacity="0.8" d="M11.9983 3.37708V15.2888L17.2458 12.1599L11.9983 3.37708Z" fill="#5B65CE"/>
    <path opacity="0.5" d="M11.9993 3.37708L6.75171 12.1599L11.9993 15.2888V9.75398V3.37708Z" fill="#5B65CE"/>
    <path opacity="0.8" d="M11.9982 16.2906L11.9336 16.37V20.4322L11.9982 20.6225L17.2489 13.1633L11.9982 16.2906Z"
          fill="#5B65CE"/>
    <path opacity="0.5" d="M11.9985 20.623V16.2912L6.75098 13.1639L11.9985 20.623Z" fill="#5B65CE"/>
    <path d="M11.9985 15.2889L17.246 12.1601L11.9985 9.75421V15.2889Z" fill="#5B65CE"/>
    <path opacity="0.8" d="M6.75098 12.1594L11.9984 15.2882V9.75348L6.75098 12.1594Z" fill="#5B65CE"/>
</svg>
