<svg width="24" height="24" viewBox="0 0 24 24" fill="none" xmlns="http://www.w3.org/2000/svg">
    <path fill-rule="evenodd" clip-rule="evenodd" d="M12 23C18.0751 23 23 18.0751 23 12C23 5.92487 18.0751 1 12 1C5.92487 1 1 5.92487 1 12C1 18.0751 5.92487 23 12 23ZM12 24C18.6274 24 24 18.6274 24 12C24 5.37258 18.6274 0 12 0C5.37258 0 0 5.37258 0 12C0 18.6274 5.37258 24 12 24Z" fill="#F0F3F8"/>
    <path d="M14.8938 6.01855L10.8021 9.7069C10.3785 10.0894 9.82726 10.3009 9.25496 10.3036L8.03537 10.3062L8.03142 6.01855H5.82642V18.2717H7.0289C7.7012 18.2717 8.32875 17.9179 8.65766 17.3368C8.6603 17.333 8.66161 17.329 8.66424 17.3264C8.88263 16.9373 8.99183 16.1683 8.97078 15.6435C8.92342 14.4437 8.7287 14.1316 8.7287 14.1316C8.68792 14.9541 7.82224 14.9985 7.82224 14.9985C8.43795 14.4149 8.10246 13.9736 8.10246 13.9736C7.0118 14.744 6.73947 13.9213 6.71842 13.847C6.75263 13.8757 7.06311 14.1329 7.65251 13.3313C8.27613 12.4839 9.10761 11.0712 9.63649 10.7083C10.1667 10.344 10.6693 10.3741 10.6693 10.3741C10.6693 10.3741 10.9587 9.98498 11.7244 9.6612C12.49 9.34001 12.9808 9.81134 12.9808 9.81134C12.1981 10.438 11.135 11.4669 11.0758 12.9408C11.0284 14.1342 13.6202 16.1814 13.165 19.2052C13.4374 18.5184 13.5466 17.8303 13.4531 16.9791C13.3782 16.2923 12.9321 14.8575 12.9321 14.8575L15.4213 18.2703H18.1736L12.794 10.9368L18.1736 6.01855H14.8938Z" fill="url(#paint0_linear_4251_1386841)"/>
    <defs>
        <linearGradient id="paint0_linear_4251_1386841" x1="24.6648" y1="23.243" x2="13.2341" y2="0.251154" gradientUnits="userSpaceOnUse">
            <stop stop-color="#E40C5B"/>
            <stop offset="1" stop-color="#FF4C3B"/>
        </linearGradient>
    </defs>
</svg>
