<svg width="24" height="24" viewBox="0 0 24 24" fill="none" xmlns="http://www.w3.org/2000/svg">
    <path fill-rule="evenodd" clip-rule="evenodd" d="M12 23C18.0751 23 23 18.0751 23 12C23 5.92487 18.0751 1 12 1C5.92487 1 1 5.92487 1 12C1 18.0751 5.92487 23 12 23ZM12 24C18.6274 24 24 18.6274 24 12C24 5.37258 18.6274 0 12 0C5.37258 0 0 5.37258 0 12C0 18.6274 5.37258 24 12 24Z" fill="#F0F3F8"/>
    <path d="M18.0085 18.8422H14.7311V16.0847H12.5462V12.7757H15.8236V15.5332H18.0085V18.8422Z" fill="#02FFFF"/>
    <path d="M9.26883 12.7757H12.5462V9.46663H18.0085V6.15759H12.5462V9.46663H9.26883V6.15759H5.99146V18.8422H9.26883V12.7757Z" fill="#02FFFF"/>
</svg>
