<svg width="24" height="24" viewBox="0 0 24 24" fill="none" xmlns="http://www.w3.org/2000/svg">
    <path d="M1.95184 17.5135V17.7354C1.95184 17.7354 10.6057 14.5327 12.288 15.3598L11.2732 15.6397C11.362 15.6397 13.0067 15.7406 13.0067 15.7406C13.0452 16.0588 13.1586 16.365 13.3388 16.6371C13.5189 16.9092 13.7613 17.1405 14.0484 17.3143C15.0389 17.9271 15.0577 18.2599 15.0577 18.2599C15.0577 18.2599 14.5436 18.4566 14.5436 18.7063C15.0217 18.5781 15.5161 18.5111 16.0133 18.5071C16.4618 18.5221 16.9066 18.589 17.3376 18.7063C17.3376 18.7063 17.2865 18.4541 16.5947 18.2599C15.9029 18.0658 15.2354 17.3798 14.8989 16.999C14.6972 16.7556 14.5663 16.4673 14.5191 16.1623C14.4719 15.8573 14.51 15.546 14.6298 15.259C14.8693 14.684 15.7065 14.3637 17.4049 13.5365C19.421 12.5606 19.8813 11.8292 20.1639 11.2669C20.4465 10.7045 20.8718 9.57724 21.106 9.04765C21.3007 8.55265 21.6357 8.11673 22.075 7.78673C22.3738 7.57237 23.7358 7.0907 23.7358 7.0907C23.7358 7.0907 22.6968 6.26102 22.3576 6.01135C21.9337 5.63522 21.3977 5.38892 20.8207 5.30524C20.0993 5.21697 19.3672 5.66586 18.8719 5.96596C18.3766 6.26606 17.4184 7.14366 17.0308 7.39584C16.6432 7.64803 15.6499 7.90021 14.0699 8.80555C12.4899 9.7109 6.2182 13.4609 6.2182 13.4609L7.83322 13.476L0.58447 16.999H1.30854L0.26416 17.7556C0.842596 17.8796 1.44974 17.7931 1.96263 17.5135H1.95184Z" fill="black"/>
</svg>
