<svg width="24" height="24" viewBox="0 0 24 24" fill="none" xmlns="http://www.w3.org/2000/svg">
    <circle cx="12" cy="12" r="11" fill="black"/>
    <path fill-rule="evenodd" clip-rule="evenodd" d="M14.7934 10.1816C16.0725 8.7769 15.8737 6.68263 14.3492 5.50393C12.8959 4.38023 10.7624 4.49431 9.45816 5.7245C7.84996 6.41996 7.04803 8.21253 7.65974 9.84049C8.29939 11.5429 10.2427 12.4207 12 11.8011L10.8419 8.7186L9.99864 6.47441L12.033 8.04739L14.7934 10.1816ZM16.3403 14.159C16.9521 15.787 16.1502 17.5795 14.542 18.275C13.2378 19.5053 11.1043 19.6193 9.65092 18.4956C8.12644 17.317 7.9276 15.2227 9.20678 13.818L11.967 15.9521L14.0015 17.5252L13.1583 15.2809L12 12.1985C13.7575 11.5789 15.7007 12.4567 16.3403 14.159Z" fill="white"/>
</svg>
