<svg width="24" height="24" viewBox="0 0 24 24" fill="none" xmlns="http://www.w3.org/2000/svg">
    <path fill-rule="evenodd" clip-rule="evenodd" d="M12 23C18.0751 23 23 18.0751 23 12C23 5.92487 18.0751 1 12 1C5.92487 1 1 5.92487 1 12C1 18.0751 5.92487 23 12 23ZM12 24C18.6274 24 24 18.6274 24 12C24 5.37258 18.6274 0 12 0C5.37258 0 0 5.37258 0 12C0 18.6274 5.37258 24 12 24Z" fill="#F0F3F8"/>
    <path fill-rule="evenodd" clip-rule="evenodd" d="M14.5959 10.3104C15.7846 9.00498 15.5998 7.05877 14.1832 5.9634C12.8326 4.91915 10.85 5.02517 9.63793 6.16839C8.14342 6.81467 7.39819 8.48051 7.96664 9.99337C8.56107 11.5754 10.367 12.3911 12.0001 11.8154L10.9238 8.95081L10.1402 6.86526L12.0307 8.32705L14.5959 10.3104ZM16.0334 14.0066C16.6019 15.5195 15.8567 17.1853 14.3622 17.8316C13.1502 18.9749 11.1675 19.0809 9.81692 18.0366C8.40023 16.9413 8.21544 14.9951 9.40418 13.6897L11.9693 15.673L13.86 17.1349L13.0763 15.0492L12 12.1847C13.6332 11.6089 15.439 12.4246 16.0334 14.0066Z" fill="black"/>
</svg>
