<svg width="32" height="32" viewBox="0 0 36 36" fill="none" xmlns="http://www.w3.org/2000/svg">
    <rect width="36" height="36" rx="18" fill="#F0F3F8"/>
    <path d="M27.375 12.2886C26.6963 12.6269 25.9327 12.796 25.1691 12.8806C25.9327 12.3732 26.5266 11.612 26.8659 10.7663C26.1024 11.1892 25.254 11.5275 24.4055 11.6966C22.9632 10.1743 20.5028 10.0898 18.9757 11.5275C17.9576 12.4578 17.5334 13.8109 17.8727 15.164C14.8184 14.9949 11.9338 13.5572 9.98247 11.1892C8.96437 12.9652 9.47342 15.164 11.1702 16.2635C10.5764 16.2635 9.98246 16.0943 9.38857 15.756C9.38857 15.756 9.38857 15.756 9.38857 15.8406C9.38857 17.7012 10.6612 19.2235 12.4429 19.5617C11.849 19.7309 11.2551 19.7309 10.746 19.6463C11.2551 21.1686 12.6974 22.268 14.3094 22.268C12.9519 23.3675 11.2551 23.8749 9.55826 23.8749C9.2189 23.8749 8.96437 23.8749 8.625 23.7903C13.7155 27.004 20.418 25.5663 23.642 20.492C24.7449 18.716 25.3388 16.6863 25.3388 14.6566C25.3388 14.4875 25.3388 14.3183 25.3388 14.1492C26.1872 13.7263 26.8659 13.0497 27.375 12.2886Z"
          fill="#A1A8B3"/>
</svg>
