<svg width="20" height="20" viewBox="0 0 20 20" fill="none" xmlns="http://www.w3.org/2000/svg">
<path d="M9.99994 19.1667C15.0626 19.1667 19.1666 15.0626 19.1666 10C19.1666 4.93738 15.0626 0.833313 9.99994 0.833313C4.93732 0.833313 0.833252 4.93738 0.833252 10C0.833252 15.0626 4.93732 19.1667 9.99994 19.1667Z" fill="#FBE5E5"/>
<path fill-rule="evenodd" clip-rule="evenodd" d="M9.99994 18.3333C14.6023 18.3333 18.3333 14.6024 18.3333 10C18.3333 5.39761 14.6023 1.66665 9.99994 1.66665C5.39755 1.66665 1.66659 5.39761 1.66659 10C1.66659 14.6024 5.39755 18.3333 9.99994 18.3333ZM19.1666 10C19.1666 15.0626 15.0626 19.1667 9.99994 19.1667C4.93732 19.1667 0.833252 15.0626 0.833252 10C0.833252 4.93738 4.93732 0.833313 9.99994 0.833313C15.0626 0.833313 19.1666 4.93738 19.1666 10Z" fill="url(#paint0_linear_12418_63012)"/>
<path d="M4.68826 12.6908V12.8129C4.68826 12.8129 9.11002 11.0506 9.96962 11.5058L9.45111 11.6598C9.49649 11.6598 10.3368 11.7153 10.3368 11.7153C10.3565 11.8904 10.4145 12.0589 10.5065 12.2086C10.5986 12.3583 10.7224 12.4856 10.8691 12.5812C11.3752 12.9184 11.3849 13.1016 11.3849 13.1016C11.3849 13.1016 11.1222 13.2098 11.1222 13.3472C11.3664 13.2767 11.619 13.2398 11.8731 13.2376C12.1023 13.2458 12.3296 13.2827 12.5498 13.3472C12.5498 13.3472 12.5236 13.2084 12.1702 13.1016C11.8167 12.9947 11.4756 12.6173 11.3037 12.4077C11.2006 12.2738 11.1337 12.1152 11.1096 11.9473C11.0855 11.7795 11.105 11.6082 11.1662 11.4502C11.2886 11.1339 11.7163 10.9576 12.5842 10.5025C13.6143 9.96543 13.8495 9.563 13.9939 9.25355C14.1383 8.94409 14.3556 8.3238 14.4753 8.03239C14.5748 7.76001 14.7459 7.52013 14.9704 7.33855C15.1231 7.2206 15.819 6.95555 15.819 6.95555C15.819 6.95555 15.2881 6.499 15.1148 6.36162C14.8982 6.15465 14.6243 6.01912 14.3295 5.97307C13.9609 5.9245 13.5868 6.17151 13.3337 6.33664C13.0807 6.50178 12.591 6.98469 12.393 7.12346C12.1949 7.26223 11.6874 7.40099 10.8801 7.89917C10.0728 8.39735 6.8682 10.4608 6.8682 10.4608L7.69341 10.4692L3.98959 12.4077H4.35957L3.82593 12.824C4.12149 12.8923 4.43171 12.8447 4.69378 12.6908H4.68826Z" fill="url(#paint1_linear_12418_63012)"/>
<defs>
<linearGradient id="paint0_linear_12418_63012" x1="16.6666" y1="3.33331" x2="3.33325" y2="16.6666" gradientUnits="userSpaceOnUse">
<stop stop-color="#D12D52"/>
<stop offset="1" stop-color="#E7473F"/>
</linearGradient>
<linearGradient id="paint1_linear_12418_63012" x1="14.1836" y1="6.97327" x2="9.39195" y2="14.7596" gradientUnits="userSpaceOnUse">
<stop stop-color="#D12D52"/>
<stop offset="1" stop-color="#E7473F"/>
</linearGradient>
</defs>
</svg>
