<svg width="20" height="20" viewBox="0 0 20 20" fill="none" xmlns="http://www.w3.org/2000/svg">
<path d="M9.99992 0.833313C4.93992 0.833313 0.833252 4.93998 0.833252 9.99998C0.833252 15.06 4.93992 19.1666 9.99992 19.1666C15.0599 19.1666 19.1666 15.06 19.1666 9.99998C19.1666 4.93998 15.0599 0.833313 9.99992 0.833313Z" fill="#B026CF"/>
<path d="M12.4305 3.91687C12.3023 3.82071 12.1549 3.6861 11.8857 3.65404C11.6292 3.622 11.3728 3.78866 11.1998 3.90404C11.0267 4.01302 10.6933 4.34635 10.5587 4.44892C10.4241 4.55148 10.0716 4.64123 9.51387 4.97456C8.95618 5.31431 6.75105 6.72455 6.75105 6.72455L7.32797 6.73096L4.77671 8.04507H5.03311L4.66772 8.3207C4.66772 8.3207 4.99465 8.41045 5.26388 8.23095V8.30788C5.26388 8.30788 8.30233 7.10917 8.89208 7.41686L8.5331 7.52584C8.56516 7.52584 9.14208 7.5643 9.14208 7.5643C9.15489 7.68609 9.19977 7.80147 9.25746 7.90403C9.32156 8.00661 9.40489 8.09634 9.50746 8.16045C9.85362 8.3848 9.86642 8.51941 9.86642 8.51941C9.86642 8.51941 9.68694 8.59634 9.68694 8.68609C9.68694 8.68609 9.95617 8.60276 10.1998 8.60916C10.36 8.61557 10.5139 8.64122 10.6613 8.68609C10.6613 8.68609 10.6421 8.58353 10.4049 8.51941C10.1677 8.45532 9.92412 8.19249 9.80873 8.04507C9.73823 7.95532 9.68694 7.84634 9.67412 7.73095C9.65489 7.61557 9.66771 7.50019 9.71258 7.39122C9.79592 7.17326 10.0908 7.05148 10.6933 6.74378C11.4049 6.3784 11.5652 6.10277 11.6677 5.89123C11.7703 5.67969 11.9177 5.25661 12.001 5.05788C12.11 4.80148 12.2318 4.66687 12.3408 4.58354C12.4498 4.50019 12.9241 4.32712 12.9241 4.32712C12.9241 4.32712 12.5459 4.01302 12.4305 3.91687Z" fill="white"/>
<path d="M10.1357 10.5617C10.1357 10.5617 9.5207 11.8298 6.61045 14.423L10.1357 10.5617Z" fill="white"/>
<path d="M10.1357 11.7476C10.1357 11.7476 9.62212 13.4088 6.33144 14.9368L10.1357 11.7476Z" fill="white"/>
<path d="M10.1357 12.9204C10.1357 12.9204 9.71721 14.664 6.05244 15.4186L10.1357 12.9204Z" fill="white"/>
<path d="M10.1356 14.1063C10.1356 14.1063 9.81863 15.9323 5.77344 15.9323L10.1356 14.1063Z" fill="white"/>
<path d="M10.1358 9.38885C10.1358 9.38885 9.41928 10.8725 6.88945 13.9476L10.1358 9.38885C10.1548 9.38885 10.8522 10.8725 13.382 13.9476L10.1358 9.38885Z" fill="white"/>
<path d="M10.1357 10.5617C10.1357 10.5617 10.7507 11.8298 13.661 14.423L10.1357 10.5617Z" fill="white"/>
<path d="M10.1357 11.7476C10.1357 11.7476 10.6493 13.4088 13.9399 14.9368L10.1357 11.7476Z" fill="white"/>
<path d="M10.1357 12.9204C10.1357 12.9204 10.5542 14.664 14.2189 15.4186L10.1357 12.9204Z" fill="white"/>
<path d="M10.1356 14.1063C10.1356 14.1063 10.4527 15.9323 14.4979 15.9323L10.1356 14.1063Z" fill="white"/>
</svg>
