<svg width="24" height="24" viewBox="0 0 24 24" fill="none" xmlns="http://www.w3.org/2000/svg">
<path d="M20.2825 3.49884L13.0989 8.81275L14.4383 5.68017L20.2825 3.49884Z" fill="#E17726" stroke="#E17726" stroke-width="0.25" stroke-linecap="round" stroke-linejoin="round"/>
<path d="M3.71767 3.49884L10.8357 8.85649L9.56188 5.68563L3.71767 3.49884ZM17.6968 15.816L15.7833 18.7353L19.8781 19.8615L21.048 15.8816L17.6968 15.816V15.816ZM2.95776 15.8816L4.12223 19.8615L8.20607 18.7353L6.30356 15.816L2.95776 15.8816V15.8816Z" fill="#E27625" stroke="#E27625" stroke-width="0.25" stroke-linecap="round" stroke-linejoin="round"/>
<path d="M7.98747 10.8848L6.85034 12.6014L10.8959 12.7873L10.7647 8.4301L7.98747 10.8902V10.8848ZM16.013 10.8902L13.192 8.37543L13.0991 12.7873L17.1447 12.6014L16.013 10.8902V10.8902ZM8.20615 18.7354L10.6608 17.5545L8.55057 15.9144L8.20615 18.7354ZM13.3451 17.549L15.7834 18.7354L15.4554 15.9089L13.3451 17.549Z" fill="#E27625" stroke="#E27625" stroke-width="0.25" stroke-linecap="round" stroke-linejoin="round"/>
<path d="M15.7833 18.7353L13.345 17.5544L13.5418 19.1399L13.52 19.8123L15.7833 18.7353ZM8.20605 18.7353L10.4803 19.8123L10.4639 19.1399L10.6607 17.5544L8.20605 18.7353Z" fill="#D5BFB2" stroke="#D5BFB2" stroke-width="0.25" stroke-linecap="round" stroke-linejoin="round"/>
<path d="M10.5184 14.8592L8.49561 14.2688L9.92796 13.6128L10.5239 14.8592H10.5184ZM13.476 14.8592L14.0774 13.6073L15.5152 14.2633L13.476 14.8647V14.8592Z" fill="#233447" stroke="#233447" stroke-width="0.25" stroke-linecap="round" stroke-linejoin="round"/>
<path d="M8.20598 18.7353L8.56133 15.816L6.30347 15.8816L8.20598 18.7353ZM15.4388 15.816L15.7832 18.7353L17.6967 15.8816L15.4388 15.816ZM17.15 12.6014L13.1044 12.7873L13.4762 14.8647L14.0775 13.6073L15.5153 14.2633L17.15 12.6014V12.6014ZM8.49573 14.2688L9.92808 13.6128L10.524 14.8592L10.9012 12.7818L6.85563 12.6014L8.49573 14.2688V14.2688Z" fill="#CC6228" stroke="#CC6228" stroke-width="0.25" stroke-linecap="round" stroke-linejoin="round"/>
<path d="M6.85547 12.6014L8.55023 15.9089L8.49556 14.2688L6.85547 12.6014ZM15.5152 14.2688L15.4496 15.9089L17.1443 12.6014L15.5152 14.2688ZM10.901 12.7873L10.5183 14.8647L10.9994 17.3139L11.1088 14.0829L10.901 12.7873ZM13.0988 12.7873L12.902 14.0775L13.0004 17.3139L13.476 14.8592L13.0988 12.7818V12.7873Z" fill="#E27525" stroke="#E27525" stroke-width="0.25" stroke-linecap="round" stroke-linejoin="round"/>
<path d="M13.4761 14.8592L13.0005 17.3139L13.3449 17.5544L15.4497 15.9143L15.5153 14.2688L13.4761 14.8592ZM8.4957 14.2688L8.55037 15.9089L10.6606 17.549L10.9996 17.3139L10.524 14.8592L8.49023 14.2688H8.4957Z" fill="#F5841F" stroke="#F5841F" stroke-width="0.25" stroke-linecap="round" stroke-linejoin="round"/>
<path d="M13.5254 19.8123L13.5418 19.1399L13.356 18.9868H10.6443L10.4639 19.1399L10.4803 19.8123L8.20605 18.7353L9.00423 19.3914L10.617 20.5012H13.3778L14.9961 19.3859L15.7833 18.7353L13.52 19.8123H13.5254Z" fill="#C0AC9D" stroke="#C0AC9D" stroke-width="0.25" stroke-linecap="round" stroke-linejoin="round"/>
<path d="M13.345 17.549L13.0005 17.3139H10.9996L10.6607 17.5545L10.4639 19.1399L10.6443 18.9868H13.3559L13.5418 19.1399L13.345 17.5545V17.549Z" fill="#161616" stroke="#161616" stroke-width="0.25" stroke-linecap="round" stroke-linejoin="round"/>
<path d="M20.5887 9.15717L21.1901 6.23233L20.2825 3.49884L13.3395 8.63781L16.0128 10.8847L19.785 11.9836L20.616 11.0159L20.2552 10.7535L20.8292 10.2287L20.3919 9.88974L20.9659 9.45239L20.5832 9.15717H20.5887ZM2.81006 6.22687L3.42236 9.15717L3.02874 9.44692L3.61371 9.88428L3.17635 10.2287L3.74491 10.7535L3.38409 11.0159L4.21507 11.9836L7.98729 10.8902L10.6606 8.63234L3.71758 3.49884L2.81006 6.22687Z" fill="#763E1A" stroke="#763E1A" stroke-width="0.25" stroke-linecap="round" stroke-linejoin="round"/>
<path d="M19.7851 11.9836L16.0129 10.8902L17.1501 12.6014L15.4553 15.9089L17.6968 15.8816H21.048L19.7851 11.9836ZM7.98739 10.8847L4.21517 11.9836L2.95776 15.8816H6.30903L8.55049 15.9089L6.85572 12.6014L7.99286 10.8847H7.98739ZM13.099 12.7873L13.345 8.63235L14.4384 5.68018H9.56188L10.6553 8.63235L10.9013 12.7873L10.9942 14.0884V17.3139H13.0006L13.0115 14.0884L13.099 12.7873Z" fill="#F5841F" stroke="#F5841F" stroke-width="0.25" stroke-linecap="round" stroke-linejoin="round"/>
</svg>
