<svg width="64" height="64" viewBox="0 0 64 64" fill="none" xmlns="http://www.w3.org/2000/svg">
    <rect width="64" height="64" fill="black"/>
    <path fill-rule="evenodd" clip-rule="evenodd"
          d="M31.9999 61C48.0162 61 61 48.0163 61 32C61 15.9838 48.0162 3 31.9999 3C15.9837 3 3 15.9837 3 32C3 48.0163 15.9837 61 31.9999 61ZM63 32C63 49.1209 49.1208 63 31.9999 63C14.8792 63 1 49.1209 1 32C1 14.8792 14.8792 1 31.9999 1C49.1208 1 63 14.8792 63 32Z"
          fill="black"/>
    <path fill-rule="evenodd" clip-rule="evenodd"
          d="M31.9999 61C48.0162 61 61 48.0163 61 32C61 15.9838 48.0162 3 31.9999 3C15.9837 3 3 15.9837 3 32C3 48.0163 15.9837 61 31.9999 61ZM63 32C63 49.1209 49.1208 63 31.9999 63C14.8792 63 1 49.1209 1 32C1 14.8792 14.8792 1 31.9999 1C49.1208 1 63 14.8792 63 32Z"
          fill="url(#paint0_linear_12475_52732)"/>
    <path d="M40.1081 26.0193C39.982 26.3474 34.6832 23.0538 29.844 25.3009C26.3257 26.9346 24.8723 30.1018 24.8723 32.8025C24.8723 34.9304 25.6193 36.5382 26.4358 37.5858C27.7639 39.2898 28.9993 39.9308 30.0663 40.5005C31.785 41.418 34.708 41.4486 35.5955 41.4031C37.2479 41.3182 39.1893 40.8455 40.8265 40.0896C41.4515 39.801 42.4665 39.1749 43.3556 38.4746C44.8739 37.279 46.2723 35.7749 46.2479 35.8913C46.2092 36.0759 46.2248 36.2218 45.4657 37.5398C43.2162 41.4447 39.4763 43.1482 39.4763 43.1482C34.2077 45.9055 29.5322 44.4753 28.6233 44.1321C24.6339 42.625 22.5533 39.7998 22.0672 38.9014C21.2744 37.436 19.8531 32.0538 21.7574 27.7759C23.1687 24.6056 26.4404 23.048 26.8017 22.8989C32.6311 20.4921 40.2228 25.7211 40.1081 26.0193Z"
          fill="url(#paint1_linear_12475_52732)"/>
    <path d="M40.2743 25.7451C40.0375 25.9623 38.3358 23.942 35.6037 22.483C34.8225 22.066 31.8425 20.5671 28.2027 20.644C22.1689 20.771 18.1592 25.1491 17.4441 25.9605C13.8703 30.0157 12.1877 36.2603 14.1978 41.1196C16.8102 47.4342 25.5511 51.0662 24.8864 51.1378L24.1217 50.8959C23.1992 50.536 11.8764 45.4921 11.4709 35.4413C11.2422 29.7778 13.0832 25.1912 14.1978 23.9392C16.1454 21.7515 17.707 20.6983 19.0235 20.0027C21.6689 18.6059 26.6439 17.409 30.3362 17.9588C34.4791 18.576 37.0796 21.4366 38.3476 22.8317C39.4917 24.0898 40.4657 25.5697 40.2743 25.7451Z"
          fill="url(#paint2_linear_12475_52732)"/>
    <path d="M40.245 26.0127C40.5249 25.8897 40.1513 22.129 37.6803 19.2691C36.6838 18.1134 35.588 17.0626 34.2428 16.3272C28.6812 13.3472 21.8429 15.7436 20.3627 16.3272C18.8464 16.9248 15.611 18.5577 12.8949 21.908C9.83317 25.6849 9.37974 29.7369 9.20543 31.5106C8.46054 39.0843 12.444 45.0322 12.7275 44.9425C12.8927 44.8903 11.0855 41.1058 11.4715 35.4412C11.6185 33.2848 11.9205 29.335 14.6866 25.5438C16.3622 23.3079 18.3007 21.4467 20.8294 20.218C22.2926 19.5033 27.5282 17.2 32.7712 19.0292C34.3688 19.598 35.8395 20.4662 37.1026 21.5859C39.3851 23.6484 40.016 26.1135 40.245 26.0127Z"
          fill="url(#paint3_linear_12475_52732)"/>
    <path d="M32.1896 47.2269C32.0583 47.4477 22.9871 44.8886 19.5793 38.5815C19.0664 37.6326 16.698 32.5749 18.2519 28.6375C18.9017 26.9905 20.1811 25.1467 20.6979 24.574C21.5327 23.6491 22.9488 22.8176 24.747 22.0641C25.555 21.7335 27.0311 21.3893 27.8982 21.2754C28.7578 21.1708 30.078 21.1932 30.94 21.2754C32.6159 21.4351 34.8807 23.3696 34.817 23.3696C34.7999 23.3696 33.0195 22.8053 31.1785 22.6802C29.6525 22.5766 27.9972 22.9269 27.4103 23.132C26.1149 23.5848 24.3396 24.574 23.3131 25.824C22.2865 27.0739 21.4103 28.8405 21.2236 31.2087C21.0868 32.9446 21.2746 35.4769 22.0357 37.4512C22.4006 38.3975 23.0291 39.6018 24.2369 41.1878C26.8079 44.5636 32.2846 47.0686 32.1896 47.2269Z"
          fill="url(#paint4_linear_12475_52732)"/>
    <path d="M27.2751 20.4824C28.8488 20.2582 30.1957 20.1808 31.7561 20.4824C33.5467 20.838 34.5372 21.2044 35.7568 21.8211C37.8399 22.8743 40.4763 25.5748 40.2754 25.9802C39.9179 26.7027 34.3669 20.8971 26.7409 22.895C24.5843 23.6227 23.2542 24.3022 21.8769 25.3401C19.5311 27.1078 18.3687 29.4329 18.0014 30.3837C17.3708 32.0162 17.1995 32.9348 17.1232 34.6721C17.1232 37.0112 17.566 38.368 18.1015 39.8552C18.8634 41.972 20.2843 44.3918 20.0561 44.2352C17.4456 42.4424 15.8143 36.911 15.6341 35.7646C15.4539 34.6182 14.6843 29.6526 18.0014 25.5178C21.0255 21.7484 26.1021 20.6513 27.2751 20.4824Z"
          fill="url(#paint5_linear_12475_52732)"/>
    <path d="M34.8274 30.0927L34.6897 30.3921C34.3709 30.1283 33.9577 29.9785 33.4937 29.9785C32.2977 29.9785 31.4424 30.8274 31.4424 32.0186C31.4424 33.2169 32.2977 34.0729 33.4937 34.0729C33.9504 34.0729 34.3563 33.9303 34.6752 33.6735L34.7912 33.9445H35.835V30.0927H34.8274ZM33.6749 32.9031C33.1676 32.9031 32.7979 32.525 32.7979 32.0186C32.7979 31.5193 33.1676 31.1483 33.6749 31.1483C34.1824 31.1483 34.5521 31.5193 34.5521 32.0186C34.5521 32.525 34.1824 32.9031 33.6749 32.9031Z"
          fill="white"/>
    <path d="M37.1775 33.945H38.5257V28.7021H37.1775V33.945Z" fill="white"/>
    <path d="M42.177 32.7889C41.8942 32.7889 41.7203 32.6177 41.7203 32.3466V31.1198H42.6699V30.0926H41.6913V28.9727H41.4085L39.6545 30.8058V31.1198H40.372V32.5678C40.372 33.4238 40.9012 33.9444 41.7638 33.9444H42.6916V32.7889H42.177Z"
          fill="white"/>
    <path d="M47.2998 30.0927L47.162 30.3921C46.8431 30.1283 46.4299 29.9785 45.9661 29.9785C44.7701 29.9785 43.9148 30.8274 43.9148 32.0186C43.9148 33.2169 44.7701 34.0729 45.9661 34.0729C46.4227 34.0729 46.8286 33.9303 47.1476 33.6735L47.2636 33.9445H48.3074V30.0927H47.2998ZM46.1473 32.9031C45.6398 32.9031 45.2702 32.525 45.2702 32.0186C45.2702 31.5193 45.6398 31.1483 46.1473 31.1483C46.6547 31.1483 47.0243 31.5193 47.0243 32.0186C47.0243 32.525 46.6547 32.9031 46.1473 32.9031Z"
          fill="white"/>
    <path d="M49.6573 29.6143H50.9911V28.4873H49.6573V29.6143ZM49.6501 33.9441H50.9982V30.0923H49.6501V33.9441Z"
          fill="white"/>
    <path d="M54.5253 30.0791C54.0614 30.0791 53.7279 30.2076 53.4524 30.5214L53.2423 30.0934H52.3362V33.9452H53.6844V31.9908C53.6844 31.4986 53.8875 31.2918 54.3586 31.2918H54.8877V30.0791H54.5253Z"
          fill="white"/>
    <defs>
        <linearGradient id="paint0_linear_12475_52732" x1="55.8834" y1="11.1775" x2="9.36716" y2="54.5483"
                        gradientUnits="userSpaceOnUse">
            <stop stop-color="#FBBA61"/>
            <stop offset="0.484375" stop-color="#9F753E"/>
            <stop offset="1" stop-color="#EDAF5C"/>
        </linearGradient>
        <linearGradient id="paint1_linear_12475_52732" x1="36.7888" y1="22.3894" x2="36.7888" y2="44.9036"
                        gradientUnits="userSpaceOnUse">
            <stop stop-color="#FAB961"/>
            <stop offset="1"/>
        </linearGradient>
        <linearGradient id="paint2_linear_12475_52732" x1="25.875" y1="17.8223" x2="25.875" y2="51.1936"
                        gradientUnits="userSpaceOnUse">
            <stop stop-color="#FAB961"/>
            <stop offset="1"/>
        </linearGradient>
        <linearGradient id="paint3_linear_12475_52732" x1="24.7236" y1="15.0503" x2="24.7236" y2="44.9442"
                        gradientUnits="userSpaceOnUse">
            <stop/>
            <stop offset="0.414296" stop-color="#FAB961"/>
        </linearGradient>
        <linearGradient id="paint4_linear_12475_52732" x1="25.0874" y1="22.3018" x2="25.0874" y2="46.6114"
                        gradientUnits="userSpaceOnUse">
            <stop/>
            <stop offset="1" stop-color="#FAB961"/>
        </linearGradient>
        <linearGradient id="paint5_linear_12475_52732" x1="27.857" y1="20.8695" x2="27.857" y2="44.2422"
                        gradientUnits="userSpaceOnUse">
            <stop/>
            <stop offset="1" stop-color="#FAB961"/>
        </linearGradient>
    </defs>
</svg>
