<svg width="64" height="64" viewBox="0 0 64 64" fill="none" xmlns="http://www.w3.org/2000/svg">
<rect width="64" height="64" fill="#020617"/>
<path d="M49.9578 30.7785C49.2832 20.8608 40.6964 13.3676 30.7785 14.0422C25.8379 14.3783 21.4998 16.6786 18.4726 20.1281L18.4726 20.1281L18.4641 20.122C18.4437 20.1502 18.4247 20.178 18.4044 20.2063C15.3974 23.6726 13.7062 28.2815 14.0422 33.2215C14.0742 33.6922 14.1296 34.1554 14.1966 34.6146C14.1966 34.6147 14.1966 34.6148 14.1966 34.615C14.1996 34.6357 14.2027 34.6564 14.2056 34.6771C14.2509 34.9801 14.3034 35.2803 14.3634 35.5778C14.3634 35.5779 14.3635 35.5781 14.3635 35.5783C14.3646 35.5837 14.3656 35.5891 14.3667 35.5945C14.4213 35.8639 14.4819 36.1308 14.5483 36.3955L14.5484 36.396C14.5485 36.3962 14.5485 36.3964 14.5486 36.3966C16.6273 44.6868 24.3947 50.5582 33.2215 49.9578C43.1393 49.2832 50.6324 40.6963 49.9578 30.7785H49.9578ZM46.0397 31.045C46.1228 32.2661 46.046 33.4616 45.8285 34.6117C45.8259 34.6052 45.8237 34.5983 45.8211 34.5917V34.5917C44.5161 31.402 41.9349 29.0991 39.6648 27.827C40.1242 22.4222 38.2906 20.1452 36.2154 19.7747C36.159 19.7638 36.1022 19.7546 36.0445 19.7474C34.3974 19.5362 32.8912 20.7004 32.6803 22.3473C32.469 23.9944 33.6332 25.5006 35.2802 25.712C35.4238 25.7301 35.566 25.7352 35.7067 25.733C35.7159 25.9154 35.7216 26.1092 35.7232 26.3119C33.8043 25.8364 32.0106 25.7433 30.3752 25.8904C29.7636 25.9311 29.1517 26.0082 28.543 26.1219C28.7471 24.2969 29.4319 22.2479 30.7605 20.7484C32.0449 19.2989 33.9544 18.4681 36.0375 18.6813C36.4324 18.7217 36.8538 18.8187 37.2331 18.9461C37.2505 18.9519 37.2691 18.9569 37.2863 18.9629C37.2865 18.9625 37.2869 18.9621 37.2871 18.9617C42.1121 20.9273 45.663 25.5064 46.0397 31.045V31.045ZM33.4939 33.7943C33.4926 33.7963 33.4912 33.7982 33.4899 33.8002C33.0604 34.4196 32.5496 35.0304 31.95 35.6212C31.0511 34.6648 30.3291 33.6349 29.7812 32.5694C29.7531 32.5123 29.7232 32.458 29.6957 32.4C29.6947 32.3979 29.6937 32.3957 29.6927 32.3936C29.3709 31.7117 29.0972 30.9636 28.8854 30.1486C30.1644 29.8477 31.4188 29.737 32.6167 29.7953C32.6801 29.7995 32.7422 29.8008 32.8061 29.806C32.8085 29.8062 32.8109 29.8064 32.8132 29.8065C33.5635 29.8687 34.3469 30.0055 35.1572 30.2289C34.7784 31.4866 34.2472 32.6277 33.5979 33.6356C33.5626 33.6885 33.5305 33.7416 33.4939 33.7943V33.7943ZM27.3433 18.7231C27.34 18.7274 27.3362 18.7315 27.3328 18.7359L27.3328 18.7359C25.224 21.4595 24.5199 24.8443 24.5525 27.4458C19.6424 29.7503 18.5873 32.4766 19.3041 34.459C19.3228 34.5132 19.3432 34.5671 19.3659 34.6206C20.0065 36.1527 21.7678 36.875 23.2996 36.2342C24.8316 35.5936 25.5539 33.8322 24.9135 32.3003C24.8574 32.1668 24.7907 32.0412 24.7184 31.9204C24.8736 31.8201 25.0403 31.7171 25.2172 31.6132C25.7648 33.5131 26.575 35.1201 27.5201 36.4631C27.8606 36.9713 28.2325 37.4618 28.6344 37.9312C26.9516 38.6672 24.8343 39.099 22.871 38.698C20.9735 38.3104 19.2992 37.0721 18.4423 35.1616C18.2799 34.7994 18.1532 34.3861 18.0739 33.9939C18.025 33.6512 17.9841 33.3058 17.9603 32.955C17.5217 26.5072 21.5219 20.7671 27.3433 18.7231V18.7231ZM32.955 46.0397C29.1261 46.3002 25.547 44.9942 22.842 42.6728C26.2551 43.1373 29.5385 42.0545 31.7751 40.7256C36.2278 43.8282 39.1176 43.379 40.4764 41.7667C40.514 41.7233 40.5504 41.6787 40.5854 41.6323C41.5919 40.3115 41.3368 38.425 40.016 37.4188C38.6952 36.4123 36.8087 36.6675 35.8022 37.9881C35.7146 38.1034 35.6392 38.224 35.5707 38.347C35.4074 38.2633 35.2359 38.171 35.0587 38.0705C36.4315 36.6456 37.4097 35.1377 38.1005 33.6469C38.371 33.0969 38.6102 32.5283 38.8161 31.9444C40.2957 33.0337 41.7296 34.6521 42.3643 36.5539C42.9774 38.391 42.7422 40.4601 41.516 42.1575C41.2835 42.4793 40.9889 42.7957 40.6889 43.0605C40.6846 43.0644 40.6803 43.0684 40.6759 43.0724C38.5307 44.7584 35.8765 45.841 32.955 46.0397V46.0397Z" fill="url(#paint0_linear_19815_15614)"/>
<path style="mix-blend-mode:overlay" opacity="0.9" d="M36.2156 19.7748C36.1592 19.764 36.1024 19.7547 36.0447 19.7476C35.7533 19.7102 35.4668 19.7179 35.1906 19.7617C36.9125 20.6985 38.1679 23.3085 37.5079 28.457C37.2893 30.1622 36.7822 31.7849 36.05 33.2739C35.4567 34.5542 34.6495 35.8468 33.5645 37.0889C34.0855 37.4797 34.5937 37.8068 35.0589 38.0706C36.4317 36.6457 37.4099 35.1379 38.1007 33.6471C38.8329 32.1581 39.3399 30.5353 39.5586 28.8302C40.3444 22.7 38.4151 20.1675 36.2156 19.7748V19.7748Z" fill="url(#paint1_radial_19815_15614)"/>
<g style="mix-blend-mode:overlay" opacity="0.8">
<path d="M37.5078 28.457C38.1678 23.3085 36.9124 20.6985 35.1904 19.7617C35.1232 19.7724 35.0572 19.7867 34.9913 19.8018C36.6771 20.7709 37.8901 23.3785 37.239 28.457C37.0204 30.1622 36.5134 31.7849 35.7812 33.2739C35.2075 34.5118 34.4317 35.7609 33.4004 36.965C33.4552 37.0075 33.5097 37.048 33.5643 37.0889C34.6494 35.8468 35.4566 34.5542 36.0499 33.2739C36.7821 31.7849 37.2891 30.1622 37.5078 28.457V28.457Z" fill="white"/>
</g>
<path style="mix-blend-mode:overlay" opacity="0.5" d="M30.9626 40.1343C30.8008 40.011 30.6451 39.882 30.4893 39.7529C27.9482 40.8131 24.4255 41.4779 20.9277 40.6662C21.5005 41.3963 22.1397 42.0704 22.8419 42.673C26.255 43.1375 29.5384 42.0548 31.775 40.7259C31.5095 40.5409 31.2393 40.3451 30.9626 40.1343V40.1343Z" fill="url(#paint2_radial_19815_15614)"/>
<path style="mix-blend-mode:overlay" opacity="0.6" d="M30.4895 39.7529C30.4117 39.6884 30.3333 39.6245 30.257 39.5586C27.6966 40.5818 24.1579 41.1934 20.668 40.3237C20.753 40.4391 20.8395 40.5534 20.9279 40.6661C24.4257 41.4778 27.9484 40.8131 30.4895 39.7529V39.7529Z" fill="url(#paint3_linear_19815_15614)"/>
<path style="mix-blend-mode:overlay" opacity="0.9" d="M19.3045 34.4617C19.3232 34.5159 19.3436 34.5698 19.3663 34.6233C19.4796 34.8944 19.6296 35.1386 19.8056 35.3559C19.7559 33.3963 21.3885 31.0041 26.1773 29.0014C27.7633 28.3382 29.4222 27.9659 31.0778 27.8555C32.4832 27.7292 34.0062 27.782 35.6244 28.1006C35.7023 27.4539 35.7316 26.8503 35.7274 26.3155C33.8071 25.8391 32.0121 25.7459 30.3756 25.893C28.72 26.0034 27.0612 26.3757 25.4751 27.0389C19.7733 29.4234 18.5448 32.3605 19.3045 34.4617L19.3045 34.4617Z" fill="url(#paint4_radial_19815_15614)"/>
<g style="mix-blend-mode:overlay" opacity="0.8">
<path d="M26.1775 29.0013C21.3887 31.004 19.7561 33.3962 19.8058 35.3559C19.8486 35.4088 19.894 35.4587 19.9401 35.5082C19.9364 33.5637 21.5882 31.2095 26.3118 29.234C27.8979 28.5708 29.5567 28.1985 31.2123 28.0882C32.5712 27.966 34.0408 28.0134 35.5993 28.3044C35.6086 28.2357 35.6165 28.1683 35.6246 28.1005C34.0064 27.7819 32.4834 27.7291 31.078 27.8554C29.4224 27.9658 27.7635 28.3381 26.1775 29.0013Z" fill="white"/>
</g>
<path style="mix-blend-mode:overlay" opacity="0.4" d="M39.5624 28.8314C39.5365 29.0332 39.5026 29.2326 39.4688 29.4319C41.6575 31.1025 43.9945 33.8209 45.0404 37.2559C45.3863 36.3948 45.6506 35.5042 45.8214 34.5948C44.5171 31.4067 41.9377 29.1046 39.6685 27.832C39.641 28.1545 39.6066 28.4864 39.5624 28.8314V28.8314Z" fill="url(#paint5_radial_19815_15614)"/>
<path style="mix-blend-mode:overlay" opacity="0.5" d="M39.468 29.4316C39.4511 29.5313 39.4349 29.6311 39.416 29.7301C41.5823 31.4359 43.8814 34.1946 44.8731 37.6519C44.9306 37.5206 44.9863 37.3885 45.0397 37.2556C43.9938 33.8206 41.6568 31.1022 39.468 29.4316V29.4316Z" fill="url(#paint6_linear_19815_15614)"/>
<path style="mix-blend-mode:overlay" opacity="0.9" d="M40.4772 41.7626C40.5148 41.7192 40.5513 41.6746 40.5863 41.6282C40.7644 41.3945 40.9009 41.1425 41.0011 40.8814C39.3289 41.9043 36.4408 41.6865 32.3121 38.5406C30.9447 37.4987 29.7929 36.2482 28.8695 34.8696C28.0573 33.7157 27.3416 32.3703 26.8084 30.8096C26.2094 31.0654 25.672 31.3419 25.2109 31.613C25.7586 33.5142 26.5753 35.1153 27.521 36.459C28.4444 37.8376 29.5962 39.088 30.9636 40.13C35.8795 43.8756 39.0374 43.471 40.4772 41.7626V41.7626Z" fill="url(#paint7_radial_19815_15614)"/>
<g style="mix-blend-mode:overlay" opacity="0.8">
<path d="M32.3123 38.5406C36.441 41.6864 39.3291 41.9042 41.0013 40.8813C41.0257 40.8178 41.0463 40.7535 41.0661 40.6889C39.384 41.6643 36.5193 41.4109 32.4467 38.3079C31.0792 37.2659 29.9274 36.0155 29.004 34.6369C28.2188 33.5211 27.525 32.2247 26.9978 30.7295C26.9336 30.7558 26.8713 30.7827 26.8086 30.8095C27.3418 32.3703 28.0575 33.7156 28.8697 34.8696C29.7931 36.2482 30.9449 37.4986 32.3123 38.5406V38.5406Z" fill="white"/>
</g>
<path style="mix-blend-mode:overlay" opacity="0.3" d="M25.4723 27.0335C25.66 26.955 25.8496 26.8847 26.0393 26.8144C26.3916 24.0836 27.5773 20.7005 30.0292 18.0771C29.1105 18.2081 28.207 18.4246 27.3341 18.7314C25.2253 21.455 24.5212 24.8399 24.5538 27.4413C24.8468 27.3039 25.1514 27.1677 25.4723 27.0335V27.0335Z" fill="url(#paint8_radial_19815_15614)"/>
<path style="mix-blend-mode:overlay" opacity="0.4" d="M26.0391 26.8145C26.1338 26.7794 26.2283 26.7435 26.3235 26.7103C26.7176 23.9814 27.9573 20.6109 30.4555 18.0234C30.313 18.0393 30.1708 18.0571 30.029 18.0773C27.5771 20.7006 26.3914 24.0837 26.0391 26.8145V26.8145Z" fill="url(#paint9_linear_19815_15614)"/>
<path style="mix-blend-mode:multiply" opacity="0.4" d="M30.7786 14.042C25.8379 14.3781 21.4998 16.6784 18.4726 20.1279C18.4497 20.154 18.427 20.1801 18.4043 20.2063L18.4045 20.2061C18.9938 20.7907 20.92 21.9434 21.7006 22.4241C23.2334 20.7757 25.1604 19.4894 27.3434 18.7229C27.4959 18.5265 27.6539 18.3326 27.8213 18.1437C29.8545 15.8494 32.6311 14.6367 35.8516 14.6367C36.2101 14.6367 36.9401 14.6938 36.9558 14.6949C35.0034 14.134 32.9226 13.8962 30.7786 14.042Z" fill="url(#paint10_linear_19815_15614)"/>
<path style="mix-blend-mode:multiply" opacity="0.4" d="M32.9552 46.0394C29.1263 46.2999 25.5472 44.9939 22.8422 42.6724H22.8422L22.8422 42.6724C22.5904 42.6382 22.3381 42.597 22.0853 42.5454C19.0817 41.9318 16.6432 40.1335 15.033 37.3444C14.8537 37.034 14.6934 36.7177 14.5488 36.3965C16.6277 44.6865 24.395 50.5579 33.2217 49.9575C33.2609 49.0485 32.9929 46.9394 32.9552 46.0394V46.0394Z" fill="url(#paint11_linear_19815_15614)"/>
<path style="mix-blend-mode:multiply" opacity="0.4" d="M49.9584 30.778C49.4054 30.7213 46.7044 30.9345 46.0403 31.0445C46.1234 32.2655 46.0465 33.461 45.8291 34.6112C45.9223 34.84 46.0107 35.0723 46.0901 35.3101C47.0604 38.2181 46.7224 41.2291 45.1121 44.0181C44.9362 44.3228 44.7463 44.6146 44.5447 44.8955C44.5408 44.9008 44.5364 44.9069 44.5332 44.9114C44.533 44.9116 44.5415 44.9043 44.5462 44.9C48.2021 41.3432 50.3317 36.2657 49.9584 30.778V30.778Z" fill="url(#paint12_linear_19815_15614)"/>
<path style="mix-blend-mode:multiply" opacity="0.5" d="M36.0376 18.6814C36.4325 18.7218 36.8538 18.8188 37.2332 18.9462C37.2506 18.952 37.2691 18.957 37.2864 18.963C37.2866 18.9626 37.287 18.9622 37.2872 18.9618C38.8399 19.5944 40.2596 20.4989 41.4851 21.6176C41.4878 21.6198 41.4904 21.6216 41.493 21.6238C42.0837 20.9486 43.2209 20.2066 43.2209 20.2066C43.2209 20.2066 41.4795 18.4253 38.8161 17.8725C36.9516 17.4855 32.7461 17.1103 30.0938 21.6238C30.0938 21.6238 30.1043 21.6139 30.1198 21.5996C30.316 21.303 30.5246 21.0148 30.7606 20.7485C32.045 19.299 33.9545 18.4682 36.0376 18.6814V18.6814Z" fill="url(#paint13_linear_19815_15614)"/>
<path style="mix-blend-mode:multiply" opacity="0.5" d="M41.5162 42.1558C41.2837 42.4776 40.9891 42.794 40.6891 43.0589C40.6753 43.071 40.6618 43.0846 40.6479 43.0965C40.6481 43.0969 40.6483 43.0974 40.6485 43.0978C39.3243 44.1263 37.8312 44.9034 36.2496 45.4054C36.2463 45.4066 36.2435 45.408 36.2402 45.4092C36.5297 46.2583 36.6036 47.6142 36.6036 47.6142C36.6036 47.6142 39.017 46.9967 40.8275 44.9666C42.0949 43.5454 44.5225 40.0909 41.9399 35.5371C41.9399 35.5371 41.9432 35.5512 41.9479 35.5718C42.1066 35.89 42.2519 36.2148 42.3645 36.5522C42.9776 38.3893 42.7424 40.4584 41.5162 42.1558V42.1558Z" fill="url(#paint14_linear_19815_15614)"/>
<path style="mix-blend-mode:multiply" opacity="0.5" d="M18.4481 35.1662C18.2856 34.804 18.1589 34.3906 18.0796 33.9984C18.0759 33.9803 18.0709 33.9618 18.0675 33.9439C18.0671 33.9439 18.0665 33.9438 18.0661 33.9438C17.8375 32.2828 17.911 30.6011 18.2672 28.9804C18.2677 28.977 18.268 28.9738 18.2686 28.9704C17.3885 28.7965 16.1772 28.1826 16.1772 28.1826C16.1772 28.1826 15.5053 30.5814 16.3582 33.1643C16.9553 34.9726 18.7332 38.8022 23.9682 38.8425C23.9682 38.8425 23.9543 38.8383 23.9341 38.832C23.5792 38.8104 23.2253 38.7738 22.8768 38.7027C20.9792 38.315 19.305 37.0768 18.4481 35.1662V35.1662Z" fill="url(#paint15_linear_19815_15614)"/>
<path style="mix-blend-mode:multiply" opacity="0.6" d="M35.2789 25.712C35.4226 25.7302 35.5647 25.7353 35.7055 25.733C35.7055 25.733 35.6115 23.8628 35.3818 22.9032C35.1522 21.9436 34.8134 21.3082 34.4414 20.9485C34.1748 20.6909 33.3334 20.37 32.6791 22.3474C32.4678 23.9944 33.632 25.5007 35.2789 25.712Z" fill="url(#paint16_linear_19815_15614)"/>
<path style="mix-blend-mode:multiply" opacity="0.5" d="M24.9136 32.3037C24.8575 32.1702 24.7908 32.0446 24.7185 31.9238C24.7185 31.9238 23.1459 32.9404 22.4297 33.619C21.7135 34.2977 21.3325 34.9088 21.2071 35.4108C21.1172 35.7705 21.2601 36.6596 23.2997 36.2376C24.8317 35.597 25.5541 33.8357 24.9136 32.3037V32.3037Z" fill="url(#paint17_linear_19815_15614)"/>
<path style="mix-blend-mode:multiply" opacity="0.6" d="M35.8037 37.9833C35.7162 38.0987 35.6407 38.2193 35.5723 38.3422C35.5723 38.3422 37.239 39.196 38.1848 39.4769C39.1306 39.7578 39.8503 39.7821 40.3478 39.6398C40.7042 39.5378 41.4028 38.9695 40.0175 37.4141C38.6968 36.4076 36.8102 36.6628 35.8037 37.9833V37.9833Z" fill="url(#paint18_linear_19815_15614)"/>
<path style="mix-blend-mode:multiply" opacity="0.3" d="M35.1584 30.2295C34.7795 31.4871 34.2483 32.6283 33.5991 33.6362C33.5637 33.6891 33.5316 33.7422 33.4951 33.7949C33.4938 33.7969 33.4924 33.7988 33.4911 33.8008C33.0616 34.4202 32.5508 35.031 31.9512 35.6218C32.3632 36.0602 32.8089 36.4847 33.2982 36.8874C33.9128 37.3724 34.5152 37.7622 35.0599 38.0711C36.4326 36.6462 37.4108 35.1383 38.1017 33.6475C38.3722 33.0975 38.6114 32.5289 38.8172 31.945C38.184 31.4787 37.5424 31.1078 36.9513 30.8557C36.34 30.5952 35.7424 30.3905 35.1584 30.2295V30.2295Z" fill="url(#paint19_linear_19815_15614)"/>
<path style="mix-blend-mode:multiply" opacity="0.3" d="M22.8423 42.673C26.2555 43.1375 29.5388 42.0548 31.7755 40.7259C31.51 40.5409 31.2397 40.3451 30.9631 40.1343C30.0998 39.4765 29.3229 38.7353 28.6347 37.9314C26.952 38.6675 24.8347 39.0993 22.8714 38.6983C20.9738 38.3107 19.2996 37.0724 18.4427 35.1618C18.2803 34.7997 18.1536 34.3863 18.0742 33.9941C18.5701 37.4737 20.3259 40.5134 22.8423 42.673V42.673Z" fill="url(#paint20_linear_19815_15614)"/>
<path style="mix-blend-mode:multiply" opacity="0.3" d="M31.9496 35.621C31.0507 34.6646 30.3287 33.6347 29.7808 32.5692C29.7527 32.5122 29.7228 32.4578 29.6953 32.3998C29.6943 32.3977 29.6933 32.3955 29.6923 32.3934C29.3704 31.7115 29.0968 30.9634 28.885 30.1484C28.3005 30.2859 27.7115 30.4593 27.1194 30.6813C26.3937 30.9704 25.7559 31.2964 25.2168 31.613C25.7644 33.513 26.5746 35.1199 27.5197 36.4629C27.8601 36.9711 28.2321 37.4616 28.634 37.931C29.3555 37.6154 29.9985 37.2448 30.5129 36.8584C31.0434 36.46 31.5187 36.0455 31.9496 35.621V35.621Z" fill="url(#paint21_linear_19815_15614)"/>
<path style="mix-blend-mode:multiply" opacity="0.3" d="M27.3322 18.7361C25.2234 21.4597 24.5193 24.8445 24.5519 27.446C24.8459 27.3079 25.1519 27.1712 25.4741 27.0365C26.4743 26.6182 27.5034 26.3162 28.5424 26.1221C28.7465 24.2971 29.4313 22.2481 30.7599 20.7486C32.0443 19.2991 33.9538 18.4683 36.0369 18.6815C36.4318 18.7219 36.8532 18.8189 37.2325 18.9463C37.2499 18.9521 37.2685 18.9571 37.2857 18.9631C37.2859 18.9627 37.2863 18.9623 37.2865 18.9619C35.3674 18.1801 33.2474 17.8106 31.0444 17.9605C29.7506 18.0485 28.5109 18.3132 27.3427 18.7233C27.3394 18.7277 27.3356 18.7318 27.3322 18.7361L27.3322 18.7361V18.7361Z" fill="url(#paint22_linear_19815_15614)"/>
<path style="mix-blend-mode:multiply" opacity="0.3" d="M45.8214 34.5919C44.5165 31.4021 41.9352 29.0993 39.6651 27.8271C39.6376 28.1507 39.6031 28.4839 39.5587 28.8302C39.4208 29.9055 39.1678 30.9477 38.8164 31.9445C40.2961 33.0338 41.7299 34.6523 42.3647 36.5541C42.9777 38.3912 42.7425 40.4603 41.5163 42.1577C41.2839 42.4794 40.9892 42.7959 40.6892 43.0607C40.6849 43.0646 40.6806 43.0686 40.6763 43.0726C43.3189 40.9956 45.188 38.0021 45.8289 34.6119C45.8262 34.6054 45.8241 34.5985 45.8214 34.5919V34.5919V34.5919Z" fill="url(#paint23_linear_19815_15614)"/>
<path style="mix-blend-mode:multiply" opacity="0.3" d="M28.5332 28.2863C28.613 28.9446 28.7341 29.5632 28.8862 30.1483C30.1653 29.8474 31.4196 29.7367 32.6175 29.7951C32.681 29.7993 32.743 29.8005 32.807 29.8058C32.8094 29.8059 32.8117 29.8061 32.8141 29.8063C33.5644 29.8685 34.3477 30.0052 35.1581 30.2286C35.3314 29.6534 35.4759 29.0561 35.5798 28.4318C35.6927 27.6559 35.7291 26.9385 35.724 26.3116C33.8051 25.8361 32.0115 25.7431 30.3761 25.8901C29.7645 25.9309 29.1525 26.0079 28.5439 26.1216C28.4563 26.9047 28.4557 27.6473 28.5332 28.2863H28.5332Z" fill="url(#paint24_linear_19815_15614)"/>
<defs>
<linearGradient id="paint0_linear_19815_15614" x1="19.7161" y1="44.2847" x2="42.669" y2="21.3318" gradientUnits="userSpaceOnUse">
<stop offset="0.001139" stop-color="#E6007A"/>
<stop offset="0.207149" stop-color="#703AC2"/>
<stop offset="0.456011" stop-color="#0070EB"/>
<stop offset="0.768132" stop-color="#0297FB"/>
<stop offset="1" stop-color="#0AE2FF"/>
</linearGradient>
<radialGradient id="paint1_radial_19815_15614" cx="0" cy="0" r="1" gradientUnits="userSpaceOnUse" gradientTransform="translate(37.131 28.3565) scale(6.84395)">
<stop stop-color="white"/>
<stop offset="1" stop-color="white" stop-opacity="0"/>
</radialGradient>
<radialGradient id="paint2_radial_19815_15614" cx="0" cy="0" r="1" gradientUnits="userSpaceOnUse" gradientTransform="translate(27.0144 41.0531) scale(3.98187 3.98187)">
<stop stop-color="white"/>
<stop offset="1" stop-color="white" stop-opacity="0"/>
</radialGradient>
<linearGradient id="paint3_linear_19815_15614" x1="21.0389" y1="40.3795" x2="24.8772" y2="40.3262" gradientUnits="userSpaceOnUse">
<stop stop-color="white" stop-opacity="0"/>
<stop offset="1" stop-color="white"/>
</linearGradient>
<radialGradient id="paint4_radial_19815_15614" cx="0" cy="0" r="1" gradientUnits="userSpaceOnUse" gradientTransform="translate(26.2787 29.3781) rotate(-120) scale(6.84395)">
<stop stop-color="white"/>
<stop offset="1" stop-color="white" stop-opacity="0"/>
</radialGradient>
<radialGradient id="paint5_radial_19815_15614" cx="0" cy="0" r="1" gradientUnits="userSpaceOnUse" gradientTransform="translate(42.3322 31.7912) rotate(-120) scale(3.98187)">
<stop stop-color="white"/>
<stop offset="1" stop-color="white" stop-opacity="0"/>
</radialGradient>
<linearGradient id="paint6_linear_19815_15614" x1="44.736" y1="37.3027" x2="42.7707" y2="34.0054" gradientUnits="userSpaceOnUse">
<stop stop-color="white" stop-opacity="0"/>
<stop offset="1" stop-color="white"/>
</linearGradient>
<radialGradient id="paint7_radial_19815_15614" cx="0" cy="0" r="1" gradientUnits="userSpaceOnUse" gradientTransform="translate(32.2644 37.9479) rotate(120) scale(6.84395)">
<stop stop-color="white"/>
<stop offset="1" stop-color="white" stop-opacity="0"/>
</radialGradient>
<radialGradient id="paint8_radial_19815_15614" cx="0" cy="0" r="1" gradientUnits="userSpaceOnUse" gradientTransform="translate(26.6507 23.1549) rotate(120) scale(3.98187)">
<stop stop-color="white"/>
<stop offset="1" stop-color="white" stop-opacity="0"/>
</radialGradient>
<linearGradient id="paint9_linear_19815_15614" x1="30.2217" y1="18.3168" x2="28.3487" y2="21.6675" gradientUnits="userSpaceOnUse">
<stop stop-color="white" stop-opacity="0"/>
<stop offset="1" stop-color="white"/>
</linearGradient>
<linearGradient id="paint10_linear_19815_15614" x1="31.057" y1="16.6136" x2="25.193" y2="18.3195" gradientUnits="userSpaceOnUse">
<stop stop-color="#231F20"/>
<stop offset="1" stop-color="white"/>
</linearGradient>
<linearGradient id="paint11_linear_19815_15614" x1="19.9754" y1="38.9783" x2="24.8798" y2="44.096" gradientUnits="userSpaceOnUse">
<stop stop-color="#231F20"/>
<stop offset="1" stop-color="white"/>
</linearGradient>
<linearGradient id="paint12_linear_19815_15614" x1="46.2981" y1="38.2068" x2="48.004" y2="33.0181" gradientUnits="userSpaceOnUse">
<stop stop-color="#231F20"/>
<stop offset="1" stop-color="white"/>
</linearGradient>
<linearGradient id="paint13_linear_19815_15614" x1="33.729" y1="19.5811" x2="41.591" y2="21.3812" gradientUnits="userSpaceOnUse">
<stop stop-color="#231F20"/>
<stop offset="1" stop-color="white"/>
</linearGradient>
<linearGradient id="paint14_linear_19815_15614" x1="41.8913" y1="39.7067" x2="36.4013" y2="45.6153" gradientUnits="userSpaceOnUse">
<stop stop-color="#231F20"/>
<stop offset="1" stop-color="white"/>
</linearGradient>
<linearGradient id="paint15_linear_19815_15614" x1="20.3815" y1="36.7156" x2="18.0095" y2="29.0068" gradientUnits="userSpaceOnUse">
<stop stop-color="#231F20"/>
<stop offset="1" stop-color="white"/>
</linearGradient>
<linearGradient id="paint16_linear_19815_15614" x1="35.4465" y1="22.4808" x2="32.9588" y2="24.9685" gradientUnits="userSpaceOnUse">
<stop stop-color="#231F20"/>
<stop offset="1" stop-color="white"/>
</linearGradient>
<linearGradient id="paint17_linear_19815_15614" x1="22.0315" y1="33.7742" x2="25.4298" y2="34.6848" gradientUnits="userSpaceOnUse">
<stop stop-color="#231F20"/>
<stop offset="1" stop-color="white"/>
</linearGradient>
<linearGradient id="paint18_linear_19815_15614" x1="38.5183" y1="39.7441" x2="37.6077" y2="36.3458" gradientUnits="userSpaceOnUse">
<stop stop-color="#231F20"/>
<stop offset="1" stop-color="white"/>
</linearGradient>
<linearGradient id="paint19_linear_19815_15614" x1="33.3475" y1="36.7228" x2="34.8402" y2="34.6615" gradientUnits="userSpaceOnUse">
<stop stop-color="#231F20"/>
<stop offset="1" stop-color="white"/>
</linearGradient>
<linearGradient id="paint20_linear_19815_15614" x1="28.2071" y1="35.83" x2="25.2217" y2="37.2516" gradientUnits="userSpaceOnUse">
<stop stop-color="#231F20"/>
<stop offset="1" stop-color="white"/>
</linearGradient>
<linearGradient id="paint21_linear_19815_15614" x1="27.123" y1="30.8603" x2="28.047" y2="32.7794" gradientUnits="userSpaceOnUse">
<stop stop-color="#231F20"/>
<stop offset="1" stop-color="white"/>
</linearGradient>
<linearGradient id="paint22_linear_19815_15614" x1="31.4214" y1="24.9336" x2="30.7817" y2="22.7302" gradientUnits="userSpaceOnUse">
<stop stop-color="#231F20"/>
<stop offset="1" stop-color="white"/>
</linearGradient>
<linearGradient id="paint23_linear_19815_15614" x1="38.3168" y1="35.022" x2="40.1649" y2="35.4485" gradientUnits="userSpaceOnUse">
<stop stop-color="#231F20"/>
<stop offset="1" stop-color="white"/>
</linearGradient>
<linearGradient id="paint24_linear_19815_15614" x1="35.4171" y1="28.7787" x2="33.0714" y2="28.3522" gradientUnits="userSpaceOnUse">
<stop stop-color="#231F20"/>
<stop offset="1" stop-color="white"/>
</linearGradient>
</defs>
</svg>
