<svg width="64" height="64" viewBox="0 0 64 64" fill="none" xmlns="http://www.w3.org/2000/svg">
    <rect width="64" height="64" fill="#34333D"/>
    <path fill-rule="evenodd" clip-rule="evenodd"
          d="M40.7959 18.835C38.1922 17.0953 35.1307 16.1668 31.9991 16.167C29.9203 16.167 27.8617 16.5765 25.9404 17.3722C24.0199 18.1678 22.2742 19.334 20.8039 20.8041C19.3337 22.2744 18.1681 24.0197 17.3722 25.9405C16.5762 27.8614 16.167 29.9203 16.167 31.9994C16.167 35.131 17.0951 38.1923 18.8349 40.7963C20.5747 43.4002 23.0478 45.4296 25.9404 46.6281C28.8339 47.8267 32.0178 48.1404 35.0889 47.5295C38.1608 46.9185 40.9818 45.4105 43.1965 43.1961C45.4104 40.9817 46.9187 38.1605 47.5295 35.089C48.1403 32.0176 47.8267 28.8339 46.6283 25.9407C45.4298 23.0475 43.4003 20.5747 40.7959 18.835ZM31.9991 45.8533C31.9991 45.8533 26.8342 39.651 26.8342 31.9994C26.8342 24.3488 31.9991 18.1464 31.9991 18.1464C31.9991 18.1464 37.1647 24.3479 37.1647 31.9994C37.1647 39.651 31.9991 45.8533 31.9991 45.8533Z"
          fill="#4FFFB0"/>
</svg>
