<svg width="64" height="64" viewBox="0 0 64 64" fill="none" xmlns="http://www.w3.org/2000/svg">
<rect width="64" height="64" fill="black"/>
<path opacity="0.7" d="M0 42.3436C0 48.8957 0 57.4478 0 63.9999L64 63.9999C64 60.2796 64 35.0317 64 42.5225C56.6809 44.5039 45.6548 46.7072 32.8126 46.7072C19.5824 46.7072 7.7588 44.3687 0 42.3436Z" fill="url(#paint0_linear_18588_5643)"/>
<path d="M0 64C0 64 0 55.1359 0 46.1564C8.44827 45.1913 21.0873 44 32.0024 44C42.9154 44 55.5517 45.1909 64 46.1559C64 55.1359 64 64 64 64L0 64Z" fill="url(#paint1_linear_18588_5643)"/>
<path d="M0 43.0895C0 45.3301 0.000101984 47.5707 0 49.8113C1.21891 49.6703 3.38398 49.525 4.75259 49.3796C12.7913 48.5261 23.0242 47.6824 32.0024 47.6824C40.9806 47.6824 51.2135 48.5261 59.2522 49.3796C60.6191 49.5248 64 49.8108 64 49.8108C64 47.5702 64 45.3295 64 43.0889C62.7385 42.9427 61.3882 42.7918 59.9677 42.641C51.843 41.7784 41.3347 40.9059 32.0024 40.9059C22.6701 40.9059 12.1619 41.7784 4.03711 42.641C2.61484 42.792 1.2629 42.943 0 43.0895Z" fill="url(#paint2_linear_18588_5643)"/>
<path d="M32.0004 34.0499H16.8765L39.5623 11.5399H47.1243L32.0004 34.0499Z" fill="url(#paint3_linear_18588_5643)"/>
<path d="M15.1224 57.3662C14.626 57.3662 14.2205 56.9642 14.2205 56.4719V52.153C14.2205 51.661 14.626 51.2657 15.1224 51.2657C15.6189 51.2657 16.0245 51.6677 16.0245 52.16V56.4789C16.0174 56.9642 15.6189 57.3662 15.1224 57.3662Z" fill="white"/>
<path d="M18.9338 57.3662C18.6682 57.3662 18.4094 57.2483 18.2416 57.0475L16.4236 54.8914C16.144 54.5586 16.144 54.0803 16.4236 53.7475L18.2416 51.5847C18.5633 51.2035 19.1296 51.1549 19.5072 51.4668C19.8848 51.7788 19.9407 52.3474 19.6261 52.7215L18.2906 54.3161L19.6261 55.9036C19.9407 56.2848 19.8918 56.8463 19.5072 57.1583C19.3464 57.29 19.1436 57.3662 18.9338 57.3662Z" fill="white"/>
<path d="M24.9184 57.3662H21.1075C20.6111 57.3662 20.2055 56.9642 20.2055 56.4719V52.153C20.2055 51.661 20.6111 51.2589 21.1075 51.2589C21.604 51.2589 22.0095 51.661 22.0095 52.153V55.5775H24.0232V52.153C24.0232 51.661 24.4287 51.2589 24.9251 51.2589C25.4219 51.2589 25.8274 51.661 25.8274 52.153V56.4719C25.8204 56.9642 25.4148 57.3662 24.9184 57.3662Z" fill="white"/>
<path d="M30.9116 57.3662H27.1009C26.6044 57.3524 26.213 56.9434 26.2268 56.451C26.2408 55.9798 26.6253 55.5984 27.1009 55.5846H30.0096V55.5359L26.8493 54.6419C26.4646 54.5307 26.1989 54.1841 26.1989 53.7821V52.153C26.1989 51.661 26.6044 51.2657 27.1009 51.2657H30.9116C31.408 51.2657 31.8135 51.6677 31.8135 52.16C31.8135 52.652 31.408 53.0544 30.9116 53.0544H28.0028V53.1098L31.1635 54.0041C31.5479 54.1149 31.8135 54.4615 31.8135 54.8635V56.4789C31.8135 56.9709 31.408 57.3662 30.9116 57.3662Z" fill="white"/>
<path d="M43.4334 57.3662C42.9369 57.3662 42.5382 56.9642 42.5382 56.4719V54.0941L42.1188 54.4545C41.7831 54.7389 41.2867 54.7389 40.9439 54.4545L40.5246 54.0941V56.4719C40.5246 56.9642 40.1191 57.3662 39.6226 57.3662C39.1262 57.3662 38.7204 56.9642 38.7204 56.4719V52.153C38.7204 51.661 39.1262 51.2589 39.6226 51.2589C39.8393 51.2589 40.042 51.3352 40.21 51.4736L41.5315 52.5966L42.846 51.4736C43.2234 51.1549 43.7899 51.1965 44.1186 51.5706C44.2582 51.7302 44.3353 51.9381 44.3353 52.153V56.4719C44.3424 56.9642 43.9368 57.3662 43.4334 57.3662Z" fill="white"/>
<path d="M37.4419 57.3662C36.9455 57.3662 36.54 56.9642 36.54 56.4719V55.7162L34.2954 53.0473H33.9878V55.5775H35.3442C35.8407 55.5916 36.2324 56.0004 36.2183 56.4927C36.2042 56.9642 35.8198 57.3454 35.3442 57.3592H33.0858C32.5894 57.3592 32.1909 56.9571 32.1909 56.4648V52.153C32.1909 51.661 32.5964 51.2657 33.0858 51.2657H34.722C34.9877 51.2657 35.2463 51.3836 35.4143 51.5847L38.1342 54.8219C38.2671 54.9814 38.3439 55.1826 38.3439 55.3905V56.4719C38.3439 56.9642 37.9454 57.3662 37.4419 57.3662Z" fill="white"/>
<path d="M49.9714 57.3662C49.4749 57.3662 49.0694 56.9642 49.0694 56.4719V55.7162L46.8248 53.0473H46.5101V55.5775H47.8666C48.363 55.5916 48.7548 56.0004 48.7407 56.4927C48.7266 56.9642 48.3422 57.3454 47.8666 57.3592H45.6152C45.1188 57.3592 44.7133 56.9571 44.7133 56.4648V52.153C44.7133 51.661 45.1188 51.2657 45.6152 51.2657H47.2514C47.5171 51.2657 47.7687 51.3836 47.9437 51.5847L50.6637 54.8219C50.7965 54.9814 50.8733 55.1826 50.8733 55.3905V56.4719C50.8733 56.9709 50.4678 57.3662 49.9714 57.3662Z" fill="white"/>
<path d="M33.9456 49.0891C33.8825 49.0337 33.8127 48.992 33.7289 48.978C33.6239 48.9642 33.5189 49.0337 33.4491 49.0821C33.379 49.1307 33.2392 49.2554 33.1835 49.304C33.1275 49.3524 32.9876 49.3803 32.7568 49.5187C32.5261 49.6574 31.6311 50.2259 31.6311 50.2259H31.8619L30.8201 50.7596H30.9248L30.7782 50.8707C30.862 50.8915 30.9459 50.8775 31.0227 50.8358V50.8707C31.0227 50.8707 32.2604 50.3854 32.4982 50.5101L32.3513 50.5517C32.3654 50.5517 32.5959 50.5655 32.5959 50.5655C32.6099 50.6625 32.6659 50.7528 32.7498 50.8012C32.8897 50.8915 32.8967 50.947 32.8967 50.947C32.8967 50.947 32.8266 50.9745 32.8266 51.0162C32.9594 50.9745 33.0993 50.9745 33.2254 51.0162C33.2254 51.0162 33.2184 50.9745 33.1204 50.947C33.0225 50.9053 32.9386 50.8429 32.8756 50.7528C32.8199 50.6766 32.7988 50.5796 32.8337 50.4892C32.8685 50.3992 32.9876 50.3505 33.2321 50.2259C33.5189 50.0802 33.589 49.9694 33.6239 49.8793C33.6588 49.789 33.7289 49.6228 33.7567 49.5395C33.7846 49.4633 33.8335 49.4011 33.8966 49.3454C33.9734 49.304 34.0573 49.2691 34.1344 49.2416C34.1482 49.2483 33.9945 49.1237 33.9456 49.0891Z" fill="white"/>
<defs>
<linearGradient id="paint0_linear_18588_5643" x1="-9.47981" y1="39.4332" x2="74.6189" y2="54.1788" gradientUnits="userSpaceOnUse">
<stop stop-color="#9E3BFF"/>
<stop offset="1" stop-color="#6D55FF"/>
</linearGradient>
<linearGradient id="paint1_linear_18588_5643" x1="-9.56136" y1="45.2535" x2="73.5659" y2="45.2535" gradientUnits="userSpaceOnUse">
<stop stop-color="#9E3BFF"/>
<stop offset="1" stop-color="#492CFF"/>
</linearGradient>
<linearGradient id="paint2_linear_18588_5643" x1="-9.44919" y1="61.7323" x2="73.1622" y2="63.2357" gradientUnits="userSpaceOnUse">
<stop stop-color="white" stop-opacity="0"/>
<stop offset="0.500885" stop-color="#9F7BFF"/>
<stop offset="1" stop-color="white" stop-opacity="0"/>
</linearGradient>
<linearGradient id="paint3_linear_18588_5643" x1="32.0004" y1="11.5399" x2="32.0004" y2="34.0499" gradientUnits="userSpaceOnUse">
<stop stop-color="#7AEDCF"/>
<stop offset="0.201333" stop-color="#68CEFA"/>
<stop offset="0.403244" stop-color="#689CF8"/>
<stop offset="0.602076" stop-color="#AC57C0"/>
<stop offset="0.801867" stop-color="#E65659"/>
<stop offset="1" stop-color="#F2C241"/>
</linearGradient>
</defs>
</svg>
