<svg width="64" height="64" viewBox="0 0 64 64" fill="none" xmlns="http://www.w3.org/2000/svg">
<rect width="64" height="64" fill="white"/>
<path d="M14.9062 30.1792H13.238L12.5749 28.2835H9.539L8.91214 30.1792H7.2854L10.2436 21.8339H11.8651L14.9062 30.1792ZM12.0827 26.8775L11.0362 23.7807L10.0104 26.8775H12.0827Z" fill="black"/>
<path d="M16.5433 30.1792L14.8026 24.1336H16.2169L17.2479 28.0958L18.1959 24.1336H19.5999L20.5169 28.0958L21.5686 24.1336H23.0037L21.237 30.1792H19.8382L18.8902 26.2912L17.9576 30.1792H16.5433Z" fill="black"/>
<path d="M26.9617 28.2551L28.4122 28.5227C28.2257 29.107 27.9304 29.553 27.5264 29.8604C27.1258 30.164 26.6232 30.3158 26.0188 30.3158C25.062 30.3158 24.354 29.9723 23.8947 29.2854C23.532 28.7351 23.3507 28.0406 23.3507 27.202C23.3507 26.2001 23.589 25.4164 24.0657 24.851C24.5423 24.2817 25.145 23.997 25.8737 23.997C26.6922 23.997 27.3381 24.2949 27.8113 24.8908C28.2845 25.4829 28.5107 26.3917 28.49 27.6176H24.8428C24.8532 28.0919 24.9706 28.4619 25.195 28.7275C25.4196 28.9894 25.6993 29.1204 26.0344 29.1204C26.2623 29.1204 26.4539 29.052 26.6094 28.9154C26.7648 28.7788 26.8822 28.5587 26.9617 28.2551ZM27.0445 26.6384C27.0342 26.1754 26.9254 25.8243 26.7182 25.5853C26.511 25.3424 26.2588 25.221 25.9618 25.221C25.644 25.221 25.3815 25.3481 25.1743 25.6024C24.9671 25.8566 24.8652 26.202 24.8687 26.6384H27.0445Z" fill="black"/>
<path d="M29.1686 28.4543L30.6296 28.2095C30.6918 28.5208 30.8178 28.758 31.0078 28.9211C31.1978 29.0805 31.4636 29.1602 31.8056 29.1602C32.1821 29.1602 32.4653 29.0843 32.6552 28.9325C32.7831 28.8262 32.8469 28.684 32.8469 28.5056C32.8469 28.3841 32.8124 28.2835 32.7433 28.2039C32.6708 28.1279 32.5085 28.0577 32.2563 27.9932C31.082 27.7086 30.3377 27.4486 30.0234 27.2134C29.5883 26.887 29.3707 26.4335 29.3707 25.8528C29.3707 25.3292 29.5589 24.8889 29.9354 24.5321C30.3119 24.1754 30.8955 23.997 31.6865 23.997C32.4394 23.997 32.9989 24.1318 33.365 24.4012C33.7311 24.6707 33.9832 25.0692 34.1213 25.5966L32.7485 25.8756C32.6897 25.6403 32.5776 25.46 32.4118 25.3348C32.2495 25.2095 32.0163 25.1469 31.7124 25.1469C31.329 25.1469 31.0544 25.2058 30.8886 25.3234C30.7781 25.4069 30.7228 25.515 30.7228 25.6479C30.7228 25.7617 30.7712 25.8585 30.8679 25.9382C30.9992 26.0445 31.4515 26.1943 32.2253 26.388C33.0024 26.5815 33.5446 26.8186 33.852 27.0995C34.1559 27.3841 34.3078 27.7807 34.3078 28.2893C34.3078 28.8433 34.0972 29.3196 33.6758 29.7181C33.2545 30.1166 32.6311 30.3158 31.8056 30.3158C31.0562 30.3158 30.4621 30.1489 30.0234 29.8149C29.5883 29.4809 29.3034 29.0274 29.1686 28.4543Z" fill="black"/>
<path d="M35.2507 27.071C35.2507 26.5397 35.3699 26.0256 35.6083 25.5284C35.8466 25.0312 36.1833 24.6517 36.6184 24.3899C37.0571 24.128 37.5458 23.997 38.0846 23.997C38.917 23.997 39.5991 24.2949 40.131 24.8908C40.6629 25.4829 40.9288 26.2323 40.9288 27.1394C40.9288 28.054 40.6594 28.813 40.1206 29.4164C39.5853 30.016 38.9101 30.3158 38.0949 30.3158C37.5907 30.3158 37.1089 30.1905 36.6495 29.9402C36.1937 29.6896 35.8466 29.3234 35.6083 28.8414C35.3699 28.3556 35.2507 27.7655 35.2507 27.071ZM36.7428 27.1565C36.7428 27.756 36.8723 28.2153 37.1313 28.534C37.3904 28.8528 37.7098 29.0122 38.0898 29.0122C38.4697 29.0122 38.7875 28.8528 39.0431 28.534C39.3021 28.2153 39.4316 27.7523 39.4316 27.145C39.4316 26.553 39.3021 26.0977 39.0431 25.7788C38.7875 25.46 38.4697 25.3006 38.0898 25.3006C37.7098 25.3006 37.3904 25.46 37.1313 25.7788C36.8723 26.0977 36.7428 26.5568 36.7428 27.1565Z" fill="black"/>
<path d="M41.965 24.1336H43.3068V24.9591C43.7868 24.3178 44.3585 23.997 45.0215 23.997C45.3738 23.997 45.6795 24.0767 45.9385 24.2362C46.1976 24.3955 46.41 24.6365 46.5758 24.9591C46.8175 24.6365 47.0783 24.3955 47.3581 24.2362C47.6378 24.0767 47.9366 23.997 48.2543 23.997C48.6584 23.997 49.0003 24.0881 49.2801 24.2702C49.5598 24.4486 49.7688 24.7124 49.907 25.0616C50.007 25.3197 50.0572 25.7371 50.0572 26.3139V30.1792H48.6014V26.7238C48.6014 26.1242 48.5514 25.7371 48.4512 25.5625C48.3165 25.3348 48.1093 25.221 47.8294 25.221C47.6257 25.221 47.4341 25.2892 47.2544 25.4258C47.0748 25.5625 46.9453 25.7637 46.8659 26.0293C46.7865 26.2912 46.7467 26.7067 46.7467 27.276V30.1792H45.291V26.8662C45.291 26.2779 45.2651 25.8984 45.2133 25.7276C45.1614 25.5568 45.0803 25.4297 44.9698 25.3461C44.8627 25.2627 44.7159 25.221 44.5294 25.221C44.3049 25.221 44.1028 25.2874 43.9233 25.4202C43.7437 25.553 43.6142 25.7447 43.5347 25.9951C43.4587 26.2456 43.4207 26.6612 43.4207 27.2418V30.1792H41.965V24.1336Z" fill="black"/>
<path d="M54.6992 28.2551L56.1497 28.5227C55.9632 29.107 55.6679 29.553 55.2638 29.8604C54.8632 30.164 54.3607 30.3158 53.7562 30.3158C52.7995 30.3158 52.0915 29.9723 51.6321 29.2854C51.2695 28.7351 51.0882 28.0406 51.0882 27.202C51.0882 26.2001 51.3265 25.4164 51.803 24.851C52.2797 24.2817 52.8824 23.997 53.6111 23.997C54.4297 23.997 55.0755 24.2949 55.5487 24.8908C56.0219 25.4829 56.2481 26.3917 56.2274 27.6176H52.5802C52.5905 28.0919 52.708 28.4619 52.9325 28.7275C53.157 28.9894 53.4367 29.1204 53.7717 29.1204C53.9998 29.1204 54.1914 29.052 54.3468 28.9154C54.5023 28.7788 54.6197 28.5587 54.6992 28.2551ZM54.782 26.6384C54.7716 26.1754 54.6628 25.8243 54.4556 25.5853C54.2484 25.3424 53.9963 25.221 53.6992 25.221C53.3815 25.221 53.119 25.3481 52.9118 25.6024C52.7045 25.8566 52.6026 26.202 52.6061 26.6384H54.782Z" fill="black"/>
<path d="M19.8123 41.8377V33.5606H21.3458V40.4315H25.1588V41.8377H19.8123Z" fill="black"/>
<path d="M25.91 38.7295C25.91 38.1982 26.0291 37.6839 26.2674 37.1868C26.5058 36.6896 26.8425 36.3101 27.2777 36.0482C27.7163 35.7864 28.205 35.6555 28.7438 35.6555C29.5762 35.6555 30.2584 35.9534 30.7902 36.5492C31.322 37.1412 31.588 37.8908 31.588 38.7977C31.588 39.7123 31.3187 40.4713 30.7799 41.0748C30.2445 41.6744 29.5692 41.9743 28.7542 41.9743C28.2499 41.9743 27.7681 41.849 27.3088 41.5985C26.8529 41.348 26.5058 40.9818 26.2674 40.4999C26.0291 40.0141 25.91 39.424 25.91 38.7295ZM27.4021 38.8148C27.4021 39.4145 27.5316 39.8736 27.7906 40.1925C28.0496 40.5113 28.3691 40.6706 28.7489 40.6706C29.1289 40.6706 29.4467 40.5113 29.7022 40.1925C29.9613 39.8736 30.0908 39.4107 30.0908 38.8035C30.0908 38.2114 29.9613 37.756 29.7022 37.4373C29.4467 37.1185 29.1289 36.9591 28.7489 36.9591C28.3691 36.9591 28.0496 37.1185 27.7906 37.4373C27.5316 37.756 27.4021 38.2152 27.4021 38.8148Z" fill="black"/>
<path d="M32.5983 42.2361L34.2613 42.4581C34.2889 42.6707 34.3527 42.8168 34.4529 42.8965C34.591 43.0103 34.8087 43.0673 35.1057 43.0673C35.4857 43.0673 35.7706 43.0046 35.9605 42.8794C36.0884 42.7959 36.185 42.6612 36.2507 42.4752C36.2956 42.3423 36.318 42.0975 36.318 41.7409V40.8585C35.8828 41.5112 35.3337 41.8377 34.6705 41.8377C33.9314 41.8377 33.346 41.4942 32.9143 40.8073C32.5758 40.2646 32.4065 39.5891 32.4065 38.7806C32.4065 37.7674 32.6276 36.9933 33.0698 36.4582C33.5153 35.923 34.0678 35.6555 34.7275 35.6555C35.4079 35.6555 35.9692 35.9837 36.4112 36.6403V35.7921H37.7738V41.2171C37.7738 41.9306 37.7202 42.4638 37.6131 42.8168C37.5061 43.1697 37.3559 43.4468 37.1624 43.6479C36.969 43.849 36.71 44.0064 36.3853 44.1203C36.0642 44.2342 35.6566 44.2911 35.1627 44.2911C34.2301 44.2911 33.5688 44.1146 33.1785 43.7617C32.7882 43.4126 32.5931 42.9686 32.5931 42.4296C32.5931 42.3765 32.5948 42.312 32.5983 42.2361ZM33.8986 38.6896C33.8986 39.3309 34.0109 39.8015 34.2354 40.1013C34.4633 40.3974 34.7431 40.5454 35.0746 40.5454C35.4304 40.5454 35.7308 40.3936 35.9761 40.09C36.2212 39.7826 36.3439 39.3291 36.3439 38.7295C36.3439 38.1032 36.2265 37.6384 35.9915 37.3347C35.7568 37.0312 35.4597 36.8794 35.1005 36.8794C34.7517 36.8794 34.4633 37.0293 34.2354 37.3291C34.0109 37.6251 33.8986 38.0786 33.8986 38.6896Z" fill="black"/>
<path d="M38.8824 38.7295C38.8824 38.1982 39.0015 37.6839 39.24 37.1868C39.4782 36.6896 39.815 36.3101 40.2501 36.0482C40.6887 35.7864 41.1774 35.6555 41.7162 35.6555C42.5486 35.6555 43.2308 35.9534 43.7626 36.5492C44.2946 37.1412 44.5604 37.8908 44.5604 38.7977C44.5604 39.7123 44.2911 40.4713 43.7523 41.0748C43.2169 41.6744 42.5418 41.9743 41.7266 41.9743C41.2223 41.9743 40.7405 41.849 40.2812 41.5985C39.8253 41.348 39.4782 40.9818 39.24 40.4999C39.0015 40.0141 38.8824 39.424 38.8824 38.7295ZM40.3745 38.8148C40.3745 39.4145 40.504 39.8736 40.763 40.1925C41.0221 40.5113 41.3415 40.6706 41.7215 40.6706C42.1014 40.6706 42.4191 40.5113 42.6747 40.1925C42.9337 39.8736 43.0632 39.4107 43.0632 38.8035C43.0632 38.2114 42.9337 37.756 42.6747 37.4373C42.4191 37.1185 42.1014 36.9591 41.7215 36.9591C41.3415 36.9591 41.0221 37.1185 40.763 37.4373C40.504 37.756 40.3745 38.2152 40.3745 38.8148Z" fill="black"/>
</svg>
