<svg width="64" height="64" viewBox="0 0 64 64" fill="none" xmlns="http://www.w3.org/2000/svg">
    <rect width="64" height="64" fill="white"/>
    <rect width="64" height="64" fill="url(#paint0_linear_10411_45452)"/>
    <path fill-rule="evenodd" clip-rule="evenodd"
          d="M20.9675 23.5417C22.1264 23.5417 23.0487 24.4442 23.0487 25.5781C23.0487 26.4575 22.4811 27.1981 21.677 27.4989V38.0284C23.1669 37.959 24.5386 37.7044 25.7684 37.2648V29.1883C24.9643 28.9106 24.3967 28.1469 24.3967 27.2675C24.3967 26.1335 25.319 25.231 26.4778 25.231C27.6367 25.231 28.559 26.1335 28.559 27.2675C28.559 28.1469 27.9914 28.8874 27.1873 29.1883V36.6399C28.559 35.9225 29.6469 34.9506 30.38 33.7472C29.8833 33.3075 29.5759 32.6827 29.5759 31.9884C29.5759 30.6693 30.6638 29.628 31.9881 29.628C32.1064 29.628 32.201 29.628 32.3192 29.6511C34.1639 26.5038 38.1133 24.6062 42.8432 24.5599H43.0324H50.6238C51.0259 24.5599 51.3333 24.8607 51.3333 25.2542C51.3333 25.6244 51.0495 25.9253 50.6711 25.9484H50.6238H49.2522V36.5011C50.0562 36.7788 50.6238 37.5425 50.6238 38.4218C50.6238 39.5558 49.7015 40.4583 48.5427 40.4583C47.3839 40.4583 46.4615 39.5558 46.4615 38.4218C46.4615 37.5425 47.0291 36.8019 47.8332 36.5011V25.9253H43.7419V36.4779C44.5459 36.7556 45.1135 37.5193 45.1135 38.3987C45.1135 39.5326 44.1912 40.4352 43.0324 40.4352C41.8736 40.4352 40.9512 39.5326 40.9512 38.3987C40.9512 37.5193 41.5188 36.7788 42.3229 36.4779V25.9484C40.833 26.0178 39.4613 26.2724 38.2316 26.7121V34.7886C39.0356 35.0663 39.6032 35.83 39.6032 36.7093C39.6032 37.8433 38.6809 38.7458 37.5221 38.7458C36.3633 38.7458 35.4409 37.8433 35.4409 36.7093C35.4409 35.83 36.0085 35.0894 36.8126 34.7886V27.3369C35.4409 28.0543 34.3531 29.0263 33.6199 30.2296C34.1166 30.6693 34.424 31.2942 34.424 31.9884C34.424 33.3075 33.3361 34.3489 32.0118 34.3489C31.8935 34.3489 31.7989 34.3489 31.6807 34.3257C29.836 37.473 25.8866 39.3707 21.1567 39.4169H20.9675H13.3761C12.9741 39.4169 12.6666 39.1161 12.6666 38.7227C12.6666 38.3524 12.9504 38.0516 13.3288 38.0284H13.3761H14.7478V27.4989C13.9437 27.1981 13.3761 26.4575 13.3761 25.5781C13.3761 24.4442 14.2984 23.5417 15.4572 23.5417C16.6161 23.5417 17.5384 24.4442 17.5384 25.5781C17.5384 26.4575 16.9708 27.1981 16.1667 27.4989V38.0516H20.2581V27.4989C19.454 27.2212 18.8864 26.4575 18.8864 25.5781C18.8864 24.4442 19.8087 23.5417 20.9675 23.5417Z"
          fill="white"/>
    <defs>
        <linearGradient id="paint0_linear_10411_45452" x1="64" y1="64" x2="0" y2="0" gradientUnits="userSpaceOnUse">
            <stop stop-color="#FF0050"/>
            <stop offset="0.714448" stop-color="#7000FF"/>
            <stop offset="1" stop-color="#0027FF"/>
        </linearGradient>
    </defs>
</svg>
