<svg width="64" height="64" viewBox="0 0 64 64" fill="none" xmlns="http://www.w3.org/2000/svg">
<rect width="64" height="64" fill="#DE0376"/>
<path d="M44.9739 44.7988C44.9739 44.7988 43.7921 44.8645 43.1355 44.6018C41.4941 43.9453 40.7719 42.5664 40.7719 40.1371V32.4551V14.399C40.7719 13.6111 40.1809 13.0859 38.999 12.8232H38.605C37.8828 12.8232 37.4233 13.3485 37.0949 14.4647V16.2375V25.8892C34.1403 23.2629 30.9888 21.8841 27.5745 21.8841C24.9481 21.8841 22.4532 22.672 20.0238 24.3134C16.2156 27.2681 14.3115 30.8793 14.3115 35.1471C14.3115 37.9704 15.2307 40.728 17.1348 43.42C20.2208 46.7686 23.5693 48.4757 27.1149 48.4757H27.9029C31.5139 48.4757 34.7313 46.9655 37.6202 43.8796C39.0647 46.9655 41.2314 48.4757 44.1204 48.4757H44.58C45.5648 48.4757 46.3527 47.9504 46.3527 46.7029V46.5716C46.3527 45.4554 45.8274 44.7988 44.9739 44.7988ZM27.9029 44.6675H27.3119C26.3926 44.6675 25.4078 44.5362 24.2916 44.2079C20.1552 42.3038 18.1197 39.3492 18.1197 35.4097V34.9501C18.1197 34.0309 18.3167 32.9803 18.7106 31.8641C20.6804 27.7933 23.5693 25.7579 27.4432 25.7579H27.8371C28.5593 25.7579 29.5443 25.8892 30.8575 26.2175C35.0595 28.1873 37.1607 31.0762 37.1607 35.0157V35.4097V35.6067C37.1607 36.2632 37.0293 37.2481 36.701 38.4956C34.6656 42.6321 31.711 44.6675 27.9029 44.6675Z" fill="white"/>
<path d="M49.0457 35.9365C49.8336 35.9365 50.4902 36.1992 51.1467 36.7901C51.7377 37.381 52.0003 38.1032 52.0003 38.8911C52.0003 40.0073 51.4751 40.8609 50.4245 41.5175C49.965 41.7144 49.5053 41.8458 49.1113 41.8458H48.9144C48.1265 41.8458 47.4043 41.4518 46.682 40.7296C46.288 40.1386 46.0254 39.5477 46.0254 38.8911C46.0254 37.9063 46.4193 37.1184 47.273 36.4618C47.9295 36.1335 48.4547 35.9365 49.0457 35.9365Z" fill="white"/>
</svg>
