<svg width="64" height="64" viewBox="0 0 64 64" fill="none" xmlns="http://www.w3.org/2000/svg">
<rect width="64" height="64" rx="32" fill="#240E32"/>
<g clip-path="url(#clip0_18337_19328)">
<path d="M46.9942 34.4471C47.4062 34.0356 47.9364 33.5061 48.4629 32.9809C49.6372 31.8085 49.6378 29.9071 48.4636 28.7343L47.2195 27.4917C42.7656 31.9404 36.1005 32.8342 30.7572 30.1738C34.3686 30.8407 38.1112 30.3212 41.4276 28.5403C43.6461 27.3487 44.0675 24.3435 42.2863 22.5645L34.9423 15.2293C33.3013 13.5902 30.6409 13.5902 29.0004 15.2293L21.0845 23.1357C26.2977 20.9235 32.5601 21.9491 36.8 26.2132C30.3316 23.0773 22.3186 24.1899 16.948 29.5535C16.536 29.965 16.0052 30.4952 15.4787 31.021C14.305 32.194 14.3056 34.0941 15.4787 35.2663L16.7221 36.5083C21.176 32.0596 27.841 31.1658 33.1843 33.8262C29.5729 33.1593 25.8303 33.6788 22.514 35.4597C20.2954 36.6513 19.8741 39.6565 21.6552 41.4355L28.9992 48.7707C30.6403 50.4098 33.3007 50.4098 34.9411 48.7707L42.857 40.8643C37.6438 43.0764 31.3814 42.0509 27.141 37.7868C33.6093 40.9227 41.6224 39.8101 46.9929 34.4465L46.9942 34.4471Z" fill="#E53E76"/>
</g>
<defs>
<clipPath id="clip0_18337_19328">
<rect width="34.8033" height="36" fill="white" transform="translate(14.5986 14)"/>
</clipPath>
</defs>
</svg>
