<svg width="64" height="64" viewBox="0 0 64 64" fill="none" xmlns="http://www.w3.org/2000/svg">
    <rect width="64" height="64" rx="32" fill="#0D106E"/>
    <rect x="10.125" y="10.125" width="43.75" height="43.75" fill="#0D106E"/>
    <path fill-rule="evenodd" clip-rule="evenodd"
          d="M14.499 32.0006L32.0053 14.5L49.499 32.0052L32.0053 49.5L14.499 32.0006ZM20.9405 26.7789C20.2013 27.6109 18.6541 29.6364 18.6541 32.0006C18.6541 34.3741 20.2135 36.4062 20.9492 37.2321L24.7337 41.0196L24.7515 41.0022C26.2666 39.5207 28.7852 37.5735 31.6565 37.4252C30.9336 38.2311 29.3395 40.2803 29.3395 42.6783C29.3395 45.0763 30.9336 47.1254 31.6565 47.9314L32.0053 48.2969L32.3541 47.9314C33.0769 47.1254 34.671 45.0763 34.671 42.6783C34.671 40.2803 33.0769 38.2311 32.3541 37.4252C35.2366 37.574 37.7637 39.5359 39.2768 41.0196L43.1506 37.1427L43.1596 37.1324C43.9255 36.2523 45.3694 34.2844 45.3694 32.0006C45.3694 29.7079 43.9142 27.7335 43.1506 26.8585L39.2949 22.9997L39.2771 23.0172C37.7636 24.5007 35.2365 26.4624 32.3541 26.6113C33.0769 25.8054 34.671 23.7563 34.671 21.3582C34.671 18.9602 33.0769 16.9111 32.3541 16.1052L32.0053 15.7044L31.6565 16.1052C30.9336 16.9111 29.3395 18.9602 29.3395 21.3582C29.3395 23.7563 30.9336 25.8054 31.6565 26.6113C28.7627 26.4619 26.2272 24.4853 24.7157 22.9997L20.9405 26.7789ZM21.6809 26.748C26.3532 26.9952 30.0889 32.0006 30.0889 32.0006C30.0889 32.0006 26.3532 37.006 21.6809 37.2533C22.4082 36.4407 23.9941 34.3942 23.9941 32.0006C23.9941 29.6071 22.4082 27.5606 21.6809 26.748ZM42.3427 26.748C41.6154 27.5606 40.0295 29.6071 40.0295 32.0006C40.0295 34.3942 41.6154 36.4407 42.3427 37.2533C37.6704 37.006 33.9347 32.0006 33.9347 32.0006C33.9347 32.0006 37.6704 26.9952 42.3427 26.748Z"
          fill="#52B2ED"/>
</svg>
