<svg width="64" height="64" viewBox="0 0 64 64" fill="none" xmlns="http://www.w3.org/2000/svg">
<rect width="64" height="64" fill="url(#paint0_linear_12221_50256)"/>
<path d="M32 54C44.1503 54 54 44.1503 54 32C54 19.8497 44.1503 10 32 10C19.8497 10 10 19.8497 10 32C10 44.1503 19.8497 54 32 54Z" fill="url(#paint1_linear_12221_50256)" fill-opacity="0.2"/>
<path d="M32.0001 50.3337C42.1254 50.3337 50.3335 42.1256 50.3335 32.0004C50.3335 21.8751 42.1254 13.667 32.0001 13.667C21.8749 13.667 13.6667 21.8751 13.6667 32.0004C13.6667 42.1256 21.8749 50.3337 32.0001 50.3337Z" fill="#FBE5E5"/>
<path fill-rule="evenodd" clip-rule="evenodd" d="M32.0001 48.6671C41.2049 48.6671 48.6668 41.2051 48.6668 32.0004C48.6668 22.7956 41.2049 15.3337 32.0001 15.3337C22.7953 15.3337 15.3334 22.7956 15.3334 32.0004C15.3334 41.2051 22.7953 48.6671 32.0001 48.6671ZM50.3335 32.0004C50.3335 42.1256 42.1254 50.3337 32.0001 50.3337C21.8749 50.3337 13.6667 42.1256 13.6667 32.0004C13.6667 21.8751 21.8749 13.667 32.0001 13.667C42.1254 13.667 50.3335 21.8751 50.3335 32.0004Z" fill="url(#paint2_linear_12221_50256)"/>
<path d="M21.3765 37.3815V37.6258C21.3765 37.6258 30.22 34.1011 31.9392 35.0114L30.9022 35.3194C30.993 35.3194 32.6737 35.4305 32.6737 35.4305C32.713 35.7806 32.829 36.1176 33.013 36.4171C33.1971 36.7166 33.4448 36.9711 33.7382 37.1623C34.7505 37.8367 34.7697 38.203 34.7697 38.203C34.7697 38.203 34.2443 38.4195 34.2443 38.6943C34.7329 38.5532 35.2381 38.4794 35.7462 38.475C36.2046 38.4915 36.6591 38.5652 37.0996 38.6943C37.0996 38.6943 37.0473 38.4167 36.3404 38.203C35.6334 37.9893 34.9513 37.2344 34.6074 36.8154C34.4012 36.5475 34.2675 36.2302 34.2192 35.8945C34.171 35.5588 34.21 35.2163 34.3323 34.9004C34.5772 34.2676 35.4326 33.9151 37.1683 33.0048C39.2286 31.9307 39.699 31.1259 39.9878 30.507C40.2766 29.8881 40.7112 28.6475 40.9505 28.0647C41.1495 27.5199 41.4919 27.0401 41.9408 26.677C42.2461 26.4411 43.638 25.911 43.638 25.911C43.638 25.911 42.5762 24.9979 42.2296 24.7231C41.7964 24.3092 41.2486 24.0381 40.659 23.946C39.9218 23.8489 39.1736 24.3429 38.6675 24.6732C38.1613 25.0034 37.1821 25.9693 36.786 26.2468C36.3899 26.5243 35.3749 26.8019 33.7602 27.7982C32.1455 28.7946 25.7364 32.9215 25.7364 32.9215L27.3868 32.9382L19.9792 36.8154H20.7191L19.6519 37.648C20.243 37.7845 20.8634 37.6893 21.3876 37.3815H21.3765Z" fill="url(#paint3_linear_12221_50256)"/>
<defs>
<linearGradient id="paint0_linear_12221_50256" x1="0" y1="0" x2="64" y2="64" gradientUnits="userSpaceOnUse">
<stop stop-color="#EE7468"/>
<stop offset="1" stop-color="#E5585D"/>
</linearGradient>
<linearGradient id="paint1_linear_12221_50256" x1="10" y1="10" x2="54" y2="54" gradientUnits="userSpaceOnUse">
<stop stop-color="white"/>
<stop offset="1" stop-color="white" stop-opacity="0"/>
</linearGradient>
<linearGradient id="paint2_linear_12221_50256" x1="45.3334" y1="18.667" x2="18.6668" y2="45.3337" gradientUnits="userSpaceOnUse">
<stop stop-color="#D12D52"/>
<stop offset="1" stop-color="#E7473F"/>
</linearGradient>
<linearGradient id="paint3_linear_12221_50256" x1="40.3671" y1="25.9464" x2="30.7839" y2="41.5191" gradientUnits="userSpaceOnUse">
<stop stop-color="#D12D52"/>
<stop offset="1" stop-color="#E7473F"/>
</linearGradient>
</defs>
</svg>
