<svg width="64" height="64" viewBox="0 0 64 64" fill="none" xmlns="http://www.w3.org/2000/svg">
<rect width="64" height="64" fill="black"/>
<path d="M44.9717 23.4664C44.9717 25.2228 44.6236 26.7814 43.9273 28.1422C43.2469 29.4872 42.2975 30.6028 41.0791 31.4889C39.8766 32.375 38.5553 33.0237 37.1154 33.4351C35.6755 33.8466 34.1485 34.0523 32.5345 34.0523H28.7607V44.2583C28.7607 44.8121 28.8477 45.3027 29.0217 45.7299C29.2116 46.1413 29.5914 46.4578 30.161 46.6793C30.4458 46.7901 30.9443 46.8929 31.6563 46.9878C32.3842 47.0828 33.0488 47.1382 33.6501 47.154V48.8392H19.1954V47.154C19.5752 47.1223 20.1211 47.067 20.8332 46.9878C21.561 46.9087 22.0674 46.8059 22.3522 46.6793C22.8269 46.4736 23.1671 46.1729 23.3728 45.7774C23.5943 45.3818 23.7051 44.8754 23.7051 44.2583V19.9537C23.7051 19.3998 23.626 18.9014 23.4677 18.4583C23.3095 18.0153 22.9377 17.683 22.3522 17.4615C21.7509 17.2558 21.1496 17.1134 20.5483 17.0342C19.9629 16.9393 19.4565 16.876 19.0293 16.8444V15.1592H34.4096C37.5426 15.1592 40.0823 15.9187 42.0285 17.4377C43.9906 18.941 44.9717 20.9505 44.9717 23.4664ZM37.7562 29.2103C38.2942 28.4508 38.6503 27.6675 38.8243 26.8605C38.9984 26.0377 39.0854 25.3019 39.0854 24.6532C39.0854 23.7513 38.9746 22.8335 38.7531 21.8999C38.5474 20.9663 38.1835 20.1514 37.6613 19.4552C37.1075 18.7115 36.3796 18.134 35.4777 17.7226C34.5757 17.3112 33.4523 17.1055 32.1073 17.1055H28.7607V31.9873H31.1816C32.8906 31.9873 34.2751 31.7262 35.3353 31.2041C36.4112 30.6661 37.2182 30.0015 37.7562 29.2103Z" fill="white"/>
</svg>
