<svg width="64" height="64" viewBox="0 0 64 64" fill="none" xmlns="http://www.w3.org/2000/svg">
<rect width="64" height="64" fill="black"/>
<path d="M41.1206 25.9999C41.1206 27.2348 40.8759 28.3306 40.3864 29.2874C39.908 30.2331 39.2405 31.0174 38.3838 31.6404C37.5383 32.2634 36.6094 32.7195 35.597 33.0088C34.5846 33.298 33.511 33.4427 32.3762 33.4427H29.7229V40.6184C29.7229 41.0078 29.784 41.3527 29.9064 41.6531C30.0399 41.9423 30.3069 42.1648 30.7074 42.3206C30.9077 42.3985 31.2581 42.4708 31.7588 42.5375C32.2705 42.6043 32.7378 42.6432 33.1605 42.6543V43.8392H22.9977V42.6543C23.2647 42.6321 23.6485 42.5932 24.1491 42.5375C24.6609 42.4819 25.0169 42.4096 25.2172 42.3206C25.5509 42.176 25.7901 41.9646 25.9347 41.6865C26.0905 41.4083 26.1684 41.0523 26.1684 40.6184V23.5301C26.1684 23.1407 26.1127 22.7903 26.0015 22.4788C25.8902 22.1673 25.6288 21.9337 25.2172 21.7779C24.7944 21.6333 24.3716 21.5331 23.9489 21.4775C23.5372 21.4108 23.1812 21.3663 22.8809 21.344V20.1592H33.6946C35.8974 20.1592 37.6829 20.6932 39.0513 21.7612C40.4309 22.8181 41.1206 24.231 41.1206 25.9999ZM36.0475 30.0384C36.4258 29.5044 36.6761 28.9537 36.7985 28.3863C36.9209 27.8078 36.9821 27.2904 36.9821 26.8343C36.9821 26.2002 36.9042 25.5549 36.7484 24.8985C36.6038 24.2421 36.3479 23.6692 35.9808 23.1797C35.5914 22.6568 35.0796 22.2507 34.4455 21.9615C33.8114 21.6722 33.0215 21.5276 32.0758 21.5276H29.7229V31.9908H31.425C32.6265 31.9908 33.6 31.8073 34.3454 31.4401C35.1019 31.0619 35.6693 30.5946 36.0475 30.0384Z" fill="white"/>
<path fill-rule="evenodd" clip-rule="evenodd" d="M50.5427 13.4573H13.4573V50.5427H50.5427V13.4573ZM12.498 12.498V51.502H51.502V12.498H12.498Z" fill="white"/>
</svg>
