<svg width="64" height="64" viewBox="0 0 64 64" fill="none" xmlns="http://www.w3.org/2000/svg">
    <rect width="64" height="64" fill="#1B0C3E"/>
    <path d="M43.8726 13.2805L42.0894 12C36.9549 12.8736 22.7013 16.4758 20.9899 26.4686C20.4911 29.3811 22.8329 33.6729 27.4294 36.593C24.5203 34.1875 21.383 29.9045 22.8808 25.5112C24.733 20.078 34.4652 14.5371 43.8726 13.2805Z"
          fill="#BBA5E1"/>
    <path fill-rule="evenodd" clip-rule="evenodd"
          d="M44.6356 14.0889C44.6027 14.0942 44.3442 14.136 44.0612 14.1817C40.9757 14.6794 37.3466 15.7682 34.4753 17.0577C30.1423 19.0037 26.8317 21.5572 24.6451 24.6397C24.1854 25.2878 23.8761 25.7943 23.7068 26.1761C23.1848 27.3535 23.0911 28.7077 23.4277 30.2127C23.4927 30.5033 23.6998 31.1768 23.7343 31.2098C23.7412 31.2164 23.7393 31.1147 23.73 30.9837C23.7002 30.5647 23.713 30.1393 23.7649 29.8216C24.0871 27.8506 25.3286 25.7273 27.2497 23.8618C29.8612 21.326 33.6884 19.2018 38.6568 17.5304C40.9625 16.7548 42.986 16.2091 45.8443 15.5921C46.2524 15.504 46.5887 15.4297 46.5916 15.427C46.6098 15.4104 45.5392 14.5861 45.0869 14.2683C44.8139 14.0765 44.7837 14.0645 44.6356 14.0889Z"
          fill="#764BC4"/>
    <path d="M46.8779 16.4677C44.4232 16.806 41.1609 17.6517 38.5921 18.6156C34.4791 20.159 31.0586 22.1083 28.2164 24.5289C27.8109 24.8742 26.9368 25.7482 26.6334 26.1117C25.7797 27.1345 25.1374 28.2142 24.8078 29.181C24.5745 29.8653 24.4694 30.4468 24.5087 30.8351C24.5549 31.2909 24.8098 32.0644 25.1756 32.8594C25.35 33.2382 25.5326 33.6017 25.5345 33.5739C25.5351 33.5643 25.4876 33.4064 25.4289 33.2231C25.3701 33.0398 25.3109 32.8214 25.2973 32.7379C25.189 32.0737 25.2882 31.1773 25.5591 30.3712C26.2166 28.4152 27.8036 26.5375 30.3302 24.7261C31.1599 24.1313 31.7514 23.7385 32.4887 23.2927C35.2777 21.6063 38.2701 20.3918 41.7036 19.5527C42.9726 19.2425 43.8049 19.0656 45.6981 18.7037C46.21 18.6058 46.631 18.5227 46.6337 18.5191C46.6364 18.5154 46.8821 18.0304 47.1797 17.4413L47.7208 16.3703C47.498 16.3775 47.2783 16.4096 47.0581 16.4418C46.9981 16.4506 46.9381 16.4594 46.8779 16.4677Z"
          fill="#764BC4"/>
    <path d="M45.4374 19.7955C44.5993 19.895 43.3508 20.1312 42.3414 20.3813C39.3582 21.1203 36.6652 22.1863 33.9876 23.6881C32.5385 24.5008 31.0087 25.5326 29.7602 26.5394C28.3108 27.7081 27.6477 28.3807 27.0313 29.307C26.4088 30.2423 26.0997 31.109 26.0111 32.1668C25.9391 33.0255 26.1469 34.038 26.5672 34.8759C26.6829 35.1067 26.8794 35.4404 26.9456 35.5185L26.9959 35.5779L26.9516 35.4702C26.8024 35.1081 26.7083 34.5395 26.709 34.0044C26.7099 33.2437 26.8567 32.5845 27.1997 31.8014C27.7023 30.6537 28.7441 29.3691 29.9038 28.4673C31.9438 26.8807 34.547 25.3212 37.1201 24.1442C39.501 23.0551 41.8605 22.2801 44.356 21.7675C44.6959 21.6977 44.9774 21.6368 44.9815 21.6322C45.0031 21.6083 46.1435 19.7688 46.1435 19.7579C46.1435 19.7331 45.8164 19.7504 45.4374 19.7955Z"
          fill="#5928B1"/>
    <path d="M20.1245 50.7195L21.9076 52C27.0421 51.1264 41.2958 47.5242 43.0071 37.5314C43.506 34.6189 41.1642 30.3271 36.5676 27.407C39.4768 29.8125 42.614 34.0955 41.1163 38.4888C39.2641 43.922 29.5319 49.4629 20.1245 50.7195Z"
          fill="#BBA5E1"/>
    <path fill-rule="evenodd" clip-rule="evenodd"
          d="M19.3615 49.9111C19.3944 49.9058 19.6529 49.864 19.9359 49.8183C23.0214 49.3206 26.6505 48.2318 29.5218 46.9423C33.8548 44.9963 37.1654 42.4428 39.3519 39.3603C39.8117 38.7122 40.121 38.2057 40.2903 37.8239C40.8123 36.6465 40.906 35.2923 40.5694 33.7873C40.5044 33.4967 40.2973 32.8232 40.2628 32.7902C40.2559 32.7836 40.2578 32.8853 40.2671 33.0163C40.2969 33.4353 40.2841 33.8607 40.2321 34.1784C39.91 36.1494 38.6684 38.2727 36.7473 40.1382C34.1358 42.674 30.3087 44.7982 25.3402 46.4696C23.0346 47.2452 21.0111 47.7909 18.1528 48.4079C17.7447 48.496 17.4084 48.5703 17.4054 48.573C17.3873 48.5896 18.4578 49.4139 18.9102 49.7317C19.1832 49.9235 19.2133 49.9355 19.3615 49.9111Z"
          fill="#764BC4"/>
    <path d="M17.1192 47.5323C19.5739 47.194 22.8362 46.3483 25.405 45.3844C29.518 43.841 32.9385 41.8917 35.7807 39.4711C36.1861 39.1258 37.0602 38.2518 37.3636 37.8883C38.2174 36.8655 38.8596 35.7858 39.1893 34.819C39.4225 34.1347 39.5277 33.5532 39.4883 33.1649C39.4421 32.7091 39.1873 31.9356 38.8214 31.1406C38.6471 30.7618 38.4645 30.3983 38.4626 30.4261C38.4619 30.4357 38.5095 30.5936 38.5682 30.7769C38.627 30.9602 38.6862 31.1786 38.6998 31.2621C38.8081 31.9263 38.7089 32.8227 38.438 33.6288C37.7804 35.5848 36.1935 37.4625 33.6669 39.2739C32.8372 39.8687 32.2457 40.2615 31.5083 40.7073C28.7193 42.3937 25.727 43.6082 22.2935 44.4473C21.0245 44.7575 20.1922 44.9344 18.299 45.2963C17.7871 45.3942 17.366 45.4773 17.3634 45.4809C17.3607 45.4846 17.115 45.9696 16.8174 46.5587L16.2762 47.6297C16.4991 47.6225 16.7188 47.5904 16.939 47.5582C16.999 47.5494 17.059 47.5406 17.1192 47.5323Z"
          fill="#764BC4"/>
    <path d="M18.5596 44.2045C19.3978 44.105 20.6462 43.8688 21.6557 43.6187C24.6389 42.8797 27.3318 41.8137 30.0095 40.3119C31.4586 39.4992 32.9884 38.4674 34.2369 37.4606C35.6862 36.2919 36.3494 35.6193 36.9658 34.693C37.5882 33.7577 37.8974 32.891 37.986 31.8332C38.058 30.9745 37.8501 29.962 37.4299 29.1241C37.3142 28.8933 37.1177 28.5596 37.0515 28.4815L37.0011 28.4221L37.0455 28.5298C37.1947 28.8919 37.2888 29.4605 37.2881 29.9956C37.2872 30.7563 37.1404 31.4155 36.7974 32.1986C36.2948 33.3463 35.2529 34.6309 34.0933 35.5327C32.0532 37.1193 29.4501 38.6788 26.877 39.8558C24.4961 40.9449 22.1366 41.7199 19.641 42.2325C19.3011 42.3023 19.0197 42.3632 19.0156 42.3678C18.994 42.3916 17.8536 44.2312 17.8536 44.2421C17.8536 44.2669 18.1807 44.2496 18.5596 44.2045Z"
          fill="#5928B1"/>
</svg>
