<svg width="64" height="64" viewBox="0 0 64 64" fill="none" xmlns="http://www.w3.org/2000/svg">
<g clip-path="url(#clip0_14081_60475)">
<rect width="64" height="64" rx="32" fill="#0D106E"/>
<path d="M64.6055 -1.01953H-0.0273438V64.6232H64.6055V-1.01953Z" fill="#301748"/>
<path d="M30.8217 50.2052C29.8522 49.3129 28.9457 48.3546 28.1085 47.3371C26.1123 44.772 21.6687 40.2679 20.5646 39.1335C19.2888 37.8341 18.0062 36.5414 16.7439 35.2319C16.5621 35.0434 16.2625 34.8246 16.4476 34.5048C16.6328 34.185 16.9795 34.2355 17.2858 34.2523C17.423 34.2609 17.5581 34.2904 17.6864 34.3399C18.5886 34.7001 19.4874 35.0636 20.3795 35.4305C22.1703 36.1543 23.9511 36.9117 25.7655 37.5951C26.8528 38.0091 27.314 37.5951 27.112 36.4573C26.9404 35.5012 26.698 34.562 26.4388 33.6262C26.3769 33.4173 26.3616 33.1974 26.3938 32.9819C26.4261 32.7665 26.5052 32.5607 26.6255 32.3791C26.7458 32.1974 26.9045 32.0444 27.0903 31.9307C27.2762 31.817 27.4847 31.7454 27.7011 31.7209C28.0714 31.667 28.4485 31.6603 28.8221 31.6334C29.1958 31.6064 29.5762 31.5088 29.7243 31.0779C29.7921 30.8877 29.7976 30.6808 29.7401 30.4871C29.6826 30.2935 29.5651 30.1232 29.4045 30.0007C28.1836 28.8158 26.9673 27.6241 25.7554 26.4257L16.6227 17.404C14.8273 15.6289 13.032 13.8548 11.2366 12.0819C11.0582 11.9069 10.873 11.7453 11.0178 11.4827C11.1625 11.2202 11.3948 11.2403 11.6372 11.2908C12.3845 11.439 12.9231 11.9641 13.5122 12.3782C15.0876 13.4621 16.7338 14.4316 18.3428 15.4549C19.4571 16.1652 20.5882 16.8452 21.7091 17.5522C22.8301 18.2591 23.8737 18.9828 24.9644 19.6763C26.5364 20.6862 28.1219 21.6422 29.6772 22.6386C31.367 23.7181 33.0502 24.8088 34.7266 25.9107C35.0296 26.1093 35.309 26.2103 35.622 25.9107C35.9351 25.6111 35.8947 25.3451 35.75 24.9614C35.4133 24.076 34.7838 23.3321 34.5347 22.4063C34.4506 22.0933 34.3832 21.8105 34.6828 21.5715C34.8036 21.4742 34.9522 21.4178 35.1071 21.4105C35.2621 21.4032 35.4153 21.4455 35.5446 21.5311C36.6857 22.067 37.796 22.666 38.8705 23.3253C40.1831 24.1508 41.5508 24.8853 42.9639 25.5235C45.2564 26.6142 47.4411 27.8799 49.609 29.1861C50.8054 29.9446 51.836 30.9374 52.6387 32.1046C53.2664 32.975 53.7895 33.9162 54.1973 34.9088C54.7815 36.3423 55.1688 37.8484 55.3485 39.3859C55.7054 42.1295 54.7022 45.6574 53.423 47.5492C52.332 49.2708 50.9097 50.7584 49.2387 51.9254C48.119 52.6928 46.9107 53.3224 45.6401 53.8004C44.2936 54.3256 42.9471 54.403 41.4558 54.4737C41.338 54.4737 41.2135 54.4737 41.0956 54.4737C38.039 54.265 35.0464 53.8307 30.8217 50.2052ZM50.5381 41.0388C50.5625 39.8419 50.3463 38.6523 49.9025 37.5405C49.4586 36.4286 48.7961 35.4172 47.9542 34.5662C47.1122 33.7151 46.108 33.0417 45.001 32.586C43.894 32.1302 42.7068 31.9013 41.5097 31.9128C36.6757 31.9397 32.6967 35.885 32.6799 41.1061C32.6799 45.3712 36.8373 50.1177 41.5602 49.8181C46.4548 50.0302 50.4943 45.6237 50.5381 41.0388Z" fill="url(#paint0_linear_14081_60475)"/>
<path d="M20.0728 29.4177C20.0709 29.7854 20.2134 30.1392 20.4696 30.403C20.7258 30.6667 21.0753 30.8194 21.4429 30.8282C21.6279 30.8287 21.8111 30.791 21.9809 30.7175C22.1508 30.644 22.3036 30.5363 22.43 30.4011C22.5563 30.2659 22.6534 30.1061 22.7153 29.9317C22.7771 29.7573 22.8024 29.572 22.7894 29.3875C22.7741 29.0202 22.6193 28.6727 22.3566 28.4156C22.0939 28.1585 21.7431 28.0113 21.3756 28.0039C21.0169 28.0231 20.6799 28.1817 20.4366 28.4458C20.1932 28.7099 20.0626 29.0587 20.0728 29.4177Z" fill="url(#paint1_linear_14081_60475)"/>
<path d="M25.7795 12.2094C25.9565 12.2188 26.1335 12.19 26.2984 12.125C26.4634 12.06 26.6124 11.9602 26.7353 11.8324C26.8583 11.7047 26.9523 11.552 27.011 11.3847C27.0697 11.2174 27.0917 11.0394 27.0755 10.8629C27.0538 10.5173 26.9035 10.1923 26.6544 9.95187C26.4052 9.71142 26.0751 9.57288 25.729 9.56348C25.1197 9.56348 24.3017 10.3276 24.2949 10.91C24.3208 11.2786 24.4914 11.6221 24.7695 11.8655C25.0476 12.1089 25.4106 12.2325 25.7795 12.2094Z" fill="url(#paint2_linear_14081_60475)"/>
<path d="M11.0653 24.2641C11.074 24.0988 11.0479 23.9335 10.9885 23.779C10.9292 23.6245 10.8379 23.4843 10.7207 23.3674C10.6035 23.2505 10.463 23.1597 10.3084 23.1007C10.1537 23.0418 9.98837 23.016 9.82311 23.0253C9.49352 23.0556 9.18588 23.2036 8.95652 23.4422C8.72716 23.6809 8.59144 23.9941 8.57422 24.3247C8.60039 24.6417 8.742 24.9382 8.97219 25.1578C9.20238 25.3775 9.50515 25.505 9.82311 25.5163C9.98877 25.5226 10.1539 25.4943 10.3081 25.4335C10.4623 25.3726 10.6022 25.2804 10.7189 25.1627C10.8357 25.045 10.9267 24.9044 10.9864 24.7497C11.046 24.595 11.0728 24.4297 11.0653 24.2641Z" fill="url(#paint3_linear_14081_60475)"/>
<path d="M41.56 49.8212C46.4378 50.0333 50.5076 45.6268 50.5379 41.0419C50.5627 39.8447 50.3469 38.6548 49.9033 37.5425C49.4596 36.4303 48.7972 35.4185 47.9552 34.5671C47.1132 33.7157 46.1088 33.042 45.0016 32.586C43.8944 32.13 42.7069 31.901 41.5095 31.9125C36.6755 31.9395 32.6965 35.8848 32.6797 41.1059C32.6696 45.371 36.8371 50.1174 41.56 49.8212Z" fill="url(#paint4_linear_14081_60475)"/>
</g>
<defs>
<linearGradient id="paint0_linear_14081_60475" x1="55.4293" y1="32.8553" x2="10.9606" y2="32.8553" gradientUnits="userSpaceOnUse">
<stop stop-color="#E2107B"/>
<stop offset="1" stop-color="#301748"/>
</linearGradient>
<linearGradient id="paint1_linear_14081_60475" x1="22.7726" y1="29.4178" x2="20.0762" y2="29.4178" gradientUnits="userSpaceOnUse">
<stop stop-color="#E2107B"/>
<stop offset="1" stop-color="#0D1126"/>
</linearGradient>
<linearGradient id="paint2_linear_14081_60475" x1="27.0755" y1="10.8797" x2="24.3118" y2="10.8797" gradientUnits="userSpaceOnUse">
<stop stop-color="#E2107B"/>
<stop offset="1" stop-color="#0D1126"/>
</linearGradient>
<linearGradient id="paint3_linear_14081_60475" x1="11.0653" y1="24.2708" x2="8.57422" y2="24.2708" gradientUnits="userSpaceOnUse">
<stop stop-color="#E2107B"/>
<stop offset="1" stop-color="#0D1126"/>
</linearGradient>
<linearGradient id="paint4_linear_14081_60475" x1="55.345" y1="46.1923" x2="33.1375" y2="37.6285" gradientUnits="userSpaceOnUse">
<stop stop-color="#301748"/>
<stop offset="1" stop-color="#E2107B"/>
</linearGradient>
<clipPath id="clip0_14081_60475">
<rect width="64" height="64" rx="32" fill="white"/>
</clipPath>
</defs>
</svg>
