<svg width="64" height="64" viewBox="0 0 64 64" fill="none" xmlns="http://www.w3.org/2000/svg">
<rect width="64" height="64" fill="white"/>
<path d="M32.0004 14.841C34.4942 14.841 36.5159 12.8194 36.5159 10.3255C36.5159 7.83166 34.4942 5.81 32.0004 5.81C29.5065 5.81 27.4849 7.83166 27.4849 10.3255C27.4849 12.8194 29.5065 14.841 32.0004 14.841Z" fill="#180449"/>
<path d="M32.0004 25.6783C34.4942 25.6783 36.5159 23.6566 36.5159 21.1627C36.5159 18.6689 34.4942 16.6472 32.0004 16.6472C29.5065 16.6472 27.4849 18.6689 27.4849 21.1627C27.4849 23.6566 29.5065 25.6783 32.0004 25.6783Z" fill="#B6F986"/>
<path d="M22.6146 20.2597C25.1085 20.2597 27.1302 18.238 27.1302 15.7442C27.1302 13.2503 25.1085 11.2286 22.6146 11.2286C20.1208 11.2286 18.0991 13.2503 18.0991 15.7442C18.0991 18.238 20.1208 20.2597 22.6146 20.2597Z" fill="#F31B84"/>
<path d="M13.2294 25.6783C15.7232 25.6783 17.7449 23.6566 17.7449 21.1627C17.7449 18.6689 15.7232 16.6472 13.2294 16.6472C10.7355 16.6472 8.71387 18.6689 8.71387 21.1627C8.71387 23.6566 10.7355 25.6783 13.2294 25.6783Z" fill="#492404"/>
<path d="M22.6146 31.0969C25.1085 31.0969 27.1302 29.0752 27.1302 26.5814C27.1302 24.0875 25.1085 22.0659 22.6146 22.0659C20.1208 22.0659 18.0991 24.0875 18.0991 26.5814C18.0991 29.0752 20.1208 31.0969 22.6146 31.0969Z" fill="#86BAF9"/>
<path d="M13.2294 36.5155C15.7232 36.5155 17.7449 34.4938 17.7449 32C17.7449 29.5061 15.7232 27.4845 13.2294 27.4845C10.7355 27.4845 8.71387 29.5061 8.71387 32C8.71387 34.4938 10.7355 36.5155 13.2294 36.5155Z" fill="#86F9ED"/>
<path d="M13.2294 47.3528C15.7232 47.3528 17.7449 45.3311 17.7449 42.8373C17.7449 40.3434 15.7232 38.3217 13.2294 38.3217C10.7355 38.3217 8.71387 40.3434 8.71387 42.8373C8.71387 45.3311 10.7355 47.3528 13.2294 47.3528Z" fill="#492404"/>
<path d="M22.6146 41.9341C25.1085 41.9341 27.1302 39.9125 27.1302 37.4186C27.1302 34.9248 25.1085 32.9031 22.6146 32.9031C20.1208 32.9031 18.0991 34.9248 18.0991 37.4186C18.0991 39.9125 20.1208 41.9341 22.6146 41.9341Z" fill="#86BAF9"/>
<path d="M22.6146 52.7714C25.1085 52.7714 27.1302 50.7497 27.1302 48.2558C27.1302 45.762 25.1085 43.7403 22.6146 43.7403C20.1208 43.7403 18.0991 45.762 18.0991 48.2558C18.0991 50.7497 20.1208 52.7714 22.6146 52.7714Z" fill="#F31B84"/>
<path d="M32.0004 58.19C34.4942 58.19 36.5159 56.1683 36.5159 53.6745C36.5159 51.1806 34.4942 49.159 32.0004 49.159C29.5065 49.159 27.4849 51.1806 27.4849 53.6745C27.4849 56.1683 29.5065 58.19 32.0004 58.19Z" fill="#180449"/>
<path d="M32.0004 47.3528C34.4942 47.3528 36.5159 45.3311 36.5159 42.8373C36.5159 40.3434 34.4942 38.3217 32.0004 38.3217C29.5065 38.3217 27.4849 40.3434 27.4849 42.8373C27.4849 45.3311 29.5065 47.3528 32.0004 47.3528Z" fill="#B6F986"/>
<path d="M41.3851 52.7714C43.879 52.7714 45.9007 50.7497 45.9007 48.2558C45.9007 45.762 43.879 43.7403 41.3851 43.7403C38.8913 43.7403 36.8696 45.762 36.8696 48.2558C36.8696 50.7497 38.8913 52.7714 41.3851 52.7714Z" fill="#D486F9"/>
<path d="M50.7704 47.3528C53.2643 47.3528 55.2859 45.3311 55.2859 42.8373C55.2859 40.3434 53.2643 38.3217 50.7704 38.3217C48.2765 38.3217 46.2549 40.3434 46.2549 42.8373C46.2549 45.3311 48.2765 47.3528 50.7704 47.3528Z" fill="#2EAA09"/>
<path d="M41.3851 41.9341C43.879 41.9341 45.9007 39.9125 45.9007 37.4186C45.9007 34.9248 43.879 32.9031 41.3851 32.9031C38.8913 32.9031 36.8696 34.9248 36.8696 37.4186C36.8696 39.9125 38.8913 41.9341 41.3851 41.9341Z" fill="#86F9ED"/>
<path d="M50.7704 36.5155C53.2643 36.5155 55.2859 34.4938 55.2859 32C55.2859 29.5061 53.2643 27.4845 50.7704 27.4845C48.2765 27.4845 46.2549 29.5061 46.2549 32C46.2549 34.4938 48.2765 36.5155 50.7704 36.5155Z" fill="#86F9D8"/>
<path d="M50.7704 25.6783C53.2643 25.6783 55.2859 23.6566 55.2859 21.1627C55.2859 18.6689 53.2643 16.6472 50.7704 16.6472C48.2765 16.6472 46.2549 18.6689 46.2549 21.1627C46.2549 23.6566 48.2765 25.6783 50.7704 25.6783Z" fill="#2EAA09"/>
<path d="M41.3851 31.0969C43.879 31.0969 45.9007 29.0752 45.9007 26.5814C45.9007 24.0875 43.879 22.0659 41.3851 22.0659C38.8913 22.0659 36.8696 24.0875 36.8696 26.5814C36.8696 29.0752 38.8913 31.0969 41.3851 31.0969Z" fill="#86F9ED"/>
<path d="M41.3851 20.2597C43.879 20.2597 45.9007 18.238 45.9007 15.7442C45.9007 13.2503 43.879 11.2286 41.3851 11.2286C38.8913 11.2286 36.8696 13.2503 36.8696 15.7442C36.8696 18.238 38.8913 20.2597 41.3851 20.2597Z" fill="#D486F9"/>
<path d="M32.0004 36.5155C34.4942 36.5155 36.5159 34.4938 36.5159 32C36.5159 29.5061 34.4942 27.4845 32.0004 27.4845C29.5065 27.4845 27.4849 29.5061 27.4849 32C27.4849 34.4938 29.5065 36.5155 32.0004 36.5155Z" fill="#F31B46"/>
</svg>
