<svg width="64" height="64" viewBox="0 0 64 64" fill="none" xmlns="http://www.w3.org/2000/svg">
    <rect width="64" height="64" fill="black"/>
    <path d="M49.5004 33.0504H14.5315C14.6155 34.4673 14.8682 35.839 15.2698 37.1454L30.3189 37.1453L31.2606 35.8503H49.1062C49.3104 34.9417 49.4438 34.0063 49.5004 33.0504Z"
          fill="white"/>
    <path d="M47.9644 39.2454H16.0675C16.746 40.7338 17.627 42.1105 18.6754 43.3405L25.814 43.3403L26.7557 42.0453H46.3602C46.977 41.1678 47.5151 40.2311 47.9644 39.2454Z"
          fill="white"/>
    <path d="M43.2339 45.4405H20.7981C23.8368 47.9749 27.7481 49.5 32.016 49.5C36.2838 49.5 40.1952 47.9749 43.2339 45.4405Z"
          fill="white"/>
    <path d="M14.5315 30.9504C14.6154 29.5334 14.868 28.1618 15.2696 26.8553H48.7623C49.0403 27.7596 49.2469 28.6951 49.3756 29.6552H35.7656L34.8239 30.9502L14.5315 30.9504Z"
          fill="white"/>
    <path d="M39.3289 24.7551L40.2706 23.4601H47.3079C46.7486 22.4625 46.0944 21.5253 45.3574 20.6605H18.6746C17.6264 21.8904 16.7455 23.2671 16.0672 24.7553L39.3289 24.7551Z"
          fill="white"/>
    <path d="M20.7969 18.5605H43.2351C40.1963 16.0255 36.2844 14.5 32.016 14.5C27.7475 14.5 23.8357 16.0255 20.7969 18.5605Z"
          fill="white"/>
    <path d="M14.5007 31.9238C14.5005 31.9492 14.5005 31.9746 14.5005 32C14.5005 32.0254 14.5005 32.0508 14.5007 32.0762V31.9238Z"
          fill="white"/>
</svg>
