<svg width="24" height="24" viewBox="0 0 24 24" fill="none" xmlns="http://www.w3.org/2000/svg">
<path d="M12 22C17.5228 22 22 17.5228 22 12C22 6.47715 17.5228 2 12 2C6.47715 2 2 6.47715 2 12C2 17.5228 6.47715 22 12 22Z" fill="#FF8C00"/>
<path d="M11.9999 4.81424C9.02843 4.81424 6.59985 7.22853 6.59985 10.2142C6.59985 10.8142 6.69985 11.4 6.88557 11.9714C7.01414 12.3571 7.44271 12.5714 7.84271 12.4428C8.22843 12.3142 8.44271 11.8857 8.31414 11.4857C8.157 11.0428 8.08557 10.5714 8.09985 10.1C8.157 8.08567 9.78557 6.42853 11.7999 6.32853C14.0427 6.21424 15.8999 7.99995 15.8999 10.2142C15.8999 12.2857 14.2713 13.9857 12.2284 14.1C12.2284 14.1 11.4713 14.1428 11.0999 14.2C10.9141 14.2285 10.7713 14.2571 10.6713 14.2714C10.6284 14.2857 10.5856 14.2428 10.5999 14.2L10.7284 13.5714L11.4284 10.3428C11.5141 9.94281 11.257 9.54281 10.857 9.4571C10.457 9.37138 10.057 9.62852 9.97128 10.0285C9.97128 10.0285 8.28557 17.8857 8.27128 17.9714C8.18557 18.3714 8.44271 18.7714 8.84271 18.8571C9.24271 18.9428 9.64271 18.6857 9.72842 18.2857C9.74271 18.2 9.97128 17.1571 9.97128 17.1571C10.1427 16.3571 10.7999 15.7714 11.5713 15.6714C11.7427 15.6428 12.4141 15.6 12.4141 15.6C15.1999 15.3857 17.3999 13.0571 17.3999 10.2142C17.3999 7.22853 14.9713 4.81424 11.9999 4.81424ZM12.3856 17.2428C11.8999 17.1428 11.4141 17.4428 11.3141 17.9428C11.2141 18.4285 11.5141 18.9142 12.0141 19.0142C12.4999 19.1142 12.9856 18.8142 13.0856 18.3142C13.1856 17.8142 12.8856 17.3428 12.3856 17.2428Z" fill="white"/>
</svg>
