<svg width="24" height="24" viewBox="0 0 24 24" fill="none" xmlns="http://www.w3.org/2000/svg">
    <g clip-path="url(#clip0_12805_13633)">
        <path fill-rule="evenodd" clip-rule="evenodd" d="M3.5 3.5H6.9V6.9H3.5V3.5ZM10.3 3.5H13.7V6.9H10.3V3.5ZM17.1 3.5H20.5V6.9H17.1V3.5ZM17.1 10.3H20.5V13.7H17.1V10.3ZM10.3 10.3H13.7V13.7H10.3V10.3ZM3.5 10.3H6.9V13.7H3.5V10.3ZM3.5 17.1H6.9V20.5H3.5V17.1ZM10.3 17.1H13.7V20.5H10.3V17.1ZM17.1 17.1H20.5V20.5H17.1V17.1Z" fill="url(#paint0_linear_12805_13633)"/>
    </g>
    <defs>
        <linearGradient id="paint0_linear_12805_13633" x1="20.5" y1="3.5" x2="3.5" y2="20.5" gradientUnits="userSpaceOnUse">
            <stop stop-color="#04D2C5"/>
            <stop offset="1" stop-color="#6848FF"/>
        </linearGradient>
        <clipPath id="clip0_12805_13633">
            <rect width="24" height="24" fill="white"/>
        </clipPath>
    </defs>
</svg>
