<svg width="24" height="24" viewBox="0 0 24 24" fill="none" xmlns="http://www.w3.org/2000/svg">
<path fill-rule="evenodd" clip-rule="evenodd" d="M18 3.72363C17.4477 3.72363 17 4.17135 17 4.72363C17 5.27592 17.4477 5.72363 18 5.72363C18.5523 5.72363 19 5.27592 19 4.72363C19 4.17135 18.5523 3.72363 18 3.72363ZM15 4.72363C15 3.06678 16.3431 1.72363 18 1.72363C19.6569 1.72363 21 3.06678 21 4.72363C21 6.02985 20.1652 7.14109 19 7.55293V15.8943C20.1652 16.3062 21 17.4174 21 18.7236C21 20.3805 19.6569 21.7236 18 21.7236C16.3431 21.7236 15 20.3805 15 18.7236C15 18.6772 15.0011 18.6309 15.0031 18.5849L6.13219 14.834C5.58846 15.3833 4.83397 15.7236 4 15.7236C2.34315 15.7236 1 14.3805 1 12.7236C1 11.0668 2.34315 9.72363 4 9.72363C4.71869 9.72363 5.37835 9.97635 5.89497 10.3978L15.0575 5.31126C15.0198 5.12123 15 4.92474 15 4.72363ZM6.93657 12.107C6.97815 12.306 7 12.5123 7 12.7236C7 12.8248 6.995 12.9247 6.98522 13.0233L15.7564 16.732C16.0901 16.3564 16.5166 16.0652 17 15.8943V7.55293C16.662 7.43345 16.3518 7.25512 16.0817 7.03024L6.93657 12.107ZM17 18.7236C17 18.1713 17.4477 17.7236 18 17.7236C18.5523 17.7236 19 18.1713 19 18.7236C19 19.2759 18.5523 19.7236 18 19.7236C17.4477 19.7236 17 19.2759 17 18.7236ZM3 12.7236C3 12.1713 3.44772 11.7236 4 11.7236C4.55228 11.7236 5 12.1713 5 12.7236C5 13.2759 4.55228 13.7236 4 13.7236C3.44772 13.7236 3 13.2759 3 12.7236Z" fill="#A1A8B3"/>
</svg>
