<svg width="24" height="24" viewBox="0 0 24 24" fill="none" xmlns="http://www.w3.org/2000/svg">
<path d="M15.3592 7.22372L16.7732 8.641L12 13.4142L10.5859 12.0002L15.3592 7.22372Z" fill="#9DA9BB"/>
<path fill-rule="evenodd" clip-rule="evenodd" d="M12 2.4502C6.72834 2.4502 2.44995 6.72858 2.44995 12.0002C2.44995 17.2718 6.72834 21.5502 12 21.5502C17.2716 21.5502 21.5499 17.2718 21.5499 12.0002C21.5499 6.72858 17.2716 2.4502 12 2.4502ZM4.44995 12.0002C4.44995 7.82881 7.82857 4.4502 12 4.4502C16.1713 4.4502 19.5499 7.82881 19.5499 12.0002C19.5499 16.1716 16.1713 19.5502 12 19.5502C7.82857 19.5502 4.44995 16.1716 4.44995 12.0002Z" fill="#9DA9BB"/>
</svg>
