<svg width="16" height="16" viewBox="0 0 16 16" fill="none" xmlns="http://www.w3.org/2000/svg">
<g clip-path="url(#clip0_13769_78530)">
<path d="M8 15C4.1339 15 1 11.8661 1 8C1 4.1339 4.1339 1 8 1C11.8661 1 15 4.1339 15 8C15 11.8661 11.8661 15 8 15ZM7.3 10.1V11.5H8.7V10.1H7.3ZM8.7 8.9485C9.26257 8.77894 9.74552 8.41297 10.0609 7.91722C10.3763 7.42147 10.5031 6.82894 10.4183 6.24753C10.3335 5.66612 10.0427 5.13451 9.59881 4.74952C9.15494 4.36453 8.58756 4.15178 8 4.15C7.4336 4.14996 6.88466 4.34611 6.44655 4.7051C6.00844 5.06408 5.70821 5.56374 5.5969 6.1191L6.9703 6.3942C7.00928 6.1992 7.10282 6.01928 7.24006 5.87537C7.37729 5.73146 7.55257 5.62948 7.7455 5.58129C7.93843 5.53311 8.14107 5.5407 8.32985 5.60318C8.51864 5.66566 8.6858 5.78047 8.81188 5.93424C8.93797 6.08801 9.0178 6.27442 9.04208 6.47179C9.06636 6.66916 9.03409 6.86936 8.94904 7.04911C8.86399 7.22886 8.72964 7.38075 8.56163 7.48713C8.39362 7.59351 8.19885 7.64999 8 7.65C7.81435 7.65 7.6363 7.72375 7.50503 7.85503C7.37375 7.9863 7.3 8.16435 7.3 8.35V9.4H8.7V8.9485Z" fill="#E2E8F0"/>
</g>
<defs>
<clipPath id="clip0_13769_78530">
<rect width="16" height="16" fill="white"/>
</clipPath>
</defs>
</svg>
