<svg width="64" height="64" viewBox="0 0 64 64" fill="none" xmlns="http://www.w3.org/2000/svg">
<path d="M0 32C0 14.3269 14.3269 0 32 0C49.6731 0 64 14.3269 64 32C64 49.6731 49.6731 64 32 64C14.3269 64 0 49.6731 0 32Z" fill="black"/>
<path d="M16.9278 40.2702V40.6031C16.9278 40.6031 29.9085 35.799 32.432 37.0397L30.9098 37.4596C31.0431 37.4596 33.51 37.6109 33.51 37.6109C33.5678 38.0882 33.7379 38.5475 34.0081 38.9557C34.2783 39.3639 34.6419 39.7108 35.0725 39.9714C36.5584 40.8906 36.5866 41.3899 36.5866 41.3899C36.5866 41.3899 35.8154 41.685 35.8154 42.0595C36.5325 41.8672 37.2741 41.7666 38.02 41.7606C38.6927 41.7831 39.36 41.8835 40.0064 42.0595C40.0064 42.0595 39.9297 41.6812 38.8921 41.3899C37.8544 41.0986 36.8531 40.0697 36.3484 39.4985C36.0457 39.1334 35.8494 38.7009 35.7786 38.2434C35.7079 37.7859 35.7651 37.319 35.9447 36.8884C36.304 36.026 37.5597 35.5455 40.1074 34.3048C43.1315 32.8409 43.8219 31.7439 44.2459 30.9003C44.6698 30.0568 45.3077 28.3659 45.659 27.5715C45.9511 26.829 46.4536 26.1751 47.1125 25.6801C47.5607 25.3586 49.6037 24.6361 49.6037 24.6361C49.6037 24.6361 48.0452 23.3915 47.5365 23.017C46.9006 22.4528 46.0965 22.0834 45.231 21.9579C44.149 21.8255 43.0507 22.4988 42.3078 22.9489C41.5649 23.3991 40.1276 24.7155 39.5461 25.0938C38.9647 25.472 37.4749 25.8503 35.1048 27.2083C32.7348 28.5663 23.3273 34.1913 23.3273 34.1913L25.7498 34.214L14.8767 39.4985H15.9628L14.3962 40.6334C15.2639 40.8195 16.1746 40.6897 16.9439 40.2702H16.9278Z" fill="white"/>
<path d="M32 63C14.8792 63 1 49.1208 1 32H-1C-1 50.2254 13.7746 65 32 65V63ZM63 32C63 49.1208 49.1208 63 32 63V65C50.2254 65 65 50.2254 65 32H63ZM32 1C49.1208 1 63 14.8792 63 32H65C65 13.7746 50.2254 -1 32 -1V1ZM32 -1C13.7746 -1 -1 13.7746 -1 32H1C1 14.8792 14.8792 1 32 1V-1Z" fill="#E2E8F0"/>
</svg>
