<svg width="24" height="24" viewBox="0 0 24 24" fill="none" xmlns="http://www.w3.org/2000/svg">
<path d="M15.3594 7.22372L16.7734 8.641L12.0002 13.4142L10.5862 12.0002L15.3594 7.22372Z" fill="#A1A8B3"/>
<path fill-rule="evenodd" clip-rule="evenodd" d="M12.0002 2.4502C6.72858 2.4502 2.4502 6.72858 2.4502 12.0002C2.4502 17.2718 6.72858 21.5502 12.0002 21.5502C17.2718 21.5502 21.5502 17.2718 21.5502 12.0002C21.5502 6.72858 17.2718 2.4502 12.0002 2.4502ZM4.4502 12.0002C4.4502 7.82881 7.82881 4.4502 12.0002 4.4502C16.1716 4.4502 19.5502 7.82881 19.5502 12.0002C19.5502 16.1716 16.1716 19.5502 12.0002 19.5502C7.82881 19.5502 4.4502 16.1716 4.4502 12.0002Z" fill="#A1A8B3"/>
</svg>
