<svg width="64" height="64" viewBox="0 0 64 64" fill="none" xmlns="http://www.w3.org/2000/svg">
<rect width="64" height="64" fill="white"/>
<path fill-rule="evenodd" clip-rule="evenodd" d="M15.2989 39.7043C14.2001 37.3519 13.5863 34.7273 13.5863 31.9595C13.5863 21.841 21.789 13.6384 31.9075 13.6384C37.5416 13.6384 42.5816 16.1817 45.9423 20.1828L47.9475 18.5004C44.1064 13.9277 38.3466 11.021 31.9075 11.021C20.3435 11.021 10.969 20.3955 10.969 31.9595C10.969 35.1228 11.6704 38.1222 12.9263 40.8105L15.2989 39.7043Z" fill="black"/>
<path fill-rule="evenodd" clip-rule="evenodd" d="M31.9074 44.3918C25.0413 44.3918 19.4752 38.8256 19.4752 31.9595C19.4752 25.0934 25.0413 19.5273 31.9074 19.5273C35.7307 19.5273 39.1501 21.2536 41.4306 23.9686L43.4362 22.2858C40.6756 18.9992 36.5355 16.91 31.9074 16.91C23.5958 16.91 16.8579 23.6479 16.8579 31.9595C16.8579 40.2712 23.5958 47.009 31.9074 47.009V44.3918Z" fill="black"/>
<path fill-rule="evenodd" clip-rule="evenodd" d="M36.4184 35.7448C35.3383 37.0307 33.7183 37.8485 31.9074 37.8485C28.655 37.8485 26.0185 35.212 26.0185 31.9595C26.0185 28.7071 28.655 26.0706 31.9074 26.0706C33.7183 26.0706 35.3383 26.8883 36.4184 28.1744L38.6738 26.2818C37.0535 24.3527 34.624 23.1261 31.9074 23.1261C27.0288 23.1261 23.074 27.0809 23.074 31.9595C23.074 36.838 27.0288 40.793 31.9074 40.793C34.397 40.793 36.645 39.7623 38.2506 38.1052L36.4184 35.7448Z" fill="black"/>
</svg>
