<svg width="64" height="64" viewBox="0 0 64 64" fill="none" xmlns="http://www.w3.org/2000/svg">
    <rect width="64" height="64" fill="white"/>
    <rect width="64" height="64" fill="url(#paint0_linear_10383_45609)"/>
    <path d="M45.997 22.2052C46.896 22.2052 47.6248 22.9531 47.6248 23.8758C47.6248 24.7984 46.896 25.5464 45.997 25.5464L46.0537 25.5448L44.0647 28.607L44.0429 28.64C43.5877 29.3174 42.8366 29.7229 42.0332 29.7229L39.6226 29.7227C39.8484 30.2531 40.0221 30.8122 40.137 31.3932L45.2626 31.3935L45.2888 31.3931C45.551 31.3844 45.7937 31.2464 45.9397 31.0216L47.8546 28.0733C47.7086 27.8229 47.6248 27.53 47.6248 27.217C47.6248 26.2943 48.3535 25.5464 49.2525 25.5464C50.1515 25.5464 50.8802 26.2943 50.8802 27.217C50.8802 28.1396 50.1515 28.8876 49.2525 28.8876L49.2826 28.8866L47.2941 31.9483L47.2723 31.9812C46.8171 32.6586 46.066 33.0641 45.2626 33.0641H40.2999C40.2999 33.6363 40.2439 34.1951 40.1371 34.7349L45.2626 34.7347C46.066 34.7347 46.8171 35.1403 47.2723 35.8176L47.2941 35.8506L49.2826 38.912L49.3314 38.9132C50.1937 38.9554 50.8802 39.6864 50.8802 40.5819C50.8802 41.5045 50.1515 42.2525 49.2525 42.2525C48.3535 42.2525 47.6248 41.5045 47.6248 40.5819C47.6248 40.269 47.7086 39.9761 47.8545 39.7257L45.9397 36.7773C45.7937 36.5524 45.551 36.4145 45.2888 36.4058L45.2626 36.4054L39.6227 36.4053C39.3688 37.0017 39.049 37.5619 38.6728 38.076L42.0071 38.076C42.8105 38.076 43.5616 38.4815 44.0168 39.1589L44.0386 39.1919L46.0269 42.2531L46.0759 42.2544C46.9382 42.2967 47.6248 43.0276 47.6248 43.9231C47.6248 44.8458 46.896 45.5937 45.997 45.5937C45.098 45.5937 44.3693 44.8458 44.3693 43.9231C44.3693 43.6101 44.4531 43.3172 44.5991 43.0668L42.6843 40.1185C42.5382 39.8937 42.2955 39.7557 42.0334 39.747L42.0071 39.7466L37.0448 39.7469C35.6845 40.7957 33.9936 41.4172 32.1612 41.4172C30.3289 41.4172 28.6381 40.7958 27.2778 39.7471L22.3706 39.7466L22.3443 39.747C22.0822 39.7557 21.8395 39.8937 21.6934 40.1185L19.7786 43.0668C19.9245 43.3172 20.0084 43.6101 20.0084 43.9231C20.0084 44.8458 19.2796 45.5937 18.3807 45.5937C17.4817 45.5937 16.7529 44.8458 16.7529 43.9231C16.7529 43.0005 17.4817 42.2525 18.3807 42.2525L18.3504 42.2531L20.3391 39.1919L20.3609 39.1589C20.8161 38.4815 21.5672 38.076 22.3706 38.076L25.6496 38.076C25.2734 37.5619 24.9536 37.0017 24.6997 36.4053L19.1151 36.4054L19.0888 36.4058C18.8267 36.4145 18.584 36.5524 18.4379 36.7773L16.5232 39.7257C16.6691 39.9761 16.7529 40.269 16.7529 40.5819C16.7529 41.5045 16.0242 42.2525 15.1252 42.2525C14.2262 42.2525 13.4974 41.5045 13.4974 40.5819C13.4974 39.6592 14.2262 38.9113 15.1252 38.9113L15.0947 38.912L17.0836 35.8506L17.1054 35.8176C17.5606 35.1403 18.3117 34.7347 19.1151 34.7347L24.1853 34.7349C24.0785 34.1951 24.0225 33.6363 24.0225 33.0641H19.1151C18.3117 33.0641 17.5606 32.6586 17.1054 31.9812L17.0836 31.9483L15.0947 28.8866L15.0463 28.8857C14.184 28.8435 13.4974 28.1125 13.4974 27.217C13.4974 26.2943 14.2262 25.5464 15.1252 25.5464C16.0242 25.5464 16.7529 26.2943 16.7529 27.217C16.7529 27.53 16.669 27.8229 16.5231 28.0733L18.4379 31.0216C18.584 31.2464 18.8267 31.3844 19.0888 31.3931L19.1151 31.3935L24.1853 31.3932C24.3003 30.8122 24.474 30.2531 24.6998 29.7227L22.3445 29.7229C21.5411 29.7229 20.79 29.3174 20.3348 28.64L20.313 28.607L18.3236 25.5448L18.3018 25.5445C17.4395 25.5022 16.7529 24.7713 16.7529 23.8758C16.7529 22.9531 17.4817 22.2052 18.3807 22.2052C19.2796 22.2052 20.0084 22.9531 20.0084 23.8758C20.0084 24.1975 19.9198 24.498 19.7663 24.7529L21.6673 27.6803C21.8134 27.9052 22.0561 28.0432 22.3182 28.0519L22.3445 28.0523L25.6496 28.0523C27.1345 26.0234 29.4985 24.7111 32.1612 24.7111C34.8239 24.7111 37.1879 26.0234 38.6728 28.0523L42.0332 28.0523L42.0594 28.0519C42.3216 28.0432 42.5643 27.9052 42.7103 27.6803L44.6114 24.7529C44.4579 24.498 44.3693 24.1975 44.3693 23.8758C44.3693 22.9531 45.098 22.2052 45.997 22.2052ZM32.1612 26.3817C28.5653 26.3817 25.6502 29.3735 25.6502 33.0641C25.6502 36.7548 28.5653 39.7466 32.1612 39.7466C35.7571 39.7466 38.6722 36.7548 38.6722 33.0641C38.6722 29.3735 35.7571 26.3817 32.1612 26.3817ZM32.1612 28.0523C34.8581 28.0523 37.0444 30.2962 37.0444 33.0641C37.0444 35.8321 34.8581 38.076 32.1612 38.076C29.4643 38.076 27.278 35.8321 27.278 33.0641C27.278 30.2962 29.4643 28.0523 32.1612 28.0523ZM37.8583 18.0286L37.9543 18.0301C39.7078 18.0822 41.1138 19.5575 41.1138 21.3698C41.1138 23.2152 39.6563 24.7111 37.8583 24.7111C36.0603 24.7111 34.6028 23.2152 34.6028 21.3698C34.6028 20.4472 34.9672 19.6119 35.5563 19.0072L37.8583 21.3698V18.0286ZM26.4641 18.0286V21.3698L28.2701 18.5895C29.144 19.1887 29.7196 20.2103 29.7196 21.3698C29.7196 23.2152 28.262 24.7111 26.4641 24.7111C24.6661 24.7111 23.2086 23.2152 23.2086 21.3698C23.2086 19.5245 24.6661 18.0286 26.4641 18.0286Z"
          fill="white"/>
    <defs>
        <linearGradient id="paint0_linear_10383_45609" x1="64" y1="64" x2="0" y2="0" gradientUnits="userSpaceOnUse">
            <stop stop-color="#FF0050"/>
            <stop offset="0.714448" stop-color="#7000FF"/>
            <stop offset="1" stop-color="#0027FF"/>
        </linearGradient>
    </defs>
</svg>
