<svg width="64" height="64" viewBox="0 0 64 64" fill="none" xmlns="http://www.w3.org/2000/svg">
    <rect width="64" height="64" fill="#1F1F1F"/>
    <path d="M19.4841 22.9548L32.5552 15.1235C33.0063 14.8528 33.561 14.8528 34.0121 15.1235L42.2447 20.0551C43.0725 20.5491 43.2215 21.7262 42.5468 22.4307L39.7571 25.3433C39.2935 25.8287 38.5692 25.9275 37.998 25.5839L34.0245 23.204C33.5651 22.929 32.998 22.929 32.5386 23.204L18.7556 31.5465V24.265C18.7556 23.7238 19.0329 23.2254 19.4841 22.9548Z"
          fill="#FA8C16"/>
    <path d="M42.2736 43.9235L34.008 48.8766C33.5568 49.1473 33.0022 49.1473 32.5552 48.8766L19.4841 41.0453C19.0329 40.7746 18.7556 40.2763 18.7556 39.735V33.1323L25.4898 29.0813V35.7012C25.4898 36.2425 25.7671 36.7408 26.2183 37.0072L32.5552 40.8047C33.0063 41.0753 33.561 41.0753 34.008 40.8047L38.0187 38.4033C38.5899 38.0596 39.3101 38.1585 39.7736 38.6439L42.5716 41.5479C43.2504 42.2481 43.1014 43.4295 42.2736 43.9235Z"
          fill="white"/>
</svg>
