<svg width="64" height="64" viewBox="0 0 64 64" fill="none" xmlns="http://www.w3.org/2000/svg">
    <rect width="64" height="64" fill="white"/>
    <path d="M32.1892 32.4761C34.709 32.4761 36.7517 31.2964 36.7517 29.8412C36.7517 28.386 34.709 27.2063 32.1892 27.2063C29.6694 27.2063 27.6268 28.386 27.6268 29.8412C27.6268 31.2964 29.6694 32.4761 32.1892 32.4761Z"
          fill="#E6007A"/>
    <path d="M32.1892 52.3223C34.709 52.3223 36.7517 51.1426 36.7517 49.6874C36.7517 48.2322 34.709 47.0525 32.1892 47.0525C29.6694 47.0525 27.6268 48.2322 27.6268 49.6874C27.6268 51.1426 29.6694 52.3223 32.1892 52.3223Z"
          fill="#E6007A"/>
    <path d="M25.8301 36.1203C27.09 33.9544 27.082 31.6088 25.8123 30.8812C24.5425 30.1535 22.4919 31.3195 21.232 33.4854C19.9721 35.6513 19.9801 37.9969 21.2498 38.7245C22.5195 39.4522 24.5702 38.2862 25.8301 36.1203Z"
          fill="#E6007A"/>
    <path d="M43.1466 46.0434C44.4065 43.8775 44.3985 41.5318 43.1288 40.8042C41.8591 40.0766 39.8084 41.2426 38.5485 43.4085C37.2886 45.5744 37.2966 47.92 38.5663 48.6476C39.8361 49.3752 41.8867 48.2093 43.1466 46.0434Z"
          fill="#E6007A"/>
    <path d="M25.8123 48.6475C27.082 47.9199 27.09 45.5742 25.8301 43.4084C24.5702 41.2425 22.5195 40.0765 21.2498 40.8041C19.98 41.5317 19.9721 43.8774 21.232 46.0433C22.4919 48.2091 24.5425 49.3751 25.8123 48.6475Z"
          fill="#E6007A"/>
    <path d="M43.1287 38.7246C44.3984 37.997 44.4064 35.6514 43.1465 33.4855C41.8866 31.3196 39.836 30.1536 38.5662 30.8812C37.2965 31.6088 37.2885 33.9545 38.5484 36.1204C39.8083 38.2863 41.859 39.4522 43.1287 38.7246Z"
          fill="#E6007A"/>
    <path d="M17.6335 26.4505V26.7252C17.6335 26.7252 28.3425 22.7618 30.4243 23.7854L29.1686 24.1318C29.2785 24.1318 31.3137 24.2566 31.3137 24.2566C31.3614 24.6504 31.5017 25.0293 31.7247 25.366C32.0557 25.8661 33.2176 26.6114 32.8519 26.8069C32.5128 26.9883 32.1468 26.9493 31.9661 27.2369C33.7667 27.2369 34.924 27.7052 35.5241 28.042C35.5241 28.042 35.1358 27.4477 34.3223 27.0498C33.4312 26.614 33.297 25.5004 33.1853 24.7785C33.1269 24.401 33.1741 24.0158 33.3223 23.6606C33.6187 22.9491 34.6547 22.5527 36.7565 21.5291C39.2514 20.3214 39.8209 19.4164 40.1707 18.7204C40.5204 18.0245 41.0467 16.6296 41.3365 15.9742C41.5775 15.3616 41.992 14.8222 42.5357 14.4138C42.9054 14.1486 44.5908 13.5525 44.5908 13.5525C44.5908 13.5525 43.3051 12.5258 42.8854 12.2168C42.3608 11.7514 41.6974 11.4466 40.9834 11.343C40.0907 11.2338 39.1847 11.7893 38.5718 12.1606C37.9589 12.532 36.7731 13.618 36.2935 13.9301C35.8138 14.2422 34.5847 14.5543 32.6294 15.6746C30.6742 16.795 22.9131 21.4355 22.9131 21.4355L24.9116 21.4542L15.9414 25.8139H16.8375L15.545 26.7501C16.2609 26.9037 17.0122 26.7966 17.6469 26.4505H17.6335Z"
          fill="black"/>
</svg>
