<svg width="64" height="64" viewBox="0 0 64 64" fill="none" xmlns="http://www.w3.org/2000/svg">
    <rect width="64" height="64" fill="white"/>
    <path d="M32.1891 32.4768C34.7089 32.4768 36.7516 31.2971 36.7516 29.8419C36.7516 28.3867 34.7089 27.207 32.1891 27.207C29.6693 27.207 27.6266 28.3867 27.6266 29.8419C27.6266 31.2971 29.6693 32.4768 32.1891 32.4768Z"
          fill="#E6007A"/>
    <path d="M32.1891 52.323C34.7089 52.323 36.7516 51.1434 36.7516 49.6881C36.7516 48.2329 34.7089 47.0533 32.1891 47.0533C29.6693 47.0533 27.6266 48.2329 27.6266 49.6881C27.6266 51.1434 29.6693 52.323 32.1891 52.323Z"
          fill="#E6007A"/>
    <path d="M25.83 36.121C27.0899 33.9551 27.0819 31.6095 25.8122 30.8819C24.5424 30.1543 22.4917 31.3202 21.2318 33.4861C19.972 35.652 19.9799 37.9977 21.2497 38.7253C22.5194 39.4529 24.5701 38.2869 25.83 36.121Z"
          fill="#E6007A"/>
    <path d="M43.1465 46.0441C44.4064 43.8782 44.3984 41.5326 43.1287 40.805C41.8589 40.0774 39.8083 41.2433 38.5484 43.4092C37.2885 45.5751 37.2965 47.9208 38.5662 48.6484C39.8359 49.376 41.8866 48.21 43.1465 46.0441Z"
          fill="#E6007A"/>
    <path d="M25.8121 48.6482C27.0819 47.9206 27.0899 45.575 25.83 43.4091C24.5701 41.2432 22.5194 40.0772 21.2497 40.8048C19.9799 41.5324 19.9719 43.8781 21.2318 46.044C22.4917 48.2099 24.5424 49.3758 25.8121 48.6482Z"
          fill="#E6007A"/>
    <path d="M43.1286 38.7254C44.3983 37.9978 44.4063 35.6521 43.1464 33.4862C41.8865 31.3203 39.8358 30.1544 38.5661 30.882C37.2964 31.6096 37.2884 33.9552 38.5483 36.1211C39.8082 38.287 41.8588 39.453 43.1286 38.7254Z"
          fill="#E6007A"/>
    <path d="M15.1924 26.0063V26.2809C15.1924 26.2809 25.9013 22.3175 27.9832 23.3411L26.7274 23.6875C26.8373 23.6875 28.8725 23.8124 28.8725 23.8124C28.9202 24.2061 29.0606 24.585 29.2835 24.9218C29.5064 25.2585 29.8063 25.5447 30.1616 25.7597C31.3874 26.5181 31.4107 26.93 31.4107 26.93C31.4107 26.93 30.7745 27.1734 30.7745 27.4824C31.3661 27.3237 31.9779 27.2408 32.5932 27.2358C33.1483 27.2544 33.6987 27.3372 34.232 27.4824C34.232 27.4824 34.1688 27.1703 33.3127 26.93C32.4566 26.6897 31.6306 25.8409 31.2142 25.3696C30.9645 25.0684 30.8025 24.7116 30.7441 24.3342C30.6858 23.9567 30.733 23.5715 30.8811 23.2163C31.1776 22.5048 32.2135 22.1084 34.3153 21.0848C36.8102 19.8771 37.3798 18.9721 37.7295 18.2762C38.0793 17.5802 38.6056 16.1853 38.8953 15.5299C39.1363 14.9174 39.5509 14.3779 40.0945 13.9695C40.4642 13.7043 42.1497 13.1082 42.1497 13.1082C42.1497 13.1082 40.8639 12.0815 40.4442 11.7725C39.9197 11.3071 39.2563 11.0023 38.5423 10.8987C37.6496 10.7895 36.7436 11.345 36.1307 11.7164C35.5178 12.0877 34.332 13.1738 33.8523 13.4858C33.3726 13.7979 32.1435 14.11 30.1883 15.2303C28.233 16.3507 20.4719 20.9912 20.4719 20.9912L22.4705 21.0099L13.5003 25.3696H14.3963L13.1039 26.3058C13.8197 26.4594 14.571 26.3523 15.2057 26.0063H15.1924Z"
          fill="black"/>
</svg>
