<svg width="64" height="64" viewBox="0 0 64 64" fill="none" xmlns="http://www.w3.org/2000/svg">
<rect width="64" height="64" fill="white"/>
<path d="M51.7879 48.5807H24.7036C24.5766 48.5807 24.4496 48.5456 24.3341 48.4753L14.544 42.349C14.2208 42.1499 14.1053 41.7164 14.3016 41.3885C14.4286 41.1776 14.6595 41.037 14.9135 41.0488H41.9978C42.1248 41.0488 42.2518 41.0839 42.3673 41.1542L52.1574 47.2805C52.4806 47.4796 52.5961 47.913 52.3998 48.241C52.2728 48.4519 52.0419 48.5807 51.7879 48.5807ZM24.8998 47.1634H49.3404L41.8131 42.4427H17.3725L24.8998 47.1634Z" fill="black"/>
<path d="M50.1027 23.9584H23.0183C22.8913 23.9584 22.7643 23.9233 22.6489 23.853L12.8703 17.7267C12.5355 17.5276 12.4316 17.0941 12.6279 16.7662C12.7549 16.5436 12.9858 16.4147 13.2397 16.4265H40.3241C40.4511 16.4265 40.5781 16.4616 40.6936 16.5319L50.4836 22.6582C50.8184 22.8573 50.9223 23.2907 50.7261 23.6187C50.5875 23.8413 50.3566 23.9701 50.1027 23.9584ZM23.2146 22.5528H47.6551L40.1279 17.8321H15.6873L23.2146 22.5528Z" fill="black"/>
<path d="M35.1662 29.4287C34.3696 28.6322 33.296 28.1871 32.1876 28.1871H32.1414C29.7863 28.3276 27.9853 30.3658 28.1238 32.7554C28.2508 34.9693 30.0056 36.7381 32.1876 36.8435H32.2338C34.589 36.8201 36.4824 34.8639 36.4593 32.4743C36.4362 31.3381 35.9744 30.237 35.1662 29.4287Z" fill="black"/>
</svg>
