<svg width="64" height="64" viewBox="0 0 64 64" fill="none" xmlns="http://www.w3.org/2000/svg">
    <rect width="64" height="64" fill="white"/>
    <path d="M52.9999 32.9574L50.183 30.4106L46.5114 34.3553C46.2909 34.5907 46.0188 34.7735 45.7158 34.8896C45.4129 35.0058 45.087 35.0522 44.7631 35.0255L41.7519 34.7383C41.5362 34.7157 41.3181 34.7439 41.1155 34.8204C40.9129 34.897 40.7315 35.0197 40.5864 35.1787L29.1636 47.4723L31.9804 50L45.0544 35.9447C45.2222 35.7615 45.4376 35.6272 45.6774 35.5563C45.9171 35.4854 46.172 35.4807 46.4143 35.5425L49.0563 36.1744C49.2989 36.2301 49.552 36.2223 49.7905 36.1518C50.0291 36.0812 50.2448 35.9504 50.4162 35.7723L52.9999 32.9574Z"
          fill="url(#paint0_linear_11665_48040)"/>
    <path d="M46.9584 27.4808L44.1415 24.934L37.6142 31.9617C37.3937 32.1971 37.1216 32.3799 36.8186 32.496C36.5157 32.6122 36.1898 32.6586 35.8659 32.6319L32.8547 32.3447C32.639 32.3221 32.4209 32.3502 32.2183 32.4268C32.0157 32.5034 31.8343 32.6261 31.6892 32.7851L23.1221 41.9957L25.9389 44.5425L36.1378 33.5702C36.3056 33.3871 36.521 33.2528 36.7608 33.1819C37.0005 33.111 37.2554 33.1062 37.4977 33.1681L40.1397 33.8C40.3822 33.8557 40.6354 33.8479 40.8739 33.7773C41.1125 33.7068 41.3281 33.576 41.4995 33.3979L46.9584 27.4808Z"
          fill="url(#paint1_linear_11665_48040)"/>
    <path d="M40.8976 22.0234L38.0807 19.4766L28.6783 29.5681C28.4578 29.8035 28.1857 29.9863 27.8827 30.1024C27.5798 30.2186 27.2539 30.265 26.9299 30.2383L23.9188 29.9511C23.7031 29.9285 23.4849 29.9567 23.2823 30.0332C23.0797 30.1098 22.8984 30.2326 22.7532 30.3915L17.0613 36.5192L19.8781 39.066L27.2019 31.1766C27.3697 30.9935 27.5851 30.8592 27.8248 30.7883C28.0646 30.7174 28.3195 30.7126 28.5618 30.7745L31.2038 31.4064C31.4463 31.4621 31.6994 31.4543 31.938 31.3837C32.1765 31.3132 32.3922 31.1824 32.5636 31.0043L40.8976 22.0234Z"
          fill="url(#paint2_linear_11665_48040)"/>
    <path d="M34.8557 16.5468L32.0389 14L19.7613 27.1936C19.5408 27.4291 19.2687 27.6118 18.9658 27.728C18.6628 27.8441 18.3369 27.8906 18.013 27.8639L15.0019 27.5766C14.7861 27.5541 14.568 27.5822 14.3654 27.6588C14.1628 27.7353 13.9814 27.8581 13.8363 28.017L11 31.0426L13.8168 33.5894L18.2849 28.783C18.4527 28.5999 18.6681 28.4656 18.9079 28.3947C19.1476 28.3238 19.4025 28.319 19.6448 28.3809L22.2868 29.0128C22.5294 29.0685 22.7825 29.0607 23.021 28.9901C23.2596 28.9196 23.4752 28.7888 23.6466 28.6107L34.8557 16.5468Z"
          fill="url(#paint3_linear_11665_48040)"/>
    <defs>
        <linearGradient id="paint0_linear_11665_48040" x1="50.1986" y1="30.4259" x2="32.263" y2="50.2724"
                        gradientUnits="userSpaceOnUse">
            <stop offset="0.21" stop-color="#02C86A"/>
            <stop offset="0.34" stop-color="#14EA85"/>
        </linearGradient>
        <linearGradient id="paint1_linear_11665_48040" x1="44.1629" y1="24.9532" x2="26.2254" y2="44.8016"
                        gradientUnits="userSpaceOnUse">
            <stop offset="0.32" stop-color="#02C86A"/>
            <stop offset="0.51" stop-color="#11ED85"/>
        </linearGradient>
        <linearGradient id="paint2_linear_11665_48040" x1="38.0885" y1="19.4843" x2="20.1605" y2="39.3211"
                        gradientUnits="userSpaceOnUse">
            <stop offset="0.5" stop-color="#1FD17D"/>
            <stop offset="0.64" stop-color="#2CE28C"/>
        </linearGradient>
        <linearGradient id="paint3_linear_11665_48040" x1="32.0408" y1="14.0019" x2="14.1053" y2="33.8503"
                        gradientUnits="userSpaceOnUse">
            <stop offset="0.65" stop-color="#1BC675"/>
            <stop offset="0.8" stop-color="#0FD879"/>
        </linearGradient>
    </defs>
</svg>
