<svg width="64" height="64" viewBox="0 0 64 64" fill="none" xmlns="http://www.w3.org/2000/svg">
    <rect width="64" height="64" fill="#E6007A"/>
    <path d="M31.9999 23.2704C35.0181 23.2704 37.4648 21.8574 37.4648 20.1144C37.4648 18.3713 35.0181 16.9583 31.9999 16.9583C28.9818 16.9583 26.5351 18.3713 26.5351 20.1144C26.5351 21.8574 28.9818 23.2704 31.9999 23.2704Z" fill="white"/>
    <path d="M31.9999 47.0417C35.0181 47.0417 37.4648 45.6287 37.4648 43.8857C37.4648 42.1426 35.0181 40.7297 31.9999 40.7297C28.9818 40.7297 26.5351 42.1426 26.5351 43.8857C26.5351 45.6287 28.9818 47.0417 31.9999 47.0417Z" fill="white"/>
    <path d="M24.3831 27.6353C25.8922 25.0411 25.8826 22.2315 24.3618 21.36C22.8409 20.4885 20.3847 21.885 18.8756 24.4793C17.3665 27.0735 17.3761 29.8831 18.8969 30.7546C20.4178 31.6261 22.874 30.2296 24.3831 27.6353Z" fill="white"/>
    <path d="M45.1244 39.5209C46.6335 36.9267 46.6239 34.1171 45.1031 33.2456C43.5822 32.3741 41.126 33.7707 39.6169 36.3649C38.1078 38.9592 38.1174 41.7687 39.6382 42.6402C41.1591 43.5117 43.6154 42.1152 45.1244 39.5209Z" fill="white"/>
    <path d="M24.3618 42.6401C25.8826 41.7686 25.8922 38.959 24.3831 36.3648C22.874 33.7705 20.4178 32.3739 18.8969 33.2455C17.3761 34.117 17.3665 36.9265 18.8756 39.5208C20.3846 42.115 22.8409 43.5116 24.3618 42.6401Z" fill="white"/>
    <path d="M45.1029 30.7547C46.6238 29.8832 46.6334 27.0736 45.1243 24.4794C43.6152 21.8851 41.159 20.4886 39.6381 21.3601C38.1173 22.2316 38.1077 25.0411 39.6168 27.6354C41.1258 30.2297 43.5821 31.6262 45.1029 30.7547Z" fill="white"/>
</svg>
