<svg width="64" height="64" viewBox="0 0 64 64" fill="none" xmlns="http://www.w3.org/2000/svg">
    <rect width="64" height="64" fill="white"/>
    <path d="M16.9278 40.27V40.6029C16.9278 40.6029 29.9085 35.7988 32.432 37.0395L30.9098 37.4594C31.0431 37.4594 33.51 37.6107 33.51 37.6107C33.5678 38.088 33.7379 38.5473 34.0081 38.9555C34.2783 39.3636 34.6419 39.7106 35.0725 39.9712C36.5584 40.8904 36.5866 41.3897 36.5866 41.3897C36.5866 41.3897 35.8154 41.6848 35.8154 42.0593C36.5325 41.8669 37.2741 41.7664 38.02 41.7604C38.6927 41.7829 39.36 41.8833 40.0064 42.0593C40.0064 42.0593 39.9297 41.681 38.8921 41.3897C37.8544 41.0984 36.8531 40.0695 36.3484 39.4983C36.0457 39.1332 35.8494 38.7007 35.7786 38.2432C35.7079 37.7857 35.7651 37.3188 35.9447 36.8882C36.304 36.0257 37.5597 35.5453 40.1074 34.3046C43.1315 32.8407 43.8219 31.7437 44.2459 30.9001C44.6698 30.0565 45.3077 28.3657 45.659 27.5713C45.9511 26.8288 46.4536 26.1749 47.1125 25.6799C47.5607 25.3584 49.6037 24.6358 49.6037 24.6358C49.6037 24.6358 48.0452 23.3913 47.5365 23.0168C46.9006 22.4526 46.0965 22.0832 45.231 21.9576C44.149 21.8253 43.0507 22.4986 42.3078 22.9487C41.5649 23.3989 40.1276 24.7153 39.5461 25.0936C38.9647 25.4718 37.4749 25.8501 35.1048 27.2081C32.7348 28.5661 23.3273 34.1911 23.3273 34.1911L25.7498 34.2138L14.8767 39.4983H15.9628L14.3962 40.6332C15.2639 40.8193 16.1746 40.6894 16.9439 40.27H16.9278Z"
          fill="white"/>
    <path fill-rule="evenodd" clip-rule="evenodd"
          d="M25.251 12.081C22.1461 13.1535 19.4361 14.8436 17.1467 17.1353C15.4852 18.7986 14.1756 20.6255 13.1436 22.7199C11.9767 25.0882 11.2855 27.5902 11.0546 30.2817C11.0024 30.8904 10.9821 32.483 11.0184 33.122C11.3162 38.3669 13.4733 43.1888 17.1717 46.8768C20.4947 50.1905 24.8088 52.2922 29.4479 52.8576C30.2515 52.9555 30.7083 52.9836 31.708 52.9966C32.9457 53.0127 33.6735 52.9738 34.7543 52.8337C42.3069 51.8545 48.7819 46.7863 51.5786 39.6647C51.7327 39.2724 52 38.5267 52 38.4893C52 38.4819 51.8606 38.6863 51.6902 38.9436C49.0434 42.9399 45.0042 45.812 40.3863 46.9813C37.3414 47.7523 34.0922 47.762 31.0398 47.0091C26.9477 45.9997 23.3007 43.6639 20.6459 40.3521C17.375 36.2717 15.9211 31.0651 16.5945 25.8435C17.0169 22.568 18.2861 19.4614 20.289 16.8006C20.8706 16.0279 21.2858 15.5493 22.0035 14.8242C22.9707 13.847 23.9132 13.0699 25.0432 12.3178C25.3073 12.142 25.5137 11.999 25.5018 12C25.4899 12.001 25.3771 12.0374 25.251 12.081ZM34.7543 12.4469C34.6946 12.4519 34.5046 12.4672 34.3322 12.4809C32.6639 12.6135 30.8897 13.0582 29.3176 13.738C27.0738 14.7081 25.0315 16.2389 23.4321 18.149C20.3549 21.8241 19.1055 26.73 20.0441 31.4516C20.0836 31.6506 20.1751 32.0457 20.2474 32.3296C20.3197 32.6136 20.3788 32.8497 20.3788 32.8543C20.3788 32.8589 20.3882 32.8626 20.3996 32.8626C20.411 32.8626 20.4278 32.79 20.4369 32.7013C20.5139 31.9495 20.8878 30.5854 21.2587 29.7028C22.4771 26.8039 24.6945 24.3916 27.4777 22.9376C29.6476 21.804 32.2429 21.2855 34.3591 21.5629C36.7649 21.8783 38.6683 23.2358 39.6102 25.308C39.8794 25.9003 40.0809 26.6315 40.1234 27.1701C40.1397 27.3775 40.1634 27.4596 40.2068 27.4596C40.2461 27.4596 41.2701 27.9633 41.7734 28.2303C43.0449 28.9048 44.4643 29.7567 44.6327 29.9465L44.6796 29.9994L44.5108 29.9837C43.4748 29.8869 42.4184 29.9156 41.4845 30.066C38.92 30.4789 37.1002 31.7009 36.1526 33.6466C35.797 34.3767 35.5746 35.119 35.4655 35.9408C35.4205 36.2789 35.414 37.0201 35.4531 37.337C35.6595 39.0083 36.5143 40.4047 37.8991 41.3328C38.5527 41.7708 39.2935 42.0635 40.133 42.2154C40.4523 42.2731 40.5394 42.2788 41.134 42.2799C41.8307 42.2813 42.0152 42.2629 42.5932 42.1342C42.9453 42.0558 43.558 41.8537 43.9319 41.6926C45.0729 41.2009 46.2126 40.3619 47.2509 39.2491C49.7409 36.5805 51.1746 33.372 51.5219 29.6908C51.5719 29.1607 51.5644 27.3897 51.51 26.8686C51.293 24.7929 50.7685 22.9677 49.8777 21.1887C48.3569 18.1515 45.8236 15.6245 42.7741 14.1029C41.0209 13.2281 39.183 12.7021 37.1421 12.491C36.7907 12.4546 35.0475 12.4225 34.7543 12.4469ZM35.6347 24.3804C35.4753 24.433 35.379 24.4923 35.2414 24.6224C35.0041 24.8469 34.8867 25.1869 34.9427 25.488C34.9849 25.7148 35.0942 25.9145 35.2604 26.0684C35.4625 26.2555 35.6143 26.3114 35.9241 26.3127C36.2363 26.314 36.3841 26.2585 36.5956 26.0606C36.7538 25.9126 36.8368 25.7749 36.8913 25.5701C37.009 25.1281 36.7807 24.6507 36.3503 24.4388C36.2116 24.3705 36.1662 24.3607 35.9622 24.355C35.8184 24.351 35.6947 24.3606 35.6347 24.3804Z"
          fill="url(#paint0_linear_10327_46279)"/>
    <defs>
        <linearGradient id="paint0_linear_10327_46279" x1="11" y1="12" x2="52.0536" y2="53.0521"
                        gradientUnits="userSpaceOnUse">
            <stop stop-color="#00D2D3"/>
            <stop offset="1" stop-color="#C70CBA"/>
        </linearGradient>
    </defs>
</svg>
