<svg width="20" height="20" viewBox="0 0 20 20" fill="none" xmlns="http://www.w3.org/2000/svg">
<path d="M19.9766 9.32139C19.6018 3.81154 14.8313 -0.351339 9.32139 0.0234461C6.57659 0.21014 4.16655 1.48812 2.48476 3.4045L2.48477 3.40448L2.48007 3.4011C2.46874 3.41678 2.45816 3.43225 2.4469 3.44792C0.776336 5.37365 -0.163236 7.93419 0.0234352 10.6786C0.0412235 10.9401 0.0720062 11.1975 0.109203 11.4526C0.109214 11.4526 0.109214 11.4527 0.109225 11.4528C0.110901 11.4643 0.11261 11.4758 0.11423 11.4873C0.139375 11.6556 0.168571 11.8224 0.201884 11.9876C0.201906 11.9877 0.201917 11.9878 0.20194 11.9879C0.20255 11.9909 0.203127 11.9939 0.203715 11.9969C0.234043 12.1466 0.267733 12.2949 0.304597 12.4419L0.304663 12.4422C0.304697 12.4423 0.30473 12.4424 0.304752 12.4426C1.45964 17.0482 5.77481 20.3101 10.6786 19.9766C16.1885 19.6018 20.3513 14.8313 19.9766 9.32139H19.9766ZM17.7998 9.46947C17.846 10.1478 17.8033 10.812 17.6825 11.451C17.681 11.4473 17.6799 11.4435 17.6784 11.4398V11.4398C16.9534 9.66776 15.5194 8.38839 14.2582 7.68165C14.5135 4.67899 13.4948 3.41399 12.3419 3.20817C12.3106 3.20213 12.279 3.19698 12.247 3.19301C11.3319 3.07565 10.4951 3.72243 10.3779 4.63741C10.2606 5.55244 10.9074 6.38924 11.8223 6.50665C11.9021 6.51675 11.9811 6.51955 12.0593 6.51832C12.0644 6.61968 12.0675 6.72735 12.0684 6.83995C11.0024 6.57577 10.0059 6.52407 9.09734 6.60575C8.75757 6.6284 8.41759 6.67121 8.07945 6.73439C8.19285 5.72048 8.57326 4.58216 9.31138 3.74912C10.025 2.94384 11.0858 2.48228 12.2431 2.60073C12.4624 2.62318 12.6965 2.67704 12.9073 2.74782C12.917 2.75107 12.9273 2.75382 12.9368 2.75715C12.937 2.75696 12.9372 2.75671 12.9373 2.75652C15.6178 3.84849 17.5906 6.39245 17.7998 9.46947V9.46947ZM10.83 10.9969C10.8292 10.9979 10.8285 10.999 10.8277 11.0001C10.5891 11.3442 10.3054 11.6836 9.97222 12.0118C9.47285 11.4804 9.0717 10.9083 8.76733 10.3163C8.75174 10.2846 8.73509 10.2544 8.71985 10.2222C8.71928 10.221 8.71873 10.2198 8.71815 10.2187C8.53936 9.83981 8.38734 9.42422 8.26965 8.97145C8.98024 8.80425 9.6771 8.74278 10.3426 8.77518C10.3779 8.77752 10.4123 8.77821 10.4479 8.78113C10.4492 8.78122 10.4505 8.78134 10.4518 8.78142C10.8686 8.81596 11.3038 8.89194 11.754 9.01606C11.5435 9.71475 11.2484 10.3487 10.8877 10.9087C10.8681 10.938 10.8503 10.9675 10.83 10.9969V10.9969ZM7.41296 2.62395C7.4111 2.62636 7.40898 2.62864 7.40712 2.63104L7.40711 2.63105C6.23553 4.14416 5.84439 6.02462 5.86248 7.46987C3.13464 8.75016 2.54848 10.2648 2.9467 11.3661C2.95713 11.3962 2.96846 11.4262 2.98103 11.4559C3.33692 12.307 4.31544 12.7083 5.16644 12.3523C6.01755 11.9965 6.41885 11.0179 6.06305 10.1668C6.03188 10.0927 5.99484 10.0229 5.95468 9.95578C6.04089 9.90007 6.13347 9.84285 6.23178 9.78511C6.53601 10.8406 6.9861 11.7334 7.51118 12.4795C7.70031 12.7618 7.90695 13.0343 8.13022 13.2951C7.19534 13.704 6.01907 13.9439 4.92834 13.7211C3.87416 13.5058 2.94402 12.8179 2.46797 11.7564C2.37773 11.5552 2.30736 11.3256 2.26326 11.1077C2.23613 10.9173 2.21339 10.7254 2.20014 10.5305C1.95648 6.94844 4.17885 3.75948 7.41296 2.62395V2.62395ZM10.5305 17.7999C8.40339 17.9445 6.415 17.219 4.91222 15.9293C6.80841 16.1874 8.6325 15.5859 9.87508 14.8476C12.3488 16.5712 13.9542 16.3217 14.7091 15.4259C14.73 15.4018 14.7502 15.377 14.7697 15.3513C15.3289 14.6175 15.1871 13.5694 14.4533 13.0105C13.7196 12.4513 12.6715 12.593 12.1123 13.3267C12.0637 13.3908 12.0218 13.4578 11.9837 13.5261C11.893 13.4796 11.7977 13.4283 11.6993 13.3725C12.4619 12.5809 13.0054 11.7432 13.3892 10.915C13.5394 10.6094 13.6724 10.2935 13.7867 9.96909C14.6087 10.5743 15.4053 11.4734 15.758 12.5299C16.0986 13.5506 15.9679 14.7001 15.2867 15.6431C15.1575 15.8218 14.9938 15.9976 14.8272 16.1447C14.8248 16.1469 14.8224 16.1491 14.82 16.1513C13.6282 17.088 12.1536 17.6895 10.5305 17.7999V17.7999Z" fill="url(#paint0_linear_19815_15657)"/>
<path style="mix-blend-mode:overlay" opacity="0.9" d="M12.3401 3.20813C12.3087 3.2021 12.2772 3.19695 12.2451 3.19298C12.0832 3.17221 11.924 3.1765 11.7706 3.20083C12.7272 3.72125 13.4247 5.17128 13.058 8.03156C12.9365 8.97888 12.6548 9.88039 12.2481 10.7076C11.9185 11.4189 11.47 12.137 10.8672 12.827C11.1567 13.0442 11.439 13.2259 11.6975 13.3725C12.4601 12.5809 13.0035 11.7431 13.3873 10.9149C13.7941 10.0877 14.0758 9.1862 14.1972 8.23887C14.6338 4.83323 13.562 3.42628 12.3401 3.20813V3.20813Z" fill="url(#paint1_radial_19815_15657)"/>
<g style="mix-blend-mode:overlay" opacity="0.8">
<path d="M13.0592 8.03189C13.4259 5.17162 12.7284 3.72159 11.7718 3.20117C11.7344 3.2071 11.6978 3.21505 11.6612 3.22345C12.5978 3.76183 13.2716 5.21049 12.9099 8.03189C12.7885 8.97922 12.5068 9.88073 12.1 10.7079C11.7813 11.3957 11.3503 12.0896 10.7773 12.7586C10.8078 12.7821 10.8381 12.8046 10.8684 12.8274C11.4712 12.1373 11.9197 11.4192 12.2493 10.7079C12.6561 9.88073 12.9377 8.97922 13.0592 8.03189V8.03189Z" fill="white"/>
</g>
<path style="mix-blend-mode:overlay" opacity="0.5" d="M9.4226 14.5185C9.3327 14.45 9.24619 14.3783 9.15966 14.3066C7.74793 14.8957 5.79089 15.265 3.84766 14.814C4.16587 15.2196 4.52099 15.5941 4.91107 15.9289C6.80726 16.187 8.63135 15.5855 9.87394 14.8472C9.72643 14.7444 9.57629 14.6356 9.4226 14.5185V14.5185Z" fill="url(#paint2_radial_19815_15657)"/>
<path style="mix-blend-mode:overlay" opacity="0.6" d="M9.15952 14.3071C9.11629 14.2713 9.07276 14.2358 9.03037 14.1992C7.60794 14.7677 5.64199 15.1075 3.70312 14.6243C3.75036 14.6884 3.7984 14.7519 3.84752 14.8145C5.79075 15.2655 7.74779 14.8962 9.15952 14.3071V14.3071Z" fill="url(#paint3_linear_19815_15657)"/>
<path style="mix-blend-mode:overlay" opacity="0.9" d="M2.9467 11.3681C2.95714 11.3983 2.96847 11.4282 2.98104 11.4579C3.04402 11.6085 3.12731 11.7442 3.22512 11.865C3.19749 10.7763 4.10453 9.44725 6.76494 8.33467C7.64608 7.96619 8.56765 7.75938 9.48743 7.69806C10.2682 7.62786 11.1143 7.6572 12.0134 7.83422C12.0566 7.47495 12.0729 7.1396 12.0706 6.84248C11.0037 6.57783 10.0065 6.52605 9.09734 6.60778C8.17757 6.66911 7.25599 6.87592 6.37485 7.24439C3.20719 8.56912 2.52465 10.2008 2.9467 11.3681L2.9467 11.3681Z" fill="url(#paint4_radial_19815_15657)"/>
<g style="mix-blend-mode:overlay" opacity="0.8">
<path d="M6.76504 8.33494C4.10463 9.44753 3.1976 10.7766 3.22522 11.8652C3.24903 11.8946 3.27424 11.9224 3.29981 11.9499C3.29779 10.8696 4.21543 9.5617 6.83968 8.46423C7.72083 8.09576 8.6424 7.88895 9.56218 7.82762C10.3171 7.75974 11.1336 7.78607 11.9994 7.94777C12.0046 7.90959 12.0089 7.87212 12.0135 7.8345C11.1144 7.65748 10.2683 7.62814 9.48754 7.69833C8.56776 7.75966 7.64618 7.96647 6.76504 8.33494Z" fill="white"/>
</g>
<path style="mix-blend-mode:overlay" opacity="0.4" d="M14.2005 8.23975C14.1861 8.35186 14.1673 8.46264 14.1484 8.57341C15.3644 9.5015 16.6628 11.0117 17.2438 12.9201C17.436 12.4417 17.5828 11.9469 17.6777 11.4417C16.9531 9.67048 15.5201 8.39153 14.2594 7.68457C14.2442 7.86371 14.225 8.0481 14.2005 8.23975V8.23975Z" fill="url(#paint5_radial_19815_15657)"/>
<path style="mix-blend-mode:overlay" opacity="0.5" d="M14.15 8.57324C14.1406 8.6286 14.1316 8.68405 14.1211 8.73906C15.3246 9.6867 16.6018 11.2194 17.1528 13.1401C17.1847 13.0671 17.2157 12.9937 17.2454 12.9199C16.6643 11.0115 15.3659 9.50133 14.15 8.57324V8.57324Z" fill="url(#paint6_linear_19815_15657)"/>
<path style="mix-blend-mode:overlay" opacity="0.9" d="M14.7098 15.4239C14.7307 15.3998 14.7509 15.375 14.7704 15.3492C14.8693 15.2194 14.9452 15.0794 15.0008 14.9343C14.0718 15.5026 12.4673 15.3816 10.1736 13.6339C9.41392 13.0551 8.77403 12.3604 8.26103 11.5945C7.80985 10.9534 7.4122 10.206 7.11599 9.33887C6.78322 9.48102 6.48467 9.63462 6.22852 9.7852C6.53275 10.8414 6.9865 11.7309 7.51187 12.4774C8.02487 13.2433 8.66476 13.938 9.42444 14.5169C12.1555 16.5978 13.9099 16.373 14.7098 15.4239V15.4239Z" fill="url(#paint7_radial_19815_15657)"/>
<g style="mix-blend-mode:overlay" opacity="0.8">
<path d="M10.1748 13.6334C12.4685 15.3811 14.073 15.5021 15.002 14.9339C15.0156 14.8986 15.027 14.8628 15.038 14.8269C14.1035 15.3688 12.512 15.2281 10.2494 13.5042C9.48976 12.9253 8.84988 12.2306 8.33687 11.4647C7.90062 10.8448 7.5152 10.1246 7.22232 9.29395C7.18666 9.30854 7.15204 9.32351 7.11719 9.33839C7.4134 10.2055 7.81104 10.9529 8.26223 11.594C8.77523 12.3599 9.41512 13.0546 10.1748 13.6334V13.6334Z" fill="white"/>
</g>
<path style="mix-blend-mode:overlay" opacity="0.3" d="M6.37415 7.2414C6.47843 7.19778 6.58378 7.15872 6.68913 7.11963C6.88489 5.60253 7.54359 3.72303 8.90575 2.26562C8.39537 2.3384 7.89345 2.45867 7.40849 2.62911C6.2369 4.14222 5.84578 6.02269 5.86388 7.46794C6.02664 7.39159 6.19589 7.31594 6.37415 7.2414V7.2414Z" fill="url(#paint8_radial_19815_15657)"/>
<path style="mix-blend-mode:overlay" opacity="0.4" d="M6.68945 7.11928C6.7421 7.09976 6.79461 7.07981 6.8475 7.06139C7.06642 5.54531 7.75512 3.67285 9.14303 2.23535C9.06386 2.24419 8.98486 2.25405 8.90608 2.26528C7.54392 3.72268 6.88522 5.60218 6.68945 7.11928V7.11928Z" fill="url(#paint9_linear_19815_15657)"/>
<path style="mix-blend-mode:multiply" opacity="0.4" d="M9.32186 0.0233347C6.57706 0.210028 4.16701 1.48801 2.48522 3.40438C2.47251 3.41887 2.45988 3.43338 2.44727 3.44794L2.44737 3.44781C2.77479 3.77259 3.84486 4.41299 4.27857 4.68005C5.13011 3.76425 6.20063 3.04967 7.41343 2.62384C7.49814 2.5147 7.58593 2.40702 7.67892 2.30207C8.80849 1.02744 10.351 0.353722 12.1402 0.353722C12.3394 0.353722 12.7449 0.38542 12.7537 0.386064C11.669 0.0744427 10.513 -0.0576874 9.32186 0.0233347Z" fill="url(#paint10_linear_19815_15657)"/>
<path style="mix-blend-mode:multiply" opacity="0.4" d="M10.5304 17.7996C8.4033 17.9443 6.4149 17.2187 4.91212 15.929H4.91211L4.9121 15.929C4.77222 15.91 4.63204 15.8871 4.49162 15.8585C2.82297 15.5175 1.46824 14.5185 0.573654 12.969C0.474081 12.7966 0.384985 12.6209 0.304688 12.4424C1.45961 17.048 5.77476 20.3098 10.6785 19.9763C10.7003 19.4713 10.5514 18.2995 10.5304 17.7996V17.7996Z" fill="url(#paint11_linear_19815_15657)"/>
<path style="mix-blend-mode:multiply" opacity="0.4" d="M19.9769 9.32163C19.6697 9.29015 18.1691 9.40862 17.8002 9.46971C17.8463 10.148 17.8036 10.8122 17.6828 11.4512C17.7346 11.5783 17.7837 11.7073 17.8278 11.8395C18.3669 13.4551 18.1791 15.1278 17.2845 16.6773C17.1868 16.8465 17.0813 17.0086 16.9693 17.1647C16.9671 17.1676 16.9647 17.1711 16.9629 17.1735C16.9628 17.1736 16.9675 17.1696 16.9701 17.1672C19.0012 15.1912 20.1843 12.3704 19.9769 9.32163V9.32163Z" fill="url(#paint12_linear_19815_15657)"/>
<path style="mix-blend-mode:multiply" opacity="0.5" d="M12.2435 2.60024C12.4629 2.62269 12.697 2.67655 12.9077 2.74733C12.9174 2.75058 12.9277 2.75333 12.9373 2.75666C12.9374 2.75647 12.9376 2.75622 12.9378 2.75603C13.8004 3.10744 14.5891 3.60993 15.2699 4.23148C15.2714 4.2327 15.2729 4.2337 15.2743 4.23492C15.6025 3.85978 16.2343 3.44756 16.2343 3.44756C16.2343 3.44756 15.2668 2.45794 13.7872 2.15083C12.7513 1.93583 10.4149 1.72742 8.94141 4.23492C8.94141 4.23492 8.94728 4.22939 8.95589 4.22144C9.0649 4.05668 9.18079 3.89654 9.31185 3.74863C10.0254 2.94335 11.0863 2.48179 12.2435 2.60024V2.60024Z" fill="url(#paint13_linear_19815_15657)"/>
<path style="mix-blend-mode:multiply" opacity="0.5" d="M15.2865 15.6419C15.1574 15.8207 14.9937 15.9965 14.8271 16.1436C14.8194 16.1504 14.8119 16.1579 14.8042 16.1645C14.8043 16.1647 14.8044 16.165 14.8045 16.1652C14.0689 16.7366 13.2394 17.1684 12.3607 17.4472C12.3589 17.4479 12.3573 17.4487 12.3555 17.4493C12.5163 17.9211 12.5574 18.6743 12.5574 18.6743C12.5574 18.6743 13.8981 18.3313 14.9039 17.2034C15.608 16.4139 16.9567 14.4947 15.5219 11.9648C15.5219 11.9648 15.5238 11.9727 15.5264 11.9841C15.6145 12.1609 15.6953 12.3413 15.7578 12.5288C16.0985 13.5494 15.9678 14.6989 15.2865 15.6419V15.6419Z" fill="url(#paint14_linear_19815_15657)"/>
<path style="mix-blend-mode:multiply" opacity="0.5" d="M2.47159 11.7596C2.38134 11.5584 2.31094 11.3288 2.26686 11.1109C2.26483 11.1008 2.26207 11.0906 2.26017 11.0806C2.25994 11.0806 2.25962 11.0805 2.25939 11.0805C2.1324 10.1577 2.17323 9.22348 2.37108 8.32308C2.3714 8.32119 2.37154 8.31943 2.37186 8.31754C1.88291 8.22094 1.21002 7.87988 1.21002 7.87988C1.21002 7.87988 0.836709 9.21254 1.31056 10.6475C1.64229 11.6521 2.62999 13.7797 5.53832 13.802C5.53832 13.802 5.5306 13.7997 5.51941 13.7962C5.32222 13.7842 5.12559 13.7639 4.93196 13.7243C3.87779 13.509 2.94764 12.8211 2.47159 11.7596V11.7596Z" fill="url(#paint15_linear_19815_15657)"/>
<path style="mix-blend-mode:multiply" opacity="0.6" d="M11.8234 6.50635C11.9032 6.51645 11.9822 6.51926 12.0603 6.51803C12.0603 6.51803 12.0081 5.47899 11.8805 4.9459C11.7529 4.41281 11.5648 4.05978 11.3581 3.85997C11.21 3.71683 10.7425 3.53856 10.379 4.63712C10.2616 5.55215 10.9084 6.38895 11.8234 6.50635Z" fill="url(#paint16_linear_19815_15657)"/>
<path style="mix-blend-mode:multiply" opacity="0.5" d="M6.06421 10.1681C6.03304 10.0939 5.99599 10.0241 5.95583 9.95703C5.95583 9.95703 5.08212 10.5218 4.68424 10.8988C4.28635 11.2759 4.07472 11.6153 4.00503 11.8942C3.9551 12.0941 4.03445 12.588 5.16759 12.3536C6.01871 11.9977 6.42001 11.0192 6.06421 10.1681V10.1681Z" fill="url(#paint17_linear_19815_15657)"/>
<path style="mix-blend-mode:multiply" opacity="0.6" d="M12.1149 13.3241C12.0663 13.3882 12.0244 13.4551 11.9863 13.5235C11.9863 13.5235 12.9123 13.9978 13.4377 14.1538C13.9632 14.3099 14.363 14.3234 14.6394 14.2443C14.8374 14.1876 15.2255 13.8719 14.4559 13.0078C13.7222 12.4487 12.6741 12.5904 12.1149 13.3241V13.3241Z" fill="url(#paint18_linear_19815_15657)"/>
<path style="mix-blend-mode:multiply" opacity="0.3" d="M11.7545 9.01562C11.544 9.71432 11.2489 10.3483 10.8882 10.9083C10.8685 10.9376 10.8507 10.9671 10.8304 10.9964C10.8297 10.9975 10.8289 10.9986 10.8282 10.9997C10.5896 11.3438 10.3058 11.6831 9.97266 12.0113C10.2016 12.2549 10.4491 12.4907 10.721 12.7144C11.0624 12.9839 11.3971 13.2005 11.6997 13.3721C12.4624 12.5805 13.0058 11.7427 13.3896 10.9145C13.5399 10.6089 13.6728 10.2931 13.7871 9.96866C13.4353 9.70966 13.0789 9.50355 12.7505 9.36355C12.4109 9.21878 12.0789 9.10508 11.7545 9.01562V9.01562Z" fill="url(#paint19_linear_19815_15657)"/>
<path style="mix-blend-mode:multiply" opacity="0.3" d="M4.91263 15.929C6.80882 16.1871 8.63291 15.5856 9.87549 14.8473C9.72798 14.7445 9.57785 14.6357 9.42416 14.5186C8.94454 14.1532 8.51296 13.7414 8.13063 13.2948C7.19575 13.7037 6.01949 13.9436 4.92875 13.7208C3.87457 13.5055 2.94443 12.8176 2.46838 11.7561C2.37814 11.5549 2.30777 11.3253 2.26367 11.1074C2.53916 13.0405 3.51463 14.7293 4.91263 15.929V15.929Z" fill="url(#paint20_linear_19815_15657)"/>
<path style="mix-blend-mode:multiply" opacity="0.3" d="M9.97287 12.011C9.4735 11.4797 9.07234 10.9075 8.76797 10.3156C8.75238 10.2839 8.73573 10.2537 8.7205 10.2215C8.71992 10.2203 8.71938 10.2191 8.71879 10.2179C8.54001 9.83907 8.38798 9.42348 8.2703 8.9707C7.94561 9.04709 7.61835 9.14343 7.28942 9.26672C6.88625 9.42734 6.53192 9.60844 6.23242 9.78436C6.53665 10.8399 6.98674 11.7326 7.51182 12.4787C7.70095 12.7611 7.90759 13.0336 8.13086 13.2943C8.53169 13.119 8.88891 12.9131 9.17472 12.6985C9.46941 12.4771 9.7335 12.2469 9.97287 12.011V12.011Z" fill="url(#paint21_linear_19815_15657)"/>
<path style="mix-blend-mode:multiply" opacity="0.3" d="M7.40655 2.63074C6.23498 4.14384 5.84384 6.02431 5.86192 7.46955C6.0253 7.39287 6.19529 7.3169 6.37429 7.24204C6.92994 7.00969 7.50169 6.84192 8.0789 6.73407C8.1923 5.72016 8.57271 4.58185 9.31083 3.7488C10.0244 2.94353 11.0852 2.48196 12.2425 2.60041C12.4619 2.62286 12.696 2.67673 12.9067 2.7475C12.9164 2.75075 12.9267 2.7535 12.9363 2.75683C12.9364 2.75665 12.9366 2.75639 12.9367 2.7562C11.8706 2.32187 10.6928 2.11659 9.4689 2.19984C8.75012 2.24873 8.06137 2.39579 7.41241 2.62364C7.41055 2.62605 7.40843 2.62832 7.40656 2.63073L7.40655 2.63074V2.63074Z" fill="url(#paint22_linear_19815_15657)"/>
<path style="mix-blend-mode:multiply" opacity="0.3" d="M17.6788 11.4398C16.9538 9.66775 15.5198 8.38838 14.2586 7.68164C14.2433 7.86141 14.2241 8.04652 14.1995 8.23889C14.1229 8.83626 13.9823 9.41529 13.7871 9.96908C14.6091 10.5743 15.4057 11.4734 15.7584 12.5299C16.099 13.5506 15.9683 14.7 15.2871 15.643C15.1579 15.8218 14.9942 15.9976 14.8276 16.1447C14.8252 16.1469 14.8228 16.1491 14.8204 16.1513C16.2885 14.9974 17.3269 13.3344 17.6829 11.451C17.6814 11.4473 17.6803 11.4435 17.6788 11.4398V11.4398V11.4398Z" fill="url(#paint23_linear_19815_15657)"/>
<path style="mix-blend-mode:multiply" opacity="0.3" d="M8.07442 7.93706C8.11876 8.30277 8.18607 8.64644 8.27056 8.97152C8.98115 8.80432 9.67801 8.74285 10.3435 8.77525C10.3788 8.77759 10.4132 8.77828 10.4488 8.7812C10.4501 8.78129 10.4514 8.78141 10.4527 8.78149C10.8695 8.81603 11.3047 8.89201 11.7549 9.01613C11.8512 8.69653 11.9315 8.3647 11.9892 8.01791C12.052 7.58685 12.0721 7.18825 12.0693 6.84002C11.0033 6.57584 10.0068 6.52414 9.09825 6.60582C8.75848 6.62847 8.4185 6.67128 8.08036 6.73446C8.0317 7.16949 8.03139 7.58202 8.07442 7.93706H8.07442Z" fill="url(#paint24_linear_19815_15657)"/>
<defs>
<linearGradient id="paint0_linear_19815_15657" x1="3.17559" y1="16.8248" x2="15.9272" y2="4.0732" gradientUnits="userSpaceOnUse">
<stop offset="0.001139" stop-color="#E6007A"/>
<stop offset="0.207149" stop-color="#703AC2"/>
<stop offset="0.456011" stop-color="#0070EB"/>
<stop offset="0.768132" stop-color="#0297FB"/>
<stop offset="1" stop-color="#0AE2FF"/>
</linearGradient>
<radialGradient id="paint1_radial_19815_15657" cx="0" cy="0" r="1" gradientUnits="userSpaceOnUse" gradientTransform="translate(12.8486 7.97575) scale(3.80219)">
<stop stop-color="white"/>
<stop offset="1" stop-color="white" stop-opacity="0"/>
</radialGradient>
<radialGradient id="paint2_radial_19815_15657" cx="0" cy="0" r="1" gradientUnits="userSpaceOnUse" gradientTransform="translate(7.22915 15.029) scale(2.21215)">
<stop stop-color="white"/>
<stop offset="1" stop-color="white" stop-opacity="0"/>
</radialGradient>
<linearGradient id="paint3_linear_19815_15657" x1="3.90922" y1="14.6553" x2="6.04159" y2="14.6257" gradientUnits="userSpaceOnUse">
<stop stop-color="white" stop-opacity="0"/>
<stop offset="1" stop-color="white"/>
</linearGradient>
<radialGradient id="paint4_radial_19815_15657" cx="0" cy="0" r="1" gradientUnits="userSpaceOnUse" gradientTransform="translate(6.82131 8.54392) rotate(-120) scale(3.80219)">
<stop stop-color="white"/>
<stop offset="1" stop-color="white" stop-opacity="0"/>
</radialGradient>
<radialGradient id="paint5_radial_19815_15657" cx="0" cy="0" r="1" gradientUnits="userSpaceOnUse" gradientTransform="translate(15.7392 9.88413) rotate(-120) scale(2.21215)">
<stop stop-color="white"/>
<stop offset="1" stop-color="white" stop-opacity="0"/>
</radialGradient>
<linearGradient id="paint6_linear_19815_15657" x1="17.0766" y1="12.9461" x2="15.9848" y2="11.1142" gradientUnits="userSpaceOnUse">
<stop stop-color="white" stop-opacity="0"/>
<stop offset="1" stop-color="white"/>
</linearGradient>
<radialGradient id="paint7_radial_19815_15657" cx="0" cy="0" r="1" gradientUnits="userSpaceOnUse" gradientTransform="translate(10.1471 13.3046) rotate(120) scale(3.80219)">
<stop stop-color="white"/>
<stop offset="1" stop-color="white" stop-opacity="0"/>
</radialGradient>
<radialGradient id="paint8_radial_19815_15657" cx="0" cy="0" r="1" gradientUnits="userSpaceOnUse" gradientTransform="translate(7.02884 5.0866) rotate(120) scale(2.21215)">
<stop stop-color="white"/>
<stop offset="1" stop-color="white" stop-opacity="0"/>
</radialGradient>
<linearGradient id="paint9_linear_19815_15657" x1="9.01312" y1="2.39833" x2="7.97258" y2="4.25982" gradientUnits="userSpaceOnUse">
<stop stop-color="white" stop-opacity="0"/>
<stop offset="1" stop-color="white"/>
</linearGradient>
<linearGradient id="paint10_linear_19815_15657" x1="9.47657" y1="1.45198" x2="6.21878" y2="2.3997" gradientUnits="userSpaceOnUse">
<stop stop-color="#231F20"/>
<stop offset="1" stop-color="white"/>
</linearGradient>
<linearGradient id="paint11_linear_19815_15657" x1="3.31943" y1="13.8767" x2="6.04412" y2="16.7199" gradientUnits="userSpaceOnUse">
<stop stop-color="#231F20"/>
<stop offset="1" stop-color="white"/>
</linearGradient>
<linearGradient id="paint12_linear_19815_15657" x1="17.9434" y1="13.4488" x2="18.8911" y2="10.5661" gradientUnits="userSpaceOnUse">
<stop stop-color="#231F20"/>
<stop offset="1" stop-color="white"/>
</linearGradient>
<linearGradient id="paint13_linear_19815_15657" x1="10.961" y1="3.10006" x2="15.3288" y2="4.10015" gradientUnits="userSpaceOnUse">
<stop stop-color="#231F20"/>
<stop offset="1" stop-color="white"/>
</linearGradient>
<linearGradient id="paint14_linear_19815_15657" x1="15.495" y1="14.2813" x2="12.445" y2="17.5638" gradientUnits="userSpaceOnUse">
<stop stop-color="#231F20"/>
<stop offset="1" stop-color="white"/>
</linearGradient>
<linearGradient id="paint15_linear_19815_15657" x1="3.5457" y1="12.6204" x2="2.22793" y2="8.33778" gradientUnits="userSpaceOnUse">
<stop stop-color="#231F20"/>
<stop offset="1" stop-color="white"/>
</linearGradient>
<linearGradient id="paint16_linear_19815_15657" x1="11.9165" y1="4.71121" x2="10.5344" y2="6.0933" gradientUnits="userSpaceOnUse">
<stop stop-color="#231F20"/>
<stop offset="1" stop-color="white"/>
</linearGradient>
<linearGradient id="paint17_linear_19815_15657" x1="4.46301" y1="10.985" x2="6.35098" y2="11.4909" gradientUnits="userSpaceOnUse">
<stop stop-color="#231F20"/>
<stop offset="1" stop-color="white"/>
</linearGradient>
<linearGradient id="paint18_linear_19815_15657" x1="13.623" y1="14.3023" x2="13.1171" y2="12.4143" gradientUnits="userSpaceOnUse">
<stop stop-color="#231F20"/>
<stop offset="1" stop-color="white"/>
</linearGradient>
<linearGradient id="paint19_linear_19815_15657" x1="10.7484" y1="12.623" x2="11.5777" y2="11.4778" gradientUnits="userSpaceOnUse">
<stop stop-color="#231F20"/>
<stop offset="1" stop-color="white"/>
</linearGradient>
<linearGradient id="paint20_linear_19815_15657" x1="7.89303" y1="12.1274" x2="6.23452" y2="12.9171" gradientUnits="userSpaceOnUse">
<stop stop-color="#231F20"/>
<stop offset="1" stop-color="white"/>
</linearGradient>
<linearGradient id="paint21_linear_19815_15657" x1="7.29142" y1="9.36616" x2="7.80477" y2="10.4323" gradientUnits="userSpaceOnUse">
<stop stop-color="#231F20"/>
<stop offset="1" stop-color="white"/>
</linearGradient>
<linearGradient id="paint22_linear_19815_15657" x1="9.67832" y1="6.07381" x2="9.32292" y2="4.84968" gradientUnits="userSpaceOnUse">
<stop stop-color="#231F20"/>
<stop offset="1" stop-color="white"/>
</linearGradient>
<linearGradient id="paint23_linear_19815_15657" x1="13.5096" y1="11.6788" x2="14.5363" y2="11.9157" gradientUnits="userSpaceOnUse">
<stop stop-color="#231F20"/>
<stop offset="1" stop-color="white"/>
</linearGradient>
<linearGradient id="paint24_linear_19815_15657" x1="11.8988" y1="8.21058" x2="10.5957" y2="7.97365" gradientUnits="userSpaceOnUse">
<stop stop-color="#231F20"/>
<stop offset="1" stop-color="white"/>
</linearGradient>
</defs>
</svg>
