<svg width="64" height="64" viewBox="0 0 64 64" fill="none" xmlns="http://www.w3.org/2000/svg">
<rect width="64" height="64" fill="black"/>
<path opacity="0.7" d="M0 42.2022C0 48.7543 0 57.3064 0 63.8585L64 63.8585C64 60.1383 64 34.8903 64 42.3811C56.6809 44.3625 45.6548 46.5658 32.8126 46.5658C19.5824 46.5658 7.7588 44.2273 0 42.2022Z" fill="url(#paint0_linear_18588_5646)"/>
<path d="M0 64C0 64 0 55.1359 0 46.1564C8.44827 45.1913 21.0873 44 32.0024 44C42.9154 44 55.5517 45.1909 64 46.1559C64 55.1359 64 64 64 64L0 64Z" fill="url(#paint1_linear_18588_5646)"/>
<path d="M0 43.0895C0 45.3301 0.000101984 47.5707 0 49.8113C1.21891 49.6703 3.38398 49.525 4.75259 49.3796C12.7913 48.5261 23.0242 47.6824 32.0024 47.6824C40.9806 47.6824 51.2135 48.5261 59.2522 49.3796C60.6191 49.5248 64 49.8108 64 49.8108C64 47.5702 64 45.3295 64 43.0889C62.7385 42.9427 61.3882 42.7918 59.9677 42.641C51.843 41.7784 41.3347 40.9059 32.0024 40.9059C22.6701 40.9059 12.1619 41.7784 4.03711 42.641C2.61484 42.792 1.2629 42.943 0 43.0895Z" fill="url(#paint2_linear_18588_5646)"/>
<path d="M16.9798 50.138C16.3989 50.138 15.839 50.211 15.611 50.2727C15.2791 50.366 15.1964 50.5113 15.1339 50.8123L13.817 56.8888C13.796 57.0129 13.7756 57.1168 13.7756 57.2206C13.7756 57.5216 13.9728 57.718 14.2941 57.718C14.647 57.718 14.7923 57.49 14.8645 57.1371L15.2378 55.4056C15.4966 55.4364 15.839 55.468 16.3266 55.468C18.4735 55.468 19.8107 54.3069 19.8107 52.5543C19.8107 51.0192 18.7422 50.138 16.9798 50.138ZM16.2747 54.4725C15.9429 54.4725 15.6832 54.4619 15.4454 54.4311L16.14 51.2058C16.3575 51.175 16.6796 51.1328 17.0114 51.1328C18.1522 51.1328 18.7331 51.6724 18.7331 52.5641C18.7324 53.7049 17.9024 54.4725 16.2747 54.4725Z" fill="white"/>
<path d="M50.7636 55.7164C50.5875 55.7164 50.4731 55.8202 50.2557 56.0588C49.8719 56.4531 49.6333 56.6705 49.3331 56.6705C49.0637 56.6705 48.9185 56.4531 48.9185 56.1001C48.9185 55.903 48.9598 55.6644 49.0118 55.4056L49.3955 53.6011H50.5469C50.9096 53.6011 51.1278 53.3934 51.1278 53.0201C51.1278 52.8124 50.9931 52.6574 50.6823 52.6574H49.6025L49.7891 51.8176C49.8102 51.6935 49.8305 51.5791 49.8305 51.4752C49.8305 51.1848 49.6333 50.9771 49.312 50.9771C48.9696 50.9771 48.8146 51.2051 48.7416 51.558L48.5031 52.6574H48.0154C47.6422 52.6574 47.4247 52.8651 47.4247 53.2384C47.4247 53.4461 47.57 53.6011 47.8807 53.6011H48.3059L47.9221 55.3845C47.8808 55.5817 47.8288 55.903 47.8288 56.2348C47.8288 57.0746 48.2645 57.6864 49.1976 57.6864C49.7372 57.6864 50.2135 57.417 50.577 57.095C50.9299 56.7842 51.1888 56.4004 51.1888 56.1513C51.1888 55.9135 51.0021 55.7164 50.7636 55.7164Z" fill="white"/>
<path d="M26.9137 50.7498C26.9137 50.4488 26.706 50.2517 26.3846 50.2517C26.0422 50.2517 25.8872 50.4797 25.8142 50.8326L24.5184 56.8572C24.4876 56.9813 24.4665 57.0852 24.4665 57.189C24.4665 57.49 24.6742 57.6864 24.985 57.6864C25.3379 57.6864 25.4929 57.4584 25.5659 57.1055L26.8617 51.0817C26.8828 50.9568 26.9137 50.8537 26.9137 50.7498Z" fill="white"/>
<path d="M45.4231 52.5536C43.7638 52.5536 42.6335 54.2023 42.6335 55.7683C42.6335 55.7976 42.6343 55.827 42.635 55.8556C42.3747 56.2506 42.042 56.66 41.814 56.66C41.6485 56.66 41.586 56.5042 41.586 56.2657C41.586 55.9752 41.6688 55.4876 41.7621 55.0624L42.623 51.0802C42.6441 50.956 42.6644 50.8522 42.6644 50.7483C42.6644 50.4473 42.4672 50.2502 42.1459 50.2502C41.793 50.2502 41.6485 50.4782 41.5755 50.8311L41.1089 52.9878C40.8599 52.7289 40.4964 52.5521 39.9471 52.5521C38.8454 52.5521 37.737 53.4001 37.305 54.7012C36.8294 55.9308 36.4043 56.6585 36.0687 56.6585C35.9445 56.6585 35.8715 56.5547 35.8715 56.3786C35.8715 55.8601 36.162 54.5951 36.2861 53.9833C36.3275 53.7553 36.3486 53.662 36.3486 53.5273C36.3486 53.0713 35.5916 52.5318 34.6065 52.5318C33.4672 52.5318 32.4355 53.2534 31.9186 54.325C31.1503 55.6825 30.4452 56.6585 30.096 56.6585C29.9402 56.6585 29.8883 56.4613 29.8469 56.2747L29.5888 54.8457L31.1751 53.5499C31.3203 53.4257 31.507 53.2489 31.507 53.0209C31.507 52.741 31.3203 52.5543 31.0404 52.5543C30.8327 52.5543 30.6566 52.6785 30.4805 52.8237L28.0958 54.7938L28.8942 51.0817C28.9153 50.9575 28.9462 50.8537 28.9462 50.7498C28.9462 50.4488 28.7385 50.2517 28.4172 50.2517C28.0748 50.2517 27.9198 50.4797 27.8468 50.8326L26.5509 56.8572C26.5201 56.9813 26.499 57.0852 26.499 57.189C26.499 57.49 26.7067 57.6864 27.0175 57.6864C27.3704 57.6864 27.5254 57.4584 27.5984 57.1055L27.7647 56.3282L28.7392 55.5403L28.9778 56.7428C29.0711 57.2199 29.3202 57.6864 29.9628 57.6864C30.6024 57.6864 31.1059 57.1025 31.61 56.3131C31.7628 57.1401 32.3513 57.6864 33.1677 57.6864C33.9872 57.6864 34.5471 57.1988 34.9098 56.5456V56.5667C34.9098 57.2409 35.2522 57.6864 35.8534 57.6864C36.3975 57.6864 36.849 57.3583 37.2523 56.6615C37.4811 57.2688 37.9928 57.6864 38.7047 57.6864C39.5445 57.6864 40.1457 57.1785 40.5295 56.4734V56.5358C40.5295 57.2823 40.9028 57.6872 41.5145 57.6872C42.0548 57.6872 42.5139 57.3734 42.9059 56.8632C43.2039 57.3734 43.7382 57.6872 44.4599 57.6872C46.1191 57.6872 47.2494 56.0384 47.2494 54.4619C47.2486 53.352 46.5744 52.5536 45.4231 52.5536ZM35.0851 54.6591C34.7841 55.9549 34.1415 56.6916 33.4153 56.6916C32.9277 56.6916 32.6583 56.3184 32.6583 55.7585C32.6583 54.6591 33.4567 53.4769 34.5245 53.4769C34.8458 53.4769 35.0949 53.5702 35.3124 53.7049L35.0851 54.6591ZM40.8606 54.1098C40.5288 55.6343 39.7717 56.6916 38.9425 56.6916C38.4865 56.6916 38.2163 56.3387 38.2163 55.7585C38.2163 54.6493 38.9839 53.498 40.0103 53.498C40.4046 53.498 40.7048 53.6327 40.9231 53.8088L40.8606 54.1098ZM44.5833 56.6916C43.982 56.6916 43.7329 56.2559 43.7329 55.7066C43.7329 54.7005 44.4275 53.5499 45.2989 53.5499C45.9002 53.5499 46.1492 53.9856 46.1492 54.5349C46.1492 55.5508 45.4547 56.6916 44.5833 56.6916Z" fill="white"/>
<path d="M22.3926 52.5536C20.7333 52.5536 19.603 54.2023 19.603 55.7683C19.603 56.888 20.2773 57.6864 21.4279 57.6864C23.0872 57.6864 24.2174 56.0377 24.2174 54.4612C24.2174 53.352 23.5432 52.5536 22.3926 52.5536ZM21.5528 56.6916C20.9515 56.6916 20.7025 56.2559 20.7025 55.7066C20.7025 54.7005 21.397 53.5499 22.2684 53.5499C22.8697 53.5499 23.1188 53.9856 23.1188 54.5349C23.118 55.5508 22.4234 56.6916 21.5528 56.6916Z" fill="white"/>
<path d="M32.0004 34.0499H16.8765L39.5623 11.5399H47.1243L32.0004 34.0499Z" fill="url(#paint3_linear_18588_5646)"/>
<defs>
<linearGradient id="paint0_linear_18588_5646" x1="-9.47981" y1="39.2918" x2="74.6189" y2="54.0374" gradientUnits="userSpaceOnUse">
<stop stop-color="#9E3BFF"/>
<stop offset="1" stop-color="#6D55FF"/>
</linearGradient>
<linearGradient id="paint1_linear_18588_5646" x1="-9.56136" y1="45.2535" x2="73.5659" y2="45.2535" gradientUnits="userSpaceOnUse">
<stop stop-color="#9E3BFF"/>
<stop offset="1" stop-color="#492CFF"/>
</linearGradient>
<linearGradient id="paint2_linear_18588_5646" x1="-9.44919" y1="61.7323" x2="73.1622" y2="63.2357" gradientUnits="userSpaceOnUse">
<stop stop-color="white" stop-opacity="0"/>
<stop offset="0.500885" stop-color="#9F7BFF"/>
<stop offset="1" stop-color="white" stop-opacity="0"/>
</linearGradient>
<linearGradient id="paint3_linear_18588_5646" x1="32.0004" y1="11.5399" x2="32.0004" y2="34.0499" gradientUnits="userSpaceOnUse">
<stop stop-color="#7AEDCF"/>
<stop offset="0.201333" stop-color="#68CEFA"/>
<stop offset="0.403244" stop-color="#689CF8"/>
<stop offset="0.602076" stop-color="#AC57C0"/>
<stop offset="0.801867" stop-color="#E65659"/>
<stop offset="1" stop-color="#F2C241"/>
</linearGradient>
</defs>
</svg>
