<svg width="24" height="24" viewBox="0 0 24 24" fill="none" xmlns="http://www.w3.org/2000/svg">
    <path d="M19.3615 8.11993C19.2867 8.31431 16.1478 6.36322 13.2811 7.69433C11.1969 8.66213 10.3359 10.5384 10.3359 12.1382C10.3359 13.3987 10.7785 14.3512 11.2622 14.9718C12.0489 15.9812 12.7808 16.3609 13.4128 16.6984C14.4309 17.2419 16.1625 17.26 16.6882 17.2331C17.6671 17.1828 18.8171 16.9028 19.787 16.455C20.1573 16.284 20.7585 15.9131 21.2852 15.4983C22.1846 14.79 23.013 13.899 22.9986 13.968C22.9757 14.0773 22.9849 14.1638 22.5352 14.9445C21.2026 17.2578 18.9872 18.2668 18.9872 18.2668C15.8661 19.9002 13.0964 19.053 12.558 18.8497C10.1947 17.9569 8.9622 16.2833 8.67423 15.7511C8.20459 14.883 7.36265 11.6947 8.49075 9.16049C9.32675 7.28249 11.2649 6.35978 11.4789 6.27147C14.9321 4.8457 19.4294 7.94331 19.3615 8.11993Z"
          fill="url(#paint0_linear_12475_52467)"/>
    <path d="M19.4598 7.95806C19.3195 8.08668 18.3115 6.8899 16.693 6.0256C16.2302 5.77856 14.4649 4.89063 12.3087 4.93621C8.73439 5.01143 6.35907 7.60497 5.93551 8.08563C3.81843 10.4879 2.82166 14.1871 4.01244 17.0657C5.55999 20.8063 10.738 22.9579 10.3442 23.0003L9.89121 22.857C9.3447 22.6438 2.63725 19.6559 2.39702 13.7019C2.26158 10.3469 3.35215 7.62992 4.01244 6.88822C5.16616 5.59229 6.09124 4.96839 6.87111 4.55633C8.43819 3.72888 11.3853 3.01984 13.5726 3.34555C16.0268 3.71113 17.5673 5.40575 18.3185 6.23214C18.9962 6.97744 19.5732 7.8541 19.4598 7.95806Z"
          fill="url(#paint1_linear_12475_52467)"/>
    <path d="M19.4423 8.11646C19.6081 8.04365 19.3868 5.81583 17.923 4.12166C17.3327 3.43707 16.6835 2.81458 15.8867 2.37893C12.592 0.613611 8.54116 2.03321 7.66428 2.37893C6.76604 2.73293 4.84946 3.70022 3.24045 5.68489C1.42674 7.92231 1.15814 10.3227 1.05488 11.3734C0.613614 15.8599 2.97335 19.3834 3.14131 19.3303C3.23918 19.2993 2.16863 17.0574 2.39727 13.7018C2.48437 12.4244 2.66327 10.0846 4.30188 7.83872C5.29448 6.51419 6.44277 5.41167 7.94074 4.68377C8.80755 4.26042 11.909 2.89593 15.015 3.97958C15.9613 4.31651 16.8326 4.8308 17.5808 5.49411C18.9329 6.71588 19.3067 8.17619 19.4423 8.11646Z"
          fill="url(#paint2_linear_12475_52467)"/>
    <path d="M14.6704 20.6835C14.5926 20.8143 9.21889 19.2983 7.20019 15.5621C6.89635 15 5.49329 12.0039 6.4138 9.6714C6.79877 8.69577 7.55668 7.60354 7.8628 7.26429C8.3573 6.71637 9.19621 6.22378 10.2614 5.77741C10.7401 5.58157 11.6145 5.37771 12.1282 5.3102C12.6374 5.24823 13.4194 5.26152 13.9301 5.3102C14.9228 5.40481 16.2645 6.5508 16.2268 6.5508C16.2166 6.5508 15.1619 6.21651 14.0713 6.14242C13.1674 6.08102 12.1868 6.28853 11.8391 6.41007C11.0718 6.67825 10.0201 7.26429 9.41198 8.00472C8.80388 8.74514 8.2848 9.79166 8.17423 11.1946C8.09318 12.2229 8.20441 13.723 8.65532 14.8925C8.87148 15.4531 9.24375 16.1665 9.95927 17.106C11.4823 19.1058 14.7266 20.5897 14.6704 20.6835Z"
          fill="url(#paint3_linear_12475_52467)"/>
    <path d="M11.759 4.84107C12.6912 4.70822 13.4891 4.66242 14.4135 4.84107C15.4742 5.05169 16.0609 5.26879 16.7835 5.63406C18.0174 6.25796 19.5792 7.85774 19.4602 8.09786C19.2484 8.52587 15.9601 5.08671 11.4425 6.27027C10.165 6.70134 9.3771 7.10386 8.5612 7.71867C7.17157 8.76583 6.48295 10.1432 6.26537 10.7065C5.8918 11.6736 5.79036 12.2177 5.74513 13.2468C5.74513 14.6325 6.00744 15.4362 6.32471 16.3172C6.77603 17.5712 7.61776 19.0047 7.48254 18.9119C5.93614 17.8498 4.9698 14.5732 4.86303 13.894C4.75626 13.2149 4.30035 10.2733 6.26536 7.82394C8.0568 5.59104 11.0641 4.94112 11.759 4.84107Z"
          fill="url(#paint4_linear_12475_52467)"/>
    <defs>
        <linearGradient id="paint0_linear_12475_52467" x1="17.3951" y1="5.96961" x2="17.3951" y2="19.3068"
                        gradientUnits="userSpaceOnUse">
            <stop stop-color="#FAB961"/>
            <stop offset="1"/>
        </linearGradient>
        <linearGradient id="paint1_linear_12475_52467" x1="10.9298" y1="3.26465" x2="10.9298" y2="23.0334"
                        gradientUnits="userSpaceOnUse">
            <stop stop-color="#FAB961"/>
            <stop offset="1"/>
        </linearGradient>
        <linearGradient id="paint2_linear_12475_52467" x1="10.2476" y1="1.62253" x2="10.2476" y2="19.3312"
                        gradientUnits="userSpaceOnUse">
            <stop/>
            <stop offset="0.414296" stop-color="#FAB961"/>
        </linearGradient>
        <linearGradient id="paint3_linear_12475_52467" x1="10.4631" y1="5.91822" x2="10.4631" y2="20.3189"
                        gradientUnits="userSpaceOnUse">
            <stop/>
            <stop offset="1" stop-color="#FAB961"/>
        </linearGradient>
        <linearGradient id="paint4_linear_12475_52467" x1="12.1037" y1="5.07035" x2="12.1037" y2="18.916"
                        gradientUnits="userSpaceOnUse">
            <stop/>
            <stop offset="1" stop-color="#FAB961"/>
        </linearGradient>
    </defs>
</svg>
