<svg width="24" height="24" viewBox="0 0 24 24" fill="none" xmlns="http://www.w3.org/2000/svg">
    <path fill-rule="evenodd" clip-rule="evenodd"
          d="M17.5551 3.68504C15.9106 2.58627 13.9771 1.99988 11.9992 2C10.6863 2 9.38612 2.25866 8.1727 2.76118C6.95976 3.2637 5.85717 4.00022 4.9286 4.92873C4.00003 5.85729 3.26387 6.95958 2.76115 8.17275C2.25843 9.38597 2 10.6863 2 11.9994C2 13.9773 2.58619 15.9107 3.68501 17.5554C4.78382 19.1999 6.34575 20.4817 8.1727 21.2386C10.0001 21.9956 12.011 22.1937 13.9507 21.8079C15.8908 21.422 17.6725 20.4696 19.0713 19.071C20.4695 17.6724 21.4222 15.8906 21.8079 13.9507C22.1937 12.0109 21.9956 10.0002 21.2387 8.17286C20.4818 6.34561 19.2 4.78382 17.5551 3.68504ZM11.9992 20.7492C11.9992 20.7492 8.7372 16.832 8.7372 11.9994C8.7372 7.16747 11.9992 3.25014 11.9992 3.25014C11.9992 3.25014 15.2617 7.16688 15.2617 11.9994C15.2617 16.832 11.9992 20.7492 11.9992 20.7492Z"
          fill="#4FFFB0"/>
</svg>
