<svg width="24" height="24" viewBox="0 0 24 24" fill="none" xmlns="http://www.w3.org/2000/svg">
    <path d="M21.2608 14.6211L18.9806 13.3475L13.9022 16.3325C13.5634 16.5266 13.1923 16.6274 12.8164 16.6274C12.4405 16.6274 12.0694 16.5266 11.7305 16.3325L5.04852 12.6709L2.73486 14.0241C2.4976 14.1767 2.2994 14.403 2.16126 14.6789C2.02313 14.9548 1.9502 15.27 1.9502 15.5913C1.9502 15.9125 2.02313 16.2277 2.16126 16.5036C2.2994 16.7795 2.4976 17.0058 2.73486 17.1584L11.6888 22.0837C12.0263 22.2828 12.3979 22.3864 12.7746 22.3864C13.1513 22.3864 13.5229 22.2828 13.8605 22.0837L21.2191 17.7355C21.4544 17.5858 21.6518 17.3638 21.7907 17.0926C21.9298 16.8213 22.0053 16.5107 22.0096 16.1929C22.0138 15.8752 21.9466 15.5619 21.815 15.2855C21.6833 15.0091 21.492 14.7797 21.2608 14.6211Z"
          fill="url(#paint0_linear_12565_51151)"/>
    <path d="M10.2737 1.91007C10.6127 1.71601 10.9841 1.61523 11.3602 1.61523C11.7364 1.61523 12.1077 1.71601 12.4467 1.91007L21.2723 6.88516C21.5077 7.0386 21.704 7.26458 21.8408 7.53943C21.9776 7.81427 22.0498 8.12786 22.0498 8.4473C22.0498 8.7668 21.9776 9.08037 21.8408 9.35521C21.704 9.63004 21.5077 9.85604 21.2723 10.0095L13.9093 14.3578C13.5715 14.5568 13.1997 14.6604 12.8228 14.6604C12.4459 14.6604 12.0741 14.5568 11.7363 14.3578L2.7769 9.38263C2.53924 9.23147 2.34052 9.00632 2.20197 8.73115C2.06342 8.45605 1.99023 8.14126 1.99023 7.82046C1.99023 7.49966 2.06342 7.18491 2.20197 6.90977C2.34052 6.63463 2.53924 6.40945 2.7769 6.25829L10.2737 1.91007Z"
          fill="url(#paint1_linear_12565_51151)"/>
    <defs>
        <linearGradient id="paint0_linear_12565_51151" x1="22.0059" y1="16.4932" x2="1.95476" y2="16.4932"
                        gradientUnits="userSpaceOnUse">
            <stop stop-color="#EF18AC"/>
            <stop offset="1" stop-color="#FAD972"/>
        </linearGradient>
        <linearGradient id="paint1_linear_12565_51151" x1="19.5009" y1="11.4684" x2="1.99389" y2="11.4684"
                        gradientUnits="userSpaceOnUse">
            <stop stop-color="#5314F1"/>
            <stop offset="1" stop-color="#04E2FF"/>
        </linearGradient>
    </defs>
</svg>
