<svg width="20" height="20" viewBox="0 0 20 20" fill="none" xmlns="http://www.w3.org/2000/svg">
<path d="M13.1816 3.17895C13.1816 3.27485 13.1562 3.3076 13.059 3.30526C12.9719 3.30196 12.8848 3.3028 12.7977 3.30364C12.6997 3.30459 12.6018 3.30554 12.5038 3.30059C12.3927 3.29591 12.365 3.33801 12.3696 3.44094C12.3738 3.5462 12.3729 3.65146 12.3721 3.75673C12.3716 3.82668 12.371 3.84116 12.3719 3.91111C12.3719 3.97661 12.3557 4 12.2863 3.99298C11.385 3.99298 10.5603 3.99298 9.63282 3.99298C9.53103 3.99298 9.49865 3.96257 9.50327 3.85965C9.51021 3.70526 9.5079 3.54854 9.50559 3.39181C9.50327 3.32164 9.52872 3.29591 9.60044 3.29591C9.6847 3.29791 9.76897 3.29734 9.85323 3.29677C9.96552 3.296 10.0781 3.29524 10.1904 3.30059C10.2968 3.30526 10.3176 3.26784 10.3176 3.16725C10.3153 2.16374 10.3153 1.1579 10.3153 0.154387C10.3153 0.0783161 10.3153 0.0402642 10.3341 0.0212835C10.353 0.002341 10.3906 0.002341 10.4657 0.002341C11.3283 0.002341 12.1894 0.00467894 13.0521 0C13.1515 0 13.1839 0.0233909 13.1839 0.128655C13.17 1.14855 13.1724 2.16374 13.1816 3.17895Z" fill="black"/>
<path fill-rule="evenodd" clip-rule="evenodd" d="M12.9156 12.2468C12.8954 12.2432 12.8732 12.2393 12.8624 12.2082C12.8971 12.1965 12.9295 12.1848 12.9641 12.1754C13.9011 11.8456 14.6368 11.2749 15.0856 10.3626C15.1156 10.3017 15.1527 10.2901 15.2128 10.2901C15.3308 10.2912 15.4482 10.2912 15.5656 10.2912L15.7 10.2913C15.7229 10.2913 15.7459 10.2914 15.7689 10.2915C15.7847 10.2915 15.8006 10.2916 15.8165 10.2916C15.8504 10.2918 15.8844 10.2921 15.9184 10.2924C15.9878 10.2947 16.0225 10.2713 16.0479 10.2058C16.0988 10.0749 16.1451 9.94386 16.1798 9.80818C16.3256 9.24678 16.2909 8.6807 16.2006 8.11696C15.9693 6.67836 15.1989 5.66549 13.8525 5.12047C13.0405 4.79064 12.1868 4.67602 11.3193 4.67368C9.47958 4.66807 7.64132 4.66844 5.80217 4.66881C5.34273 4.66891 4.88258 4.669 4.42299 4.669C4.40222 4.669 4.38144 4.66875 4.36066 4.66848C4.29149 4.66756 4.25758 4.66711 4.24132 4.68396C4.22045 4.70558 4.22867 4.75598 4.22867 4.87017C4.22867 6.62924 4.22635 8.38977 4.23098 10.1497C4.2333 10.2643 4.20091 10.2971 4.08986 10.2924C3.96698 10.2871 3.84334 10.2878 3.71981 10.2886C3.62719 10.2891 3.53425 10.2897 3.4421 10.2877C3.36114 10.2854 3.33337 10.3111 3.33337 10.393C3.33569 11.4503 3.33569 12.5099 3.33337 13.5696C3.33337 13.6561 3.36576 13.6725 3.4421 13.6725C3.54179 13.6704 3.64148 13.6707 3.74117 13.671C3.86106 13.6713 3.98154 13.6717 4.10143 13.6678C4.20322 13.6632 4.23098 13.6912 4.23098 13.7965C4.22635 14.6433 4.23098 15.4877 4.22635 16.3322C4.22635 16.4421 4.24949 16.4772 4.36516 16.4772C5.38538 16.4725 6.4056 16.4725 7.42582 16.4772C7.53455 16.4795 7.56925 16.4515 7.56925 16.3368C7.56462 15.4877 7.56694 14.6386 7.56462 13.7895C7.56231 13.7146 7.56925 13.6702 7.66641 13.6702C8.4763 13.6748 9.28447 13.6749 10.0932 13.6795C10.5281 13.6819 10.9214 13.7918 11.2337 14.124C11.4304 14.3322 11.5784 14.5731 11.7126 14.8234C11.952 15.2756 12.1532 15.7452 12.3544 16.2146L12.4159 16.3579C12.4552 16.4468 12.5015 16.4748 12.5963 16.4748C13.915 16.4725 15.2313 16.4725 16.5476 16.4725C16.6173 16.4725 16.652 16.4725 16.6628 16.4563C16.6736 16.4402 16.6609 16.408 16.6356 16.3439C16.2793 15.4643 15.8814 14.6058 15.4696 13.752C15.4372 13.6842 15.3956 13.6655 15.3262 13.6678C15.2995 13.6681 15.2729 13.6683 15.2463 13.6683C15.185 13.6684 15.1237 13.668 15.0624 13.6676C14.9305 13.6668 14.7987 13.666 14.6668 13.6702C14.5766 13.6748 14.5257 13.6468 14.4818 13.5602C14.144 12.9099 13.635 12.4608 12.9318 12.2503C12.9267 12.2488 12.9212 12.2478 12.9156 12.2468ZM10.9977 7.85263C10.4587 7.84562 9.38066 7.85029 9.38066 7.85029C9.38066 7.85029 8.00491 7.84795 7.6243 7.84795C7.56231 7.84795 7.56231 7.87836 7.56231 7.94854C7.56462 8.69006 7.56462 9.43392 7.56231 10.1778C7.56231 10.2667 7.59007 10.2901 7.67567 10.2901C8.77686 10.2877 9.87805 10.2901 10.9792 10.2854C11.3609 10.283 11.6871 10.138 11.9532 9.86667C12.3974 9.41287 12.3997 8.72983 11.9578 8.27368C11.6941 8.00468 11.3725 7.85731 10.9977 7.85263Z" fill="black"/>
<path d="M10.7178 19.8784C10.7178 19.9673 10.7386 20 10.8335 20C11.7149 19.9977 12.5963 19.9977 13.4777 20C13.5656 20 13.5865 19.9696 13.5865 19.8854C13.5841 19.0152 13.5818 18.1427 13.5865 17.2702C13.5865 17.1672 13.5518 17.1485 13.4592 17.1485C13.2394 17.1509 13.0202 17.1509 12.8011 17.1509C12.5819 17.1509 12.3627 17.1509 12.1429 17.1532C12.055 17.1556 12.0156 17.1251 11.9809 17.0456C11.7727 16.5684 11.5622 16.0912 11.3471 15.6187C11.2036 15.3006 11.0533 14.9848 10.8404 14.7041C10.6831 14.4936 10.4795 14.3743 10.2135 14.3649C9.87528 14.3533 9.53707 14.3531 9.19924 14.3529C8.92471 14.3527 8.65044 14.3525 8.37664 14.3462C8.25171 14.3439 8.2332 14.3883 8.2332 14.4982C8.23783 15.338 8.2332 16.1801 8.23783 17.0199C8.23783 17.1205 8.21238 17.1532 8.10828 17.1509C7.70131 17.1462 7.29144 17.1556 6.88448 17.1462C6.76187 17.1439 6.73179 17.1836 6.74105 17.2982C6.7503 17.4199 6.7503 17.5415 6.74105 17.6608C6.73411 17.7731 6.76881 17.8059 6.88216 17.8059C7.74276 17.8012 8.60566 17.8012 9.46857 17.8059C9.57962 17.8059 9.612 17.7778 9.612 17.6632C9.60737 16.931 9.60969 16.1988 9.60737 15.4667C9.60737 15.3731 9.63514 15.345 9.72536 15.3474C10.0099 15.3544 10.2945 15.3544 10.579 15.3474C10.6901 15.345 10.7224 15.3731 10.7224 15.4877C10.7131 16.9544 10.7224 18.4164 10.7178 19.8784Z" fill="black"/>
<path d="M8.21701 3.9883C8.30492 3.99064 8.34193 3.96725 8.33731 3.87134C8.33383 3.79878 8.33442 3.72623 8.335 3.65396C8.33557 3.58178 8.33615 3.50989 8.33268 3.43859C8.32805 3.33333 8.35581 3.29356 8.46686 3.29824C8.56483 3.30319 8.66281 3.30225 8.76078 3.3013C8.84788 3.30045 8.93498 3.29961 9.02208 3.30292C9.11462 3.30526 9.14006 3.27485 9.14006 3.18362C9.13544 2.80234 9.13544 2.42105 9.14006 2.03976C9.14238 1.94385 9.11462 1.91578 9.01745 1.91578C8.14298 1.92046 7.27082 1.92046 6.39635 1.91578C6.28993 1.91578 6.26911 1.95087 6.27142 2.04912C6.27605 2.43023 6.27142 2.81186 6.27373 3.19298C6.27605 3.27485 6.2506 3.30292 6.16963 3.30058C6.07131 3.29707 5.97299 3.29765 5.87467 3.29824C5.77635 3.29882 5.67803 3.29941 5.57971 3.2959C5.48486 3.29356 5.46172 3.32865 5.46404 3.41754C5.47098 3.56725 5.47329 3.71461 5.46404 3.86198C5.4571 3.96959 5.49874 3.99064 5.5959 3.99064C6.46851 3.98125 7.34182 3.98364 8.21701 3.9883Z" fill="black"/>
<path d="M8.34425 9.61169C8.26791 9.61403 8.23321 9.59298 8.23552 9.50877C8.24015 9.21403 8.23783 8.91695 8.23552 8.62222C8.23552 8.54502 8.25634 8.51227 8.33962 8.51227C8.64268 8.51695 8.94805 8.51695 9.25111 8.51695C9.32283 8.51695 9.34365 8.54268 9.34365 8.61286C9.34133 8.91228 9.34133 9.21169 9.34365 9.51111C9.34365 9.5883 9.32051 9.61403 9.24417 9.61169C8.94344 9.59808 8.64501 9.60204 8.34425 9.61169Z" fill="black"/>
</svg>
