<svg width="24" height="24" viewBox="0 0 24 24" fill="none" xmlns="http://www.w3.org/2000/svg">
    <rect x="1.5" y="1.5" width="21" height="21" fill="#0D106E"/>
    <path fill-rule="evenodd" clip-rule="evenodd"
          d="M3.59961 11.9999L12.0026 3.59961L20.3996 12.0021L12.0026 20.3996L3.59961 11.9999ZM6.69153 9.49348C6.33672 9.89282 5.59406 10.8651 5.59406 11.9999C5.59406 13.1392 6.34254 14.1146 6.69569 14.511L8.51226 16.329L8.5208 16.3207C9.24803 15.6095 10.457 14.6749 11.8352 14.6037C11.4882 14.9905 10.723 15.9741 10.723 17.1252C10.723 18.2762 11.4882 19.2598 11.8352 19.6467L12.0026 19.8221L12.17 19.6467C12.517 19.2598 13.2822 18.2762 13.2822 17.1252C13.2822 15.9741 12.517 14.9905 12.17 14.6037C13.5537 14.6752 14.7666 15.6168 15.493 16.329L17.3524 14.4681L17.3567 14.4632C17.7243 14.0407 18.4174 13.0961 18.4174 11.9999C18.4174 10.8994 17.7189 9.9517 17.3524 9.5317L15.5016 7.67948L15.4931 7.68784C14.7666 8.39993 13.5536 9.34158 12.17 9.41306C12.517 9.02619 13.2822 8.04261 13.2822 6.89156C13.2822 5.74053 12.517 4.75692 12.17 4.37008L12.0026 4.1777L11.8352 4.37008C11.4882 4.75692 10.723 5.74053 10.723 6.89156C10.723 8.04261 11.4882 9.02619 11.8352 9.41306C10.4462 9.34131 9.22913 8.39254 8.50359 7.67948L6.69153 9.49348ZM7.04691 9.47863C9.2896 9.5973 11.0828 11.9999 11.0828 11.9999C11.0828 11.9999 9.2896 14.4025 7.04691 14.5212C7.39602 14.1311 8.15724 13.1488 8.15724 11.9999C8.15724 10.851 7.39602 9.8687 7.04691 9.47863ZM16.9646 9.47863C16.6155 9.8687 15.8542 10.851 15.8542 11.9999C15.8542 13.1488 16.6155 14.1311 16.9646 14.5212C14.7219 14.4025 12.9287 11.9999 12.9287 11.9999C12.9287 11.9999 14.7219 9.5973 16.9646 9.47863Z"
          fill="#52B2ED"/>
</svg>
