<svg width="24" height="24" viewBox="0 0 24 24" fill="none" xmlns="http://www.w3.org/2000/svg">
    <path d="M12 23C18.0752 23 23 18.0752 23 12C23 5.92488 18.0752 1 12 1C5.92488 1 1 5.92488 1 12C1 18.0752 5.92488 23 12 23Z"
          fill="#FBE5E5"/>
    <path fill-rule="evenodd" clip-rule="evenodd"
          d="M12 22C17.5229 22 22 17.5229 22 12C22 6.47716 17.5229 2 12 2C6.47716 2 2 6.47716 2 12C2 17.5229 6.47716 22 12 22ZM23 12C23 18.0752 18.0752 23 12 23C5.92488 23 1 18.0752 1 12C1 5.92488 5.92488 1 12 1C18.0752 1 23 5.92488 23 12Z"
          fill="url(#paint0_linear_12153_239453)"/>
    <path d="M5.62587 15.2289V15.3755C5.62587 15.3755 10.932 13.2606 11.9635 13.8068L11.3413 13.9917C11.3957 13.9917 12.4041 14.0583 12.4041 14.0583C12.4278 14.2684 12.4973 14.4706 12.6078 14.6502C12.7182 14.8299 12.8668 14.9826 13.0429 15.0974C13.6502 15.502 13.6618 15.7218 13.6618 15.7218C13.6618 15.7218 13.3465 15.8517 13.3465 16.0166C13.6397 15.9319 13.9428 15.8877 14.2477 15.885C14.5227 15.8949 14.7954 15.9391 15.0597 16.0166C15.0597 16.0166 15.0283 15.85 14.6042 15.7218C14.18 15.5936 13.7707 15.1407 13.5644 14.8892C13.4407 14.7285 13.3604 14.5381 13.3315 14.3367C13.3026 14.1353 13.326 13.9298 13.3994 13.7402C13.5462 13.3606 14.0595 13.1491 15.1009 12.6029C16.3371 11.9584 16.6193 11.4755 16.7926 11.1042C16.9659 10.7328 17.2267 9.98849 17.3703 9.63879C17.4897 9.31194 17.6951 9.02409 17.9644 8.80618C18.1476 8.66464 18.9827 8.34659 18.9827 8.34659C18.9827 8.34659 18.3457 7.79873 18.1377 7.63387C17.8778 7.3855 17.5491 7.22287 17.1953 7.16761C16.753 7.10933 16.3041 7.40574 16.0004 7.6039C15.6967 7.80206 15.1092 8.38155 14.8715 8.54808C14.6339 8.7146 14.0249 8.88112 13.0561 9.47893C12.0873 10.0767 8.24179 12.5529 8.24179 12.5529L9.23205 12.5629L4.78746 14.8892H5.23143L4.59106 15.3888C4.94573 15.4707 5.31801 15.4136 5.63248 15.2289H5.62587Z"
          fill="url(#paint1_linear_12153_239453)"/>
    <defs>
        <linearGradient id="paint0_linear_12153_239453" x1="20" y1="4" x2="4" y2="20" gradientUnits="userSpaceOnUse">
            <stop stop-color="#D12D52"/>
            <stop offset="1" stop-color="#E7473F"/>
        </linearGradient>
        <linearGradient id="paint1_linear_12153_239453" x1="17.0202" y1="8.36785" x2="11.2703" y2="17.7115"
                        gradientUnits="userSpaceOnUse">
            <stop stop-color="#D12D52"/>
            <stop offset="1" stop-color="#E7473F"/>
        </linearGradient>
    </defs>
</svg>
