<svg width="24" height="24" viewBox="0 0 24 24" fill="none" xmlns="http://www.w3.org/2000/svg">
<circle cx="12" cy="12" r="11" fill="black"/>
<circle cx="12" cy="12" r="11" fill="#030E27"/>
<path d="M14.3484 9.66264C13.7418 9.06584 12.9245 8.73177 12.0747 8.73501C12.065 8.73501 12.052 8.73501 12.0423 8.73501C10.2454 8.76096 8.81179 10.2335 8.83449 12.0304C8.8572 13.8045 10.3005 15.2316 12.0747 15.2381H12.1071C13.904 15.2219 15.3441 13.7526 15.3279 11.9558C15.3182 11.0898 14.9679 10.2659 14.3484 9.66264Z" fill="url(#paint0_linear_4450_24300)"/>
<path d="M13.4628 9.27024C13.0801 9.17294 12.7752 9.25402 12.5254 9.50701C12.4962 9.53945 12.467 9.57188 12.4378 9.60756C12.373 9.68865 12.3178 9.76 12.1913 9.78919C12.0227 9.82163 11.8475 9.83136 11.6756 9.8119C11.627 9.80541 11.5848 9.79568 11.5491 9.78595C11.4194 9.75676 11.3448 9.7373 11.1891 9.88325C11.1405 9.93191 11.0983 9.9838 11.0594 10.0422C10.9913 10.1362 10.9264 10.2238 10.8226 10.266C10.774 10.2854 10.7221 10.2952 10.6702 10.2984C10.6669 10.2952 10.6604 10.2952 10.6572 10.2919L10.6539 10.2984C10.5794 10.3017 10.5048 10.2952 10.4302 10.2822C10.3718 10.2725 10.3134 10.2692 10.255 10.266C10.3361 10.1492 10.4042 10.026 10.4626 9.89947C10.5696 9.88325 10.6604 9.8119 10.7513 9.74379C10.7967 9.70486 10.8486 9.66919 10.9005 9.64C11.0788 9.54269 11.1632 9.46161 11.3189 9.2897C11.4648 9.13077 11.6205 9.03023 11.8119 8.92968C11.9059 8.88103 11.9903 8.81292 12.0551 8.72534C12.6908 8.72859 13.2844 8.87778 13.8066 9.22159C13.7514 9.26376 13.6347 9.31241 13.4628 9.27024Z" fill="#DADADA"/>
<path d="M15.2242 11.5309C15.1788 11.5147 15.1366 11.492 15.0945 11.4693C15.0296 11.4271 14.9582 11.4012 14.8836 11.385L14.6955 11.2909C14.3971 11.239 14.2739 11.2779 13.9722 11.1936C13.8328 11.1514 13.6868 11.1352 13.5408 11.1385L13.5344 11.132L13.5279 11.1385C13.4241 11.145 13.3203 11.1579 13.2035 11.1741L13.1224 11.1839C13.09 11.1871 13.0543 11.1936 13.0122 11.2001C12.7559 11.2423 12.3245 11.3104 12.1753 11.1417L12.1656 11.1482C11.9353 11.012 11.6759 10.9406 11.4099 10.9406C10.9947 10.9406 10.865 10.8271 10.6282 10.626C10.5893 10.5903 10.5439 10.5546 10.4952 10.5125C10.5179 10.5125 10.5374 10.5125 10.5601 10.5125C10.6671 10.5514 10.7807 10.5709 10.8942 10.5709C10.9169 10.5709 10.9363 10.5709 10.9591 10.5676C11.0174 10.5611 11.0726 10.5352 11.1147 10.493C11.1342 10.4768 11.1537 10.4606 11.1731 10.4476C11.2185 10.4217 11.2704 10.4087 11.3256 10.4119C11.3483 10.4119 11.3742 10.4087 11.3969 10.4054C11.5104 10.3925 11.5883 10.3276 11.6661 10.2692C11.7375 10.2141 11.8056 10.1589 11.8964 10.146C11.9191 10.1427 11.9418 10.1395 11.9678 10.1395C12.0294 10.1395 12.0878 10.1265 12.1429 10.0973C12.1721 10.0779 12.1981 10.0552 12.2208 10.0292C12.2467 9.99677 12.2824 9.97407 12.3181 9.95461C12.4381 9.91244 12.49 9.81514 12.5548 9.73081C12.584 9.69513 12.717 9.67567 12.7527 9.63999C13.0219 9.36106 13.2392 9.26375 13.6544 9.36754C13.8652 9.41944 13.9463 9.42917 14.0176 9.37727C14.7215 9.89947 15.182 10.6844 15.2988 11.5504C15.2696 11.5471 15.2469 11.5407 15.2242 11.5309Z" fill="#DADADA"/>
<path d="M11.108 14.343C11.1048 14.3236 11.1015 14.3009 11.1015 14.2814C11.1015 14.2327 11.095 14.1873 11.0853 14.1387C11.0626 14.0284 11.0302 14.009 10.9912 13.9798C10.9588 13.9571 10.9296 13.9311 10.9069 13.8987C10.868 13.8403 10.8388 13.7722 10.8226 13.7041L10.8193 13.6943C10.8485 13.7106 10.8777 13.7268 10.9069 13.743C10.9231 13.7495 10.9393 13.7592 10.962 13.7722C11.0464 13.8176 11.1631 13.8792 11.2215 13.876C11.2734 13.8695 11.3188 13.8435 11.348 13.8046C11.374 13.7787 11.4615 13.8306 11.5005 13.8208C11.5686 13.8079 11.6497 13.7884 11.7535 13.8306C11.7956 13.8468 11.8345 13.863 11.8637 13.8727C11.9189 13.8889 11.974 13.9116 12.0259 13.9344C12.1135 13.9765 12.2043 14.0057 12.3016 14.0252C12.3535 14.0317 12.4086 14.0349 12.4605 14.0349C12.5578 14.0284 12.6584 14.0511 12.7459 14.0965C12.9503 14.1971 12.9924 14.2068 13.2162 14.1841C13.3817 14.1679 13.5957 14.1517 13.7547 14.1776C13.9071 14.2036 14.0466 14.2717 14.1828 14.3625C14.1828 14.3755 14.2023 14.4209 14.2055 14.4338C13.6411 14.9496 12.9049 15.235 12.1427 15.235C12.0746 15.235 12.0097 15.2317 11.9416 15.2285C11.9124 15.1961 11.8767 15.1669 11.841 15.1409C11.7989 15.115 11.7535 15.0923 11.7048 15.0793C11.6399 15.0566 11.5751 15.0339 11.5394 14.9917C11.4875 14.9366 11.494 14.875 11.5005 14.8133C11.5069 14.7712 11.5037 14.729 11.4907 14.6901C11.4615 14.6284 11.3967 14.5895 11.3253 14.5506C11.2831 14.5279 11.2442 14.502 11.2086 14.4728C11.1729 14.4436 11.1404 14.4111 11.1177 14.3722C11.1242 14.3657 11.108 14.343 11.108 14.343Z" fill="#DADADA"/>
<path d="M10.3101 9.41943C10.3037 9.50051 10.3102 9.58484 10.3231 9.66593C10.3393 9.77296 10.3523 9.87675 10.3101 9.99352L10.3069 10.0065H10.3037V10.013C10.2485 10.1524 10.122 10.3503 10.0604 10.4411C9.92418 10.4217 9.85931 10.3211 9.7912 10.2108C9.75228 10.1362 9.69714 10.0714 9.63551 10.013C9.60308 9.99027 9.57064 9.96757 9.53821 9.94811C9.77174 9.65944 10.0507 9.4097 10.3685 9.21509C10.3361 9.27996 10.3166 9.34807 10.3101 9.41943Z" fill="#DADADA"/>
<path d="M14.3775 14.2458C14.371 14.1809 14.371 14.1128 14.3677 14.0447C14.3645 13.6879 14.3483 13.5711 14.1083 13.37C13.9234 13.2143 13.7126 13.1397 13.6445 12.9062C13.6055 12.7765 13.6055 12.6143 13.6055 12.4424C13.6055 12.3678 13.6055 12.29 13.6023 12.2154C13.6185 12.1408 13.6477 12.0694 13.6801 12.0045C13.7191 11.917 13.7839 11.8261 13.771 11.7321C13.7612 11.651 13.771 11.7094 13.7353 11.6023C13.7061 11.5083 13.6477 11.4564 13.5796 11.4012C13.7061 11.4012 13.8358 11.4175 13.9591 11.4531C14.2607 11.5407 14.5461 11.4272 14.8445 11.4791L14.8737 11.4856C14.9451 11.4985 15.0132 11.5277 15.0748 11.5667C15.117 11.5926 15.1624 11.6121 15.2078 11.6315C15.237 11.6413 15.2694 11.651 15.2986 11.6575C15.3148 11.7678 15.3213 11.878 15.3246 11.9883C15.3246 12.8381 14.9937 13.6554 14.3969 14.262L14.3775 14.2458Z" fill="#DADADA"/>
<path d="M9.1782 12.9387C9.20739 12.9484 9.23333 12.9581 9.25928 12.9679C9.3728 13.0068 9.47984 13.0587 9.58038 13.1235C9.68417 13.1949 9.7685 13.2695 9.83013 13.383C9.895 13.5063 9.94365 13.5874 10.0734 13.6555L10.1123 13.6749C10.2745 13.7593 10.388 13.8176 10.4723 13.9798C10.5242 14.0771 10.615 14.1193 10.7059 14.1582C10.7545 14.1777 10.7999 14.2036 10.8453 14.2296L10.8615 14.2425L10.894 14.2652C10.907 14.3106 10.9394 14.3528 11.0172 14.4209C11.0594 14.4566 11.1048 14.4858 11.1535 14.5117C11.2248 14.5539 11.2929 14.5928 11.3221 14.6512C11.3351 14.6901 11.3383 14.729 11.3286 14.768C11.3221 14.8393 11.3156 14.9204 11.3837 14.995C11.4292 15.0469 11.507 15.0729 11.5816 15.0988C11.6335 15.115 11.6789 15.1345 11.7243 15.1637C11.7503 15.1831 11.7762 15.2058 11.8021 15.2285C10.4334 15.1118 9.28847 14.1485 8.93494 12.8219C8.99656 12.877 9.09387 12.9095 9.1782 12.9387Z" fill="#DADADA"/>
<path d="M9.69401 10.2951C9.74915 10.386 9.80753 10.4768 9.90808 10.5189C9.81402 10.5352 9.78483 10.5092 9.68752 10.5935C9.63563 10.6389 9.52211 10.6292 9.4767 10.6811C9.39561 10.7654 9.37615 10.9146 9.2756 10.9665C9.16857 11.0217 9.05505 11.0671 8.94153 11.1028C9.05829 10.6876 9.201 10.3795 9.46048 10.0519C9.48967 10.0681 9.51886 10.0876 9.54805 10.1103C9.60644 10.1589 9.65833 10.2238 9.69401 10.2951Z" fill="#DADADA"/>
<path d="M13.8067 13.3862L13.8294 13.4056C14.0402 13.584 14.0986 13.6327 14.1019 13.9376C14.1019 13.9927 14.1051 14.0446 14.1084 14.0965C13.9754 14.0122 13.8391 13.9441 13.6899 13.9214C13.5245 13.8954 13.3105 13.9116 13.1418 13.9278C12.9277 13.9505 12.9731 13.8922 12.7753 13.7916C12.6488 13.7267 12.4801 13.7786 12.3926 13.7786C12.3407 13.7786 12.2888 13.7754 12.2369 13.7689C12.1461 13.7495 12.0552 13.7203 11.9709 13.6813C11.9158 13.6586 11.9417 13.6132 11.8833 13.597C11.8574 13.5873 11.7406 13.5938 11.6952 13.5776C11.5817 13.5321 11.4422 13.4738 11.3611 13.49C11.319 13.4997 11.2801 13.5257 11.2541 13.5581C11.2282 13.5938 11.1892 13.6165 11.1471 13.623C11.0984 13.6262 10.9849 13.5646 10.9071 13.5224C10.8844 13.5094 10.8649 13.4997 10.8519 13.4932C10.8098 13.4738 10.7708 13.4511 10.7352 13.4251C10.7352 13.4219 10.7352 13.4186 10.7319 13.4154L10.7254 13.4186C10.6379 13.3538 10.5503 13.2856 10.4724 13.2078C10.3103 13.0586 10.1189 12.9451 9.90808 12.8802C10.0411 12.8607 10.1513 12.7991 10.2649 12.7343C10.3589 12.6759 10.4627 12.6272 10.5665 12.5915C10.6962 12.5526 10.8454 12.5526 10.9882 12.5526C11.1406 12.5526 11.2963 12.5494 11.4357 12.504C11.5785 12.4553 11.6855 12.3548 11.7893 12.2542C11.8996 12.1504 12.0358 12.1342 12.1882 12.092C12.3115 12.0596 12.4672 11.9558 12.6585 11.9461C12.8921 11.9331 13.1353 11.9169 13.291 11.8585C13.3786 11.9688 13.4045 12.1277 13.4143 12.2964C13.4143 12.2964 13.4143 12.2964 13.4143 12.2996C13.4175 12.3677 13.4175 12.4359 13.4175 12.504C13.4175 12.6629 13.4207 12.8121 13.4532 12.9289C13.5148 13.1397 13.6413 13.25 13.8067 13.3862Z" fill="#DADADA"/>
<path d="M8.90913 12.744C8.85075 12.5104 8.82156 12.2704 8.82156 12.0272C8.81832 11.7709 8.84426 11.5179 8.8994 11.2682C9.01941 11.2358 9.13293 11.1903 9.24645 11.1384C9.34376 11.0898 9.41835 11.0736 9.49295 10.9925C9.53512 10.9471 9.57728 10.9049 9.62269 10.8628C9.80433 10.7103 9.96974 10.7298 10.1416 10.7525C10.1838 10.759 10.226 10.7622 10.2681 10.7655C10.3265 10.8109 10.3784 10.7914 10.4238 10.8303C10.6346 11.012 10.7611 11.1968 11.1471 11.1968C11.4261 11.1968 11.6434 11.2001 11.8639 11.3331C11.8704 11.3363 11.8769 11.3395 11.8834 11.3428C11.9418 11.3785 12.0001 11.4174 12.0585 11.4596L12.0974 11.4855C12.2207 11.5731 12.3375 11.6574 12.4996 11.6833C12.5548 11.6898 12.6099 11.6931 12.6683 11.6898C12.7753 11.6866 12.8661 11.6866 12.9472 11.7677C12.798 11.8228 12.5645 11.8358 12.3375 11.8488C12.1461 11.8617 11.9677 11.8715 11.8412 11.9039C11.679 11.9461 11.5623 12.0596 11.4488 12.1666C11.3417 12.2672 11.2444 12.3645 11.1082 12.4099C10.972 12.4553 10.8228 12.4553 10.6736 12.4553C10.5244 12.4553 10.3784 12.4553 10.2422 12.4975C10.1319 12.5331 10.0281 12.5818 9.93406 12.6434C9.7946 12.7245 9.66161 12.7991 9.48647 12.7894C9.43457 12.7764 9.38592 12.7667 9.33402 12.7602L9.32105 12.7569V12.7602C9.17834 12.744 9.04536 12.7375 8.90913 12.744Z" fill="#DADADA"/>
<path d="M7.29718 8.53405C6.97932 8.5373 6.66147 8.52108 6.34361 8.4854C5.68843 8.40756 5.34787 8.24214 5.27327 7.96645C5.15326 7.53183 5.78573 7.16532 6.27225 6.92855C8.12102 6.02687 12.1753 5.08951 15.3118 4.84301C16.2815 4.76516 17.0957 4.76192 17.6697 4.83003C18.3249 4.90787 18.6655 5.07329 18.7433 5.34898C18.8633 5.78361 18.2309 6.15012 17.7443 6.38689C15.8956 7.28857 11.8413 8.22593 8.70484 8.47243C8.18589 8.51459 7.71235 8.53405 7.29718 8.53405ZM15.3247 5.04086L15.3409 5.23546C12.2434 5.48197 8.254 6.39986 6.44091 7.28208C5.66248 7.66157 5.64627 7.8659 5.64627 7.8659C5.67221 7.95996 6.26252 8.27458 8.66916 8.08321C11.7634 7.83671 15.7561 6.91882 17.5692 6.0366C18.3476 5.65711 18.3638 5.45277 18.3638 5.45277C18.3379 5.35871 17.7476 5.0441 15.3409 5.23546L15.3247 5.04086Z" fill="#DADADA"/>
<path d="M7.2807 19.2179C6.96285 19.2211 6.64499 19.2049 6.32713 19.1692C5.67195 19.0914 5.33139 18.926 5.25679 18.6503C5.13678 18.2157 5.76925 17.8492 6.25577 17.6124C8.10454 16.7107 12.1589 15.7733 15.2953 15.5268C16.2651 15.449 17.0792 15.4458 17.6533 15.5139C18.3084 15.5917 18.649 15.7571 18.7236 16.0328C18.8436 16.4674 18.2111 16.834 17.7246 17.0707C15.8759 17.9724 11.8215 18.9098 8.68512 19.1563C8.16941 19.1952 7.69911 19.2179 7.2807 19.2179ZM15.3115 15.7215L15.3277 15.9161C12.2335 16.1626 8.24077 17.0805 6.42768 17.9627C5.64925 18.3422 5.63303 18.5465 5.63303 18.5465C5.65898 18.6406 6.24929 18.9552 8.65593 18.7638C11.7502 18.5173 15.7429 17.5994 17.556 16.7172C18.3344 16.3377 18.3506 16.1334 18.3506 16.1334C18.3247 16.0393 17.7344 15.7247 15.3277 15.9161L15.3115 15.7215Z" fill="#DADADA"/>
<defs>
<linearGradient id="paint0_linear_4450_24300" x1="12.0812" y1="15.2357" x2="12.0812" y2="8.73353" gradientUnits="userSpaceOnUse">
<stop stop-color="#603211"/>
<stop offset="0.17" stop-color="#DD7D26"/>
<stop offset="0.35" stop-color="#603211"/>
<stop offset="0.54" stop-color="#9C3520"/>
<stop offset="0.77" stop-color="#DD7D26"/>
<stop offset="1" stop-color="#603211"/>
</linearGradient>
</defs>
</svg>
