<svg width="24" height="24" viewBox="0 0 24 24" fill="none" xmlns="http://www.w3.org/2000/svg">
    <path d="M19.1247 0.768306L18.0548 0C14.9741 0.524171 6.42193 2.68548 5.39513 8.68114C5.09584 10.4287 6.5009 13.0038 9.25884 14.7558C7.51334 13.3125 5.631 10.7427 6.52962 8.1067C7.64096 4.84679 13.4803 1.52225 19.1247 0.768306Z"
          fill="#BBA5E1"/>
    <path fill-rule="evenodd" clip-rule="evenodd"
          d="M19.5825 1.25332C19.5628 1.25655 19.4077 1.28162 19.2379 1.30901C17.3866 1.60761 15.2091 2.2609 13.4864 3.03462C10.8865 4.20225 8.9002 5.73431 7.58825 7.58383C7.31242 7.97269 7.12682 8.27657 7.02525 8.50565C6.71202 9.2121 6.65584 10.0246 6.85779 10.9276C6.89678 11.102 7.02106 11.5061 7.04176 11.5259C7.0459 11.5298 7.04472 11.4688 7.03915 11.3902C7.0213 11.1388 7.02898 10.8835 7.06013 10.693C7.25343 9.51034 7.99836 8.23637 9.15102 7.1171C10.7179 5.59559 13.0142 4.32105 15.9953 3.31824C17.3787 2.85287 18.5928 2.52544 20.3078 2.15524C20.5526 2.10239 20.7544 2.05783 20.7562 2.05622C20.767 2.04625 20.1247 1.55165 19.8533 1.36099C19.6895 1.24592 19.6714 1.23873 19.5825 1.25332Z"
          fill="#764BC4"/>
    <path d="M20.9279 2.6806C19.4551 2.8836 17.4977 3.39102 15.9564 3.96937C13.4886 4.89537 11.4363 6.06501 9.73099 7.51736C9.48773 7.72453 8.96328 8.24894 8.78124 8.46702C8.26899 9.08069 7.88364 9.72855 7.68586 10.3086C7.54589 10.7192 7.4828 11.0681 7.50641 11.3011C7.53414 11.5746 7.68703 12.0386 7.90656 12.5156C8.01118 12.7429 8.12071 12.961 8.12186 12.9443C8.12226 12.9386 8.09374 12.8438 8.05848 12.7338C8.02323 12.6239 7.98771 12.4928 7.97954 12.4427C7.91456 12.0442 7.97407 11.5064 8.13664 11.0227C8.53116 9.84909 9.48334 8.72247 10.9993 7.63567C11.4971 7.27879 11.852 7.04311 12.2944 6.77561C13.9678 5.76379 15.7632 5.03511 17.8233 4.53161C18.5847 4.34553 19.0841 4.23938 20.22 4.02221C20.5272 3.96347 20.7798 3.91364 20.7814 3.91144C20.783 3.90924 20.9304 3.61826 21.109 3.2648L21.4337 2.62215C21.3 2.62648 21.1682 2.64576 21.036 2.66509C21 2.67036 20.964 2.67563 20.9279 2.6806Z"
          fill="#764BC4"/>
    <path d="M20.0636 4.67728C19.5607 4.737 18.8117 4.87874 18.206 5.02879C16.4161 5.47219 14.8003 6.11177 13.1937 7.01284C12.3243 7.50048 11.4064 8.11957 10.6573 8.72365C9.78768 9.42487 9.38978 9.82841 9.01993 10.3842C8.64648 10.9454 8.46098 11.4654 8.40781 12.1001C8.36464 12.6153 8.48934 13.2228 8.74147 13.7255C8.81091 13.864 8.92882 14.0642 8.96852 14.1111L8.99873 14.1467L8.97211 14.0821C8.88263 13.8649 8.82616 13.5237 8.82655 13.2026C8.82709 12.7462 8.91518 12.3507 9.12097 11.8808C9.42254 11.1922 10.0476 10.4215 10.7434 9.88036C11.9675 8.92842 13.5294 7.99274 15.0732 7.28651C16.5018 6.63304 17.9175 6.16803 19.4148 5.86049C19.6187 5.8186 19.7876 5.78208 19.7901 5.77934C19.803 5.76501 20.4873 4.66129 20.4873 4.65474C20.4873 4.63984 20.291 4.65026 20.0636 4.67728Z"
          fill="#5928B1"/>
    <path d="M4.87528 23.2317L5.94517 24C9.02587 23.4758 17.5781 21.3145 18.6049 15.3189C18.9042 13.5713 17.4991 10.9962 14.7412 9.24422C16.4867 10.6875 18.369 13.2573 17.4704 15.8933C16.359 19.1532 10.5197 22.4777 4.87528 23.2317Z"
          fill="#BBA5E1"/>
    <path fill-rule="evenodd" clip-rule="evenodd"
          d="M4.41746 22.7467C4.4372 22.7435 4.5923 22.7184 4.76212 22.691C6.61343 22.3924 8.79089 21.7391 10.5136 20.9654C13.1135 19.7978 15.0998 18.2657 16.4117 16.4162C16.6876 16.0273 16.8732 15.7234 16.9748 15.4943C17.288 14.7879 17.3442 13.9754 17.1422 13.0724C17.1032 12.898 16.9789 12.4939 16.9582 12.4741C16.9541 12.4702 16.9553 12.5312 16.9609 12.6098C16.9787 12.8612 16.971 13.1164 16.9399 13.307C16.7466 14.4897 16.0016 15.7636 14.849 16.8829C13.2821 18.4044 10.9858 19.6789 8.00473 20.6818C6.62135 21.1471 5.40724 21.4746 3.69224 21.8448C3.44738 21.8976 3.24561 21.9422 3.24385 21.9438C3.23296 21.9537 3.87528 22.4483 4.1467 22.639C4.3105 22.7541 4.32859 22.7613 4.41746 22.7467Z"
          fill="#764BC4"/>
    <path d="M3.07208 21.3194C4.5449 21.1164 6.5023 20.609 8.04358 20.0306C10.5114 19.1046 12.5637 17.935 14.269 16.4826C14.5123 16.2755 15.0367 15.7511 15.2188 15.533C15.731 14.9193 16.1164 14.2715 16.3141 13.6914C16.4541 13.2808 16.5172 12.9319 16.4936 12.6989C16.4659 12.4254 16.313 11.9614 16.0934 11.4844C15.9888 11.2571 15.8793 11.039 15.8781 11.0557C15.8777 11.0614 15.9063 11.1561 15.9415 11.2662C15.9768 11.3761 16.0123 11.5072 16.0205 11.5573C16.0854 11.9558 16.0259 12.4936 15.8634 12.9773C15.4688 14.1509 14.5167 15.2775 13.0007 16.3643C12.5029 16.7212 12.148 16.9569 11.7056 17.2244C10.0322 18.2362 8.23679 18.9649 6.17666 19.4684C5.41528 19.6545 4.91588 19.7606 3.78 19.9778C3.47283 20.0365 3.22021 20.0864 3.2186 20.0886C3.21701 20.0908 3.06959 20.3817 2.89102 20.7352L2.56633 21.3778C2.70003 21.3735 2.83184 21.3542 2.96397 21.3349C2.99997 21.3296 3.03599 21.3244 3.07208 21.3194Z"
          fill="#764BC4"/>
    <path d="M3.93637 19.3227C4.43926 19.263 5.18832 19.1213 5.79399 18.9712C7.58393 18.5278 9.19968 17.8882 10.8063 16.9872C11.6757 16.4995 12.5936 15.8804 13.3427 15.2764C14.2123 14.5751 14.6102 14.1716 14.9801 13.6158C15.3535 13.0546 15.539 12.5346 15.5922 11.8999C15.6354 11.3847 15.5107 10.7772 15.2585 10.2745C15.1891 10.136 15.0712 9.93576 15.0315 9.88892L15.0013 9.85326L15.0279 9.91788C15.1174 10.1351 15.1738 10.4763 15.1735 10.7974C15.1729 11.2538 15.0848 11.6493 14.879 12.1192C14.5775 12.8078 13.9524 13.5785 13.2566 14.1196C12.0325 15.0716 10.4706 16.0073 8.92677 16.7135C7.49824 17.367 6.08253 17.832 4.58521 18.1395C4.38127 18.1814 4.21239 18.2179 4.20992 18.2207C4.19698 18.235 3.51273 19.3387 3.51273 19.3453C3.51273 19.3602 3.70898 19.3497 3.93637 19.3227Z"
          fill="#5928B1"/>
</svg>
