<svg width="48" height="30" viewBox="0 0 48 30" fill="none" xmlns="http://www.w3.org/2000/svg">
<path d="M35.0864 15L28.1576 11.25L36.4722 6.75L47.9047 12.9375V17.0625L36.4722 23.25L28.1576 18.75L35.0864 15Z" fill="url(#paint0_linear)"/>
<path d="M19.843 18.75L12.9142 15L19.843 11.25L11.5285 6.75L0.0959473 12.9375V17.0625L11.5285 23.25L19.843 18.75Z" fill="url(#paint1_linear)"/>
<path d="M24.0003 22.5L30.9291 26.25L24.0003 30L17.0715 26.25L24.0003 22.5Z" fill="url(#paint2_linear)"/>
<path d="M30.9291 3.75L24.0003 0L17.0715 3.75L24.0003 7.5L30.9291 3.75Z" fill="url(#paint3_linear)"/>
<defs>
<linearGradient id="paint0_linear" x1="46.9182" y1="15" x2="0.0959467" y2="15" gradientUnits="userSpaceOnUse">
<stop stop-color="#04D2C5"/>
<stop offset="1" stop-color="#6848FF"/>
</linearGradient>
<linearGradient id="paint1_linear" x1="46.9182" y1="15" x2="0.0959467" y2="15" gradientUnits="userSpaceOnUse">
<stop stop-color="#04D2C5"/>
<stop offset="1" stop-color="#6848FF"/>
</linearGradient>
<linearGradient id="paint2_linear" x1="46.9182" y1="15" x2="0.0959467" y2="15" gradientUnits="userSpaceOnUse">
<stop stop-color="#04D2C5"/>
<stop offset="1" stop-color="#6848FF"/>
</linearGradient>
<linearGradient id="paint3_linear" x1="46.9182" y1="15" x2="0.0959467" y2="15" gradientUnits="userSpaceOnUse">
<stop stop-color="#04D2C5"/>
<stop offset="1" stop-color="#6848FF"/>
</linearGradient>
</defs>
</svg>
