<svg width="24" height="24" viewBox="0 0 24 24" fill="none" xmlns="http://www.w3.org/2000/svg">
<path d="M6.4615 17.6986C6.65777 17.1425 7.02175 16.6609 7.50327 16.3203C7.98479 15.9797 8.56013 15.7967 9.15 15.7967C9.73987 15.7967 10.3152 15.9797 10.7967 16.3203C11.2782 16.6609 11.6422 17.1425 11.8385 17.6986H21.5V19.5981H11.8385C11.6422 20.1543 11.2782 20.6358 10.7967 20.9764C10.3152 21.3171 9.73987 21.5 9.15 21.5C8.56013 21.5 7.98479 21.3171 7.50327 20.9764C7.02175 20.6358 6.65777 20.1543 6.4615 19.5981H2.5V17.6986H6.4615ZM12.1615 11.0502C12.3578 10.4941 12.7218 10.0125 13.2033 9.67192C13.6848 9.33129 14.2601 9.14837 14.85 9.14837C15.4399 9.14837 16.0152 9.33129 16.4967 9.67192C16.9782 10.0125 17.3422 10.4941 17.5385 11.0502H21.5V12.9498H17.5385C17.3422 13.5059 16.9782 13.9875 16.4967 14.3281C16.0152 14.6687 15.4399 14.8516 14.85 14.8516C14.2601 14.8516 13.6848 14.6687 13.2033 14.3281C12.7218 13.9875 12.3578 13.5059 12.1615 12.9498H2.5V11.0502H12.1615ZM6.4615 4.40186C6.65777 3.84574 7.02175 3.36418 7.50327 3.02355C7.98479 2.68292 8.56013 2.5 9.15 2.5C9.73987 2.5 10.3152 2.68292 10.7967 3.02355C11.2782 3.36418 11.6422 3.84574 11.8385 4.40186H21.5V6.3014H11.8385C11.6422 6.85752 11.2782 7.33908 10.7967 7.67971C10.3152 8.02034 9.73987 8.20326 9.15 8.20326C8.56013 8.20326 7.98479 8.02034 7.50327 7.67971C7.02175 7.33908 6.65777 6.85752 6.4615 6.3014H2.5V4.40186H6.4615ZM9.15 6.3014C9.40196 6.3014 9.64359 6.20133 9.82175 6.02322C9.99991 5.8451 10.1 5.60352 10.1 5.35163C10.1 5.09974 9.99991 4.85816 9.82175 4.68004C9.64359 4.50193 9.40196 4.40186 9.15 4.40186C8.89804 4.40186 8.65641 4.50193 8.47825 4.68004C8.30009 4.85816 8.2 5.09974 8.2 5.35163C8.2 5.60352 8.30009 5.8451 8.47825 6.02322C8.65641 6.20133 8.89804 6.3014 9.15 6.3014ZM14.85 12.9498C15.102 12.9498 15.3436 12.8497 15.5218 12.6716C15.6999 12.4935 15.8 12.2519 15.8 12C15.8 11.7481 15.6999 11.5065 15.5218 11.3284C15.3436 11.1503 15.102 11.0502 14.85 11.0502C14.598 11.0502 14.3564 11.1503 14.1782 11.3284C14.0001 11.5065 13.9 11.7481 13.9 12C13.9 12.2519 14.0001 12.4935 14.1782 12.6716C14.3564 12.8497 14.598 12.9498 14.85 12.9498ZM9.15 19.5981C9.40196 19.5981 9.64359 19.4981 9.82175 19.32C9.99991 19.1418 10.1 18.9003 10.1 18.6484C10.1 18.3965 9.99991 18.1549 9.82175 17.9768C9.64359 17.7987 9.40196 17.6986 9.15 17.6986C8.89804 17.6986 8.65641 17.7987 8.47825 17.9768C8.30009 18.1549 8.2 18.3965 8.2 18.6484C8.2 18.9003 8.30009 19.1418 8.47825 19.32C8.65641 19.4981 8.89804 19.5981 9.15 19.5981Z" fill="#9DA9BB"/>
</svg>
