<svg width="64" height="64" viewBox="0 0 64 64" fill="none" xmlns="http://www.w3.org/2000/svg">
<path d="M0 32C0 14.3269 14.3269 0 32 0C49.6731 0 64 14.3269 64 32C64 49.6731 49.6731 64 32 64C14.3269 64 0 49.6731 0 32Z" fill="white"/>
<path d="M32.8121 43.3441C31.7892 43.1308 30.7663 43.7706 30.5557 44.837C30.3451 45.8729 30.9769 46.9088 32.0299 47.1221C33.0528 47.3353 34.0757 46.6955 34.2863 45.6292C34.4969 44.5628 33.8651 43.5574 32.8121 43.3441Z" fill="#F22279"/>
<path d="M32.0001 16.8374C25.7425 16.8374 20.6281 21.9864 20.6281 28.3542C20.6281 29.6338 20.8386 30.883 21.2297 32.1017C21.5005 32.9244 22.4031 33.3814 23.2454 33.1072C24.0577 32.833 24.509 31.9189 24.2382 31.0658C23.9073 30.1213 23.7569 29.1159 23.787 28.1105C23.9073 23.8145 27.337 20.2803 31.579 20.067C36.3023 19.8232 40.2133 23.6317 40.2133 28.3542C40.2133 32.772 36.7836 36.3977 32.4815 36.6414C32.4815 36.6414 30.887 36.7328 30.1048 36.8547C29.7137 36.9156 29.4128 36.9766 29.2022 37.007C29.112 37.0375 29.0217 36.9461 29.0518 36.8547L29.3226 35.5141L30.7967 28.6284C30.9773 27.7753 30.4357 26.9222 29.5933 26.7394C28.751 26.5566 27.9086 27.105 27.7281 27.9581C27.7281 27.9581 24.1781 44.7154 24.148 44.8982C23.9675 45.7513 24.509 46.6044 25.3514 46.7872C26.1938 46.97 27.0361 46.4215 27.2166 45.5685C27.2467 45.3856 27.7281 43.1615 27.7281 43.1615C28.0891 41.4553 29.473 40.2061 31.0976 39.9929C31.4586 39.9319 32.8726 39.8405 32.8726 39.8405C38.7392 39.3835 43.3722 34.4173 43.3722 28.3542C43.3722 21.9864 38.2578 16.8374 32.0001 16.8374Z" fill="black"/>
<path d="M32 63C14.8792 63 1 49.1208 1 32H-1C-1 50.2254 13.7746 65 32 65V63ZM63 32C63 49.1208 49.1208 63 32 63V65C50.2254 65 65 50.2254 65 32H63ZM32 1C49.1208 1 63 14.8792 63 32H65C65 13.7746 50.2254 -1 32 -1V1ZM32 -1C13.7746 -1 -1 13.7746 -1 32H1C1 14.8792 14.8792 1 32 1V-1Z" fill="#E2E8F0"/>
</svg>
