<svg width="64" height="64" viewBox="0 0 64 64" fill="none" xmlns="http://www.w3.org/2000/svg">
    <rect width="64" height="64" fill="white"/>
    <path d="M32.8121 43.344C31.7892 43.1307 30.7663 43.7705 30.5557 44.8369C30.3451 45.8728 30.9769 46.9087 32.0299 47.1219C33.0528 47.3352 34.0757 46.6954 34.2863 45.629C34.4969 44.5627 33.8651 43.5572 32.8121 43.344Z" fill="#F22279"/>
    <path d="M32.0001 16.8372C25.7424 16.8372 20.628 21.9863 20.628 28.354C20.628 29.6337 20.8386 30.8828 21.2297 32.1015C21.5005 32.9242 22.403 33.3812 23.2454 33.107C24.0577 32.8328 24.5089 31.9187 24.2382 31.0656C23.9072 30.1211 23.7568 29.1157 23.7869 28.1103C23.9072 23.8143 27.3369 20.2801 31.5789 20.0668C36.3022 19.8231 40.2133 23.6315 40.2133 28.354C40.2133 32.7718 36.7836 36.3975 32.4814 36.6412C32.4814 36.6412 30.8869 36.7326 30.1047 36.8545C29.7136 36.9154 29.4128 36.9764 29.2022 37.0068C29.1119 37.0373 29.0217 36.9459 29.0518 36.8545L29.3225 35.5139L30.7967 28.6282C30.9772 27.7751 30.4357 26.922 29.5933 26.7392C28.7509 26.5564 27.9085 27.1048 27.728 27.9579C27.728 27.9579 24.178 44.7152 24.1479 44.898C23.9674 45.7511 24.5089 46.6042 25.3513 46.787C26.1937 46.9698 27.0361 46.4214 27.2166 45.5683C27.2467 45.3855 27.728 43.1613 27.728 43.1613C28.089 41.4551 29.4729 40.206 31.0975 39.9927C31.4586 39.9317 32.8725 39.8403 32.8725 39.8403C38.7391 39.3833 43.3722 34.4171 43.3722 28.354C43.3722 21.9863 38.2577 16.8372 32.0001 16.8372Z" fill="black"/>
</svg>
