<svg width="24" height="24" viewBox="0 0 24 24" fill="none" xmlns="http://www.w3.org/2000/svg">
<path d="M1.95186 17.5134V17.7353C1.95186 17.7353 10.6057 14.5325 12.288 15.3597L11.2732 15.6396C11.3621 15.6396 13.0067 15.7405 13.0067 15.7405C13.0452 16.0587 13.1586 16.3649 13.3388 16.637C13.5189 16.9091 13.7613 17.1404 14.0484 17.3141C15.0389 17.9269 15.0578 18.2598 15.0578 18.2598C15.0578 18.2598 14.5437 18.4565 14.5437 18.7062C15.0217 18.578 15.5161 18.511 16.0133 18.507C16.4619 18.522 16.9067 18.5889 17.3376 18.7062C17.3376 18.7062 17.2865 18.454 16.5947 18.2598C15.903 18.0656 15.2354 17.3797 14.899 16.9989C14.6972 16.7555 14.5663 16.4672 14.5191 16.1622C14.4719 15.8572 14.5101 15.5459 14.6298 15.2588C14.8694 14.6838 15.7065 14.3636 17.4049 13.5364C19.421 12.5605 19.8813 11.8291 20.1639 11.2668C20.4466 10.7044 20.8718 9.57712 21.106 9.04753C21.3007 8.55253 21.6357 8.11661 22.075 7.78661C22.3738 7.57225 23.7358 7.09058 23.7358 7.09058C23.7358 7.09058 22.6968 6.26089 22.3577 6.01123C21.9338 5.6351 21.3977 5.3888 20.8207 5.30511C20.0993 5.21685 19.3672 5.66574 18.8719 5.96584C18.3766 6.26594 17.4184 7.14354 17.0308 7.39572C16.6432 7.64791 15.6499 7.90009 14.0699 8.80543C12.4899 9.71077 6.21822 13.4608 6.21822 13.4608L7.83324 13.4759L0.584493 16.9989H1.30857L0.264183 17.7555C0.842619 17.8795 1.44977 17.793 1.96265 17.5134H1.95186Z" fill="black"/>
</svg>
