<svg width="20" height="20" viewBox="0 0 20 20" fill="none" xmlns="http://www.w3.org/2000/svg">
    <path d="M1.62661 14.5941V14.779C1.62661 14.779 8.83814 12.1101 10.2401 12.7994L9.39442 13.0326C9.46844 13.0326 10.839 13.1167 10.839 13.1167C10.8711 13.3818 10.9656 13.637 11.1157 13.8638C11.2658 14.0905 11.4678 14.2833 11.707 14.4281C12.5325 14.9387 12.5482 15.2161 12.5482 15.2161C12.5482 15.2161 12.1198 15.38 12.1198 15.5881C12.5182 15.4813 12.9301 15.4254 13.3445 15.4221C13.7183 15.4346 14.0889 15.4903 14.4481 15.5881C14.4481 15.5881 14.4055 15.3779 13.829 15.2161C13.2525 15.0543 12.6962 14.4827 12.4159 14.1654C12.2477 13.9625 12.1386 13.7223 12.0993 13.4681C12.06 13.2139 12.0918 12.9545 12.1916 12.7153C12.3912 12.2362 13.0888 11.9693 14.5042 11.28C16.1842 10.4667 16.5678 9.85721 16.8033 9.38857C17.0389 8.91993 17.3933 7.98054 17.5884 7.53922C17.7507 7.12672 18.0298 6.76345 18.3959 6.48845C18.6449 6.30982 19.7799 5.90843 19.7799 5.90843C19.7799 5.90843 18.9141 5.21702 18.6314 5.00897C18.2782 4.69553 17.8315 4.49028 17.3507 4.42054C16.7495 4.34699 16.1394 4.72106 15.7267 4.97114C15.3139 5.22123 14.5154 5.95256 14.1924 6.16272C13.8694 6.37287 13.0417 6.58302 11.725 7.33747C10.4083 8.09192 5.18191 11.2169 5.18191 11.2169L6.52776 11.2295L0.48714 14.1654H1.09054L0.220215 14.7958C0.702245 14.8992 1.2082 14.8271 1.6356 14.5941H1.62661Z" fill="black"/>
</svg>
