<svg width="24" height="24" viewBox="0 0 24 24" fill="none" xmlns="http://www.w3.org/2000/svg">
<path d="M12.5414 19.5626C11.8595 19.4205 11.1775 19.847 11.0371 20.5579C10.8967 21.2485 11.3179 21.9391 12.0199 22.0813C12.7018 22.2235 13.3838 21.7969 13.5242 21.086C13.6646 20.3751 13.2434 19.7048 12.5414 19.5626Z" fill="#F22279"/>
<path d="M12.0001 1.89148C7.82829 1.89148 4.41867 5.32417 4.41867 9.56934C4.41867 10.4224 4.55907 11.2552 4.8198 12.0677C5.00031 12.6161 5.60201 12.9208 6.16359 12.738C6.70512 12.5552 7.00597 11.9458 6.82546 11.3771C6.60484 10.7474 6.50456 10.0771 6.52461 9.40685C6.60484 6.54288 8.89129 4.18671 11.7193 4.04453C14.8682 3.88204 17.4755 6.42101 17.4755 9.56934C17.4755 12.5146 15.1891 14.9317 12.321 15.0942C12.321 15.0942 11.258 15.1551 10.7365 15.2363C10.4758 15.277 10.2752 15.3176 10.1348 15.3379C10.0746 15.3582 10.0145 15.2973 10.0345 15.2363L10.215 14.3426L11.1978 9.75215C11.3181 9.18342 10.9571 8.61469 10.3955 8.49282C9.83395 8.37094 9.27237 8.73656 9.15203 9.30529C9.15203 9.30529 6.78535 20.4768 6.76529 20.5987C6.64495 21.1674 7.00597 21.7361 7.56756 21.858C8.12914 21.9799 8.69073 21.6142 8.81106 21.0455C8.83112 20.9236 9.15203 19.4409 9.15203 19.4409C9.39271 18.3034 10.3153 17.4706 11.3984 17.3285C11.639 17.2878 12.5817 17.2269 12.5817 17.2269C16.4927 16.9222 19.5815 13.6114 19.5815 9.56934C19.5815 5.32417 16.1718 1.89148 12.0001 1.89148Z" fill="black"/>
</svg>
