<svg width="24" height="24" viewBox="0 0 24 24" fill="none" xmlns="http://www.w3.org/2000/svg">
<path fill-rule="evenodd" clip-rule="evenodd" d="M9.2499 5.02013V2.79879C5.23865 4.05842 2.3999 7.76201 2.3999 11.9999C2.3999 17.302 6.69782 21.5999 11.9999 21.5999C16.2378 21.5999 19.9414 18.7612 21.201 14.7499H18.9796C18.4111 16.1542 17.4524 17.3698 16.1932 18.2186C14.9543 19.0537 13.4942 19.4998 12 19.4999C10.2606 19.4975 8.57603 18.8908 7.23448 17.7836C5.89294 16.6764 4.97778 15.1375 4.64555 13.4301C3.96039 9.90878 5.94134 6.3636 9.2499 5.02013Z" fill="#A1A8B3"/>
<path fill-rule="evenodd" clip-rule="evenodd" d="M10.9499 2.45693V13.0499H21.5429C21.5779 12.7007 21.5999 12.351 21.5999 11.9999C21.5999 6.69782 17.302 2.3999 11.9999 2.3999C11.6488 2.3999 11.2991 2.42191 10.9499 2.45693ZM17.3031 6.69669C18.4539 7.84751 19.1987 9.34051 19.4267 10.9499H13.0499V4.57309C14.6593 4.80113 16.1523 5.54586 17.3031 6.69669Z" fill="#A1A8B3"/>
</svg>
