<svg width="24" height="24" viewBox="0 0 24 24" fill="none" xmlns="http://www.w3.org/2000/svg">
<path fill-rule="evenodd" clip-rule="evenodd"
      d="M12 23C18.0751 23 23 18.0751 23 12C23 5.92487 18.0751 1 12 1C5.92487 1 1 5.92487 1 12C1 18.0751 5.92487 23 12 23ZM12 24C18.6274 24 24 18.6274 24 12C24 5.37258 18.6274 0 12 0C5.37258 0 0 5.37258 0 12C0 18.6274 5.37258 24 12 24Z"
      fill="#F0F3F8" />
<path d="M22.9739 11.2534C22.5616 5.19263 17.3142 0.613532 11.2534 1.02579C8.23414 1.23115 5.58314 2.63691 3.73319 4.74489L3.7332 4.74488L3.72804 4.74115C3.71557 4.7584 3.70393 4.77542 3.69155 4.79265C1.85396 6.91092 0.820443 9.72748 1.02578 12.7463C1.04535 13.0339 1.07921 13.317 1.12012 13.5976C1.12013 13.5977 1.12013 13.5978 1.12015 13.5978C1.12199 13.6105 1.12387 13.6231 1.12565 13.6358C1.15331 13.821 1.18543 14.0044 1.22207 14.1862C1.22209 14.1863 1.22211 14.1864 1.22213 14.1865C1.2228 14.1898 1.22344 14.1931 1.22408 14.1964C1.25744 14.3611 1.2945 14.5242 1.33505 14.6859L1.33512 14.6862C1.33516 14.6864 1.3352 14.6865 1.33522 14.6866C2.60558 19.7527 7.35219 23.3408 12.7463 22.9739C18.8071 22.5616 23.3861 17.3142 22.9739 11.2534H22.9739ZM20.5795 11.4163C20.6303 12.1624 20.5833 12.893 20.4505 13.5959C20.4488 13.5919 20.4475 13.5876 20.4459 13.5836V13.5836C19.6485 11.6344 18.071 10.2271 16.6838 9.44969C16.9646 6.14681 15.8441 4.75534 14.5759 4.52893C14.5414 4.52229 14.5067 4.51663 14.4715 4.51226C13.4649 4.38316 12.5445 5.09461 12.4155 6.10108C12.2865 7.10759 12.9979 8.02806 14.0043 8.1572C14.0922 8.16831 14.179 8.1714 14.265 8.17004C14.2706 8.28154 14.2741 8.39998 14.2751 8.52383C13.1024 8.23324 12.0063 8.17637 11.0069 8.26622C10.6332 8.29113 10.2592 8.33822 9.88726 8.40771C10.012 7.29243 10.4304 6.0403 11.2424 5.12397C12.0273 4.23818 13.1942 3.73047 14.4672 3.86076C14.7085 3.88545 14.966 3.9447 15.1978 4.02255C15.2084 4.02613 15.2198 4.02916 15.2303 4.03282C15.2304 4.03261 15.2307 4.03233 15.2308 4.03212C18.1793 5.23328 20.3493 8.03159 20.5795 11.4163V11.4163ZM12.9128 13.0964C12.912 13.0975 12.9111 13.0987 12.9103 13.0999C12.6479 13.4785 12.3357 13.8517 11.9693 14.2127C11.42 13.6283 10.9787 12.9989 10.6439 12.3478C10.6268 12.3129 10.6085 12.2797 10.5917 12.2443C10.5911 12.243 10.5905 12.2416 10.5898 12.2404C10.3932 11.8236 10.2259 11.3665 10.0965 10.8684C10.8781 10.6845 11.6447 10.6169 12.3767 10.6526C12.4155 10.6551 12.4534 10.6559 12.4925 10.6591C12.4939 10.6592 12.4953 10.6593 12.4968 10.6594C12.9553 10.6974 13.434 10.781 13.9292 10.9175C13.6977 11.6861 13.3731 12.3834 12.9763 12.9994C12.9547 13.0317 12.9351 13.0641 12.9128 13.0964V13.0964ZM9.15414 3.8863C9.15209 3.88895 9.14975 3.89146 9.1477 3.8941L9.14769 3.89412C7.85898 5.5585 7.42873 7.62698 7.44863 9.21673C4.44805 10.625 3.80329 12.2911 4.24132 13.5025C4.25279 13.5357 4.26525 13.5686 4.27908 13.6013C4.67055 14.5375 5.74691 14.9789 6.68299 14.5874C7.61921 14.1959 8.06063 13.1195 7.66926 12.1834C7.63497 12.1018 7.59422 12.025 7.55005 11.9512C7.64488 11.8899 7.74672 11.827 7.85485 11.7635C8.1895 12.9245 8.68459 13.9065 9.26217 14.7272C9.47021 15.0378 9.69751 15.3375 9.94311 15.6244C8.91476 16.0742 7.62088 16.338 6.42109 16.093C5.26151 15.8561 4.23837 15.0994 3.71472 13.9319C3.61546 13.7106 3.53806 13.458 3.48955 13.2183C3.4597 13.0089 3.43469 12.7978 3.42012 12.5834C3.15209 8.64316 5.59666 5.13537 9.15414 3.8863V3.8863ZM12.5834 20.5795C10.2436 20.7387 8.05639 19.9406 6.40336 18.522C8.48913 18.8058 10.4956 18.1442 11.8624 17.3321C14.5835 19.228 16.3494 18.9536 17.1798 17.9683C17.2027 17.9417 17.225 17.9145 17.2464 17.8862C17.8615 17.079 17.7056 15.9262 16.8984 15.3113C16.0913 14.6962 14.9384 14.8521 14.3234 15.6592C14.2698 15.7296 14.2237 15.8033 14.1819 15.8785C14.0821 15.8273 13.9773 15.7709 13.869 15.7095C14.7079 14.8388 15.3057 13.9173 15.7279 13.0063C15.8932 12.6701 16.0394 12.3227 16.1651 11.9658C17.0694 12.6315 17.9456 13.6205 18.3335 14.7827C18.7081 15.9054 18.5644 17.1698 17.8151 18.2071C17.673 18.4037 17.493 18.5971 17.3096 18.7589C17.307 18.7613 17.3044 18.7637 17.3017 18.7662C15.9908 19.7965 14.3688 20.4581 12.5834 20.5795V20.5795Z"
      fill="url(#paint0_linear_19815_15695)" />
<path style="mix-blend-mode:overlay" opacity="0.9"
      d="M14.5733 4.52934C14.5388 4.5227 14.5041 4.51703 14.4688 4.51266C14.2907 4.48983 14.1156 4.49454 13.9468 4.52131C14.9991 5.09376 15.7663 6.68877 15.363 9.83502C15.2294 10.8771 14.9195 11.8687 14.4721 12.7786C14.1095 13.561 13.6162 14.3509 12.9531 15.11C13.2716 15.3488 13.5821 15.5487 13.8664 15.7099C14.7053 14.8392 15.3031 13.9177 15.7252 13.0067C16.1727 12.0968 16.4825 11.1051 16.6161 10.0631C17.0964 6.31691 15.9174 4.76929 14.5733 4.52934V4.52934Z"
      fill="url(#paint1_radial_19815_15695)" />
<g style="mix-blend-mode:overlay" opacity="0.8">
<path d="M15.3655 9.8352C15.7688 6.68894 15.0016 5.09394 13.9494 4.52148C13.9083 4.528 13.868 4.53675 13.8277 4.54599C14.8579 5.1382 15.5991 6.7317 15.2013 9.8352C15.0677 10.8772 14.7578 11.8689 14.3104 12.7788C13.9598 13.5353 13.4857 14.2986 12.8555 15.0345C12.889 15.0604 12.9223 15.0851 12.9556 15.1102C13.6187 14.3511 14.112 13.5612 14.4746 12.7788C14.922 11.8689 15.2319 10.8772 15.3655 9.8352V9.8352Z"
      fill="white" />
</g>
<path style="mix-blend-mode:overlay" opacity="0.5"
      d="M11.3648 16.9704C11.2659 16.895 11.1707 16.8162 11.0755 16.7373C9.52266 17.3852 7.36994 17.7914 5.23242 17.2954C5.58245 17.7415 5.97308 18.1535 6.40216 18.5218C8.48794 18.8056 10.4944 18.144 11.8612 17.3319C11.699 17.2188 11.5338 17.0992 11.3648 16.9704V16.9704Z"
      fill="url(#paint2_radial_19815_15695)" />
<path style="mix-blend-mode:overlay" opacity="0.6"
      d="M11.0762 16.7379C11.0286 16.6984 10.9807 16.6594 10.9341 16.6191C9.36945 17.2444 7.20694 17.6182 5.07422 17.0867C5.12618 17.1572 5.17902 17.2271 5.23305 17.2959C7.37057 17.792 9.52328 17.3858 11.0762 16.7379V16.7379Z"
      fill="url(#paint3_linear_19815_15695)" />
<path style="mix-blend-mode:overlay" opacity="0.9"
      d="M4.24118 13.5049C4.25266 13.538 4.26511 13.5709 4.27895 13.6036C4.34822 13.7693 4.43984 13.9186 4.54743 14.0514C4.51704 12.8538 5.51477 11.3919 8.44117 10.1681C9.41041 9.76279 10.4241 9.5353 11.4359 9.46784C12.2947 9.39063 13.2254 9.4229 14.2143 9.61762C14.2619 9.22243 14.2798 8.85355 14.2773 8.52672C13.1038 8.23561 12.0068 8.17865 11.0068 8.26856C9.99504 8.33602 8.98132 8.56351 8.01208 8.96882C4.5277 10.426 3.77693 12.2209 4.24118 13.5049L4.24118 13.5049Z"
      fill="url(#paint4_radial_19815_15695)" />
<g style="mix-blend-mode:overlay" opacity="0.8">
<path d="M8.44129 10.1687C5.51489 11.3925 4.51716 12.8544 4.54755 14.052C4.57373 14.0843 4.60147 14.1148 4.6296 14.1451C4.62737 12.9568 5.63676 11.5181 8.5234 10.3109C9.49264 9.90562 10.5064 9.67813 11.5181 9.61067C12.3485 9.53601 13.2466 9.56497 14.199 9.74283C14.2047 9.70084 14.2095 9.65962 14.2145 9.61824C13.2256 9.42352 12.2949 9.39125 11.436 9.46846C10.4242 9.53592 9.41053 9.76341 8.44129 10.1687Z"
      fill="white" />
</g>
<path style="mix-blend-mode:overlay" opacity="0.4"
      d="M16.6197 10.0638C16.6039 10.1871 16.5832 10.309 16.5625 10.4308C17.9 11.4517 19.3282 13.1129 19.9674 15.2121C20.1787 14.6859 20.3402 14.1416 20.4446 13.5859C19.6475 11.6376 18.0713 10.2308 16.6846 9.45312C16.6678 9.65017 16.6468 9.853 16.6197 10.0638V10.0638Z"
      fill="url(#paint5_radial_19815_15695)" />
<path style="mix-blend-mode:overlay" opacity="0.5"
      d="M16.565 10.4307C16.5546 10.4916 16.5448 10.5526 16.5332 10.6131C17.857 11.6554 19.262 13.3413 19.868 15.4541C19.9032 15.3738 19.9372 15.2931 19.9698 15.2119C19.3307 13.1127 17.9025 11.4515 16.565 10.4307V10.4307Z"
      fill="url(#paint6_linear_19815_15695)" />
<path style="mix-blend-mode:overlay" opacity="0.9"
      d="M17.1808 17.9659C17.2038 17.9393 17.2261 17.9121 17.2475 17.8838C17.3563 17.7409 17.4397 17.587 17.501 17.4274C16.4791 18.0525 14.7142 17.9194 12.1911 15.9969C11.3555 15.3602 10.6516 14.596 10.0873 13.7536C9.591 13.0484 9.1536 12.2262 8.82777 11.2725C8.46173 11.4288 8.13333 11.5978 7.85156 11.7634C8.18621 12.9253 8.68534 13.9037 9.26323 14.7248C9.82752 15.5673 10.5314 16.3314 11.367 16.9682C14.3712 19.2571 16.301 19.0099 17.1808 17.9659V17.9659Z"
      fill="url(#paint7_radial_19815_15695)" />
<g style="mix-blend-mode:overlay" opacity="0.8">
<path d="M12.1914 15.997C14.7145 17.9194 16.4794 18.0525 17.5013 17.4275C17.5162 17.3886 17.5288 17.3493 17.5409 17.3098C16.513 17.9059 14.7623 17.7511 12.2736 15.8548C11.4379 15.2181 10.7341 14.4539 10.1698 13.6114C9.68989 12.9296 9.26593 12.1374 8.94377 11.2236C8.90455 11.2397 8.86646 11.2562 8.82812 11.2725C9.15395 12.2263 9.59135 13.0485 10.0877 13.7536C10.6519 14.5961 11.3558 15.3603 12.1914 15.997V15.997Z"
      fill="white" />
</g>
<path style="mix-blend-mode:overlay" opacity="0.3"
      d="M8.01116 8.96545C8.12587 8.91748 8.24176 8.87451 8.35763 8.83151C8.57298 7.16273 9.29753 5.09531 10.7959 3.49219C10.2345 3.57224 9.68237 3.70454 9.14892 3.89201C7.8602 5.55641 7.42997 7.62489 7.44987 9.21465C7.62891 9.13066 7.81508 9.04745 8.01116 8.96545V8.96545Z"
      fill="url(#paint8_radial_19815_15695)" />
<path style="mix-blend-mode:overlay" opacity="0.4"
      d="M8.35742 8.83123C8.41533 8.80975 8.47309 8.7878 8.53127 8.76755C8.77208 7.09988 9.52964 5.04021 11.0563 3.45898C10.9692 3.4687 10.8823 3.47955 10.7957 3.4919C9.29732 5.09502 8.57276 7.16244 8.35742 8.83123V8.83123Z"
      fill="url(#paint9_linear_19815_15695)" />
<path style="mix-blend-mode:multiply" opacity="0.4"
      d="M11.2533 1.02567C8.23411 1.23103 5.5831 2.63679 3.73315 4.74477C3.71918 4.76069 3.70528 4.77666 3.69141 4.79268L3.69152 4.79253C4.05168 5.14978 5.22874 5.85422 5.70581 6.14798C6.6425 5.14061 7.82005 4.35458 9.1541 3.88618C9.24728 3.76613 9.34385 3.64768 9.44614 3.53223C10.6886 2.13016 12.3854 1.38909 14.3535 1.38909C14.5725 1.38909 15.0187 1.42396 15.0283 1.42466C13.8351 1.08189 12.5636 0.936545 11.2533 1.02567Z"
      fill="url(#paint10_linear_19815_15695)" />
<path style="mix-blend-mode:multiply" opacity="0.4"
      d="M12.5841 20.5793C10.2443 20.7385 8.05707 19.9404 6.40404 18.5218H6.40402L6.40401 18.5218C6.25015 18.5008 6.09595 18.4757 5.94149 18.4441C4.106 18.0691 2.61582 16.9702 1.6318 15.2658C1.52227 15.0761 1.42426 14.8828 1.33594 14.6865C2.60633 19.7526 7.35292 23.3406 12.747 22.9737C12.7709 22.4182 12.6071 21.1293 12.5841 20.5793V20.5793Z"
      fill="url(#paint11_linear_19815_15695)" />
<path style="mix-blend-mode:multiply" opacity="0.4"
      d="M22.9735 11.2538C22.6356 11.2192 20.985 11.3495 20.5792 11.4167C20.63 12.1628 20.583 12.8934 20.4501 13.5963C20.5071 13.7361 20.5611 13.878 20.6096 14.0234C21.2026 15.8005 20.996 17.6405 20.012 19.3449C19.9045 19.5311 19.7884 19.7094 19.6652 19.881C19.6629 19.8843 19.6602 19.888 19.6582 19.8908C19.6581 19.8909 19.6633 19.8865 19.6661 19.8838C21.9003 17.7102 23.2016 14.6074 22.9735 11.2538V11.2538Z"
      fill="url(#paint12_linear_19815_15695)" />
<path style="mix-blend-mode:multiply" opacity="0.5"
      d="M14.4682 3.86025C14.7095 3.88495 14.967 3.9442 15.1988 4.02205C15.2095 4.02563 15.2208 4.02865 15.2314 4.03231C15.2315 4.03211 15.2317 4.03183 15.2319 4.03162C16.1808 4.41817 17.0483 4.9709 17.7972 5.65459C17.7988 5.65593 17.8004 5.65703 17.8021 5.65837C18.163 5.24573 18.858 4.7923 18.858 4.7923C18.858 4.7923 17.7938 3.70373 16.1662 3.36591C15.0268 3.12941 12.4568 2.90016 10.8359 5.65837C10.8359 5.65837 10.8424 5.6523 10.8519 5.64354C10.9718 5.46232 11.0993 5.28617 11.2434 5.12347C12.0283 4.23767 13.1952 3.72996 14.4682 3.86025V3.86025Z"
      fill="url(#paint13_linear_19815_15695)" />
<path style="mix-blend-mode:multiply" opacity="0.5"
      d="M17.814 18.2058C17.6719 18.4025 17.4919 18.5959 17.3085 18.7577C17.3001 18.7651 17.2918 18.7734 17.2834 18.7807C17.2835 18.7809 17.2836 18.7813 17.2837 18.7815C16.4745 19.41 15.5621 19.8849 14.5955 20.1917C14.5936 20.1924 14.5918 20.1932 14.5898 20.194C14.7667 20.7129 14.8119 21.5415 14.8119 21.5415C14.8119 21.5415 16.2867 21.1641 17.3931 19.9235C18.1676 19.055 19.6512 16.9439 18.0729 14.1611C18.0729 14.1611 18.0749 14.1698 18.0778 14.1823C18.1748 14.3768 18.2636 14.5753 18.3324 14.7815C18.7071 15.9041 18.5633 17.1686 17.814 18.2058V18.2058Z"
      fill="url(#paint14_linear_19815_15695)" />
<path style="mix-blend-mode:multiply" opacity="0.5"
      d="M3.71912 13.9356C3.61984 13.7143 3.5424 13.4617 3.49392 13.222C3.49169 13.211 3.48865 13.1997 3.48655 13.1887C3.4863 13.1887 3.48595 13.1886 3.48569 13.1886C3.34601 12.1736 3.39093 11.1459 3.60856 10.1555C3.60891 10.1534 3.60906 10.1515 3.60941 10.1494C3.07158 10.0431 2.3314 9.66797 2.3314 9.66797C2.3314 9.66797 1.92077 11.1339 2.442 12.7123C2.8069 13.8173 3.89336 16.1576 7.09247 16.1822C7.09247 16.1822 7.08398 16.1797 7.07166 16.1758C6.85476 16.1626 6.63847 16.1403 6.42549 16.0968C5.26591 15.8599 4.24276 15.1032 3.71912 13.9356V13.9356Z"
      fill="url(#paint15_linear_19815_15695)" />
<path style="mix-blend-mode:multiply" opacity="0.6"
      d="M14.0063 8.15665C14.0941 8.16776 14.1809 8.17085 14.2669 8.16949C14.2669 8.16949 14.2095 7.02657 14.0691 6.44018C13.9288 5.85378 13.7218 5.46546 13.4944 5.24567C13.3316 5.08822 12.8173 4.89213 12.4175 6.10052C12.2884 7.10704 12.9998 8.02751 14.0063 8.15665Z"
      fill="url(#paint16_linear_19815_15695)" />
<path style="mix-blend-mode:multiply" opacity="0.5"
      d="M7.66962 12.1843C7.63533 12.1027 7.59458 12.026 7.55041 11.9521C7.55041 11.9521 6.58934 12.5734 6.15167 12.9881C5.71401 13.4028 5.48121 13.7763 5.40455 14.0831C5.34964 14.3028 5.43692 14.8462 6.68336 14.5883C7.61957 14.1969 8.06099 13.1205 7.66962 12.1843V12.1843Z"
      fill="url(#paint17_linear_19815_15695)" />
<path style="mix-blend-mode:multiply" opacity="0.6"
      d="M14.327 15.6565C14.2735 15.727 14.2274 15.8006 14.1855 15.8758C14.1855 15.8758 15.2041 16.3975 15.7821 16.5692C16.3601 16.7408 16.7999 16.7557 17.1039 16.6687C17.3217 16.6064 17.7486 16.2591 16.9021 15.3086C16.0949 14.6936 14.9421 14.8495 14.327 15.6565V15.6565Z"
      fill="url(#paint18_linear_19815_15695)" />
<path style="mix-blend-mode:multiply" opacity="0.3"
      d="M13.9307 10.917C13.6991 11.6855 13.3745 12.3829 12.9778 12.9989C12.9561 13.0311 12.9365 13.0636 12.9142 13.0958C12.9134 13.097 12.9126 13.0982 12.9118 13.0994C12.6493 13.478 12.3371 13.8512 11.9707 14.2122C12.2225 14.4802 12.4948 14.7395 12.7939 14.9856C13.1695 15.282 13.5376 15.5203 13.8705 15.709C14.7093 14.8383 15.3071 13.9168 15.7293 13.0057C15.8946 12.6696 16.0408 12.3222 16.1666 11.9653C15.7796 11.6804 15.3875 11.4537 15.0263 11.2997C14.6527 11.1405 14.2875 11.0154 13.9307 10.917V10.917Z"
      fill="url(#paint19_linear_19815_15695)" />
<path style="mix-blend-mode:multiply" opacity="0.3"
      d="M6.40404 18.5215C8.48982 18.8053 10.4963 18.1437 11.8631 17.3316C11.7009 17.2185 11.5357 17.0989 11.3667 16.9701C10.8391 16.5681 10.3644 16.1151 9.94379 15.6239C8.91544 16.0737 7.62157 16.3375 6.42178 16.0925C5.2622 15.8556 4.23906 15.0989 3.71541 13.9313C3.61614 13.71 3.53874 13.4574 3.49023 13.2178C3.79327 15.3441 4.86627 17.2017 6.40404 18.5215V18.5215Z"
      fill="url(#paint20_linear_19815_15695)" />
<path style="mix-blend-mode:multiply" opacity="0.3"
      d="M11.9699 14.2115C11.4206 13.627 10.9793 12.9977 10.6445 12.3465C10.6274 12.3117 10.6091 12.2785 10.5923 12.243C10.5917 12.2417 10.5911 12.2404 10.5904 12.2391C10.3938 11.8224 10.2265 11.3652 10.0971 10.8672C9.73995 10.9512 9.37997 11.0572 9.01815 11.1928C8.57467 11.3695 8.18491 11.5687 7.85547 11.7622C8.19012 12.9233 8.68521 13.9053 9.26279 14.726C9.47082 15.0366 9.69813 15.3363 9.94372 15.6231C10.3846 15.4303 10.7776 15.2038 11.092 14.9677C11.4161 14.7242 11.7066 14.4709 11.9699 14.2115V14.2115Z"
      fill="url(#paint21_linear_19815_15695)" />
<path style="mix-blend-mode:multiply" opacity="0.3"
      d="M9.14699 3.89342C7.85827 5.5578 7.42802 7.62628 7.44792 9.21603C7.62764 9.13168 7.81461 9.04812 8.01151 8.96577C8.62272 8.71018 9.25163 8.52565 9.88656 8.40701C10.0113 7.29173 10.4297 6.0396 11.2417 5.12327C12.0266 4.23748 13.1935 3.72977 14.4665 3.86006C14.7078 3.88475 14.9653 3.944 15.1971 4.02185C15.2077 4.02543 15.2191 4.02846 15.2296 4.03212C15.2297 4.03191 15.23 4.03163 15.2301 4.03142C14.0573 3.55366 12.7618 3.32786 11.4155 3.41943C10.6249 3.47321 9.86727 3.63497 9.15343 3.8856C9.15138 3.88825 9.14905 3.89076 9.147 3.8934L9.14699 3.89342V3.89342Z"
      fill="url(#paint22_linear_19815_15695)" />
<path style="mix-blend-mode:multiply" opacity="0.3"
      d="M20.4468 13.5832C19.6493 11.6339 18.0719 10.2266 16.6847 9.44922C16.6679 9.64696 16.6468 9.85058 16.6196 10.0622C16.5354 10.7193 16.3807 11.3562 16.166 11.9654C17.0702 12.631 17.9464 13.6201 18.3344 14.7823C18.709 15.9049 18.5653 17.1693 17.8159 18.2066C17.6739 18.4033 17.4938 18.5966 17.3105 18.7585C17.3078 18.7608 17.3052 18.7633 17.3026 18.7657C18.9175 17.4965 20.0597 15.6672 20.4513 13.5954C20.4497 13.5914 20.4484 13.5872 20.4468 13.5832V13.5832V13.5832Z"
      fill="url(#paint23_linear_19815_15695)" />
<path style="mix-blend-mode:multiply" opacity="0.3"
      d="M9.88225 9.73094C9.93102 10.1332 10.0051 10.5112 10.098 10.8688C10.8796 10.6849 11.6462 10.6173 12.3782 10.6529C12.417 10.6555 12.4549 10.6563 12.494 10.6595C12.4954 10.6596 12.4969 10.6597 12.4983 10.6598C12.9568 10.6978 13.4355 10.7814 13.9308 10.9179C14.0367 10.5663 14.125 10.2013 14.1885 9.81987C14.2575 9.34571 14.2797 8.90726 14.2766 8.52421C13.1039 8.23362 12.0078 8.17675 11.0084 8.2666C10.6347 8.29151 10.2607 8.3386 9.88879 8.4081C9.83527 8.88662 9.83492 9.34041 9.88225 9.73094H9.88225Z"
      fill="url(#paint24_linear_19815_15695)" />
<defs>
<linearGradient id="paint0_linear_19815_15695" x1="4.49309" y1="19.507" x2="18.5197" y2="5.48045"
                gradientUnits="userSpaceOnUse">
<stop offset="0.001139" stop-color="#E6007A" />
<stop offset="0.207149" stop-color="#703AC2" />
<stop offset="0.456011" stop-color="#0070EB" />
<stop offset="0.768132" stop-color="#0297FB" />
<stop offset="1" stop-color="#0AE2FF" />
</linearGradient>
<radialGradient id="paint1_radial_19815_15695" cx="0" cy="0" r="1" gradientUnits="userSpaceOnUse"
                gradientTransform="translate(15.1326 9.77363) scale(4.18235)">
<stop stop-color="white" />
<stop offset="1" stop-color="white" stop-opacity="0" />
</radialGradient>
<radialGradient id="paint2_radial_19815_15695" cx="0" cy="0" r="1" gradientUnits="userSpaceOnUse"
                gradientTransform="translate(8.95201 17.5318) scale(2.43333)">
<stop stop-color="white" />
<stop offset="1" stop-color="white" stop-opacity="0" />
</radialGradient>
<linearGradient id="paint3_linear_19815_15695" x1="5.30092" y1="17.1208" x2="7.64649" y2="17.0882"
                gradientUnits="userSpaceOnUse">
<stop stop-color="white" stop-opacity="0" />
<stop offset="1" stop-color="white" />
</linearGradient>
<radialGradient id="paint4_radial_19815_15695" cx="0" cy="0" r="1" gradientUnits="userSpaceOnUse"
                gradientTransform="translate(8.50318 10.3983) rotate(-120) scale(4.18235)">
<stop stop-color="white" />
<stop offset="1" stop-color="white" stop-opacity="0" />
</radialGradient>
<radialGradient id="paint5_radial_19815_15695" cx="0" cy="0" r="1" gradientUnits="userSpaceOnUse"
                gradientTransform="translate(18.3123 11.8726) rotate(-120) scale(2.43333)">
<stop stop-color="white" />
<stop offset="1" stop-color="white" stop-opacity="0" />
</radialGradient>
<linearGradient id="paint6_linear_19815_15695" x1="19.7842" y1="15.2407" x2="18.5832" y2="13.2257"
                gradientUnits="userSpaceOnUse">
<stop stop-color="white" stop-opacity="0" />
<stop offset="1" stop-color="white" />
</linearGradient>
<radialGradient id="paint7_radial_19815_15695" cx="0" cy="0" r="1" gradientUnits="userSpaceOnUse"
                gradientTransform="translate(12.1619 15.6347) rotate(120) scale(4.18235)">
<stop stop-color="white" />
<stop offset="1" stop-color="white" stop-opacity="0" />
</radialGradient>
<radialGradient id="paint8_radial_19815_15695" cx="0" cy="0" r="1" gradientUnits="userSpaceOnUse"
                gradientTransform="translate(8.73132 6.59521) rotate(120) scale(2.43333)">
<stop stop-color="white" />
<stop offset="1" stop-color="white" stop-opacity="0" />
</radialGradient>
<linearGradient id="paint9_linear_19815_15695" x1="10.9134" y1="3.63825" x2="9.76884" y2="5.68587"
                gradientUnits="userSpaceOnUse">
<stop stop-color="white" stop-opacity="0" />
<stop offset="1" stop-color="white" />
</linearGradient>
<linearGradient id="paint10_linear_19815_15695" x1="11.4235" y1="2.59715" x2="7.84001" y2="3.63963"
                gradientUnits="userSpaceOnUse">
<stop stop-color="#231F20" />
<stop offset="1" stop-color="white" />
</linearGradient>
<linearGradient id="paint11_linear_19815_15695" x1="4.6521" y1="16.2643" x2="7.64922" y2="19.3917"
                gradientUnits="userSpaceOnUse">
<stop stop-color="#231F20" />
<stop offset="1" stop-color="white" />
</linearGradient>
<linearGradient id="paint12_linear_19815_15695" x1="20.7367" y1="15.7936" x2="21.7792" y2="12.6227"
                gradientUnits="userSpaceOnUse">
<stop stop-color="#231F20" />
<stop offset="1" stop-color="white" />
</linearGradient>
<linearGradient id="paint13_linear_19815_15695" x1="13.0575" y1="4.41004" x2="17.8619" y2="5.51013"
                gradientUnits="userSpaceOnUse">
<stop stop-color="#231F20" />
<stop offset="1" stop-color="white" />
</linearGradient>
<linearGradient id="paint14_linear_19815_15695" x1="18.0432" y1="16.7092" x2="14.6883" y2="20.3199"
                gradientUnits="userSpaceOnUse">
<stop stop-color="#231F20" />
<stop offset="1" stop-color="white" />
</linearGradient>
<linearGradient id="paint15_linear_19815_15695" x1="4.90062" y1="14.8825" x2="3.45109" y2="10.1716"
                gradientUnits="userSpaceOnUse">
<stop stop-color="#231F20" />
<stop offset="1" stop-color="white" />
</linearGradient>
<linearGradient id="paint16_linear_19815_15695" x1="14.1087" y1="6.18202" x2="12.5884" y2="7.7023"
                gradientUnits="userSpaceOnUse">
<stop stop-color="#231F20" />
<stop offset="1" stop-color="white" />
</linearGradient>
<linearGradient id="paint17_linear_19815_15695" x1="5.90833" y1="13.0829" x2="7.98506" y2="13.6394"
                gradientUnits="userSpaceOnUse">
<stop stop-color="#231F20" />
<stop offset="1" stop-color="white" />
</linearGradient>
<linearGradient id="paint18_linear_19815_15695" x1="15.9859" y1="16.7325" x2="15.4294" y2="14.6558"
                gradientUnits="userSpaceOnUse">
<stop stop-color="#231F20" />
<stop offset="1" stop-color="white" />
</linearGradient>
<linearGradient id="paint19_linear_19815_15695" x1="12.824" y1="14.885" x2="13.7362" y2="13.6254"
                gradientUnits="userSpaceOnUse">
<stop stop-color="#231F20" />
<stop offset="1" stop-color="white" />
</linearGradient>
<linearGradient id="paint20_linear_19815_15695" x1="9.68243" y1="14.3397" x2="7.8581" y2="15.2084"
                gradientUnits="userSpaceOnUse">
<stop stop-color="#231F20" />
<stop offset="1" stop-color="white" />
</linearGradient>
<linearGradient id="paint21_linear_19815_15695" x1="9.02035" y1="11.3022" x2="9.58503" y2="12.475"
                gradientUnits="userSpaceOnUse">
<stop stop-color="#231F20" />
<stop offset="1" stop-color="white" />
</linearGradient>
<linearGradient id="paint22_linear_19815_15695" x1="11.6459" y1="7.68074" x2="11.255" y2="6.33421"
                gradientUnits="userSpaceOnUse">
<stop stop-color="#231F20" />
<stop offset="1" stop-color="white" />
</linearGradient>
<linearGradient id="paint23_linear_19815_15695" x1="15.8607" y1="13.846" x2="16.9901" y2="14.1066"
                gradientUnits="userSpaceOnUse">
<stop stop-color="#231F20" />
<stop offset="1" stop-color="white" />
</linearGradient>
<linearGradient id="paint24_linear_19815_15695" x1="14.089" y1="10.0318" x2="12.6556" y2="9.77119"
                gradientUnits="userSpaceOnUse">
<stop stop-color="#231F20" />
<stop offset="1" stop-color="white" />
</linearGradient>
</defs>
</svg>
