<svg width="24" height="24" viewBox="0 0 24 24" fill="none" xmlns="http://www.w3.org/2000/svg">
    <path fill-rule="evenodd" clip-rule="evenodd"
          d="M12 23C18.0751 23 23 18.0751 23 12C23 5.92487 18.0751 1 12 1C5.92487 1 1 5.92487 1 12C1 18.0751 5.92487 23 12 23ZM12 24C18.6274 24 24 18.6274 24 12C24 5.37258 18.6274 0 12 0C5.37258 0 0 5.37258 0 12C0 18.6274 5.37258 24 12 24Z"
          fill="#F0F3F8"/>
    <path fill-rule="evenodd" clip-rule="evenodd"
          d="M5.16794 15.1518C4.71841 14.1894 4.46731 13.1157 4.46731 11.9835C4.46731 7.84407 7.82295 4.48845 11.9624 4.48845C14.2672 4.48845 16.329 5.52892 17.7039 7.16571L18.5242 6.47746C16.9528 4.60683 14.5965 3.41772 11.9624 3.41772C7.23162 3.41772 3.39661 7.25274 3.39661 11.9835C3.39661 13.2775 3.68356 14.5045 4.19731 15.6043L5.16794 15.1518Z"
          fill="black"/>
    <path fill-rule="evenodd" clip-rule="evenodd"
          d="M11.9624 17.0694C9.15355 17.0694 6.87651 14.7923 6.87651 11.9835C6.87651 9.17461 9.15355 6.89755 11.9624 6.89755C13.5265 6.89755 14.9253 7.60377 15.8583 8.71445L16.6787 8.02603C15.5494 6.68153 13.8557 5.82684 11.9624 5.82684C8.5622 5.82684 5.80579 8.58325 5.80579 11.9835C5.80579 15.3837 8.5622 18.1401 11.9624 18.1401V17.0694Z"
          fill="black"/>
    <path fill-rule="evenodd" clip-rule="evenodd"
          d="M13.8077 13.5318C13.3658 14.0578 12.7031 14.3924 11.9623 14.3924C10.6318 14.3924 9.5532 13.3138 9.5532 11.9832C9.5532 10.6527 10.6318 9.57413 11.9623 9.57413C12.7031 9.57413 13.3658 9.90866 13.8077 10.4348L14.7304 9.66053C14.0675 8.87136 13.0736 8.36957 11.9623 8.36957C9.96653 8.36957 8.34863 9.98746 8.34863 11.9832C8.34863 13.979 9.96653 15.5969 11.9623 15.5969C12.9808 15.5969 13.9004 15.1753 14.5573 14.4974L13.8077 13.5318Z"
          fill="black"/>
</svg>
