<svg width="24" height="24" viewBox="0 0 24 24" fill="none" xmlns="http://www.w3.org/2000/svg">
<circle cx="12" cy="12" r="12" fill="#240E32"/>
<path fill-rule="evenodd" clip-rule="evenodd" d="M12 23C18.0751 23 23 18.0751 23 12C23 5.92487 18.0751 1 12 1C5.92487 1 1 5.92487 1 12C1 18.0751 5.92487 23 12 23ZM12 24C18.6274 24 24 18.6274 24 12C24 5.37258 18.6274 0 12 0C5.37258 0 0 5.37258 0 12C0 18.6274 5.37258 24 12 24Z" fill="#F0F3F8"/>
<g clip-path="url(#clip0_18337_19279)">
<path d="M17.9973 12.9786C18.1621 12.8141 18.3742 12.6023 18.5848 12.3922C19.0545 11.9232 19.0547 11.1627 18.585 10.6935L18.0874 10.1965C16.3058 11.976 13.6398 12.3335 11.5025 11.2693C12.9471 11.5361 14.4441 11.3283 15.7707 10.6159C16.6581 10.1393 16.8266 8.93719 16.1141 8.22561L13.1765 5.29153C12.5201 4.6359 11.456 4.6359 10.7998 5.29153L7.63342 8.4541C9.7187 7.56922 12.2237 7.97946 13.9196 9.68507C11.3323 8.43073 8.12705 8.87576 5.9788 11.0212C5.81401 11.1858 5.60167 11.3979 5.39108 11.6082C4.9216 12.0774 4.92185 12.8374 5.39108 13.3063L5.88844 13.8031C7.67001 12.0237 10.336 11.6661 12.4733 12.7303C11.0288 12.4635 9.53174 12.6713 8.20521 13.3837C7.31778 13.8603 7.14926 15.0624 7.86169 15.774L10.7993 18.7081C11.4557 19.3637 12.5199 19.3637 13.1761 18.7081L16.3424 15.5455C14.2571 16.4304 11.7522 16.0202 10.056 14.3145C12.6433 15.5689 15.8486 15.1238 17.9968 12.9784L17.9973 12.9786Z" fill="#F6287C"/>
</g>
<defs>
<clipPath id="clip0_18337_19279">
<rect width="13.9213" height="14.4" fill="white" transform="translate(5.03906 4.7998)"/>
</clipPath>
</defs>
</svg>
